<svg width="246" height="225" viewBox="0 0 246 225" fill="none" xmlns="http://www.w3.org/2000/svg">
<path d="M156.993 199.966H97.3998V200.123H156.993V199.966Z" fill="#E0E0E0"/>
<path d="M71.9067 207.719H52.9078V207.876H71.9067V207.719Z" fill="#E0E0E0"/>
<path d="M226.494 202.129H177.035V202.286H226.494V202.129Z" fill="#E0E0E0"/>
<path d="M231.24 123.266H215.221V196.601H231.24V123.266Z" fill="#E0E0E0"/>
<path d="M228.198 196.601H231.241V187.942H225.01L228.198 196.601Z" fill="#F0F0F0"/>
<path d="M171.377 123.266H155.358V196.601H171.377V123.266Z" fill="#E0E0E0"/>
<path d="M231.24 123.266H168.718V191.288H231.24V123.266Z" fill="#F0F0F0"/>
<path d="M201.001 157.978V180.465H228.883V157.978H201.001Z" fill="#E0E0E0"/>
<path d="M171.081 157.978V180.465H198.963V157.978H171.081Z" fill="#E0E0E0"/>
<path d="M187.779 160.405H182.26C181.074 160.405 179.901 160.163 178.813 159.694C177.724 159.224 176.743 158.538 175.929 157.676H194.11C193.296 158.538 192.315 159.224 191.226 159.694C190.138 160.163 188.965 160.405 187.779 160.405Z" fill="#F0F0F0"/>
<path d="M217.981 160.405H212.468C211.281 160.405 210.108 160.163 209.018 159.694C207.928 159.225 206.946 158.538 206.131 157.676H224.318C223.503 158.537 222.52 159.224 221.431 159.693C220.341 160.162 219.167 160.404 217.981 160.405Z" fill="#F0F0F0"/>
<path d="M201.001 128.385V150.872H228.883V128.385H201.001Z" fill="#E0E0E0"/>
<path d="M171.075 128.391V150.878H198.957V128.391H171.075Z" fill="#E0E0E0"/>
<path d="M187.779 130.812H182.26C181.075 130.811 179.903 130.57 178.814 130.102C177.726 129.633 176.744 128.949 175.929 128.089H194.11C193.295 128.949 192.313 129.633 191.225 130.102C190.136 130.57 188.964 130.811 187.779 130.812Z" fill="#F0F0F0"/>
<path d="M217.981 130.812H212.468C211.282 130.811 210.109 130.57 209.019 130.102C207.93 129.634 206.947 128.949 206.131 128.089H224.318C223.501 128.948 222.518 129.633 221.429 130.101C220.34 130.569 219.167 130.811 217.981 130.812Z" fill="#F0F0F0"/>
<path d="M171.761 196.601H168.718V187.942H174.954L171.761 196.601Z" fill="#F0F0F0"/>
<path d="M184.183 111.777C184.183 114.581 186.132 116.531 183.328 116.531C180.524 116.531 174.036 114.581 174.036 111.777C174.036 110.431 174.571 109.14 175.522 108.188C176.474 107.237 177.764 106.702 179.11 106.702C180.455 106.702 181.746 107.237 182.697 108.188C183.649 109.14 184.183 110.431 184.183 111.777Z" fill="#E0E0E0"/>
<path d="M192.865 114.198C192.865 116.996 194.814 118.952 192.01 118.952C189.207 118.952 182.693 116.996 182.693 114.198C182.693 112.852 183.228 111.561 184.179 110.609C185.131 109.658 186.421 109.123 187.767 109.123C189.112 109.123 190.403 109.658 191.354 110.609C192.306 111.561 192.84 112.852 192.84 114.198H192.865Z" fill="#E0E0E0"/>
<path d="M201.183 112.714C201.183 115.512 203.132 117.468 200.328 117.468C197.524 117.468 191.036 115.512 191.036 112.714C191.036 111.368 191.571 110.077 192.522 109.125C193.474 108.174 194.764 107.639 196.11 107.639C197.455 107.639 198.746 108.174 199.697 109.125C200.649 110.077 201.183 111.368 201.183 112.714Z" fill="#E0E0E0"/>
<path d="M170.931 113.343C170.931 113.343 171.346 123.241 187.245 123.241C203.144 123.241 203.553 113.343 203.553 113.343H170.931Z" fill="#E6E6E6"/>
<path d="M231.907 91.8928H151.291V98.2504H231.907V91.8928Z" fill="#E0E0E0"/>
<path d="M35.8139 22.5629H27.2261V45.9998H35.8139V22.5629Z" fill="#E6E6E6"/>
<path d="M15.4885 51.3639L12.76 58.8094H15.4885L32.1864 51.3639H15.4885Z" fill="#F0F0F0"/>
<path d="M12.76 51.3639V58.8094L29.4641 51.3639H12.76Z" fill="#E0E0E0"/>
<path d="M80.9722 51.3639L78.25 58.8094H80.9722L97.6763 51.3639H80.9722Z" fill="#F0F0F0"/>
<path d="M78.25 51.3639V58.8094L94.9478 51.3639H78.25Z" fill="#E0E0E0"/>
<path d="M0.506996 51.7161H18.6697V46.0502H0.506996V51.7161Z" fill="#E0E0E0"/>
<path d="M108.961 46.0502H18.6633V51.716H108.961V46.0502Z" fill="#F0F0F0"/>
<path d="M50.1164 45.9999H29.2127L26.6288 17.595H47.5325L50.1164 45.9999Z" fill="#E0E0E0"/>
<path d="M51.1977 45.9999H30.3003L27.7101 17.595H48.6138L51.1977 45.9999Z" fill="#F0F0F0"/>
<path d="M33.1545 42.8557L31.1427 20.7393H45.7596L47.7714 42.8557H33.1545Z" fill="#FAFAFA"/>
<path d="M59.6348 36.7748C59.6348 36.7748 60.0183 45.9999 74.8364 45.9999C89.6544 45.9999 90.0379 36.7748 90.0379 36.7748H59.6348Z" fill="#E6E6E6"/>
<path d="M120.736 116.342H79.4885V196.601H120.736V116.342Z" fill="#E0E0E0"/>
<path d="M122.289 116.342H118.888V196.601H122.289V116.342Z" fill="#EBEBEB"/>
<path d="M41.3212 122.36L123.339 122.36V116.342L41.3212 116.342V122.36Z" fill="#EBEBEB"/>
<path d="M42.3773 116.342H38.9761V196.601H42.3773V116.342Z" fill="#EBEBEB"/>
<path d="M28.0559 92.3833H66.4937L72.0638 115.085H33.626L28.0559 92.3833Z" fill="#E0E0E0"/>
<path d="M33.626 115.085L33.7831 116.342H72.2209L72.07 115.085H33.626Z" fill="#E0E0E0"/>
<path d="M29.2441 92.3833H67.6819L73.252 115.085H34.8143L29.2441 92.3833Z" fill="#F0F0F0"/>
<path d="M35.6252 114.047L30.5643 93.4209H66.8646L71.9255 114.047H35.6252Z" fill="#FAFAFA"/>
<path d="M44.8292 115.085L44.9801 116.342H87.3094L87.1522 115.085H44.8292Z" fill="#F0F0F0"/>
<path d="M108.345 196.601H106.912L102.806 176.378L102.09 172.837L97.6135 150.828H80.4567L71.1585 196.601H69.7251L79.1994 149.954C79.2302 149.795 79.3156 149.652 79.4408 149.55C79.566 149.448 79.723 149.393 79.8846 149.394H98.1856C98.3472 149.393 98.5043 149.448 98.6294 149.55C98.7546 149.652 98.8401 149.795 98.8709 149.954L102.8 169.31L103.523 172.85L108.345 196.601Z" fill="#EBEBEB"/>
<path d="M135.888 196.601H134.448L125.15 150.803H107.999L103.523 172.85L102.807 176.378L98.7012 196.601H97.2678L102.09 172.837L102.8 169.31L106.736 149.954C106.767 149.795 106.852 149.652 106.977 149.55C107.102 149.448 107.259 149.393 107.421 149.394H125.722C125.884 149.394 126.041 149.449 126.167 149.551C126.293 149.653 126.38 149.795 126.414 149.954L135.888 196.601Z" fill="#EBEBEB"/>
<path d="M93.6025 150.099H125.125C128.017 150.096 130.793 148.96 132.857 146.935C134.922 144.909 136.112 142.156 136.171 139.264L137.346 91.3457C137.363 90.2776 137.167 89.2167 136.771 88.2249C136.374 87.2331 135.784 86.33 135.035 85.5682C134.286 84.8064 133.394 84.201 132.409 83.7873C131.424 83.3736 130.367 83.1597 129.299 83.1582H109.54C107.562 83.1592 105.653 83.8877 104.178 85.205C102.702 86.5222 101.762 88.3363 101.537 90.3019L93.6025 150.099Z" fill="#E6E6E6"/>
<path d="M110.791 150.099H77.2001C76.7832 150.099 76.3834 149.933 76.0887 149.638C75.7939 149.343 75.6283 148.943 75.6283 148.526V148.375C75.6283 147.23 76.0834 146.131 76.8934 145.321C77.7033 144.51 78.8019 144.055 79.9474 144.055H110.791V150.099Z" fill="#E6E6E6"/>
<path d="M123.597 225C190.918 225 245.492 221.813 245.492 217.881C245.492 213.95 190.918 210.763 123.597 210.763C56.2756 210.763 1.70105 213.95 1.70105 217.881C1.70105 221.813 56.2756 225 123.597 225Z" fill="#F5F5F5"/>
<path d="M140.22 63.5509L140.628 63.8968C140.779 64.0288 140.949 64.1546 141.112 64.2803C141.439 64.5382 141.741 64.796 142.118 65.0413C142.797 65.538 143.52 65.9908 144.243 66.4436C145.702 67.3427 147.23 68.1229 148.814 68.7766C150.391 69.4487 152.015 70.0036 153.674 70.4367C154.088 70.5499 154.516 70.6254 154.931 70.7197L155.56 70.858C155.692 70.858 155.56 70.8581 155.56 70.8895C155.474 70.9096 155.393 70.9459 155.321 70.9964C155.264 71.053 155.264 71.053 155.289 71.0404C155.414 70.856 155.511 70.6549 155.578 70.443C155.802 69.7174 155.939 68.9682 155.987 68.2106C156.063 67.3868 156.088 66.519 156.081 65.6449C156.081 63.8905 155.943 62.0983 155.805 60.2998C155.667 58.5013 155.446 56.6965 155.214 54.8854C154.981 53.0744 154.723 51.2633 154.453 49.4774L156.817 48.9366C157.858 52.5257 158.698 56.1703 159.332 59.8533C159.661 61.7262 159.89 63.6155 160.017 65.5129C160.091 66.492 160.114 67.4743 160.086 68.4559C160.077 69.5394 159.94 70.618 159.678 71.6693C159.5 72.3415 159.211 72.9792 158.822 73.5558C158.551 73.9489 158.212 74.2915 157.823 74.5682C157.376 74.8879 156.862 75.1028 156.32 75.1971C155.854 75.2756 155.378 75.2756 154.912 75.1971L154.189 75.0776C153.705 74.9958 153.215 74.933 152.737 74.826C150.809 74.4431 148.916 73.9004 147.079 73.2036C145.241 72.4985 143.465 71.6447 141.766 70.6505C140.918 70.1412 140.088 69.6067 139.283 69.0218C138.881 68.7326 138.485 68.393 138.088 68.1163C137.894 67.9528 137.699 67.7956 137.504 67.6195C137.309 67.4434 137.127 67.2988 136.875 67.0598L140.22 63.5509Z" fill="#E4897B"/>
<path d="M133.386 60.6896C140.301 59.7527 145.859 65.3305 145.859 65.3305L139.534 75.0901C139.534 75.0901 132.757 70.7511 131.563 67.7956C130.33 64.7205 129.846 61.1487 133.386 60.6896Z" fill="#407BFF"/>
<path opacity="0.6" d="M133.386 60.6896C140.301 59.7527 145.859 65.3305 145.859 65.3305L139.534 75.0901C139.534 75.0901 132.757 70.7511 131.563 67.7956C130.33 64.7205 129.846 61.1487 133.386 60.6896Z" fill="#FAFAFA"/>
<path d="M154.51 50.3263L152.215 45.7232L158.231 45.6729C158.231 45.6729 158.351 48.8862 156.829 50.7036L154.51 50.3263Z" fill="#E4897B"/>
<path d="M153.284 40.7742L157.76 41.5728L158.231 45.6729L152.215 45.7232L153.284 40.7742Z" fill="#E4897B"/>
<path d="M108.93 212.618L114.563 213.159L118.461 199.928L112.828 199.381L108.93 212.618Z" fill="#E4897B"/>
<path d="M73.1138 193.049L77.2882 196.972L86.3036 187.062L82.1291 183.138L73.1138 193.049Z" fill="#E4897B"/>
<path d="M79.2183 195.092L76.0749 189.433C76.0215 189.336 75.9348 189.261 75.8308 189.223C75.7268 189.185 75.6126 189.186 75.5091 189.225L70.6745 191.061C70.5548 191.113 70.4472 191.189 70.3587 191.284C70.2702 191.38 70.2027 191.493 70.1606 191.616C70.1185 191.739 70.1028 191.87 70.1144 192C70.1261 192.13 70.1648 192.255 70.2282 192.369C71.3535 194.319 72.001 195.205 73.3716 197.689C74.2203 199.224 75.8863 202.72 77.0494 204.846C78.2124 206.971 80.3688 205.908 80.0734 204.927C78.728 200.525 78.9857 198.054 79.3629 196.124C79.4386 195.773 79.3873 195.408 79.2183 195.092Z" fill="#263238"/>
<path d="M115.223 211.442H108.396C108.273 211.443 108.155 211.485 108.059 211.56C107.962 211.635 107.893 211.739 107.861 211.857L106.371 217.259C106.336 217.387 106.331 217.521 106.357 217.651C106.383 217.781 106.438 217.904 106.519 218.009C106.6 218.113 106.705 218.198 106.824 218.256C106.944 218.313 107.075 218.342 107.207 218.341C109.615 218.341 110.753 218.341 113.758 218.341H122.931C125.445 218.341 125.948 215.825 124.917 215.586C120.29 214.567 117.618 213.153 116.191 211.813C115.927 211.572 115.581 211.439 115.223 211.442Z" fill="#263238"/>
<path d="M118.461 199.928L116.449 206.751H110.653L112.822 199.387L118.461 199.928Z" fill="#CE6F64"/>
<path d="M82.1229 183.144L86.3037 187.062L81.6514 192.168L77.4769 188.25L82.1229 183.144Z" fill="#CE6F64"/>
<path d="M140.201 56.7845C140.157 52.2128 136.02 50.6155 136.02 50.6155C136.02 50.6155 141.194 40.8182 138.535 34.3159C135.875 27.8137 127.111 26.6692 124.333 29.7065C119.448 29.499 117.895 36.5169 117.895 36.5169C117.895 36.5169 113.809 37.2023 112.708 40.1767C111.608 43.1512 114.959 46.5029 114.959 46.5029C114.959 46.5029 110.294 47.1317 108.578 50.7224C106.862 54.3131 107.918 59.0798 113.073 63.1924C120.567 69.1664 134.341 61.6706 134.341 61.6706C134.341 61.6706 140.251 62.0416 140.201 56.7845Z" fill="#263238"/>
<path d="M139.314 61.331C139.314 61.331 141.829 62.4315 133.43 95.6155L110.168 93.597C111.376 84.1643 111.897 78.3035 109.049 58.4572C112.368 58.0646 115.711 57.9154 119.052 58.0107C122.594 58.0641 126.127 58.3688 129.626 58.9226C132.894 59.563 136.127 60.3668 139.314 61.331Z" fill="#407BFF"/>
<path opacity="0.6" d="M139.314 61.331C139.314 61.331 141.829 62.4315 133.43 95.6155L110.168 93.597C111.376 84.1643 111.897 78.3035 109.049 58.4572C112.368 58.0646 115.711 57.9154 119.052 58.0107C122.594 58.0641 126.127 58.3688 129.626 58.9226C132.894 59.563 136.127 60.3668 139.314 61.331Z" fill="#FAFAFA"/>
<path d="M133.285 59.7086C132.078 59.4194 130.771 59.1427 129.576 58.9226C126.077 58.3667 122.544 58.0599 119.002 58.0044C117.788 57.9604 116.575 57.9604 115.437 58.0044L116.216 59.4885C116.355 59.7526 119.674 65.9467 125.98 69.462L127.715 70.4304L129.331 69.2796C133.405 66.3681 134.008 62.5824 133.285 59.7086Z" fill="#FAFAFA"/>
<path d="M121.082 46.1885C121.453 49.6534 121.579 55.9481 119.008 58.0107C119.008 58.0107 121.95 63.6011 127.52 66.7013C132.449 63.1924 129.582 58.9225 129.582 58.9225C125.867 57.6649 126.206 54.8854 127.068 52.2945L121.082 46.1885Z" fill="#E4897B"/>
<path d="M123.528 48.6787L127.086 52.2946C126.87 52.8954 126.706 53.514 126.596 54.1434C125.169 53.8101 123.094 52.3197 123.069 50.7853C123.098 50.0617 123.253 49.3486 123.528 48.6787Z" fill="#CE6F64"/>
<path d="M120.932 38.328C120.246 43.9876 119.838 46.3834 122.145 49.7855C125.615 54.8917 132.732 54.4892 135.09 49.1566C137.215 44.3397 137.975 35.8755 132.889 32.637C131.774 31.919 130.494 31.4977 129.171 31.4131C127.847 31.3284 126.524 31.583 125.327 32.153C124.129 32.7229 123.097 33.5892 122.328 34.6698C121.559 35.7505 121.078 37.0096 120.932 38.328Z" fill="#E4897B"/>
<path d="M125.32 31.3541C129.689 32.486 125.37 45.7798 118.404 41.925C118.404 41.925 118.719 36.3094 120.655 33.9261C121.826 32.5062 123.494 31.5864 125.32 31.3541Z" fill="#263238"/>
<path d="M124.854 32.0898C126.741 35.1586 140.729 40.9754 136.026 34.3725C131.324 27.7697 124.854 32.0898 124.854 32.0898Z" fill="#263238"/>
<path d="M119.133 43.2267C119.055 44.3293 119.414 45.4183 120.133 46.2578C121.101 47.3582 122.377 46.6917 122.78 45.3585C123.138 44.1637 123.069 42.1514 121.78 41.5352C121.496 41.4097 121.185 41.3565 120.875 41.3803C120.565 41.4041 120.266 41.5042 120.004 41.6716C119.742 41.839 119.525 42.0686 119.373 42.3399C119.222 42.6112 119.139 42.9159 119.133 43.2267Z" fill="#E4897B"/>
<path d="M133.405 95.6155C133.405 95.6155 141.282 130.479 136.026 155.054C132.506 171.517 119.8 204.77 119.8 204.77L109.867 204.519C109.867 204.519 119.479 169.618 121.472 155.896C124.873 132.415 116.355 94.1378 116.355 94.1378L133.405 95.6155Z" fill="#263238"/>
<path d="M124.32 102.652L119.354 110.488C120.85 119.779 121.799 129.15 122.195 138.553C129.18 126.045 125.873 109.274 124.32 102.652Z" fill="#263238"/>
<path d="M120.617 205.286L108.345 204.971L109.056 201.205L122.453 201.84L120.617 205.286Z" fill="#407BFF"/>
<path opacity="0.6" d="M120.617 205.286L108.345 204.971L109.056 201.205L122.453 201.84L120.617 205.286Z" fill="#FAFAFA"/>
<path d="M128.312 95.2383C128.312 95.2383 123.691 132.214 113.67 152.4C105.579 168.681 83.9901 191.948 83.9901 191.948L78.4702 186.257C78.4702 186.257 93.0557 161.034 99.0722 150.199C113.821 123.643 101.763 103.382 110.124 93.6033L128.312 95.2383Z" fill="#263238"/>
<path d="M84.5433 192.677L77.4141 185.729L79.7842 182.509L87.5485 190.539L84.5433 192.677Z" fill="#407BFF"/>
<path opacity="0.6" d="M84.5433 192.677L77.4141 185.729L79.7842 182.509L87.5485 190.539L84.5433 192.677Z" fill="#FAFAFA"/>
<path d="M109.886 92.201L108.66 94.1944C108.559 94.3516 108.741 94.534 109.005 94.5528L133.43 96.6657C133.644 96.6657 133.826 96.5966 133.851 96.4645L134.241 94.4019C134.241 94.2573 134.096 94.1189 133.864 94.1001L110.282 92.0563C110.209 92.0441 110.134 92.0511 110.065 92.0764C109.995 92.1018 109.933 92.1447 109.886 92.201Z" fill="#407BFF"/>
<path opacity="0.3" d="M109.886 92.201L108.66 94.1944C108.559 94.3516 108.741 94.534 109.005 94.5528L133.43 96.6657C133.644 96.6657 133.826 96.5966 133.851 96.4645L134.241 94.4019C134.241 94.2573 134.096 94.1189 133.864 94.1001L110.282 92.0563C110.209 92.0441 110.134 92.0511 110.065 92.0764C109.995 92.1018 109.933 92.1447 109.886 92.201Z" fill="black"/>
<path d="M112.828 95.1062L112.199 95.0496C112.073 95.0496 111.985 94.9678 111.998 94.8861L112.532 92.2072C112.532 92.1255 112.664 92.0689 112.79 92.0815L113.419 92.1381C113.544 92.1381 113.632 92.2198 113.62 92.3016L113.092 94.9804C113.067 95.0685 112.953 95.1062 112.828 95.1062Z" fill="#263238"/>
<path d="M131.638 96.7412L131.009 96.6846C130.884 96.6846 130.796 96.6029 130.808 96.5211L131.343 93.836C131.343 93.7605 131.475 93.7039 131.6 93.7165L132.229 93.7731C132.355 93.7731 132.443 93.8548 132.43 93.9303L131.902 96.6154C131.877 96.6972 131.77 96.7475 131.638 96.7412Z" fill="#263238"/>
<path d="M122.233 95.9238L121.604 95.8735C121.478 95.8735 121.39 95.7854 121.403 95.71L121.937 93.0248C121.937 92.9493 122.069 92.8927 122.195 92.9053L122.824 92.9556C122.95 92.9556 123.038 93.0437 123.025 93.1191L122.497 95.8043C122.472 95.8797 122.34 95.9363 122.233 95.9238Z" fill="#263238"/>
<path d="M129.148 41.4533C129.067 41.9061 129.243 42.3211 129.538 42.3777C129.833 42.4343 130.166 42.1073 130.229 41.6483C130.292 41.1892 130.141 40.7742 129.84 40.7239C129.538 40.6735 129.255 41.0257 129.148 41.4533Z" fill="#263238"/>
<path d="M134.285 42.3966C134.203 42.8494 134.379 43.2644 134.675 43.321C134.97 43.3776 135.303 43.0506 135.366 42.5916C135.429 42.1325 135.278 41.7175 134.976 41.6672C134.675 41.6169 134.398 41.9376 134.285 42.3966Z" fill="#263238"/>
<path d="M134.87 41.6545L136.02 41.5414C136.02 41.5414 135.303 42.2829 134.87 41.6545Z" fill="#263238"/>
<path d="M132.801 42.9122C133.021 44.0282 133.391 45.1092 133.901 46.1256C133.637 46.2487 133.35 46.3125 133.059 46.3125C132.768 46.3125 132.48 46.2487 132.216 46.1256L132.801 42.9122Z" fill="#DE5753"/>
<path d="M130.305 47.6349C129.692 47.5398 129.11 47.2989 128.609 46.9323C128.108 46.5657 127.702 46.0842 127.426 45.5282C127.415 45.5007 127.416 45.4702 127.428 45.4432C127.44 45.4162 127.461 45.3948 127.489 45.3836C127.502 45.3774 127.516 45.374 127.531 45.3735C127.545 45.373 127.56 45.3755 127.573 45.3808C127.587 45.3861 127.599 45.3941 127.609 45.4043C127.62 45.4145 127.628 45.4267 127.633 45.4402C127.898 45.9584 128.282 46.4068 128.753 46.7488C129.223 47.0909 129.768 47.3169 130.343 47.4085C130.373 47.4085 130.402 47.4204 130.423 47.4416C130.444 47.4629 130.456 47.4916 130.456 47.5217C130.456 47.5517 130.444 47.5805 130.423 47.6017C130.402 47.6229 130.373 47.6349 130.343 47.6349H130.305Z" fill="#263238"/>
<path d="M127.922 37.8815C127.874 37.8824 127.827 37.868 127.788 37.8403C127.749 37.8127 127.719 37.7732 127.704 37.7277C127.688 37.6822 127.688 37.6329 127.702 37.5871C127.717 37.5412 127.745 37.5012 127.784 37.4727C128.115 37.2059 128.506 37.0226 128.923 36.9383C129.34 36.8541 129.771 36.8713 130.179 36.9885C130.208 36.9984 130.233 37.0137 130.256 37.0336C130.278 37.0535 130.296 37.0776 130.309 37.1044C130.321 37.1313 130.329 37.1604 130.33 37.1902C130.332 37.2199 130.328 37.2497 130.318 37.2778C130.308 37.3059 130.293 37.3318 130.273 37.3539C130.253 37.3761 130.229 37.3941 130.202 37.407C130.175 37.4198 130.146 37.4273 130.116 37.4288C130.086 37.4304 130.057 37.4261 130.029 37.4161C129.691 37.3234 129.337 37.3127 128.994 37.3849C128.652 37.457 128.332 37.6101 128.061 37.8312C128.021 37.8613 127.973 37.8789 127.922 37.8815Z" fill="#263238"/>
<path d="M137.227 40.661C137.194 40.6609 137.16 40.6535 137.13 40.6394C137.1 40.6253 137.073 40.6048 137.051 40.5793C136.836 40.3022 136.559 40.0798 136.243 39.9301C135.926 39.7804 135.578 39.7076 135.228 39.7177C135.168 39.7231 135.109 39.7052 135.062 39.6677C135.015 39.6302 134.984 39.576 134.976 39.5165C134.973 39.4871 134.975 39.4573 134.984 39.4289C134.992 39.4004 135.006 39.374 135.025 39.3511C135.044 39.3282 135.067 39.3093 135.093 39.2956C135.119 39.2819 135.148 39.2736 135.178 39.2713C135.603 39.2493 136.028 39.3305 136.415 39.5079C136.803 39.6852 137.142 39.9535 137.403 40.29C137.444 40.3332 137.467 40.3907 137.467 40.4503C137.467 40.51 137.444 40.5674 137.403 40.6107C137.353 40.649 137.29 40.667 137.227 40.661Z" fill="#263238"/>
<path d="M110.766 66.8083C109.82 68.6848 108.771 70.507 107.622 72.2666C106.491 74.0022 105.296 75.7001 104.007 77.3351C102.705 78.9759 101.309 80.5402 99.8267 82.02C99.0597 82.7432 98.3115 83.4789 97.488 84.1581L96.8593 84.6737L96.7084 84.7995L96.5072 84.9567C96.3746 85.0649 96.2361 85.1657 96.0923 85.2585C95.5207 85.6503 94.899 85.9633 94.244 86.1892C93.0103 86.5916 91.7069 86.7351 90.4153 86.6105C89.2583 86.4948 88.1188 86.2436 87.0204 85.8622C84.9855 85.1521 83.0452 84.1954 81.2428 83.0136C77.7748 80.7634 74.5805 78.117 71.7245 75.1279L73.3968 73.3734C74.8993 74.5808 76.4836 75.7819 78.1056 76.8698C79.6944 77.9829 81.3487 78.9993 83.0597 79.9134C84.6887 80.8084 86.4084 81.5273 88.1897 82.0577C89.8872 82.5294 91.5909 82.6111 92.7665 82.1206C93.4308 81.8317 94.0248 81.4027 94.508 80.8629C95.2058 80.2341 95.8534 79.5361 96.5135 78.8569C97.8023 77.4546 98.9968 75.9517 100.172 74.455C101.348 72.9584 102.411 71.3108 103.442 69.6758C103.963 68.8583 104.46 68.0282 104.95 67.1982C105.441 66.3681 105.912 65.494 106.321 64.7142L110.766 66.8083Z" fill="#E4897B"/>
<path d="M74.9873 74.1217L72.7492 69.4934L69.0273 74.2223C69.0273 74.2223 71.4918 76.2786 73.8871 76.2032L74.9873 74.1217Z" fill="#E4897B"/>
<path d="M70.3036 68.1414L68.1975 72.1723L69.0274 74.2223L72.7492 69.4934L70.3036 68.1414Z" fill="#E4897B"/>
<path d="M108.999 58.4572C106.145 58.9603 102.14 67.1541 102.14 67.1541L109.98 74.2412C109.98 74.2412 115.06 67.4183 114.758 63.6955C114.5 60.5198 112.633 57.8158 108.999 58.4572Z" fill="#407BFF"/>
<path opacity="0.6" d="M108.999 58.4572C106.145 58.9603 102.14 67.1541 102.14 67.1541L109.98 74.2412C109.98 74.2412 115.06 67.4183 114.758 63.6955C114.5 60.5198 112.633 57.8158 108.999 58.4572Z" fill="#FAFAFA"/>
<path d="M80.3186 198.13C80.2436 198.13 80.169 198.117 80.0985 198.092C79.4133 197.865 78.9669 196.601 78.7594 195.866C78.7533 195.844 78.7536 195.822 78.7603 195.8C78.767 195.779 78.7798 195.76 78.7972 195.746C78.8163 195.735 78.8379 195.729 78.86 195.729C78.8821 195.729 78.9038 195.735 78.9229 195.746C79.1304 195.853 80.9535 196.834 81.0101 197.551C81.0187 197.63 81.0049 197.709 80.9705 197.78C80.936 197.851 80.8822 197.911 80.8152 197.953C80.6736 198.065 80.499 198.127 80.3186 198.13ZM79.0612 196.067C79.3755 197.079 79.7842 197.746 80.174 197.878C80.2629 197.905 80.3572 197.908 80.4476 197.887C80.538 197.866 80.6213 197.821 80.6895 197.759C80.7238 197.738 80.7516 197.708 80.7694 197.673C80.7873 197.637 80.7944 197.597 80.7901 197.557C80.7524 197.117 79.6836 196.419 79.0549 196.067H79.0612Z" fill="#407BFF"/>
<path d="M80.6015 196.35C79.9799 196.348 79.3672 196.203 78.8097 195.929C78.7921 195.92 78.7774 195.907 78.7674 195.89C78.7573 195.873 78.7524 195.854 78.7531 195.834C78.7533 195.813 78.7592 195.793 78.7703 195.775C78.7814 195.757 78.7972 195.743 78.816 195.734C78.8726 195.734 80.3185 194.91 81.0981 195.187C81.194 195.218 81.2816 195.27 81.3545 195.34C81.4274 195.409 81.4838 195.495 81.5193 195.589C81.569 195.68 81.5861 195.785 81.5678 195.887C81.5495 195.988 81.4969 196.081 81.4187 196.149C81.1756 196.303 80.8885 196.374 80.6015 196.35ZM79.1178 195.834C79.7464 196.098 80.9347 196.262 81.2741 195.973C81.3307 195.929 81.381 195.847 81.3119 195.671C81.2869 195.607 81.248 195.55 81.1979 195.503C81.1479 195.456 81.088 195.421 81.0227 195.4C80.4883 195.212 79.5264 195.633 79.1178 195.834Z" fill="#407BFF"/>
<path d="M118.253 212.549C117.618 212.534 116.986 212.454 116.367 212.31C116.344 212.305 116.323 212.292 116.307 212.274C116.291 212.256 116.281 212.233 116.279 212.209C116.276 212.186 116.28 212.163 116.292 212.142C116.303 212.122 116.321 212.106 116.342 212.096C116.625 211.964 119.096 210.838 119.724 211.241C119.781 211.28 119.825 211.333 119.854 211.395C119.883 211.457 119.894 211.525 119.888 211.593C119.88 211.716 119.846 211.836 119.788 211.945C119.729 212.054 119.647 212.148 119.548 212.222C119.159 212.459 118.708 212.573 118.253 212.549ZM116.782 212.159C117.518 212.297 118.876 212.473 119.435 212.052C119.509 211.997 119.57 211.926 119.614 211.844C119.657 211.763 119.682 211.673 119.687 211.58C119.69 211.552 119.687 211.523 119.676 211.497C119.665 211.47 119.647 211.447 119.624 211.43C119.272 211.191 117.807 211.706 116.782 212.159Z" fill="#407BFF"/>
<path d="M116.418 212.31C116.394 212.32 116.366 212.32 116.342 212.31C116.327 212.296 116.315 212.278 116.308 212.258C116.302 212.239 116.3 212.217 116.305 212.197C116.305 212.096 116.895 209.65 118.235 209.807C118.574 209.845 118.662 210.015 118.681 210.147C118.769 210.776 117.204 212.033 116.462 212.329L116.418 212.31ZM118.115 210.002C117.254 210.002 116.757 211.423 116.587 211.996C117.398 211.568 118.511 210.549 118.473 210.153C118.473 210.122 118.473 210.034 118.228 210.008L118.115 210.002Z" fill="#407BFF"/>
<path d="M129.708 40.7238L130.858 40.6044C130.858 40.6044 130.141 41.3585 129.708 40.7238Z" fill="#263238"/>
<path opacity="0.6" d="M82.4121 4.88611L63.9854 124.033L167.668 140.056L186.095 20.9027L82.4121 4.88611ZM125.012 72.6565C120.253 71.9198 115.819 69.7877 112.272 66.53C108.724 63.2723 106.223 59.0354 105.083 54.3553C103.944 49.6752 104.218 44.7622 105.871 40.2379C107.523 35.7135 110.481 31.7812 114.368 28.9383C118.256 26.0954 122.899 24.4697 127.71 24.267C132.522 24.0642 137.285 25.2934 141.398 27.7992C145.511 30.3049 148.788 33.9745 150.815 38.3437C152.843 42.713 153.529 47.5855 152.787 52.3449C151.793 58.7209 148.31 64.4416 143.102 68.2501C137.894 72.0586 131.387 73.6435 125.012 72.6565Z" fill="#407BFF"/>
<g style="mix-blend-mode:multiply" opacity="0.3">
<path d="M164.537 135.535H164.38L60.5402 119.442V119.285L79.0172 0H79.1681L183.008 16.0921V16.2493L164.537 135.535ZM60.8985 119.185L164.273 135.176L182.649 16.3248L79.275 0.35844L60.8985 119.185Z" fill="#407BFF"/>
</g>
<path d="M128.746 73.889C127.447 73.8876 126.15 73.7867 124.867 73.5872C118.417 72.5807 112.608 69.1147 108.658 63.9165C104.708 58.7183 102.925 52.1919 103.681 45.7067C104.438 39.2214 107.677 33.2814 112.717 29.1329C117.758 24.9845 124.209 22.95 130.717 23.4564C137.225 23.9629 143.284 26.9708 147.623 31.8491C151.962 36.7274 154.243 43.097 153.988 49.6213C153.733 56.1456 150.961 62.3175 146.255 66.8422C141.549 71.3668 135.274 73.8924 128.746 73.889ZM125.156 71.7258C129.728 72.4324 134.407 71.767 138.601 69.8139C142.796 67.8609 146.317 64.7077 148.719 60.7532C151.122 56.7987 152.298 52.2204 152.1 47.5971C151.901 42.9738 150.337 38.5132 147.604 34.7793C144.871 31.0453 141.093 28.2057 136.747 26.6194C132.401 25.0331 127.682 24.7714 123.188 25.8674C118.693 26.9634 114.624 29.3678 111.495 32.7767C108.367 36.1856 106.319 40.4459 105.61 45.0188C104.669 51.1519 106.198 57.4081 109.862 62.4149C113.527 67.4217 119.027 70.7702 125.156 71.7258Z" fill="#FAFAFA"/>
<path d="M104.984 80.028L82.1449 76.4955L81.3513 81.6287L104.19 85.1612L104.984 80.028Z" fill="#407BFF"/>
<path opacity="0.6" d="M104.984 80.028L82.1449 76.4955L81.3513 81.6287L104.19 85.1612L104.984 80.028Z" fill="#FAFAFA"/>
<path d="M123.444 82.884L107.992 80.4941L107.199 85.6274L122.65 88.0173L123.444 82.884Z" fill="#407BFF"/>
<path opacity="0.6" d="M123.444 82.884L107.992 80.4941L107.199 85.6274L122.65 88.0173L123.444 82.884Z" fill="#FAFAFA"/>
<path d="M163.122 99.6712L80.533 86.8972L79.7394 92.0304L162.329 104.804L163.122 99.6712Z" fill="#FAFAFA"/>
<path d="M120.588 103.985L79.4473 97.7498L78.6683 102.892L119.809 109.127L120.588 103.985Z" fill="#FAFAFA"/>
<path d="M154.418 109.501L126.944 105.251L126.151 110.384L153.624 114.634L154.418 109.501Z" fill="#FAFAFA"/>
<path d="M143.187 118.943L77.1615 108.731L76.3679 113.864L142.394 124.076L143.187 118.943Z" fill="#FAFAFA"/>
<path d="M187.201 140.056H186.572C186.575 138.495 186.383 136.941 186 135.428L186.629 135.277C187.018 136.84 187.21 138.445 187.201 140.056ZM184.737 131.931C183.353 129.036 181.262 126.535 178.657 124.662L179.022 124.153C181.712 126.085 183.874 128.662 185.309 131.648L184.737 131.931Z" fill="#407BFF"/>
<path opacity="0.6" d="M187.201 140.056H186.572C186.575 138.495 186.383 136.941 186 135.428L186.629 135.277C187.018 136.84 187.21 138.445 187.201 140.056ZM184.737 131.931C183.353 129.036 181.262 126.535 178.657 124.662L179.022 124.153C181.712 126.085 183.874 128.662 185.309 131.648L184.737 131.931Z" fill="#FAFAFA"/>
<path d="M167.668 122.719C164.24 122.719 160.889 123.736 158.038 125.641C155.188 127.546 152.966 130.253 151.654 133.421C150.342 136.589 149.999 140.075 150.668 143.438C151.337 146.801 152.988 149.89 155.412 152.315C157.836 154.74 160.924 156.391 164.286 157.06C167.649 157.729 171.134 157.386 174.301 156.073C177.468 154.761 180.175 152.539 182.08 149.688C183.984 146.837 185.001 143.485 185.001 140.056C185.001 135.458 183.174 131.048 179.924 127.797C176.673 124.545 172.265 122.719 167.668 122.719ZM167.668 155.148C164.684 155.148 161.766 154.263 159.285 152.605C156.804 150.946 154.87 148.589 153.728 145.831C152.586 143.074 152.287 140.039 152.869 137.112C153.451 134.184 154.889 131.495 156.999 129.384C159.109 127.273 161.797 125.836 164.724 125.254C167.651 124.671 170.685 124.97 173.442 126.112C176.199 127.255 178.555 129.189 180.213 131.671C181.871 134.153 182.756 137.071 182.756 140.056C182.756 144.059 181.167 147.897 178.337 150.728C175.507 153.558 171.669 155.148 167.668 155.148Z" fill="#407BFF"/>
<path opacity="0.6" d="M167.668 122.719C164.24 122.719 160.889 123.736 158.038 125.641C155.188 127.546 152.966 130.253 151.654 133.421C150.342 136.589 149.999 140.075 150.668 143.438C151.337 146.801 152.988 149.89 155.412 152.315C157.836 154.74 160.924 156.391 164.286 157.06C167.649 157.729 171.134 157.386 174.301 156.073C177.468 154.761 180.175 152.539 182.08 149.688C183.984 146.837 185.001 143.485 185.001 140.056C185.001 135.458 183.174 131.048 179.924 127.797C176.673 124.545 172.265 122.719 167.668 122.719ZM167.668 155.148C164.684 155.148 161.766 154.263 159.285 152.605C156.804 150.946 154.87 148.589 153.728 145.831C152.586 143.074 152.287 140.039 152.869 137.112C153.451 134.184 154.889 131.495 156.999 129.384C159.109 127.273 161.797 125.836 164.724 125.254C167.651 124.671 170.685 124.97 173.442 126.112C176.199 127.255 178.555 129.189 180.213 131.671C181.871 134.153 182.756 137.071 182.756 140.056C182.756 144.059 181.167 147.897 178.337 150.728C175.507 153.558 171.669 155.148 167.668 155.148Z" fill="#FAFAFA"/>
<path d="M167.668 155.142C175.997 155.142 182.75 148.388 182.75 140.056C182.75 131.724 175.997 124.97 167.668 124.97C159.338 124.97 152.586 131.724 152.586 140.056C152.586 148.388 159.338 155.142 167.668 155.142Z" fill="#407BFF"/>
<path opacity="0.2" d="M167.668 155.142C175.997 155.142 182.75 148.388 182.75 140.056C182.75 131.724 175.997 124.97 167.668 124.97C159.338 124.97 152.586 131.724 152.586 140.056C152.586 148.388 159.338 155.142 167.668 155.142Z" fill="black"/>
<path d="M165.323 149.602L156.471 140.748L158.697 138.528L165.323 145.156L176.646 133.83L178.865 136.056L165.323 149.602Z" fill="#FAFAFA"/>
</svg>
