<svg width="298" height="273" viewBox="0 0 298 273" fill="none" xmlns="http://www.w3.org/2000/svg">
<path d="M190.245 242.625H117.939V242.816H190.245V242.625Z" fill="#E0E0E0"/>
<path d="M87.0069 252.033H63.955V252.223H87.0069V252.033Z" fill="#E0E0E0"/>
<path d="M274.573 245.25H214.563V245.44H274.573V245.25Z" fill="#E0E0E0"/>
<path d="M280.332 149.562H260.895V238.543H280.332V149.562Z" fill="#E0E0E0"/>
<path d="M276.64 238.543H280.332V228.037H272.772L276.64 238.543Z" fill="#F0F0F0"/>
<path d="M207.698 149.562H188.261V238.543H207.698V149.562Z" fill="#E0E0E0"/>
<path d="M280.332 149.562H204.471V232.096H280.332V149.562Z" fill="#F0F0F0"/>
<path d="M243.641 191.68V218.965H277.471V191.68H243.641Z" fill="#E0E0E0"/>
<path d="M207.339 191.68V218.965H241.169V191.68H207.339Z" fill="#E0E0E0"/>
<path d="M227.599 194.625H220.902C219.464 194.625 218.041 194.331 216.72 193.762C215.399 193.192 214.208 192.359 213.22 191.314H235.281C234.293 192.359 233.102 193.192 231.781 193.762C230.46 194.331 229.037 194.625 227.599 194.625Z" fill="#F0F0F0"/>
<path d="M264.244 194.625H257.555C256.115 194.625 254.691 194.331 253.369 193.762C252.047 193.192 250.855 192.359 249.865 191.314H271.933C270.944 192.359 269.751 193.191 268.429 193.761C267.108 194.33 265.684 194.624 264.244 194.625Z" fill="#F0F0F0"/>
<path d="M243.641 155.773V183.058H277.471V155.773H243.641Z" fill="#E0E0E0"/>
<path d="M207.331 155.781V183.066H241.162V155.781H207.331Z" fill="#E0E0E0"/>
<path d="M227.599 158.718H220.902C219.464 158.718 218.042 158.424 216.721 157.857C215.401 157.289 214.21 156.458 213.22 155.415H235.281C234.291 156.458 233.1 157.289 231.779 157.857C230.459 158.424 229.037 158.718 227.599 158.718Z" fill="#F0F0F0"/>
<path d="M264.244 158.718H257.555C256.116 158.718 254.692 158.425 253.371 157.857C252.049 157.289 250.856 156.458 249.865 155.415H271.933C270.942 156.457 269.749 157.288 268.428 157.856C267.106 158.423 265.683 158.717 264.244 158.718Z" fill="#F0F0F0"/>
<path d="M208.163 238.543H204.471V228.037H212.038L208.163 238.543Z" fill="#F0F0F0"/>
<path d="M223.236 135.623C223.236 139.026 225.601 141.391 222.199 141.391C218.796 141.391 210.924 139.026 210.924 135.623C210.924 133.99 211.573 132.423 212.727 131.269C213.882 130.114 215.447 129.465 217.08 129.465C218.713 129.465 220.279 130.114 221.433 131.269C222.587 132.423 223.236 133.99 223.236 135.623Z" fill="#E0E0E0"/>
<path d="M233.77 138.56C233.77 141.955 236.135 144.328 232.733 144.328C229.331 144.328 221.428 141.955 221.428 138.56C221.428 136.927 222.077 135.361 223.231 134.206C224.386 133.051 225.951 132.403 227.584 132.403C229.217 132.403 230.782 133.051 231.937 134.206C233.091 135.361 233.74 136.927 233.74 138.56H233.77Z" fill="#E0E0E0"/>
<path d="M243.862 136.759C243.862 140.155 246.227 142.528 242.825 142.528C239.423 142.528 231.551 140.155 231.551 136.759C231.551 135.126 232.199 133.56 233.354 132.406C234.508 131.251 236.074 130.602 237.706 130.602C239.339 130.602 240.905 131.251 242.059 132.406C243.214 133.56 243.862 135.126 243.862 136.759Z" fill="#E0E0E0"/>
<path d="M207.156 137.522C207.156 137.522 207.66 149.532 226.951 149.532C246.242 149.532 246.738 137.522 246.738 137.522H207.156Z" fill="#E6E6E6"/>
<path d="M281.14 111.497H183.326V119.211H281.14V111.497Z" fill="#E0E0E0"/>
<path d="M43.2143 27.3763H32.7944V55.8132H43.2143V27.3763Z" fill="#E6E6E6"/>
<path d="M18.5529 62.3215L15.2423 71.3554H18.5529L38.8129 62.3215H18.5529Z" fill="#F0F0F0"/>
<path d="M15.2423 62.3215V71.3554L35.51 62.3215H15.2423Z" fill="#E0E0E0"/>
<path d="M98.0066 62.3215L94.7036 71.3554H98.0066L118.274 62.3215H98.0066Z" fill="#F0F0F0"/>
<path d="M94.7036 62.3215V71.3554L114.964 62.3215H94.7036Z" fill="#E0E0E0"/>
<path d="M0.375271 62.7488H22.4127V55.8742H0.375271V62.7488Z" fill="#E0E0E0"/>
<path d="M131.966 55.8742H22.405V62.7488H131.966V55.8742Z" fill="#F0F0F0"/>
<path d="M60.5681 55.8132H35.2049L32.0698 21.3487H57.433L60.5681 55.8132Z" fill="#E0E0E0"/>
<path d="M61.8801 55.8132H36.5245L33.3818 21.3487H58.745L61.8801 55.8132Z" fill="#F0F0F0"/>
<path d="M39.9877 51.9982L37.5467 25.1636H55.2819L57.7228 51.9982H39.9877Z" fill="#FAFAFA"/>
<path d="M72.1169 44.6201C72.1169 44.6201 72.5823 55.8132 90.5615 55.8132C108.541 55.8132 109.006 44.6201 109.006 44.6201H72.1169Z" fill="#E6E6E6"/>
<path d="M146.254 141.162H96.2063V238.543H146.254V141.162Z" fill="#E0E0E0"/>
<path d="M148.138 141.162H144.011V238.543H148.138V141.162Z" fill="#EBEBEB"/>
<path d="M49.8965 148.464H149.412V141.162H49.8965V148.464Z" fill="#EBEBEB"/>
<path d="M51.178 141.162H47.0512V238.543H51.178V141.162Z" fill="#EBEBEB"/>
<path d="M33.8013 112.092H80.4391L87.1976 139.636H40.5598L33.8013 112.092Z" fill="#E0E0E0"/>
<path d="M40.5597 139.636L40.7504 141.162H87.3882L87.2051 139.636H40.5597Z" fill="#E0E0E0"/>
<path d="M35.243 112.092H81.8808L88.6392 139.636H42.0014L35.243 112.092Z" fill="#F0F0F0"/>
<path d="M42.9854 138.377L36.8448 113.351H80.8891L87.0297 138.377H42.9854Z" fill="#FAFAFA"/>
<path d="M54.1529 139.636L54.336 141.162H105.696L105.505 139.636H54.1529Z" fill="#F0F0F0"/>
<path d="M131.219 238.543H129.48L124.499 214.005L123.629 209.709L118.198 183.005H97.381L86.0991 238.543H84.3599L95.8554 181.944C95.8928 181.752 95.9965 181.578 96.1483 181.454C96.3002 181.33 96.4908 181.263 96.6868 181.265H118.892C119.088 181.263 119.279 181.33 119.431 181.454C119.582 181.578 119.686 181.752 119.723 181.944L124.491 205.429L125.368 209.725L131.219 238.543Z" fill="#EBEBEB"/>
<path d="M164.637 238.543H162.891L151.609 182.974H130.799L125.368 209.725L124.499 214.005L119.518 238.543H117.778L123.629 209.709L124.491 205.429L129.266 181.944C129.304 181.752 129.407 181.578 129.559 181.454C129.711 181.33 129.902 181.263 130.098 181.265H152.303C152.5 181.264 152.69 181.331 152.843 181.455C152.996 181.579 153.102 181.752 153.142 181.944L164.637 238.543Z" fill="#EBEBEB"/>
<path d="M113.331 182.12H151.578C155.087 182.116 158.455 180.738 160.96 178.281C163.466 175.823 164.909 172.482 164.981 168.973L166.407 110.833C166.427 109.537 166.19 108.25 165.708 107.046C165.227 105.843 164.511 104.747 163.603 103.823C162.694 102.898 161.611 102.164 160.416 101.662C159.222 101.16 157.939 100.9 156.643 100.899H132.668C130.268 100.9 127.953 101.784 126.162 103.382C124.372 104.98 123.231 107.181 122.958 109.566L113.331 182.12Z" fill="#E6E6E6"/>
<path d="M134.186 182.12H93.4296C92.9238 182.12 92.4387 181.919 92.0811 181.561C91.7235 181.203 91.5226 180.718 91.5226 180.212V180.029C91.5226 178.639 92.0747 177.305 93.0574 176.322C94.0402 175.339 95.3732 174.787 96.763 174.787H134.186V182.12Z" fill="#E6E6E6"/>
<path d="M149.724 273C231.407 273 297.624 269.133 297.624 264.363C297.624 259.593 231.407 255.726 149.724 255.726C68.041 255.726 1.82397 259.593 1.82397 264.363C1.82397 269.133 68.041 273 149.724 273Z" fill="#F5F5F5"/>
<path d="M169.893 77.1084L170.389 77.528C170.572 77.6883 170.778 77.8409 170.976 77.9935C171.373 78.3063 171.739 78.6191 172.197 78.9167C173.021 79.5195 173.898 80.0688 174.775 80.6182C176.545 81.7091 178.399 82.6558 180.321 83.4489C182.234 84.2644 184.205 84.9377 186.217 85.4632C186.721 85.6005 187.239 85.6921 187.743 85.8066L188.506 85.9744C188.666 85.9744 188.506 85.9744 188.506 86.0126C188.402 86.037 188.303 86.081 188.216 86.1423C188.147 86.2109 188.147 86.2109 188.178 86.1957C188.328 85.972 188.447 85.7279 188.528 85.4708C188.799 84.5905 188.966 83.6814 189.024 82.7622C189.116 81.7627 189.146 80.7097 189.139 79.6492C189.139 77.5204 188.971 75.3459 188.803 73.1637C188.635 70.9815 188.368 68.7917 188.086 66.5943C187.804 64.3969 187.491 62.1995 187.163 60.0326L190.031 59.3764C191.294 63.7312 192.313 68.1533 193.082 72.622C193.482 74.8945 193.759 77.1868 193.914 79.489C194.003 80.677 194.031 81.8688 193.998 83.0598C193.987 84.3744 193.821 85.6832 193.502 86.9587C193.287 87.7743 192.936 88.548 192.465 89.2477C192.135 89.7246 191.724 90.1403 191.252 90.4761C190.709 90.864 190.086 91.1247 189.429 91.2391C188.863 91.3344 188.285 91.3344 187.72 91.2391L186.843 91.0941C186.255 90.9949 185.66 90.9186 185.081 90.7889C182.742 90.3243 180.445 89.6658 178.215 88.8204C175.986 87.9649 173.83 86.9288 171.77 85.7226C170.74 85.1046 169.733 84.4561 168.757 83.7465C168.268 83.3955 167.788 82.9835 167.307 82.6478C167.071 82.4494 166.834 82.2586 166.598 82.045C166.361 81.8313 166.14 81.6559 165.835 81.3659L169.893 77.1084Z" fill="#E4897B"/>
<path d="M161.601 73.6368C169.992 72.4999 176.735 79.2677 176.735 79.2677L169.062 91.1094C169.062 91.1094 160.839 85.8447 159.389 82.2586C157.894 78.5276 157.307 74.1938 161.601 73.6368Z" fill="#407BFF"/>
<path opacity="0.6" d="M161.601 73.6368C169.992 72.4999 176.735 79.2677 176.735 79.2677L169.062 91.1094C169.062 91.1094 160.839 85.8447 159.389 82.2586C157.894 78.5276 157.307 74.1938 161.601 73.6368Z" fill="#FAFAFA"/>
<path d="M187.232 61.0626L184.447 55.4775L191.747 55.4164C191.747 55.4164 191.892 59.3153 190.046 61.5204L187.232 61.0626Z" fill="#E4897B"/>
<path d="M185.744 49.4727L191.175 50.4417L191.747 55.4164L184.447 55.4774L185.744 49.4727Z" fill="#E4897B"/>
<path d="M131.928 257.977L138.763 258.633L143.493 242.579L136.658 241.916L131.928 257.977Z" fill="#E4897B"/>
<path d="M88.4714 234.232L93.5365 238.993L104.475 226.968L99.41 222.207L88.4714 234.232Z" fill="#E4897B"/>
<path d="M95.8783 236.712L92.0643 229.845C91.9995 229.727 91.8943 229.637 91.7682 229.591C91.642 229.544 91.5033 229.545 91.3778 229.593L85.5118 231.821C85.3666 231.883 85.236 231.975 85.1286 232.091C85.0212 232.207 84.9393 232.345 84.8883 232.494C84.8372 232.644 84.8182 232.802 84.8323 232.96C84.8464 233.117 84.8934 233.27 84.9702 233.408C86.3357 235.773 87.1214 236.849 88.7843 239.863C89.8141 241.725 91.8355 245.967 93.2467 248.546C94.6579 251.125 97.2743 249.835 96.9158 248.645C95.2834 243.304 95.5961 240.306 96.0538 237.963C96.1456 237.539 96.0834 237.095 95.8783 236.712Z" fill="#263238"/>
<path d="M139.564 256.55H131.28C131.132 256.551 130.988 256.602 130.871 256.692C130.754 256.783 130.67 256.91 130.632 257.053L128.824 263.608C128.781 263.763 128.775 263.926 128.806 264.083C128.838 264.241 128.905 264.39 129.003 264.517C129.102 264.644 129.229 264.747 129.373 264.817C129.518 264.887 129.677 264.922 129.838 264.92C132.76 264.92 134.141 264.92 137.787 264.92H148.916C151.967 264.92 152.577 261.868 151.326 261.578C145.712 260.342 142.47 258.625 140.739 257C140.418 256.707 139.998 256.546 139.564 256.55Z" fill="#263238"/>
<path d="M143.492 242.579L141.051 250.858H134.018L136.65 241.923L143.492 242.579Z" fill="#CE6F64"/>
<path d="M99.4024 222.215L104.475 226.968L98.8303 233.164L93.7653 228.41L99.4024 222.215Z" fill="#CE6F64"/>
<path d="M169.87 68.8985C169.817 63.3516 164.798 61.4135 164.798 61.4135C164.798 61.4135 171.076 49.5261 167.849 41.6367C164.622 33.7473 153.989 32.3587 150.617 36.0439C144.69 35.7921 142.806 44.3072 142.806 44.3072C142.806 44.3072 137.848 45.1388 136.513 48.7478C135.178 52.3568 139.244 56.4236 139.244 56.4236C139.244 56.4236 133.584 57.1865 131.501 61.5433C129.419 65.9 130.7 71.6835 136.955 76.6735C146.048 83.9219 162.761 74.827 162.761 74.827C162.761 74.827 169.931 75.2772 169.87 68.8985Z" fill="#263238"/>
<path d="M168.795 74.415C168.795 74.415 171.846 75.7502 161.655 116.014L133.431 113.564C134.896 102.119 135.529 95.0083 132.073 70.9281C136.1 70.4518 140.156 70.2707 144.21 70.3864C148.507 70.4511 152.795 70.8209 157.04 71.4927C161.005 72.2698 164.928 73.2451 168.795 74.415Z" fill="#407BFF"/>
<path opacity="0.6" d="M168.795 74.415C168.795 74.415 171.846 75.7502 161.655 116.014L133.431 113.564C134.896 102.119 135.529 95.0083 132.073 70.9281C136.1 70.4518 140.156 70.2707 144.21 70.3864C148.507 70.4511 152.795 70.8209 157.04 71.4927C161.005 72.2698 164.928 73.2451 168.795 74.415Z" fill="#FAFAFA"/>
<path d="M161.479 72.4465C160.015 72.0955 158.428 71.7598 156.979 71.4928C152.734 70.8183 148.446 70.4461 144.148 70.3788C142.676 70.3254 141.204 70.3254 139.823 70.3788L140.769 72.1794C140.937 72.4999 144.965 80.0154 152.616 84.2806L154.721 85.4556L156.681 84.0593C161.624 80.5266 162.357 75.9334 161.479 72.4465Z" fill="#FAFAFA"/>
<path d="M146.674 56.0421C147.124 60.2462 147.276 67.8837 144.156 70.3864C144.156 70.3864 147.726 77.1694 154.485 80.931C160.465 76.6735 156.987 71.4927 156.987 71.4927C152.478 69.9667 152.89 66.5943 153.935 63.4507L146.674 56.0421Z" fill="#E4897B"/>
<path d="M149.641 59.0635L153.958 63.4508C153.695 64.1798 153.496 64.9304 153.363 65.694C151.632 65.2896 149.114 63.4813 149.084 61.6196C149.119 60.7415 149.307 59.8764 149.641 59.0635Z" fill="#CE6F64"/>
<path d="M146.49 46.5046C145.659 53.3716 145.163 56.2786 147.963 60.4064C152.173 66.6019 160.808 66.1136 163.669 59.6434C166.247 53.7989 167.17 43.529 160.999 39.5995C159.646 38.7284 158.093 38.2173 156.487 38.1145C154.881 38.0118 153.276 38.3208 151.823 39.0123C150.37 39.7038 149.118 40.755 148.184 42.0661C147.251 43.3773 146.668 44.905 146.49 46.5046Z" fill="#E4897B"/>
<path d="M151.815 38.043C157.116 39.4164 151.876 55.5461 143.424 50.869C143.424 50.869 143.805 44.0554 146.155 41.1637C147.576 39.4408 149.6 38.3248 151.815 38.043Z" fill="#263238"/>
<path d="M151.25 38.9357C153.539 42.6591 170.511 49.7168 164.805 41.7053C159.099 33.6939 151.25 38.9357 151.25 38.9357Z" fill="#263238"/>
<path d="M144.309 52.4484C144.213 53.7861 144.649 55.1075 145.522 56.126C146.696 57.4613 148.245 56.6525 148.733 55.035C149.168 53.5853 149.084 51.1437 147.52 50.3959C147.175 50.2437 146.798 50.1792 146.422 50.208C146.045 50.2369 145.682 50.3583 145.365 50.5615C145.047 50.7646 144.784 51.0431 144.6 51.3723C144.416 51.7016 144.316 52.0712 144.309 52.4484Z" fill="#E4897B"/>
<path d="M161.624 116.014C161.624 116.014 171.182 158.314 164.805 188.132C160.533 208.107 145.117 248.454 145.117 248.454L133.065 248.149C133.065 248.149 144.728 205.803 147.146 189.154C151.273 160.664 140.937 114.22 140.937 114.22L161.624 116.014Z" fill="#263238"/>
<path d="M150.602 124.551L144.576 134.058C146.392 145.332 147.543 156.702 148.024 168.111C156.498 152.935 152.486 132.586 150.602 124.551Z" fill="#263238"/>
<path d="M146.109 249.08L131.219 248.699L132.081 244.128L148.336 244.899L146.109 249.08Z" fill="#407BFF"/>
<path opacity="0.6" d="M146.109 249.08L131.219 248.699L132.081 244.128L148.336 244.899L146.109 249.08Z" fill="#FAFAFA"/>
<path d="M155.446 115.556C155.446 115.556 149.839 160.42 137.68 184.912C127.863 204.666 101.668 232.897 101.668 232.897L94.9706 225.992C94.9706 225.992 112.668 195.388 119.968 182.242C137.863 150.02 123.232 125.437 133.378 113.572L155.446 115.556Z" fill="#263238"/>
<path d="M102.339 233.782L93.6891 225.351L96.5649 221.444L105.985 231.188L102.339 233.782Z" fill="#407BFF"/>
<path opacity="0.6" d="M102.339 233.782L93.6891 225.351L96.5649 221.444L105.985 231.188L102.339 233.782Z" fill="#FAFAFA"/>
<path d="M133.088 111.87L131.6 114.289C131.478 114.48 131.7 114.701 132.02 114.724L161.655 117.288C161.914 117.288 162.135 117.204 162.166 117.044L162.639 114.541C162.639 114.365 162.463 114.198 162.181 114.175L133.568 111.695C133.48 111.68 133.389 111.689 133.305 111.719C133.221 111.75 133.146 111.802 133.088 111.87Z" fill="#407BFF"/>
<path opacity="0.3" d="M133.088 111.87L131.6 114.289C131.478 114.48 131.7 114.701 132.02 114.724L161.655 117.288C161.914 117.288 162.135 117.204 162.166 117.044L162.639 114.541C162.639 114.365 162.463 114.198 162.181 114.175L133.568 111.695C133.48 111.68 133.389 111.689 133.305 111.719C133.221 111.75 133.146 111.802 133.088 111.87Z" fill="black"/>
<path d="M136.658 115.396L135.895 115.327C135.742 115.327 135.636 115.228 135.651 115.128L136.299 111.878C136.299 111.779 136.459 111.71 136.612 111.726L137.375 111.794C137.527 111.794 137.634 111.893 137.619 111.993L136.978 115.243C136.948 115.35 136.81 115.396 136.658 115.396Z" fill="#263238"/>
<path d="M159.481 117.379L158.718 117.311C158.565 117.311 158.459 117.211 158.474 117.112L159.122 113.854C159.122 113.763 159.282 113.694 159.435 113.709L160.198 113.778C160.35 113.778 160.457 113.877 160.442 113.969L159.801 117.227C159.771 117.326 159.641 117.387 159.481 117.379Z" fill="#263238"/>
<path d="M148.069 116.387L147.307 116.326C147.154 116.326 147.047 116.22 147.062 116.128L147.711 112.87C147.711 112.779 147.871 112.71 148.024 112.725L148.786 112.786C148.939 112.786 149.046 112.893 149.031 112.985L148.39 116.243C148.359 116.334 148.199 116.403 148.069 116.387Z" fill="#263238"/>
<path d="M156.46 50.2967C156.361 50.846 156.574 51.3496 156.933 51.4183C157.291 51.487 157.695 51.0902 157.772 50.5332C157.848 49.9762 157.665 49.4727 157.299 49.4116C156.933 49.3506 156.59 49.7778 156.46 50.2967Z" fill="#263238"/>
<path d="M162.692 51.4412C162.593 51.9906 162.807 52.4941 163.165 52.5628C163.523 52.6315 163.927 52.2347 164.004 51.6777C164.08 51.1208 163.897 50.6172 163.531 50.5561C163.165 50.4951 162.829 50.8842 162.692 51.4412Z" fill="#263238"/>
<path d="M163.402 50.5408L164.797 50.4036C164.797 50.4036 163.928 51.3033 163.402 50.5408Z" fill="#263238"/>
<path d="M160.892 52.0669C161.159 53.4209 161.608 54.7325 162.227 55.9658C161.907 56.1151 161.558 56.1925 161.205 56.1925C160.851 56.1925 160.503 56.1151 160.182 55.9658L160.892 52.0669Z" fill="#DE5753"/>
<path d="M157.864 57.797C157.119 57.6816 156.414 57.3893 155.806 56.9445C155.198 56.4997 154.706 55.9155 154.37 55.2409C154.358 55.2075 154.358 55.1705 154.373 55.1377C154.387 55.1049 154.413 55.079 154.446 55.0654C154.462 55.0579 154.48 55.0537 154.497 55.0531C154.515 55.0526 154.533 55.0556 154.549 55.062C154.565 55.0684 154.58 55.0781 154.593 55.0905C154.605 55.1029 154.615 55.1178 154.622 55.1341C154.943 55.7629 155.409 56.3069 155.98 56.7219C156.551 57.1369 157.212 57.4111 157.91 57.5223C157.946 57.5223 157.981 57.5368 158.007 57.5625C158.032 57.5883 158.047 57.6232 158.047 57.6596C158.047 57.696 158.032 57.731 158.007 57.7567C157.981 57.7825 157.946 57.797 157.91 57.797H157.864Z" fill="#263238"/>
<path d="M154.973 45.9629C154.914 45.964 154.857 45.9465 154.81 45.9129C154.762 45.8794 154.726 45.8315 154.707 45.7763C154.689 45.7211 154.688 45.6613 154.706 45.6057C154.723 45.5501 154.758 45.5015 154.805 45.4669C155.207 45.1432 155.681 44.9208 156.186 44.8185C156.692 44.7163 157.215 44.7372 157.711 44.8794C157.745 44.8914 157.777 44.91 157.803 44.9341C157.83 44.9582 157.852 44.9875 157.868 45.0201C157.883 45.0527 157.892 45.088 157.894 45.1241C157.896 45.1602 157.891 45.1963 157.879 45.2304C157.867 45.2645 157.848 45.2959 157.824 45.3228C157.8 45.3497 157.771 45.3716 157.738 45.3872C157.706 45.4028 157.67 45.4118 157.634 45.4137C157.598 45.4156 157.562 45.4103 157.528 45.3982C157.119 45.2857 156.689 45.2727 156.273 45.3603C155.858 45.4479 155.469 45.6336 155.14 45.9018C155.092 45.9385 155.033 45.9597 154.973 45.9629Z" fill="#263238"/>
<path d="M166.262 49.3353C166.222 49.3352 166.181 49.3262 166.145 49.3091C166.108 49.292 166.075 49.2671 166.049 49.2361C165.788 48.9 165.452 48.6302 165.068 48.4485C164.683 48.2669 164.261 48.1786 163.837 48.1908C163.764 48.1974 163.692 48.1756 163.635 48.1301C163.578 48.0846 163.541 48.0189 163.531 47.9467C163.527 47.911 163.53 47.8748 163.54 47.8403C163.55 47.8058 163.567 47.7737 163.59 47.7459C163.613 47.7182 163.641 47.6953 163.673 47.6786C163.705 47.662 163.74 47.652 163.775 47.6491C164.292 47.6225 164.807 47.721 165.277 47.9362C165.747 48.1514 166.158 48.4769 166.476 48.8852C166.526 48.9377 166.554 49.0073 166.554 49.0797C166.554 49.1522 166.526 49.2218 166.476 49.2743C166.415 49.3208 166.339 49.3426 166.262 49.3353Z" fill="#263238"/>
<path d="M134.156 81.0607C133.008 83.3375 131.735 85.5485 130.342 87.6835C128.969 89.7894 127.519 91.8495 125.956 93.8333C124.376 95.8241 122.682 97.7221 120.883 99.5176C119.952 100.395 119.045 101.288 118.045 102.112L117.283 102.737L117.099 102.89L116.855 103.081C116.694 103.212 116.526 103.334 116.352 103.447C115.658 103.922 114.904 104.302 114.109 104.576C112.612 105.065 111.031 105.239 109.464 105.087C108.06 104.947 106.677 104.642 105.345 104.179C102.876 103.318 100.521 102.157 98.3345 100.723C94.1267 97.9929 90.251 94.782 86.7856 91.1551L88.8147 89.0264C90.6378 90.4913 92.5601 91.9487 94.5281 93.2686C96.4557 94.6193 98.463 95.8525 100.539 96.9615C102.515 98.0476 104.602 98.9198 106.763 99.5634C108.823 100.136 110.89 100.235 112.317 99.6397C113.123 99.2891 113.843 98.7686 114.43 98.1137C115.276 97.3507 116.062 96.5037 116.863 95.6797C118.427 93.9782 119.876 92.1547 121.303 90.3387C122.729 88.5228 124.018 86.5238 125.269 84.54C125.902 83.5481 126.505 82.5409 127.1 81.5338C127.695 80.5266 128.267 79.466 128.763 78.5199L134.156 81.0607Z" fill="#E4897B"/>
<path d="M90.7446 89.9343L88.029 84.3187L83.5132 90.0564C83.5132 90.0564 86.5034 92.5514 89.4097 92.4598L90.7446 89.9343Z" fill="#E4897B"/>
<path d="M85.0617 82.6783L82.5063 87.5691L83.5132 90.0564L88.029 84.3187L85.0617 82.6783Z" fill="#E4897B"/>
<path d="M132.012 70.9281C128.549 71.5385 123.69 81.4804 123.69 81.4804L133.202 90.0793C133.202 90.0793 139.366 81.8008 139 77.2839C138.687 73.4307 136.421 70.1499 132.012 70.9281Z" fill="#407BFF"/>
<path opacity="0.6" d="M132.012 70.9281C128.549 71.5385 123.69 81.4804 123.69 81.4804L133.202 90.0793C133.202 90.0793 139.366 81.8008 139 77.2839C138.687 73.4307 136.421 70.1499 132.012 70.9281Z" fill="#FAFAFA"/>
<path d="M97.2132 240.397C97.1222 240.398 97.0318 240.382 96.9462 240.351C96.1148 240.077 95.5732 238.543 95.3215 237.65C95.314 237.624 95.3143 237.597 95.3225 237.571C95.3306 237.545 95.3462 237.522 95.3672 237.505C95.3904 237.492 95.4167 237.485 95.4435 237.485C95.4703 237.485 95.4966 237.492 95.5198 237.505C95.7715 237.635 97.9837 238.825 98.0523 239.695C98.0627 239.791 98.046 239.887 98.0042 239.973C97.9624 240.06 97.8971 240.133 97.8158 240.183C97.6441 240.319 97.4322 240.394 97.2132 240.397ZM95.6876 237.895C96.069 239.123 96.5648 239.932 97.0378 240.092C97.1456 240.124 97.2601 240.128 97.3697 240.102C97.4794 240.077 97.5806 240.023 97.6633 239.947C97.7049 239.922 97.7386 239.886 97.7603 239.843C97.7819 239.8 97.7906 239.751 97.7853 239.703C97.7396 239.169 96.4428 238.322 95.68 237.895H95.6876Z" fill="#407BFF"/>
<path d="M97.5565 238.238C96.8024 238.235 96.0588 238.06 95.3825 237.727C95.3611 237.716 95.3433 237.7 95.3311 237.68C95.3189 237.659 95.3129 237.636 95.3138 237.612C95.314 237.587 95.3212 237.562 95.3347 237.54C95.3481 237.519 95.3673 237.501 95.3901 237.49C95.4587 237.49 97.2132 236.491 98.1591 236.826C98.2754 236.864 98.3817 236.928 98.4702 237.012C98.5586 237.097 98.627 237.2 98.6702 237.315C98.7304 237.425 98.7512 237.552 98.729 237.676C98.7068 237.799 98.6429 237.912 98.5481 237.994C98.253 238.181 97.9048 238.267 97.5565 238.238ZM95.7562 237.612C96.519 237.933 97.9607 238.131 98.3726 237.78C98.4413 237.727 98.5023 237.627 98.4184 237.414C98.3881 237.336 98.3409 237.267 98.2802 237.21C98.2194 237.153 98.1468 237.111 98.0675 237.086C97.4191 236.857 96.2521 237.368 95.7562 237.612Z" fill="#407BFF"/>
<path d="M143.241 257.893C142.47 257.875 141.703 257.778 140.952 257.603C140.924 257.596 140.898 257.581 140.879 257.559C140.86 257.537 140.848 257.51 140.846 257.481C140.842 257.453 140.847 257.424 140.861 257.399C140.874 257.374 140.896 257.355 140.922 257.343C141.265 257.183 144.263 255.817 145.026 256.306C145.094 256.353 145.148 256.417 145.183 256.492C145.218 256.567 145.232 256.65 145.224 256.733C145.215 256.882 145.173 257.028 145.102 257.16C145.031 257.292 144.932 257.406 144.812 257.496C144.34 257.783 143.793 257.922 143.241 257.893ZM141.456 257.42C142.348 257.587 143.996 257.801 144.675 257.29C144.765 257.223 144.838 257.137 144.891 257.038C144.944 256.939 144.974 256.83 144.98 256.718C144.984 256.683 144.98 256.648 144.966 256.616C144.953 256.584 144.931 256.556 144.904 256.535C144.477 256.245 142.699 256.87 141.456 257.42Z" fill="#407BFF"/>
<path d="M141.013 257.603C140.984 257.615 140.951 257.615 140.922 257.603C140.903 257.586 140.889 257.564 140.881 257.54C140.873 257.516 140.871 257.49 140.876 257.465C140.876 257.343 141.593 254.375 143.218 254.566C143.63 254.612 143.737 254.818 143.759 254.978C143.866 255.741 141.967 257.267 141.067 257.626L141.013 257.603ZM143.073 254.803C142.028 254.803 141.425 256.527 141.219 257.221C142.203 256.702 143.554 255.466 143.508 254.986C143.508 254.948 143.508 254.841 143.21 254.81L143.073 254.803Z" fill="#407BFF"/>
<path d="M157.139 49.4115L158.534 49.2667C158.534 49.2667 157.665 50.1816 157.139 49.4115Z" fill="#263238"/>
<path opacity="0.6" d="M99.7534 5.9285L77.3956 150.493L203.197 169.934L225.555 25.362L99.7534 5.9285ZM151.441 88.1566C145.667 87.2627 140.287 84.6757 135.983 80.7231C131.679 76.7704 128.644 71.6296 127.261 65.9511C125.879 60.2726 126.211 54.3115 128.217 48.8219C130.222 43.3324 133.81 38.5612 138.527 35.1118C143.244 31.6624 148.877 29.69 154.715 29.444C160.553 29.1979 166.333 30.6894 171.323 33.7297C176.313 36.7699 180.289 41.2224 182.749 46.5237C185.209 51.8251 186.042 57.7371 185.142 63.5118C183.936 71.248 179.709 78.1891 173.39 82.8101C167.071 87.4311 159.177 89.3541 151.441 88.1566Z" fill="#407BFF"/>
<g style="mix-blend-mode:multiply" opacity="0.3">
<path d="M199.398 164.449H199.208L73.2154 144.923V144.733L95.6342 0H95.8173L221.81 19.5251V19.7158L199.398 164.449ZM73.6502 144.611L199.078 164.014L221.375 19.8074L95.9469 0.434907L73.6502 144.611Z" fill="#407BFF"/>
</g>
<path d="M155.972 89.652C154.396 89.6503 152.823 89.5279 151.265 89.2858C143.44 88.0646 136.391 83.8592 131.599 77.5521C126.806 71.2449 124.642 63.3262 125.56 55.4575C126.478 47.5887 130.408 40.3815 136.524 35.348C142.64 30.3145 150.467 27.846 158.364 28.4605C166.26 29.075 173.612 32.7246 178.876 38.6436C184.14 44.5627 186.908 52.291 186.598 60.2072C186.289 68.1233 182.926 75.612 177.216 81.1018C171.506 86.5917 163.892 89.6561 155.972 89.652ZM151.616 87.0273C157.164 87.8846 162.841 87.0773 167.93 84.7076C173.019 82.3379 177.291 78.5121 180.206 73.7139C183.121 68.9158 184.549 63.3607 184.308 57.7512C184.067 52.1416 182.169 46.7294 178.853 42.1989C175.537 37.6683 170.953 34.2229 165.68 32.2982C160.407 30.3735 154.681 30.056 149.228 31.3858C143.774 32.7156 138.837 35.633 135.041 39.7691C131.245 43.9052 128.76 49.0743 127.901 54.6229C126.758 62.0644 128.614 69.6552 133.06 75.7301C137.506 81.805 144.179 85.8678 151.616 87.0273Z" fill="#FAFAFA"/>
<path d="M127.141 97.1006L99.4292 92.8145L98.4664 99.0428L126.178 103.329L127.141 97.1006Z" fill="#407BFF"/>
<path opacity="0.6" d="M127.141 97.1006L99.4292 92.8145L98.4664 99.0428L126.178 103.329L127.141 97.1006Z" fill="#FAFAFA"/>
<path d="M149.539 100.566L130.791 97.6663L129.828 103.895L148.576 106.794L149.539 100.566Z" fill="#407BFF"/>
<path opacity="0.6" d="M149.539 100.566L130.791 97.6663L129.828 103.895L148.576 106.794L149.539 100.566Z" fill="#FAFAFA"/>
<path d="M197.682 120.934L97.4734 105.435L96.5105 111.664L196.719 127.163L197.682 120.934Z" fill="#FAFAFA"/>
<path d="M146.073 126.168L96.1561 118.603L95.211 124.842L145.128 132.407L146.073 126.168Z" fill="#FAFAFA"/>
<path d="M187.12 132.861L153.785 127.705L152.823 133.933L186.158 139.089L187.12 132.861Z" fill="#FAFAFA"/>
<path d="M173.494 144.317L93.3827 131.927L92.4198 138.155L172.531 150.546L173.494 144.317Z" fill="#FAFAFA"/>
<path d="M226.897 169.935H226.135C226.137 168.041 225.904 166.155 225.44 164.319L226.203 164.136C226.675 166.032 226.908 167.98 226.897 169.935ZM223.907 160.077C222.229 156.563 219.692 153.53 216.531 151.256L216.973 150.638C220.238 152.983 222.861 156.11 224.601 159.733L223.907 160.077Z" fill="#407BFF"/>
<path opacity="0.6" d="M226.897 169.935H226.135C226.137 168.041 225.904 166.155 225.44 164.319L226.203 164.136C226.675 166.032 226.908 167.98 226.897 169.935ZM223.907 160.077C222.229 156.563 219.692 153.53 216.531 151.256L216.973 150.638C220.238 152.983 222.861 156.11 224.601 159.733L223.907 160.077Z" fill="#FAFAFA"/>
<path d="M203.197 148.899C199.038 148.899 194.972 150.132 191.513 152.444C188.055 154.755 185.359 158.041 183.767 161.884C182.176 165.728 181.759 169.958 182.571 174.038C183.382 178.119 185.385 181.867 188.326 184.809C191.267 187.751 195.015 189.754 199.094 190.566C203.174 191.378 207.402 190.961 211.245 189.369C215.088 187.777 218.372 185.081 220.683 181.621C222.994 178.162 224.228 174.095 224.228 169.934C224.228 164.355 222.012 159.005 218.068 155.06C214.124 151.115 208.775 148.899 203.197 148.899ZM203.197 188.246C199.576 188.246 196.037 187.172 193.026 185.16C190.015 183.148 187.669 180.288 186.283 176.942C184.898 173.596 184.535 169.914 185.241 166.362C185.948 162.81 187.691 159.547 190.252 156.986C192.812 154.425 196.074 152.681 199.625 151.974C203.177 151.268 206.858 151.63 210.203 153.016C213.548 154.402 216.407 156.75 218.419 159.761C220.431 162.772 221.504 166.313 221.504 169.934C221.504 174.791 219.575 179.449 216.142 182.883C212.709 186.317 208.052 188.246 203.197 188.246Z" fill="#407BFF"/>
<path opacity="0.6" d="M203.197 148.899C199.038 148.899 194.972 150.132 191.513 152.444C188.055 154.755 185.359 158.041 183.767 161.884C182.176 165.728 181.759 169.958 182.571 174.038C183.382 178.119 185.385 181.867 188.326 184.809C191.267 187.751 195.015 189.754 199.094 190.566C203.174 191.378 207.402 190.961 211.245 189.369C215.088 187.777 218.372 185.081 220.683 181.621C222.994 178.162 224.228 174.095 224.228 169.934C224.228 164.355 222.012 159.005 218.068 155.06C214.124 151.115 208.775 148.899 203.197 148.899ZM203.197 188.246C199.576 188.246 196.037 187.172 193.026 185.16C190.015 183.148 187.669 180.288 186.283 176.942C184.898 173.596 184.535 169.914 185.241 166.362C185.948 162.81 187.691 159.547 190.252 156.986C192.812 154.425 196.074 152.681 199.625 151.974C203.177 151.268 206.858 151.63 210.203 153.016C213.548 154.402 216.407 156.75 218.419 159.761C220.431 162.772 221.504 166.313 221.504 169.934C221.504 174.791 219.575 179.449 216.142 182.883C212.709 186.317 208.052 188.246 203.197 188.246Z" fill="#FAFAFA"/>
<path d="M203.197 188.239C213.304 188.239 221.497 180.044 221.497 169.934C221.497 159.825 213.304 151.63 203.197 151.63C193.091 151.63 184.897 159.825 184.897 169.934C184.897 180.044 193.091 188.239 203.197 188.239Z" fill="#407BFF"/>
<path opacity="0.2" d="M203.197 188.239C213.304 188.239 221.497 180.044 221.497 169.934C221.497 159.825 213.304 151.63 203.197 151.63C193.091 151.63 184.897 159.825 184.897 169.934C184.897 180.044 193.091 188.239 203.197 188.239Z" fill="black"/>
<path d="M200.352 181.517L189.612 170.774L192.312 168.08L200.352 176.122L214.09 162.381L216.783 165.082L200.352 181.517Z" fill="#FAFAFA"/>
</svg>
