<svg width="648" height="540" viewBox="0 0 648 540" fill="none" xmlns="http://www.w3.org/2000/svg">
<circle cx="316" cy="270" r="270" fill="#F4DCB3"/>
<path d="M647.23 451.647C647.23 451.778 502.329 451.889 323.633 451.889C144.938 451.889 -0.000976562 451.778 -0.000976562 451.647C-0.000976562 451.517 144.872 451.405 323.633 451.405C502.395 451.405 647.23 451.508 647.23 451.647Z" fill="#263238"/>
<path d="M344.724 129.408C352.702 127.944 359.826 123.55 364.669 117.107C369.511 110.665 371.715 102.649 370.838 94.6666C369.961 86.6841 366.068 79.3245 359.939 74.0624C353.811 68.8003 345.899 66.0245 337.79 66.2912C329.681 66.5579 321.973 69.8475 316.211 75.5006C310.449 81.1538 307.058 88.753 306.719 96.7755C306.379 104.798 309.116 112.651 314.38 118.761C319.644 124.872 327.047 128.787 335.105 129.724L340.644 138.034L344.724 129.408Z" fill="white"/>
<path d="M344.725 129.408C344.725 129.408 344.649 129.622 344.48 130.003C344.311 130.385 344.047 130.934 343.728 131.688C343.041 133.177 342.045 135.326 340.775 138.099L340.672 138.332L340.521 138.118L334.898 129.827L335.039 129.92C329.501 129.303 324.22 127.273 319.712 124.029C318.413 123.096 317.184 122.069 316.036 120.959C314.855 119.776 313.758 118.514 312.754 117.181C310.592 114.345 308.938 111.162 307.865 107.773C305.319 99.8192 305.998 91.1978 309.758 83.7307C313.519 76.2637 320.066 70.5363 328.015 67.7591C334.88 65.3541 342.368 65.3311 349.247 67.694C352.506 68.7296 355.564 70.3027 358.293 72.3467C360.933 74.2816 363.249 76.6147 365.157 79.2607L365.872 80.1912C366.088 80.5262 366.286 80.8705 366.483 81.2055C366.878 81.8848 367.311 82.5362 367.668 83.2155C369.036 85.898 370.047 88.7443 370.677 91.6835C370.809 92.4 370.903 93.1259 371.006 93.8331L371.166 94.8846L371.213 95.9454C371.389 98.6594 371.228 101.385 370.733 104.06C370.228 106.514 369.449 108.904 368.411 111.188C366.603 115.138 364.028 118.699 360.832 121.666C358.411 123.86 355.665 125.674 352.689 127.044C350.814 127.91 348.854 128.583 346.84 129.054C346.154 129.213 345.627 129.324 345.279 129.371C345.096 129.407 344.911 129.432 344.725 129.445C344.893 129.385 345.066 129.338 345.242 129.306C345.599 129.231 346.135 129.101 346.812 128.924C348.795 128.394 350.725 127.684 352.576 126.802C355.5 125.405 358.195 123.579 360.569 121.387C365.542 116.727 368.913 110.641 370.207 103.985C370.679 101.351 370.827 98.6705 370.649 96.0013L370.63 94.987L370.47 93.954C370.357 93.2561 370.273 92.5489 370.141 91.851C369.83 90.4314 369.428 89.0328 368.937 87.6635C368.429 86.2406 367.823 84.8539 367.123 83.5133C366.765 82.8433 366.342 82.2012 365.957 81.5405C365.75 81.2148 365.562 80.8705 365.345 80.5542L364.65 79.6236C362.768 77.0354 360.49 74.753 357.898 72.8585C355.23 70.8226 352.231 69.2494 349.031 68.2058C342.297 65.9684 334.997 66.0504 328.316 68.4384C320.539 71.1613 314.131 76.761 310.439 84.0611C306.746 91.3612 306.056 99.7935 308.513 107.587C309.554 110.921 311.166 114.053 313.281 116.846C314.259 118.16 315.331 119.404 316.487 120.568C317.609 121.666 318.81 122.683 320.079 123.611C324.5 126.822 329.681 128.857 335.124 129.52H335.218L335.274 129.594C337.4 132.832 339.252 135.652 340.766 137.969H340.512L343.624 131.567L344.433 129.938C344.519 129.756 344.616 129.578 344.725 129.408Z" fill="#263238"/>
<path d="M351.608 94.6799C351.45 93.0738 350.793 91.5557 349.727 90.3343C348.741 89.0935 347.386 88.1916 345.853 87.7566C344.546 87.4145 343.162 87.5091 341.916 88.0257C340.67 88.5424 339.631 89.4521 338.96 90.6134C338.356 89.4709 337.399 88.5485 336.229 87.9797C335.059 87.4109 333.737 87.2252 332.454 87.4496C330.89 87.7617 329.466 88.5528 328.382 89.7108C327.225 90.843 326.453 92.3031 326.172 93.889C325.838 95.9105 326.168 97.9848 327.113 99.8072C328.23 101.658 329.777 103.217 331.626 104.358C334.626 106.312 338.575 108.768 338.575 108.768C338.575 108.768 342.101 106.377 345.242 104.665C347.182 103.681 348.856 102.252 350.122 100.496C351.238 98.7663 351.759 96.7263 351.608 94.6799Z" fill="#FF725E"/>
<path d="M187.129 451.536L192.404 413.169L304.846 407.865L312.763 451.647L187.129 451.536Z" fill="#263238"/>
<path d="M292.491 292.412L326.219 329.457C331.786 335.571 335.81 341.135 343.812 343.369C349.454 344.932 361.227 345.583 364.208 341.936C368.298 336.939 370.79 328.294 365.148 317.425C361.387 310.344 328.683 281.422 328.683 281.422L292.491 292.412Z" fill="#C27461"/>
<path d="M303.596 298.6C303.793 300.461 312.613 318.644 312.613 318.644L341.574 299.949C341.574 299.949 322.928 256.121 309.313 253.171L303.596 298.6Z" fill="#FF725E"/>
<path d="M353.187 247.513L353.601 233.555L352.661 215.819L349.84 201.06C349.84 201.06 349.088 199.618 347.207 200.707C345.326 201.795 346.953 209.854 346.953 209.854L347.254 215.912C347.254 215.912 346.144 220.564 345.796 220.183C345.449 219.801 344.264 211.622 344.264 211.622L340.841 194.072C340.593 193.53 340.145 193.103 339.589 192.878C339.033 192.653 338.411 192.647 337.851 192.862C336.638 193.234 335.848 194.984 335.97 197.58C336.093 200.176 337.258 204.568 337.381 206.048C337.503 207.527 338.49 216.061 338.49 216.061L332.501 196.435C332.501 196.435 331.391 190.042 328.739 190.964C326.088 191.885 327.846 196.463 327.968 198.408C328.091 200.353 331.955 213.79 331.626 217.512C331.297 221.234 330.686 219.373 330.686 219.373L327.865 208.384C326.642 203.535 324.79 200.725 322.665 200.372C320.54 200.018 323.389 211.25 323.389 211.25L326.981 226.948L326.088 231.945L322.552 227.451C322.552 227.451 322.449 221.56 318.734 219.076C315.02 216.591 314.033 219.373 314.033 219.373L320.963 242.181C322.609 245.903 333.234 253.162 333.234 253.162L335.115 276.025L358.716 275.56L353.187 247.513Z" fill="#C27461"/>
<path d="M344.903 239.278C344.79 239.389 343.671 238.273 341.753 236.663C339.835 235.053 336.873 232.941 333.121 233.127C331.564 233.151 330.061 233.692 328.852 234.662L328.457 235.007L328.109 234.551C326.595 232.578 324.978 230.828 324.01 229.609C323.041 228.39 322.496 227.544 322.599 227.478C323.284 227.994 323.914 228.577 324.48 229.219C326.058 230.753 327.559 232.365 328.974 234.048L328.231 233.936C329.585 232.771 331.309 232.112 333.102 232.075C335.025 232.014 336.929 232.467 338.612 233.387C339.948 234.125 341.178 235.036 342.27 236.095C344.085 237.91 344.997 239.194 344.903 239.278Z" fill="#7D4336"/>
<path d="M338.782 327.131L333.779 255.972L353.77 249.774L368.279 327.131H338.782Z" fill="#C27461"/>
<path d="M295.481 164.555C297.453 164.889 299.482 164.488 301.173 163.429C302.864 162.369 304.098 160.727 304.636 158.819C305.174 156.911 304.978 154.873 304.086 153.1C303.194 151.327 301.669 149.944 299.806 149.219C301.109 148.039 302.003 146.484 302.363 144.773C302.723 143.062 302.53 141.283 301.811 139.686C301.093 138.09 299.885 136.758 298.359 135.879C296.833 134.999 295.066 134.617 293.309 134.786C293.336 133.065 292.912 131.366 292.078 129.854C291.244 128.343 290.029 127.071 288.55 126.163C287.072 125.255 285.381 124.742 283.643 124.673C281.904 124.604 280.177 124.981 278.63 125.769C276.77 124.073 274.388 123.044 271.866 122.848C269.343 122.652 266.828 123.301 264.723 124.69C263.051 124.292 261.293 124.434 259.708 125.096C258.122 125.757 256.793 126.903 255.913 128.367C255.034 129.83 254.65 131.533 254.819 133.228C254.988 134.922 255.701 136.518 256.853 137.783" fill="#263238"/>
<path d="M296.496 209.137C297.126 200.353 296.948 182.151 296.59 165.709C296.4 157.179 292.972 149.032 286.989 142.889C281.007 136.746 272.907 133.056 264.3 132.553L262.532 132.451C243.341 132.451 232.612 148.568 233.129 167.551L230.176 240.664L241.808 251.012C244.274 253.219 247.215 254.84 250.41 255.753C253.604 256.665 256.966 256.845 260.241 256.278C263.516 255.711 266.617 254.412 269.308 252.48C271.999 250.549 274.21 248.035 275.772 245.131L276.665 229.06C276.665 229.06 295.189 227.339 296.496 209.137Z" fill="#C27461"/>
<path d="M276.787 229.079C268.247 228.591 260.029 225.684 253.111 220.704C253.111 220.704 258 234.132 276.439 233.564L276.787 229.079Z" fill="#7D4336"/>
<path d="M288.466 181.091C288.432 181.769 288.132 182.407 287.629 182.869C287.127 183.331 286.462 183.581 285.777 183.566C285.441 183.572 285.108 183.512 284.796 183.389C284.484 183.265 284.2 183.082 283.961 182.849C283.722 182.616 283.532 182.337 283.403 182.031C283.274 181.724 283.208 181.395 283.21 181.063C283.244 180.385 283.544 179.747 284.046 179.284C284.548 178.822 285.213 178.572 285.899 178.587C286.235 178.581 286.568 178.641 286.88 178.765C287.192 178.888 287.476 179.071 287.715 179.304C287.954 179.538 288.143 179.816 288.273 180.122C288.402 180.429 288.467 180.758 288.466 181.091Z" fill="#263238"/>
<path d="M292.105 174.419C291.757 174.735 289.858 173.162 287.037 173.004C284.216 172.846 282.053 174.121 281.771 173.767C281.63 173.609 281.997 173.013 282.937 172.418C284.209 171.649 285.69 171.288 287.178 171.385C288.647 171.47 290.052 172.01 291.193 172.93C292.02 173.646 292.274 174.27 292.105 174.419Z" fill="#263238"/>
<path d="M262.542 181.091C262.508 181.769 262.208 182.407 261.705 182.869C261.203 183.331 260.538 183.581 259.853 183.566C259.517 183.573 259.182 183.514 258.87 183.391C258.558 183.269 258.273 183.085 258.034 182.852C257.794 182.618 257.605 182.34 257.476 182.032C257.348 181.725 257.283 181.395 257.285 181.063C257.317 180.385 257.615 179.747 258.116 179.285C258.617 178.822 259.281 178.572 259.965 178.587C260.302 178.58 260.636 178.639 260.949 178.762C261.262 178.884 261.547 179.068 261.787 179.301C262.027 179.534 262.218 179.813 262.347 180.12C262.477 180.428 262.543 180.758 262.542 181.091Z" fill="#263238"/>
<path d="M264.31 173.32C263.962 173.637 262.062 172.064 259.232 171.906C256.402 171.748 254.258 173.023 253.976 172.669C253.825 172.502 254.192 171.915 255.142 171.32C256.412 170.548 257.895 170.187 259.382 170.287C260.85 170.365 262.254 170.907 263.388 171.832C264.216 172.548 264.479 173.172 264.31 173.32Z" fill="#263238"/>
<path d="M273.327 194.649C273.327 194.49 275.095 194.286 277.963 194.1C278.687 194.1 279.383 193.96 279.533 193.485C279.633 192.75 279.509 192.001 279.176 191.336C278.599 189.568 277.994 187.707 277.361 185.753C274.86 177.834 273.101 171.348 273.421 171.255C273.741 171.162 276.035 177.489 278.536 185.399C279.163 187.353 279.734 189.214 280.248 190.982C280.644 191.86 280.718 192.848 280.455 193.774C280.337 194.02 280.164 194.236 279.949 194.405C279.734 194.575 279.482 194.693 279.213 194.751C278.805 194.834 278.388 194.865 277.972 194.844C275.104 194.9 273.327 194.807 273.327 194.649Z" fill="#263238"/>
<path d="M264.893 196.11C265.353 196.11 265.184 199.152 267.713 201.451C270.243 203.749 273.496 203.619 273.496 204.047C273.496 204.233 272.735 204.587 271.352 204.55C269.555 204.469 267.844 203.764 266.519 202.558C265.248 201.4 264.483 199.798 264.385 198.092C264.3 196.798 264.686 196.11 264.893 196.11Z" fill="#263238"/>
<path d="M265.692 162.405C265.372 163.15 262.57 162.619 259.232 162.824C255.894 163.029 253.158 163.754 252.763 163.057C252.584 162.722 253.092 162.033 254.22 161.363C255.714 160.543 257.378 160.072 259.084 159.985C260.79 159.898 262.494 160.197 264.065 160.86C265.259 161.419 265.833 162.052 265.692 162.405Z" fill="#263238"/>
<path d="M291.55 166.267C291.014 166.872 289.105 166.099 286.773 165.932C284.441 165.764 282.42 166.109 282.006 165.411C281.827 165.076 282.175 164.48 283.078 163.913C284.284 163.257 285.66 162.972 287.03 163.094C288.4 163.217 289.703 163.742 290.77 164.601C291.56 165.299 291.785 165.969 291.55 166.267Z" fill="#263238"/>
<path d="M295.321 157.296C295.321 157.296 291.146 145.627 285.758 142.64C279.232 139.03 275.903 146.158 269.603 144.018C263.303 141.877 257.069 138.434 250.233 142.929C242.711 147.87 245.889 151.825 244.958 159.874C241.197 192.49 234.615 201.395 233.825 185.883C233.74 184.18 229.123 182.561 228.804 175.386C228.446 166.081 228.757 154.831 231.239 148.4C233.326 142.966 236.74 139.337 242.711 135.447C252.114 129.324 264.535 129.864 272.904 131.232C281.273 132.6 296.938 143.068 295.321 157.296Z" fill="#263238"/>
<path d="M235.028 185.455C235.045 184.786 234.925 184.121 234.674 183.499C234.424 182.878 234.049 182.313 233.571 181.839C233.094 181.365 232.525 180.991 231.898 180.741C231.27 180.491 230.599 180.369 229.923 180.383C226.481 180.504 222.551 182.244 222.353 189.233C222.015 201.693 234.728 199.469 234.756 199.106C234.784 198.743 234.934 190.666 235.028 185.455Z" fill="#C27461"/>
<path d="M232.151 194.342C232.095 194.342 231.925 194.49 231.549 194.649C231.021 194.855 230.432 194.855 229.904 194.649C228.587 194.128 227.525 192.006 227.525 189.763C227.524 188.691 227.765 187.633 228.23 186.665C228.358 186.279 228.58 185.93 228.874 185.648C229.169 185.366 229.529 185.159 229.923 185.045C230.177 184.988 230.443 185.02 230.676 185.136C230.909 185.251 231.095 185.443 231.201 185.678C231.361 186.032 231.277 186.274 231.342 186.302C231.408 186.33 231.615 186.097 231.531 185.576C231.464 185.267 231.295 184.989 231.051 184.785C230.884 184.651 230.691 184.551 230.484 184.492C230.278 184.433 230.061 184.415 229.847 184.441C229.329 184.526 228.841 184.742 228.431 185.068C228.021 185.394 227.702 185.819 227.506 186.302C226.942 187.37 226.648 188.558 226.65 189.763C226.65 192.276 227.901 194.658 229.706 195.226C230.041 195.332 230.396 195.362 230.745 195.313C231.093 195.265 231.426 195.14 231.719 194.946C232.114 194.639 232.189 194.369 232.151 194.342Z" fill="#7D4336"/>
<path d="M236.712 161.372C238.273 162.573 239.937 163.81 241.883 164.164C243.83 164.518 246.162 163.485 246.585 161.577C246.782 160.721 246.585 159.716 247.243 159.065C247.901 158.413 249.236 158.627 250.28 158.804C252.108 159.053 253.967 158.672 255.544 157.725C257.121 156.778 258.32 155.322 258.94 153.602C259.796 155.035 261.968 155.1 263.435 154.281C264.902 153.463 265.899 152.048 267.074 150.857C268.249 149.666 269.895 148.642 271.512 148.996C272.453 149.182 273.271 149.778 274.211 149.75C275.875 149.703 276.787 147.833 277.135 146.232C277.483 144.632 277.794 142.743 279.242 141.942C280.69 141.142 282.232 141.775 283.746 142.082C285.26 142.389 287.234 142.156 287.704 140.705C287.793 140.315 287.802 139.911 287.729 139.517C287.656 139.124 287.504 138.749 287.281 138.416C286.349 136.858 284.916 135.656 283.211 135.001C281.506 134.346 279.628 134.277 277.878 134.805C277.382 132.699 276.266 130.786 274.672 129.308C273.077 127.829 271.075 126.852 268.92 126.499C266.764 126.147 264.551 126.435 262.56 127.327C260.57 128.219 258.891 129.675 257.737 131.511C256.473 130.235 254.917 129.28 253.201 128.727C251.485 128.173 249.659 128.038 247.879 128.332C246.098 128.626 244.416 129.341 242.974 130.416C241.533 131.491 240.375 132.895 239.598 134.507C238.08 134.011 236.448 133.97 234.906 134.388C233.364 134.805 231.981 135.664 230.93 136.856C229.879 138.048 229.207 139.521 228.997 141.089C228.788 142.658 229.051 144.253 229.753 145.674C227.421 146.818 225.353 148.922 225.155 151.499C224.958 154.077 227.337 156.775 229.857 156.245C229.249 157.232 229.053 158.414 229.309 159.541C229.565 160.669 230.253 161.654 231.229 162.288C232.204 162.923 233.391 163.158 234.539 162.944C235.686 162.73 236.705 162.083 237.379 161.14" fill="#263238"/>
<path d="M278.583 138.416C278.583 138.416 278.583 138.499 278.583 138.648C278.583 138.797 278.536 139.02 278.461 139.309C278.242 140.142 277.886 140.934 277.408 141.654C276.647 142.795 275.635 143.749 274.446 144.446C272.873 145.382 271.035 145.787 269.209 145.599L269.444 145.339C269.75 146.493 269.585 147.72 268.983 148.754C268.352 149.837 267.567 150.824 266.651 151.685C266.202 152.186 265.701 152.638 265.156 153.035C264.54 153.401 263.842 153.611 263.125 153.649C262.377 153.711 261.625 153.591 260.935 153.299C260.244 153.007 259.637 152.552 259.166 151.974L259.636 151.871C259.389 153.155 258.87 154.373 258.115 155.446C257.36 156.519 256.386 157.422 255.254 158.097C254.01 158.902 252.535 159.284 251.051 159.185C249.658 159.044 248.3 158.666 247.036 158.069L247.384 157.938C246.641 159.406 245.539 160.667 244.178 161.605C243.553 162.078 242.829 162.407 242.06 162.568C241.291 162.729 240.495 162.718 239.73 162.535C238.426 162.176 237.257 161.447 236.367 160.439C235.476 159.43 234.903 158.186 234.718 156.859L235 157.008C233.633 157.627 232.091 157.759 230.637 157.38C229.553 157.118 228.548 156.604 227.703 155.882C227.18 155.422 226.738 154.877 226.396 154.272C226.269 154.067 226.174 153.844 226.114 153.611C226.553 154.414 227.14 155.127 227.844 155.714C228.68 156.386 229.662 156.857 230.712 157.092C232.091 157.418 233.542 157.267 234.822 156.664L235.066 156.543V156.813C235.262 158.049 235.815 159.204 236.657 160.138C237.499 161.072 238.595 161.746 239.815 162.079C240.511 162.239 241.235 162.242 241.933 162.089C242.631 161.936 243.285 161.631 243.848 161.195C245.13 160.3 246.167 159.105 246.867 157.715L246.98 157.483L247.205 157.585C248.419 158.149 249.718 158.511 251.051 158.655C252.423 158.738 253.786 158.379 254.935 157.631C255.999 156.992 256.917 156.141 257.631 155.132C258.345 154.123 258.839 152.977 259.081 151.769L259.194 151.183L259.552 151.667C259.971 152.173 260.508 152.572 261.118 152.828C261.727 153.084 262.39 153.19 263.049 153.137C263.686 153.107 264.305 152.925 264.855 152.606C265.367 152.236 265.84 151.815 266.265 151.35C267.15 150.528 267.916 149.588 268.541 148.559C269.098 147.628 269.263 146.519 269.002 145.469L268.917 145.162L269.227 145.209C270.967 145.408 272.725 145.046 274.239 144.176C275.402 143.528 276.404 142.631 277.173 141.552C277.837 140.603 278.315 139.539 278.583 138.416Z" fill="#455A64"/>
<path d="M305.749 316.746L307.084 303.495L311.701 254.911C309.322 252.445 299.768 248.565 299.768 248.565L276.054 240.124C276.054 240.124 273.778 246.564 255.913 246.824C237.689 247.094 230.139 235.816 230.139 235.816C221.037 238.71 201.149 246.182 201.149 246.182L194.37 309.385L194.022 330.248L189.828 436.498C189.828 436.498 309.247 431.482 311.033 431.175L306.191 392.911L305.749 316.746Z" fill="#FF725E"/>
<path opacity="0.3" d="M271.475 285.554V310.427L285.147 321.464L299.402 310.521L300.182 286.252L271.475 285.554Z" fill="black"/>
<path opacity="0.3" d="M192.376 372.83L192.028 381.67C192.028 381.67 267.469 368.14 280.652 362.882C296.919 356.369 305.645 350.888 305.645 350.888L305.918 344.151L192.376 372.83Z" fill="black"/>
<path d="M197.614 251.496C197.614 251.496 180.613 254.185 177.106 275.69C174.849 289.527 168.013 350.478 177.359 366.884C188.173 385.83 285.824 354.042 285.824 354.042L289.162 329.513L213.937 334.445L204.534 282.753L197.614 251.496Z" fill="#C27461"/>
<path d="M170.345 323.595H218.037L204.986 244.88C204.986 244.88 177.651 250.361 174.078 278.621C170.467 307.105 170.345 323.595 170.345 323.595Z" fill="#FF725E"/>
<path d="M176.344 323.595C176.413 323.586 176.482 323.586 176.551 323.595H177.181L179.588 323.548L188.483 323.474L218.037 323.399L217.793 323.669C217.736 323.055 217.68 322.394 217.623 321.734C216.627 309.86 215.743 299.112 215.056 291.286C214.755 287.424 214.511 284.279 214.332 282.055C214.266 280.994 214.201 280.194 214.163 279.543C214.163 279.282 214.163 279.068 214.163 278.891C214.151 278.817 214.151 278.742 214.163 278.668C214.192 278.739 214.208 278.814 214.21 278.891L214.285 279.533C214.351 280.147 214.445 280.985 214.549 282.046C214.765 284.26 215.066 287.396 215.432 291.258C216.128 299.084 217.087 309.823 218.141 321.696C218.197 322.357 218.253 323.008 218.31 323.623V323.883H218.047L188.493 323.809L179.597 323.734L177.19 323.688H176.56C176.41 323.595 176.344 323.595 176.344 323.595Z" fill="#263238"/>
<path d="M309.313 275.746C309.361 276.281 309.361 276.82 309.313 277.356C309.313 278.389 309.228 279.887 309.143 281.729C308.946 285.452 308.56 290.523 308.024 296.134C307.488 301.745 306.915 306.826 306.463 310.502C306.238 312.363 306.05 313.815 305.899 314.838C305.851 315.372 305.756 315.902 305.617 316.42C305.608 315.885 305.64 315.35 305.711 314.82C305.815 313.712 305.956 312.242 306.125 310.465C306.492 306.742 306.99 301.662 307.535 296.088C308.081 290.514 308.57 285.442 308.824 281.72C308.955 279.943 309.068 278.463 309.143 277.356C309.165 276.816 309.222 276.278 309.313 275.746Z" fill="#263238"/>
<path d="M218.78 267.176C218.561 266.91 218.381 266.615 218.244 266.301C217.877 265.622 217.435 264.803 216.909 263.844C215.513 261.13 213.796 258.591 211.793 256.279C209.763 254.002 207.171 252.283 204.271 251.291C203.041 250.945 201.782 250.712 200.51 250.593C200.849 250.52 201.198 250.498 201.544 250.528C202.499 250.548 203.448 250.692 204.365 250.956C207.377 251.883 210.074 253.612 212.16 255.953C214.194 258.291 215.896 260.892 217.219 263.686C217.746 264.747 218.159 265.612 218.413 266.217C218.573 266.521 218.696 266.843 218.78 267.176Z" fill="#263238"/>
<path opacity="0.3" d="M212.593 327.131C212.508 326.665 220.839 324.655 220.839 324.655L214.737 285.572L218.037 323.595H211.935L212.593 327.131Z" fill="black"/>
<path d="M337.494 330.667L336.017 350.757L329.275 359.132L312.773 380.805L332.764 382.098C332.764 382.098 356.206 376.329 359.657 369.182C363.107 362.036 363.314 330.639 363.314 330.639L337.494 330.667Z" fill="#FFCFB4"/>
<path d="M436.273 263.751L437.401 185.585C438.125 166.974 428.778 150.894 409.972 150.69L408.242 150.773C399.811 151.178 391.842 154.706 385.919 160.657C379.996 166.609 376.552 174.547 376.272 182.896C375.736 199.022 375.331 216.852 375.867 225.459C376.902 243.288 395.078 245.215 395.078 245.215C395.078 245.764 395.078 250.202 394.974 255.516V264.375L436.273 263.751Z" fill="#FFCFB4"/>
<path d="M395.021 245.215C395.021 245.215 406.409 245.336 418.153 237.249C418.153 237.249 413.056 250.547 394.993 249.784L395.021 245.215Z" fill="#FF9D64"/>
<path d="M405.656 192.015C406.051 192.127 407.875 190.824 410.809 190.154C413.743 189.484 416.122 189.773 416.385 189.512C416.648 189.251 416.065 189.121 415.022 188.963C413.506 188.787 411.971 188.882 410.489 189.242C409.047 189.554 407.68 190.142 406.465 190.973C405.675 191.541 405.468 191.969 405.656 192.015Z" fill="#263238"/>
<path d="M408.562 197.524C408.591 198.156 408.869 198.751 409.337 199.183C409.804 199.614 410.424 199.847 411.063 199.832C411.374 199.842 411.684 199.79 411.974 199.68C412.265 199.569 412.53 199.403 412.754 199.189C412.978 198.976 413.157 198.72 413.28 198.438C413.403 198.155 413.468 197.85 413.47 197.543C413.448 196.913 413.178 196.317 412.718 195.883C412.257 195.448 411.643 195.209 411.007 195.216C410.691 195.201 410.376 195.25 410.08 195.359C409.783 195.468 409.513 195.636 409.284 195.851C409.056 196.067 408.874 196.327 408.75 196.614C408.625 196.902 408.561 197.211 408.562 197.524Z" fill="#263238"/>
<path d="M398.218 211.482C398.218 211.324 396.488 211.11 393.677 210.887C392.972 210.887 392.295 210.747 392.154 210.273C392.055 209.554 392.183 208.823 392.52 208.179C393.103 206.448 393.714 204.643 394.401 202.744C396.94 195.021 398.745 188.684 398.425 188.581C398.106 188.479 395.793 194.667 393.254 202.391L391.505 207.853C391.099 208.728 391.016 209.716 391.27 210.645C391.389 210.879 391.56 211.085 391.77 211.245C391.98 211.406 392.223 211.519 392.483 211.575C392.881 211.66 393.289 211.695 393.696 211.678C396.47 211.706 398.218 211.64 398.218 211.482Z" fill="#263238"/>
<path d="M407.866 179.769C408.139 180.439 410.565 180.002 413.442 180.216C416.319 180.43 418.68 181.146 419.084 180.504C419.234 180.207 418.802 179.574 417.833 178.969C416.565 178.226 415.139 177.789 413.669 177.692C412.199 177.595 410.727 177.841 409.371 178.411C408.242 178.894 407.744 179.453 407.866 179.769Z" fill="#263238"/>
<path d="M379.093 184.571C379.394 185.12 381.763 184.571 384.612 184.571C387.461 184.571 389.812 184.98 390.132 184.422C390.263 184.161 389.812 183.659 388.825 183.212C387.502 182.648 386.071 182.375 384.631 182.412C383.176 182.424 381.74 182.741 380.418 183.343C379.459 183.798 378.989 184.31 379.093 184.571Z" fill="#263238"/>
<path d="M436.545 199.115C436.865 198.976 449.475 195.03 449.343 207.853C449.211 220.676 436.226 217.894 436.179 217.531C436.132 217.168 436.545 199.115 436.545 199.115Z" fill="#FFCFB4"/>
<path d="M440.213 212.711C440.278 212.711 440.438 212.869 440.824 213.046C441.356 213.281 441.96 213.301 442.507 213.101C443.88 212.618 445.055 210.477 445.14 208.17C445.185 207.072 444.983 205.979 444.547 204.968C444.43 204.565 444.216 204.196 443.923 203.893C443.63 203.589 443.266 203.361 442.864 203.228C442.605 203.161 442.331 203.184 442.087 203.294C441.844 203.404 441.646 203.595 441.529 203.833C441.35 204.187 441.435 204.447 441.36 204.466C441.284 204.485 441.087 204.243 441.2 203.721C441.272 203.403 441.455 203.119 441.717 202.921C441.894 202.79 442.096 202.694 442.31 202.64C442.525 202.585 442.748 202.574 442.968 202.605C443.499 202.715 443.992 202.958 444.401 203.312C444.809 203.666 445.119 204.118 445.3 204.624C445.843 205.736 446.098 206.964 446.042 208.197C445.939 210.784 444.576 213.185 442.695 213.706C442.346 213.802 441.98 213.82 441.624 213.757C441.267 213.694 440.93 213.553 440.636 213.343C440.213 213.018 440.213 212.729 440.213 212.711Z" fill="#FF9D64"/>
<path d="M379.365 190.675C379.647 190.964 381.867 190.824 384.735 191.755C387.602 192.685 389.492 194.128 389.85 194.034C390.019 194.034 389.775 193.56 388.956 192.908C387.736 192.001 386.369 191.306 384.913 190.852C383.523 190.379 382.056 190.168 380.588 190.229C379.61 190.303 379.224 190.526 379.365 190.675Z" fill="#263238"/>
<path d="M382.854 197.226C382.878 197.857 383.151 198.452 383.612 198.887C384.074 199.322 384.69 199.56 385.327 199.553C385.637 199.563 385.947 199.511 386.237 199.4C386.527 199.29 386.791 199.123 387.015 198.91C387.238 198.696 387.416 198.44 387.538 198.158C387.66 197.875 387.724 197.571 387.725 197.263C387.703 196.634 387.432 196.038 386.972 195.603C386.512 195.169 385.897 194.929 385.261 194.937C384.95 194.927 384.64 194.979 384.35 195.089C384.059 195.2 383.794 195.366 383.57 195.58C383.346 195.793 383.167 196.049 383.044 196.331C382.921 196.614 382.856 196.918 382.854 197.226Z" fill="#263238"/>
<path d="M352.294 166.332C352.526 165.621 353.033 165.029 353.704 164.685C355.134 163.894 356.751 164.043 358.312 164.062C362.216 164.075 366.073 163.217 369.596 161.549C368.39 160.931 367.292 160.126 366.342 159.167C364.414 157.157 363.343 154.133 364.32 151.527C364.388 151.274 364.512 151.039 364.685 150.841C364.858 150.642 365.074 150.486 365.317 150.383C366.116 150.169 366.803 150.959 367.339 151.583C369.116 153.658 370.79 154.57 373.517 154.375C375.159 154.311 376.766 153.882 378.218 153.118L378.378 152.96C379.036 152.318 379.676 151.713 380.259 151.099C384.96 146.679 389.05 143.655 393.188 142.101C399.243 139.867 409.305 139.151 415.511 140.928C421.717 142.706 427.217 147.879 427.923 154.235C431.505 151.388 436.771 151.546 440.993 153.36L441.106 153.314C445.807 155.11 448.393 160.153 449.672 164.992C449.747 165.253 449.804 165.523 449.869 165.783C451.406 168.366 453.547 170.546 456.113 172.139C456.564 172.409 457.053 172.753 457.129 173.274C457.204 173.795 456.715 174.205 456.273 174.512C455.105 175.283 453.779 175.789 452.389 175.991C452.785 177.148 453.283 178.269 453.875 179.341C454.392 180.272 455.004 181.351 454.505 182.272C454.284 182.613 453.962 182.877 453.584 183.03C453.205 183.183 452.788 183.218 452.389 183.129C451.592 182.936 450.845 182.577 450.199 182.077L451.694 185.892C449.956 186.134 448.185 185.972 446.522 185.418C445.403 189.884 444.105 195.579 442.864 198.594C440.871 198.538 438.999 198.036 437.749 199.097C436.047 200.53 435.229 203.303 432.483 202.177C431.092 201.6 429.879 198.641 429.446 197.208C426.558 187.663 425.779 177.615 427.161 167.747C425.28 165.629 423.007 163.885 420.466 162.61L420.673 162.805C415.699 160.944 410.057 159.083 405.233 161.326C401.472 163.038 399.215 166.779 396.375 169.701C393.89 172.434 390.854 174.623 387.463 176.126C384.072 177.629 380.401 178.414 376.685 178.429C375.839 183.78 376.243 190.61 375.858 195.607L371.382 187.409C371.06 186.825 370.768 186.226 370.508 185.613L370.414 185.427C370.02 184.442 369.571 183.478 369.069 182.542C366.248 184.869 362.318 181.109 364.556 178.243C364.997 177.674 365.523 177.175 366.116 176.764C365.48 177.339 364.704 177.742 363.864 177.934C363.024 178.126 362.148 178.101 361.321 177.862C360.504 177.591 359.799 177.062 359.316 176.355C358.834 175.649 358.6 174.805 358.65 173.953C358.732 173.38 358.964 172.837 359.324 172.38C359.684 171.923 360.158 171.567 360.7 171.348C358.466 171.467 356.247 170.926 354.325 169.794C353.037 169.124 351.824 167.877 352.294 166.332Z" fill="#263238"/>
<path d="M422.347 156.143C422.983 156.65 423.575 157.21 424.115 157.818C425.49 159.553 426.387 161.611 426.719 163.792C426.986 165.287 427.102 166.805 427.067 168.323C427.067 169.971 426.851 171.72 426.672 173.562C426.456 175.5 426.362 177.448 426.39 179.397C426.422 180.433 426.532 181.466 426.719 182.486C426.852 183.574 427.259 184.611 427.904 185.501C428.207 185.859 428.598 186.132 429.04 186.296C429.482 186.459 429.958 186.506 430.424 186.432C431.309 186.287 432.122 185.859 432.737 185.213C433.754 183.909 434.403 182.361 434.618 180.728H434.242C434.748 182.081 435.451 183.354 436.329 184.506C437.177 185.581 438.415 186.289 439.78 186.478C440.42 186.564 441.071 186.47 441.661 186.209C442.203 185.947 442.652 185.528 442.949 185.008C443.232 184.535 443.378 183.995 443.372 183.445C443.363 182.932 443.173 182.438 442.836 182.049L442.639 182.207C443.668 183.447 444.949 184.459 446.4 185.176C446.908 185.418 447.34 185.567 447.585 185.669C447.722 185.719 447.863 185.756 448.008 185.781C447.884 185.706 447.751 185.646 447.613 185.604C447.34 185.483 446.955 185.315 446.466 185.055C445.054 184.307 443.81 183.284 442.808 182.049L442.61 182.217C442.899 182.596 443.059 183.055 443.069 183.529C443.08 184.003 442.939 184.469 442.667 184.859C442.392 185.319 441.987 185.688 441.501 185.92C440.967 186.145 440.382 186.222 439.808 186.143C438.541 185.952 437.396 185.286 436.611 184.282C435.762 183.144 435.084 181.891 434.599 180.56L434.354 179.983L434.213 180.597C434.024 182.154 433.417 183.632 432.455 184.878C431.909 185.461 431.18 185.844 430.386 185.967C429.993 186.037 429.587 186.004 429.211 185.87C428.835 185.736 428.501 185.506 428.242 185.204C427.651 184.376 427.274 183.417 427.142 182.412C426.961 181.413 426.855 180.402 426.823 179.388C426.791 177.458 426.876 175.528 427.076 173.609C427.246 171.748 427.406 169.998 427.434 168.342C427.461 166.8 427.325 165.259 427.029 163.745C426.649 161.525 425.675 159.446 424.209 157.725C423.684 157.096 423.054 156.56 422.347 156.143Z" fill="#455A64"/>
<path d="M366.239 172.055C366.239 172.055 366.239 172.055 366.38 172.176L366.812 172.511C367.052 172.695 367.303 172.863 367.565 173.013C367.911 173.236 368.272 173.434 368.646 173.609C371.018 174.747 373.638 175.284 376.272 175.172C380.21 175.006 384.015 173.713 387.226 171.45C391.105 168.664 394.368 165.124 396.817 161.047C398.181 158.925 399.3 156.747 400.532 154.737C401.653 152.776 403.053 150.984 404.688 149.415C406.164 148.007 407.97 146.984 409.944 146.437C410.84 146.211 411.767 146.129 412.69 146.195C413.541 146.265 414.379 146.446 415.182 146.735C416.564 147.241 417.82 148.035 418.868 149.061C419.66 149.837 420.323 150.732 420.833 151.713C421.219 152.575 421.506 153.477 421.689 154.402C421.689 154.402 421.689 154.347 421.689 154.216C421.689 154.086 421.689 153.891 421.623 153.677C421.493 152.979 421.281 152.298 420.993 151.648C420.505 150.617 419.847 149.673 419.046 148.856C417.984 147.786 416.701 146.954 415.285 146.418C414.459 146.113 413.596 145.916 412.718 145.832C411.771 145.766 410.82 145.844 409.897 146.065C407.853 146.605 405.98 147.649 404.453 149.098C402.783 150.684 401.352 152.498 400.203 154.486C398.961 156.506 397.842 158.683 396.488 160.786C394.065 164.815 390.848 168.322 387.029 171.096C383.879 173.327 380.149 174.619 376.281 174.819C373.677 174.958 371.077 174.473 368.702 173.404C367.858 172.998 367.035 172.547 366.239 172.055Z" fill="#455A64"/>
<path d="M364.8 164.192C364.8 164.192 365.007 164.378 365.43 164.657C366.032 165.036 366.66 165.372 367.311 165.662C368.278 166.099 369.282 166.454 370.31 166.723C372.837 167.383 375.472 167.531 378.058 167.16C379.11 167.008 380.148 166.772 381.161 166.453C381.841 166.238 382.504 165.973 383.145 165.662C383.392 165.564 383.623 165.433 383.832 165.271C383.832 165.206 382.788 165.681 381.077 166.202C380.069 166.486 379.041 166.691 378.002 166.816C376.735 166.96 375.458 167.004 374.184 166.946C372.917 166.861 371.659 166.674 370.423 166.388C369.408 166.15 368.412 165.839 367.442 165.457C365.787 164.713 364.838 164.127 364.8 164.192Z" fill="#455A64"/>
<path d="M407.302 216.116C407.302 216.116 400.72 217.977 398.256 218.908L399.253 221.7C399.464 222.286 399.795 222.823 400.226 223.277C400.657 223.73 401.178 224.091 401.756 224.336C402.335 224.58 402.958 224.704 403.587 224.699C404.216 224.693 404.838 224.56 405.412 224.305C405.991 224.027 406.506 223.634 406.926 223.151C407.666 222.266 408.036 221.134 407.96 219.987C407.842 218.682 407.622 217.388 407.302 216.116Z" fill="#FF9D64"/>
<path d="M398.228 218.899C398.143 218.675 402.111 217.242 407.142 215.688L407.612 215.539L407.716 216.033C407.716 216.098 407.716 216.172 407.763 216.237C408.071 217.458 408.269 218.704 408.355 219.96C408.446 221.067 408.11 222.167 407.415 223.04C406.173 224.501 404.885 224.584 404.904 224.501C404.923 224.417 405.957 224.026 406.888 222.64C407.979 221.309 407.48 218.917 406.888 216.368C406.888 216.293 406.888 216.219 406.841 216.154L407.415 216.498C402.403 218.089 398.313 219.131 398.228 218.899Z" fill="#263238"/>
<path d="M353.535 452.234L481.172 451.647L474.129 344.206L473.603 312.177L466.08 254.129L437.561 248.071C437.561 248.071 430.424 261.099 412.173 260.783C394.354 260.522 394.927 253.022 394.927 253.022L364.621 264.282C364.621 264.282 348.016 272.284 344.969 280.036C341.998 287.592 336.252 331.02 336.252 331.02L362.383 330.704L360.061 412.927L353.535 452.234Z" fill="#455A64"/>
<path d="M363.314 292.598C363.359 292.781 363.381 292.968 363.38 293.156C363.38 293.585 363.437 294.087 363.474 294.785C363.54 296.19 363.606 298.237 363.615 300.759C363.615 305.812 363.531 312.782 363.296 320.477C363.06 328.173 362.741 335.143 362.477 340.186C362.336 342.652 362.224 344.681 362.139 346.151C362.083 346.812 362.045 347.352 362.017 347.77C362.012 347.962 361.984 348.153 361.932 348.338C361.918 348.149 361.918 347.959 361.932 347.77C361.932 347.342 361.932 346.84 361.932 346.142L362.12 340.168C362.299 335.068 362.534 328.136 362.797 320.468C363.06 312.8 363.202 305.803 363.258 300.759C363.258 298.237 363.258 296.199 363.258 294.785C363.258 294.124 363.258 293.585 363.258 293.166C363.254 292.975 363.273 292.785 363.314 292.598Z" fill="#263238"/>
<path d="M465.243 254.911C465.243 254.911 478.079 256.251 484.99 265.147C491.318 273.345 503.504 299.149 503.185 299.782C502.865 300.415 474.44 318.849 474.44 318.849L467.425 306.045L465.243 254.911Z" fill="#455A64"/>
<path d="M471.496 267.585C471.547 267.745 471.572 267.911 471.572 268.078C471.572 268.45 471.637 268.916 471.685 269.483C471.788 270.702 471.891 272.48 471.995 274.666C472.211 279.04 472.38 285.098 472.484 291.779C472.587 298.461 472.691 304.509 472.822 308.892C472.888 311.023 472.935 312.782 472.973 314.075C472.973 314.643 472.973 315.108 472.973 315.48C472.997 315.644 472.997 315.81 472.973 315.973C472.934 315.815 472.912 315.653 472.907 315.49C472.907 315.117 472.832 314.652 472.785 314.084C472.691 312.856 472.587 311.088 472.474 308.901C472.258 304.528 472.089 298.47 471.995 291.789C471.901 285.107 471.779 279.059 471.647 274.676C471.59 272.545 471.534 270.786 471.496 269.493C471.496 268.925 471.496 268.46 471.496 268.087C471.471 267.921 471.471 267.752 471.496 267.585Z" fill="#263238"/>
<path d="M293.788 379.428C293.788 379.428 298.02 382.219 300.671 381.884C303.323 381.549 312.021 379.428 312.021 379.428C312.021 379.428 312.199 380.191 314.503 381.912C316.807 383.634 330.808 385.914 336.657 385.216C342.505 384.518 352.435 380.833 352.435 380.833L349.454 364.241L323.126 368.354L293.798 375.035V379.428H293.788Z" fill="#824E44"/>
<path d="M302.627 365.907C302.627 365.907 300.323 375.91 301.564 377.315C302.806 378.72 304.385 379.065 305.25 377.138C306.247 374.253 307.088 371.318 307.771 368.345L308.833 365.907C308.833 365.907 307.413 382.396 310.244 383.28C313.074 384.164 314.682 383.28 314.682 383.28C314.682 383.28 320.324 387.486 320.709 380.823C321.113 375.805 321.918 370.827 323.116 365.935L324.433 363.766V367.489C324.433 367.489 321.443 376.254 323.116 377.483C324.79 378.711 326.558 379.595 327.62 378.19C328.683 376.785 333.629 366.512 334.72 362.91C334.72 362.91 338.039 367.656 342.675 367.721C346.314 367.768 348.429 366.223 346.944 363.999C345.458 361.775 341.8 359.877 341.8 359.877L337.014 348.813L325.317 346.105H312.021L302.627 365.907Z" fill="#FFCFB4"/>
<path d="M283.642 358.797C283.642 358.797 294.822 365.386 299.966 366.614C305.109 367.842 332.67 362.994 332.388 361.273C332.106 359.551 328.504 358.016 326.022 357.662C323.539 357.308 316.271 356.08 316.271 356.08H335.773L345.176 361.961C345.176 361.961 348.514 360.631 347.433 357.941C346.859 356.508 339.506 350.823 339.506 350.823L321.64 347.314L289.905 346.086L283.642 358.797Z" fill="#FFBF9D"/>
<path d="M294.117 329.243C294.117 329.243 325.843 334.51 326.558 335.385C327.272 336.259 335.415 345.379 335.415 345.379C335.415 345.379 347.639 349.548 346.06 352.228C344.48 354.908 340.916 353.279 340.916 353.279C340.916 353.279 345.881 360.993 343.577 362.585C341.274 364.176 338.791 363.106 336.995 360.826C335.199 358.546 330.084 350.125 330.084 350.125C330.084 350.125 334.334 367.321 332.209 367.852C330.084 368.382 326.718 368.549 325.298 364.129C324.534 361.893 323.94 359.604 323.521 357.281L316.788 346.235C316.788 346.235 319.449 366.418 317.851 368.075C317.851 368.075 313.77 369.387 312.359 365.879C310.949 362.371 308.983 354.349 308.983 354.349L305.617 345.528L305.269 351.111C305.269 351.111 308.09 361.459 306.332 362.157C304.573 362.854 302.251 362.157 301.01 359.793C299.684 357.43 298.615 354.935 297.822 352.349C297.474 350.981 295.594 346.309 295.594 346.309L288.852 345.435L294.117 329.243Z" fill="#C27461"/>
<path d="M333.187 342.699C334.714 344.434 336.118 346.272 337.39 348.198C338.797 350.029 340.07 351.957 341.198 353.968C339.669 352.237 338.265 350.403 336.995 348.478C335.587 346.645 334.314 344.713 333.187 342.699Z" fill="#7D4336"/>
<path d="M322.608 336.892C323.183 337.408 323.683 338 324.094 338.651C325.184 340.141 326.182 341.695 327.084 343.304C327.982 344.916 328.798 346.571 329.529 348.264C329.878 348.95 330.143 349.674 330.319 350.422C329.885 349.79 329.517 349.117 329.219 348.412C328.579 347.147 327.705 345.416 326.652 343.546C325.599 341.675 324.583 340.019 323.831 338.837C323.37 338.223 322.961 337.573 322.608 336.892Z" fill="#7D4336"/>
<path d="M313.271 337.823C313.271 337.776 313.798 338.046 314.39 338.707C315.152 339.575 315.725 340.588 316.073 341.685C316.427 342.76 316.66 343.871 316.769 344.997C316.853 345.462 316.853 345.938 316.769 346.402C316.573 345.975 316.446 345.52 316.393 345.053C316.19 343.965 315.92 342.889 315.584 341.833C315.243 340.793 314.742 339.811 314.099 338.921C313.619 338.242 313.271 337.888 313.271 337.823Z" fill="#7D4336"/>
<path d="M301.988 338.781C301.988 338.725 302.477 338.874 303.125 339.321C303.964 339.924 304.641 340.719 305.1 341.638C305.564 342.559 305.79 343.578 305.758 344.606C305.791 345.031 305.703 345.457 305.504 345.835C305.572 344.46 305.285 343.091 304.67 341.857C304.054 340.623 303.131 339.564 301.988 338.781Z" fill="#7D4336"/>
<path opacity="0.3" d="M360.888 384.583C363.145 384.583 449.343 378.32 449.343 378.32L479.705 372.104L472.183 338.791L361.067 374.151L360.888 384.583Z" fill="black"/>
<path d="M349.454 364.232L429.249 346.086C429.249 346.086 501.897 304.211 503.006 303.504C504.116 302.797 497.364 346.086 497.364 346.086C497.364 346.086 451.092 370.215 437.768 373.342C430.509 375.045 350.018 381.717 350.018 381.717L349.454 364.232Z" fill="#824E44"/>
<path d="M545.903 191.913C550.821 186.665 562.828 187.576 565.649 191.085C567.79 190.118 570.225 190.004 572.448 190.767C574.672 191.529 576.513 193.109 577.591 195.179L590.342 198.064C592.514 198.557 594.789 199.097 596.454 200.576C598.118 202.056 598.87 204.764 597.469 206.485C601.955 207.686 603.656 214.339 600.29 217.503C600.716 218.002 601.034 218.582 601.225 219.207C601.417 219.832 601.477 220.489 601.403 221.137C601.329 221.786 601.123 222.414 600.795 222.981C600.468 223.548 600.028 224.043 599.5 224.435C602.993 228.661 605.728 233.449 607.587 238.589C608.367 240.739 608.988 243.13 608.161 245.261C607.333 247.392 604.484 248.834 602.632 247.485C603.252 248.368 603.601 249.409 603.638 250.484C603.675 251.559 603.397 252.621 602.838 253.543C605.001 253.617 605.612 256.93 604.108 258.466C602.603 260.001 600.196 260.15 598.033 260.075C595.871 260.001 593.529 259.871 591.743 261.08C591.76 261.342 591.83 261.597 591.95 261.83C592.07 262.064 592.236 262.271 592.439 262.439C596.115 265.463 597.14 270.619 594.319 274.443C594.056 274.797 593.811 275.122 593.605 275.42C592.335 277.17 589.213 278.742 587.276 279.719C582.368 282.195 579.462 281.692 573.999 282.418C575.457 285.917 566.477 293.584 556.453 285.87C536.124 291.025 521.54 292.887 500.59 292.775C497.599 292.775 494.007 292.319 492.71 289.658C490.284 290.272 487.67 289.127 485.902 287.378C484.231 285.52 482.895 283.392 481.953 281.087C479.377 280.32 477.104 278.784 475.446 276.688C473.787 274.592 472.825 272.04 472.691 269.381C470.954 267.995 469.529 266.266 468.504 264.306C467.479 262.345 466.878 260.194 466.739 257.991C461.717 256.428 459.009 249.942 461.445 245.326C462.59 239.217 464.747 233.338 467.829 227.925C464.416 227.162 463.128 222.574 464.613 219.41C466.099 216.247 469.183 214.237 472.136 212.403C469.569 213.046 467.369 209.844 467.999 207.295C468.629 204.745 470.97 203.014 473.264 201.711C476.619 199.764 480.2 198.223 483.927 197.124C485.187 192.676 491.008 187.642 495.211 185.706C512.325 177.899 524.285 175.991 545.837 191.941" fill="#263238"/>
<path d="M498.145 223.589C499.621 211.994 508.309 198.185 519.95 200.139L555.974 211.538C557.679 211.826 559.214 212.735 560.276 214.087C561.338 215.439 561.849 217.136 561.709 218.843L555.597 296.367C555.213 301.263 553.131 305.878 549.704 309.43C546.278 312.983 541.716 315.255 536.791 315.862C533.729 316.236 530.621 315.954 527.678 315.036C524.735 314.118 522.025 312.584 519.733 310.54C517.441 308.496 515.619 305.988 514.391 303.186C513.163 300.384 512.558 297.354 512.616 294.301C512.72 288.969 512.776 284.996 512.776 284.996C512.776 284.996 497.9 281.608 496.01 262.011C495.032 252.259 496.509 236.467 498.145 223.589Z" fill="#824E44"/>
<path d="M504.727 239.343C504.68 239.99 504.89 240.63 505.314 241.126C505.737 241.621 506.34 241.933 506.993 241.995C507.312 242.039 507.636 242.02 507.947 241.939C508.258 241.858 508.549 241.716 508.804 241.522C509.059 241.328 509.272 241.085 509.431 240.808C509.59 240.532 509.691 240.227 509.729 239.911C509.772 239.263 509.56 238.625 509.137 238.129C508.715 237.633 508.115 237.317 507.463 237.249C507.144 237.205 506.819 237.224 506.508 237.306C506.196 237.388 505.904 237.53 505.649 237.726C505.394 237.921 505.181 238.164 505.023 238.442C504.865 238.72 504.764 239.026 504.727 239.343Z" fill="#263238"/>
<path d="M501.097 232.029C501.389 232.373 503.382 231.098 506.09 231.266C508.798 231.433 510.688 232.903 511.008 232.596C511.159 232.457 510.876 231.852 510.068 231.173C508.947 230.299 507.581 229.789 506.156 229.712C504.749 229.623 503.35 229.978 502.16 230.726C501.276 231.303 500.956 231.871 501.097 232.029Z" fill="#263238"/>
<path d="M529.542 240.366C529.494 241.015 529.705 241.656 530.128 242.153C530.551 242.65 531.154 242.964 531.808 243.028C532.126 243.072 532.45 243.053 532.761 242.972C533.072 242.891 533.364 242.749 533.619 242.555C533.873 242.361 534.086 242.118 534.245 241.841C534.404 241.565 534.506 241.259 534.544 240.943C534.591 240.295 534.381 239.654 533.958 239.157C533.534 238.66 532.932 238.346 532.278 238.282C531.959 238.238 531.635 238.257 531.324 238.338C531.013 238.419 530.722 238.561 530.467 238.755C530.212 238.949 529.999 239.192 529.84 239.468C529.681 239.745 529.58 240.05 529.542 240.366Z" fill="#263238"/>
<path d="M527.661 234.16C527.952 234.504 529.955 233.229 532.654 233.406C535.353 233.583 537.261 235.034 537.572 234.727C537.722 234.588 537.449 233.983 536.631 233.313C535.513 232.435 534.145 231.925 532.72 231.852C531.313 231.755 529.912 232.107 528.723 232.857C527.84 233.443 527.52 234.011 527.661 234.16Z" fill="#263238"/>
<path d="M516.594 253.422C516.594 253.264 514.957 252.873 512.249 252.361C511.563 252.25 510.923 252.073 510.829 251.598C510.818 250.887 511.025 250.19 511.422 249.598L513.791 244.517C517.092 237.286 519.527 231.312 519.236 231.182C518.944 231.052 516.02 236.821 512.719 244.051L510.435 249.169C509.948 249.967 509.761 250.91 509.908 251.831C509.99 252.079 510.13 252.305 510.316 252.491C510.502 252.677 510.73 252.817 510.98 252.901C511.356 253.032 511.748 253.11 512.146 253.134C514.873 253.45 516.575 253.571 516.594 253.422Z" fill="#263238"/>
<path d="M512.738 284.986C521.962 285.695 531.204 283.856 539.434 279.673C539.434 279.673 532.221 292.607 512.719 289.583L512.738 284.986Z" fill="#5B342F"/>
<path d="M527.163 223.096C527.379 223.84 530.106 223.663 533.256 224.231C536.406 224.798 538.898 225.822 539.387 225.161C539.593 224.854 539.189 224.147 538.192 223.375C536.865 222.427 535.337 221.79 533.724 221.513C532.111 221.236 530.456 221.325 528.883 221.774C527.661 222.165 527.069 222.714 527.163 223.096Z" fill="#263238"/>
<path d="M502.63 222.872C503.072 223.505 504.971 222.993 507.219 223.105C509.466 223.216 511.328 223.765 511.807 223.151C512.014 222.854 511.751 222.221 510.961 221.607C509.891 220.847 508.617 220.419 507.301 220.378C505.985 220.336 504.687 220.683 503.57 221.374C502.743 221.951 502.442 222.565 502.63 222.872Z" fill="#263238"/>
<path d="M489.165 232.764C489.297 229.688 490.5 226.753 492.569 224.454C493.744 223.254 495.22 222.36 496.264 221.048C498.521 218.21 498.286 214.218 499.283 210.747C499.947 208.508 501.144 206.46 502.771 204.771C504.399 203.083 506.41 201.804 508.639 201.042C512.343 199.804 516.509 200.046 519.997 198.25C522.574 196.947 524.558 194.658 527.21 193.513C532.372 191.28 538.268 193.988 543.054 196.919C543.994 200.734 541.455 203.982 539.057 207.099C537.845 208.656 536.306 209.933 534.546 210.844C532.786 211.755 530.848 212.277 528.865 212.376C525.799 212.506 522.226 211.752 520.035 213.883C517.844 216.014 518.54 220.146 516.622 222.723C513.895 226.445 507.858 224.891 503.834 227.125C500.731 228.856 499.367 232.475 497.759 235.63C496.151 238.785 493.424 242.041 489.861 241.818C489.277 238.837 489.043 235.798 489.165 232.764Z" fill="#263238"/>
<path d="M535.277 203.749C544.276 203.778 553.185 205.529 561.512 208.905C563.976 209.91 566.533 211.175 567.906 213.436C569.119 215.428 569.232 217.875 569.157 220.192C568.94 227.469 565.828 236.319 562.904 243L553.632 248.276C546.589 246.499 550.05 234.476 550.501 228.428C548.053 227.279 545.981 225.472 544.522 223.212C543.064 220.953 542.278 218.332 542.255 215.651C540.261 214.315 538.598 212.551 537.39 210.49C536.182 208.429 535.46 206.125 535.277 203.749Z" fill="#263238"/>
<path d="M553.773 245.671C554.121 241.511 559.302 240.795 562.875 243C564.841 244.21 566.289 246.564 565.96 250.975C565.019 262.746 553.312 259.433 553.312 259.098C553.312 258.763 553.36 250.537 553.773 245.671Z" fill="#824E44"/>
<path d="M557.29 254.902C557.346 254.902 557.487 255.069 557.826 255.246C558.06 255.37 558.317 255.447 558.582 255.472C558.847 255.498 559.114 255.472 559.368 255.395C560.656 255.032 561.869 253.134 562.086 251.021C562.193 250.015 562.071 248.997 561.728 248.043C561.643 247.669 561.468 247.32 561.218 247.027C560.967 246.733 560.649 246.504 560.29 246.359C560.055 246.281 559.801 246.286 559.569 246.372C559.338 246.459 559.144 246.622 559.02 246.834C558.841 247.15 558.898 247.392 558.832 247.411C558.766 247.429 558.588 247.187 558.719 246.713C558.813 246.427 558.997 246.179 559.246 246.006C559.593 245.79 560.01 245.713 560.412 245.792C560.893 245.925 561.333 246.178 561.688 246.527C562.043 246.875 562.303 247.308 562.443 247.783C562.872 248.839 563.034 249.982 562.913 251.114C562.659 253.478 561.258 255.609 559.5 255.972C559.172 256.041 558.832 256.036 558.506 255.957C558.181 255.878 557.877 255.727 557.619 255.516C557.29 255.19 557.243 254.92 557.29 254.902Z" fill="#5B342F"/>
<path d="M562.998 262.393C563.626 262.426 564.256 262.398 564.878 262.309C565.603 262.22 566.31 262.022 566.975 261.723L566.834 261.648C566.978 262.655 567.384 263.608 568.013 264.412C568.642 265.217 569.471 265.846 570.419 266.237C571.368 266.628 572.403 266.769 573.423 266.645C574.443 266.52 575.413 266.136 576.237 265.528H576.03C576.385 266.068 576.938 266.448 577.572 266.589C578.217 266.732 578.89 266.687 579.509 266.459C580.154 266.235 580.706 265.806 581.08 265.24C581.452 264.661 581.672 263.999 581.719 263.314C581.79 261.895 581.357 260.496 580.497 259.359C579.598 258.213 578.562 257.179 577.412 256.279V256.558C577.916 256.254 578.349 255.848 578.683 255.367C579.016 254.886 579.244 254.34 579.35 253.766C579.604 252.604 579.506 251.393 579.067 250.286C578.596 249.17 577.906 248.158 577.036 247.308C576.152 246.446 575.21 245.644 574.215 244.908V245.168C574.65 244.719 574.984 244.185 575.197 243.6C575.409 243.014 575.494 242.392 575.447 241.772C575.379 240.497 574.935 239.271 574.168 238.245C572.673 236.291 570.464 235.183 568.433 234.141L568.527 234.346C568.858 233.12 568.884 231.832 568.601 230.594C568.318 229.356 567.735 228.205 566.902 227.239C566.069 226.274 565.011 225.524 563.82 225.053C562.629 224.582 561.34 224.406 560.064 224.538L560.243 224.743C560.453 223.733 560.427 222.688 560.166 221.69C559.906 220.691 559.417 219.765 558.738 218.982C558.14 218.228 557.384 217.611 556.522 217.174C555.66 216.737 554.713 216.491 553.745 216.451L553.895 216.6C553.886 215.597 553.646 214.608 553.193 213.71C552.74 212.812 552.086 212.028 551.281 211.417C550.6 210.855 549.81 210.436 548.96 210.186C548.109 209.937 547.216 209.862 546.335 209.965L546.467 210.086C546.413 209.011 546.09 207.965 545.527 207.044C545.064 206.222 544.467 205.483 543.759 204.857C542.653 203.824 541.23 203.185 539.716 203.042H539.274C539.133 203.042 538.992 203.042 538.851 203.042C538.599 203.051 538.347 203.076 538.098 203.117C537.708 203.183 537.324 203.283 536.951 203.414L536.284 203.684L536.067 203.777L536.302 203.712L536.979 203.47C537.352 203.357 537.732 203.27 538.117 203.21C538.363 203.171 538.611 203.153 538.86 203.154H539.274L539.706 203.2C541.184 203.356 542.567 203.995 543.637 205.015C544.326 205.634 544.905 206.364 545.348 207.174C545.867 208.069 546.161 209.074 546.204 210.105V210.245H546.335C547.185 210.151 548.044 210.229 548.862 210.473C549.68 210.718 550.439 211.125 551.093 211.668C551.858 212.258 552.477 213.012 552.906 213.872C553.334 214.733 553.56 215.678 553.566 216.637V216.786H553.717C554.667 216.857 555.592 217.125 556.431 217.572C557.27 218.02 558.004 218.637 558.586 219.384C559.168 220.131 559.584 220.991 559.808 221.908C560.032 222.825 560.058 223.778 559.885 224.705L559.829 224.938H560.064C561.284 224.796 562.521 224.952 563.666 225.392C564.811 225.833 565.83 226.544 566.633 227.464C567.437 228.383 568 229.484 568.274 230.669C568.549 231.854 568.526 233.088 568.207 234.262V234.402L568.329 234.467C570.36 235.509 572.514 236.607 573.971 238.477C574.702 239.44 575.124 240.597 575.184 241.8C575.227 242.37 575.149 242.943 574.954 243.481C574.76 244.02 574.454 244.512 574.056 244.926L573.905 245.066L574.065 245.187C575.946 246.694 577.911 248.285 578.767 250.426C579.175 251.469 579.267 252.607 579.03 253.701C578.931 254.223 578.722 254.719 578.418 255.157C578.113 255.594 577.72 255.964 577.262 256.242L577.055 256.363L577.234 256.521C578.369 257.393 579.39 258.403 580.271 259.526C581.096 260.591 581.515 261.909 581.456 263.249C581.448 263.874 581.254 264.483 580.898 265C580.541 265.516 580.039 265.917 579.453 266.152C578.916 266.386 578.315 266.434 577.747 266.288C577.179 266.143 576.677 265.813 576.322 265.352L576.237 265.221L576.115 265.305C575.255 265.925 574.238 266.296 573.177 266.378C572.116 266.461 571.053 266.25 570.106 265.77C569.32 265.351 568.642 264.759 568.124 264.039C567.605 263.32 567.261 262.492 567.116 261.62V261.481L566.994 261.546C566.351 261.842 565.666 262.039 564.963 262.132C564.341 262.231 563.711 262.269 563.082 262.244C562.085 262.243 561.099 262.037 560.186 261.639C559.613 261.413 559.135 260.999 558.832 260.466C558.644 260.094 558.616 259.871 558.597 259.88V260.038C558.629 260.194 558.683 260.344 558.757 260.485C559.046 261.045 559.525 261.487 560.111 261.732" fill="#455A64"/>
<path d="M604.089 248.044C604.269 247.826 604.424 247.589 604.55 247.336C605.045 246.398 605.283 245.348 605.242 244.29C605.201 243.233 604.881 242.204 604.315 241.306C603.839 240.573 603.213 239.945 602.478 239.464C601.743 238.984 600.914 238.66 600.046 238.515L600.149 238.654C600.591 236.665 600.255 234.583 599.209 232.829C598.638 231.845 597.858 230.994 596.924 230.335C595.898 229.711 594.815 229.185 593.689 228.763C593.135 228.523 592.616 228.21 592.147 227.832C591.689 227.425 591.326 226.923 591.085 226.362C590.577 225.226 590.436 223.886 589.787 222.64C589.101 221.379 588.049 220.35 586.767 219.687C585.485 219.024 584.031 218.756 582.594 218.917L582.8 219.122C583.03 217.698 582.927 216.24 582.498 214.861C582.07 213.482 581.328 212.219 580.329 211.169C579.33 210.118 578.101 209.308 576.736 208.801C575.372 208.294 573.908 208.104 572.457 208.244L572.655 208.439C572.851 206.871 572.591 205.279 571.904 203.852C571.217 202.425 570.132 201.223 568.777 200.385C567.423 199.548 565.854 199.112 564.257 199.128C562.66 199.143 561.101 199.61 559.763 200.474H559.951C558.787 199.329 557.385 198.45 555.842 197.896C554.473 197.367 553.042 197.014 551.582 196.845C549.226 196.548 546.835 196.668 544.521 197.198C543.032 197.522 541.607 198.081 540.299 198.855C539.952 199.055 539.622 199.282 539.311 199.534C539.202 199.611 539.099 199.695 539.001 199.785C539.001 199.785 539.443 199.46 540.346 198.929C541.661 198.198 543.081 197.671 544.558 197.366C546.856 196.869 549.224 196.775 551.554 197.087C552.988 197.268 554.393 197.624 555.738 198.148C557.21 198.734 558.537 199.626 559.631 200.762L559.716 200.855L559.829 200.79C561.115 199.965 562.612 199.521 564.145 199.509C565.677 199.498 567.182 199.92 568.48 200.725C569.779 201.53 570.818 202.686 571.476 204.056C572.134 205.426 572.383 206.953 572.194 208.458V208.681H572.419C573.818 208.543 575.229 208.724 576.545 209.211C577.862 209.697 579.048 210.476 580.012 211.487C580.977 212.498 581.694 213.715 582.109 215.043C582.524 216.372 582.625 217.777 582.406 219.15V219.383H582.65C584.011 219.227 585.387 219.476 586.605 220.098C587.822 220.719 588.825 221.685 589.486 222.872C590.097 224.017 590.248 225.347 590.784 226.548C591.047 227.153 591.442 227.693 591.94 228.13C592.432 228.515 592.976 228.828 593.558 229.06C594.668 229.474 595.739 229.988 596.755 230.596C597.658 231.225 598.412 232.041 598.964 232.987C600.002 234.676 600.355 236.691 599.952 238.626V238.747H600.074C600.914 238.882 601.716 239.189 602.43 239.647C603.144 240.105 603.753 240.705 604.221 241.409C604.922 242.476 605.252 243.74 605.161 245.01C605.112 245.807 604.908 246.588 604.559 247.308C604.249 247.802 604.08 248.034 604.089 248.044Z" fill="#455A64"/>
<path d="M490.18 249.328C490.255 249.185 490.3 249.029 490.311 248.869C490.322 248.709 490.3 248.548 490.246 248.397C490.107 248.015 489.871 247.675 489.56 247.411C489.132 247.063 488.635 246.806 488.102 246.657C487.44 246.481 486.806 246.212 486.222 245.857C485.591 245.371 485.134 244.7 484.915 243.94C484.66 243.064 484.574 242.149 484.661 241.241C484.717 240.311 484.896 239.241 484.915 238.142C484.971 235.909 484.059 233.62 483.514 231.154C483.228 229.879 483.196 228.561 483.42 227.274C483.531 226.602 483.787 225.963 484.17 225.398C484.553 224.832 485.054 224.355 485.639 223.998C486.976 223.386 488.385 222.939 489.832 222.667C490.598 222.478 491.325 222.163 491.986 221.737C492.652 221.257 493.183 220.616 493.528 219.876C494.131 218.374 494.576 216.815 494.854 215.223C495.029 214.443 495.321 213.694 495.719 212.999C496.129 212.322 496.754 211.799 497.496 211.51C498.574 211.238 499.684 211.107 500.796 211.119C501.376 211.086 501.945 210.954 502.48 210.729C503.012 210.49 503.473 210.118 503.815 209.649C504.388 208.719 504.825 207.714 505.112 206.662C505.429 205.686 505.951 204.789 506.645 204.029C507.305 203.299 508.109 202.712 509.009 202.305C509.909 201.898 510.884 201.68 511.873 201.665C513.724 201.637 515.518 202.302 516.894 203.526L517.054 203.666L517.148 203.48C517.846 202.043 518.846 200.77 520.082 199.748C521.318 198.725 522.761 197.977 524.313 197.552C525.612 197.209 526.966 197.117 528.3 197.282C529.433 197.393 530.536 197.708 531.554 198.213C532.988 198.933 534.177 200.052 534.977 201.432C535.197 201.789 535.389 202.162 535.55 202.549L535.691 202.837V202.94C535.691 202.94 535.691 202.94 535.691 202.837L535.578 202.53C535.437 202.133 535.258 201.749 535.042 201.386C534.258 199.963 533.068 198.801 531.62 198.045C530.586 197.517 529.465 197.176 528.31 197.04C526.947 196.856 525.56 196.938 524.229 197.282C522.635 197.709 521.152 198.467 519.879 199.507C518.606 200.547 517.573 201.845 516.847 203.312H517.092C515.661 202.021 513.791 201.31 511.854 201.321C510.819 201.335 509.798 201.56 508.854 201.983C507.911 202.406 507.066 203.017 506.372 203.777C505.636 204.581 505.084 205.534 504.755 206.569C504.475 207.586 504.054 208.56 503.505 209.463C503.176 209.874 502.757 210.206 502.28 210.434C501.803 210.661 501.279 210.778 500.749 210.775C499.605 210.772 498.465 210.909 497.355 211.184C496.537 211.508 495.847 212.086 495.39 212.832C494.956 213.551 494.639 214.332 494.449 215.149C494.174 216.705 493.739 218.23 493.152 219.699C492.832 220.382 492.34 220.971 491.723 221.411C491.098 221.83 490.409 222.144 489.682 222.342C488.206 222.617 486.772 223.076 485.413 223.71C484.764 224.081 484.218 224.605 483.824 225.236C483.451 225.843 483.19 226.511 483.053 227.209C482.821 228.536 482.859 229.897 483.166 231.21C483.73 233.722 484.642 235.965 484.595 238.142C484.595 239.213 484.426 240.246 484.379 241.232C484.288 242.172 484.387 243.121 484.67 244.024C484.903 244.822 485.395 245.522 486.071 246.015C486.655 246.37 487.289 246.637 487.952 246.806C488.472 246.944 488.958 247.184 489.381 247.513C489.684 247.76 489.917 248.081 490.058 248.444C490.192 248.718 490.235 249.028 490.18 249.328Z" fill="#455A64"/>
<path d="M467.387 230.698C467.387 230.698 467.434 230.624 467.51 230.475L467.848 229.823L469.127 227.283C469.682 226.194 470.312 224.817 471.196 223.319C472.13 221.583 473.537 220.142 475.258 219.159C476.198 218.657 477.345 218.331 478.474 217.857C479.06 217.618 479.614 217.305 480.119 216.926C480.65 216.527 481.076 216.006 481.36 215.409C481.943 214.199 481.981 212.813 482.451 211.557C482.672 210.921 483.081 210.366 483.626 209.965C484.218 209.581 484.869 209.295 485.554 209.119C486.285 208.931 486.996 208.675 487.679 208.356C488.389 207.993 488.967 207.42 489.334 206.718C490.068 205.294 490.105 203.684 490.425 202.167C490.551 201.403 490.833 200.672 491.252 200.018C491.701 199.395 492.374 198.965 493.133 198.818C494.713 198.52 496.386 199.087 498.126 198.818C499.002 198.681 499.811 198.274 500.439 197.654C501.027 197.053 501.535 196.381 501.953 195.654C502.395 194.965 502.809 194.267 503.298 193.644C503.759 193.021 504.37 192.522 505.075 192.192C506.504 191.569 508.112 191.95 509.569 192.304C511.022 192.78 512.562 192.939 514.083 192.769C515.498 192.44 516.842 191.864 518.051 191.066C519.164 190.331 520.349 189.708 521.587 189.205C523.882 188.482 526.342 188.447 528.658 189.103C530.575 189.635 532.346 190.59 533.839 191.894C534.952 192.888 535.904 194.046 536.66 195.328C537.133 196.141 537.533 196.994 537.854 197.878L538.117 198.566C538.144 198.647 538.178 198.725 538.221 198.799C538.207 198.716 538.185 198.635 538.155 198.557C538.098 198.38 538.023 198.148 537.92 197.85C537.626 196.95 537.245 196.081 536.782 195.254C536.033 193.945 535.081 192.761 533.961 191.745C532.452 190.411 530.654 189.437 528.705 188.898C526.338 188.213 523.818 188.235 521.464 188.963C520.207 189.463 519.004 190.087 517.872 190.824C516.692 191.594 515.384 192.152 514.008 192.471C512.533 192.628 511.042 192.469 509.635 192.006C508.877 191.797 508.104 191.648 507.322 191.559C506.498 191.452 505.661 191.568 504.899 191.896C504.137 192.224 503.479 192.751 502.997 193.42C502.506 194.075 502.05 194.755 501.633 195.458C501.223 196.159 500.731 196.808 500.166 197.394C499.594 197.957 498.857 198.329 498.06 198.455C496.424 198.697 494.76 198.12 493.048 198.455C492.209 198.635 491.471 199.128 490.989 199.832C490.545 200.527 490.245 201.301 490.105 202.112C489.785 203.675 489.738 205.257 489.052 206.578C488.721 207.221 488.195 207.745 487.548 208.076C486.887 208.39 486.198 208.64 485.488 208.821C484.766 209.016 484.083 209.331 483.467 209.751C482.872 210.189 482.425 210.796 482.188 211.492C481.699 212.822 481.661 214.19 481.116 215.335C480.534 216.415 479.559 217.237 478.389 217.633C477.289 218.108 476.16 218.443 475.164 218.964C473.413 219.978 471.988 221.462 471.055 223.244C470.171 224.77 469.559 226.148 469.024 227.255C468.488 228.362 468.083 229.209 467.81 229.814C467.688 230.103 467.585 230.317 467.51 230.484C467.461 230.551 467.42 230.622 467.387 230.698Z" fill="#455A64"/>
<path d="M480.27 218.582C480.201 218.554 480.128 218.538 480.053 218.536C479.833 218.527 479.613 218.571 479.414 218.666C479.054 218.884 478.754 219.186 478.54 219.547C478.327 219.907 478.207 220.314 478.191 220.732C478.184 221.329 478.259 221.924 478.417 222.5C478.607 223.166 478.699 223.855 478.69 224.547C478.592 225.33 478.291 226.073 477.815 226.706C477.345 227.413 476.743 228.093 476.254 228.93C475.97 229.364 475.791 229.856 475.731 230.369C475.671 230.883 475.731 231.403 475.907 231.889C476.264 232.903 476.988 233.75 477.336 234.783C477.627 235.872 477.489 237.03 476.95 238.021C476.471 239.082 475.784 240.115 475.314 241.306C475.057 241.911 474.917 242.558 474.9 243.214C474.896 243.887 475.037 244.553 475.314 245.168C475.948 246.365 476.688 247.505 477.524 248.574C478.377 249.624 478.803 250.951 478.718 252.296C478.371 253.665 477.863 254.99 477.204 256.242C476.918 256.928 476.756 257.659 476.725 258.4C476.735 259.141 476.915 259.87 477.251 260.531C477.951 261.751 478.794 262.885 479.762 263.909C480.662 264.883 481.35 266.03 481.783 267.278C482.088 268.543 482.477 269.786 482.949 271C483.229 271.585 483.633 272.102 484.134 272.517C484.641 272.884 485.207 273.164 485.808 273.345C486.366 273.514 486.913 273.72 487.444 273.959C487.944 274.198 488.404 274.512 488.808 274.89C489.544 275.655 490.176 276.512 490.688 277.439C491.215 278.323 491.713 279.198 492.268 279.98C493.258 281.42 494.693 282.504 496.358 283.069C497.603 283.501 498.93 283.651 500.242 283.507C501.068 283.417 501.874 283.197 502.63 282.855C502.89 282.736 503.141 282.6 503.382 282.446C502.398 282.943 501.331 283.259 500.232 283.376C498.958 283.489 497.674 283.324 496.471 282.893C494.856 282.325 493.468 281.258 492.512 279.85C491.976 279.077 491.497 278.203 490.961 277.309C490.439 276.351 489.787 275.469 489.024 274.685C488.598 274.282 488.117 273.941 487.595 273.671C487.05 273.427 486.491 273.216 485.921 273.038C485.355 272.867 484.823 272.6 484.35 272.247C483.887 271.867 483.514 271.391 483.26 270.851C482.8 269.661 482.419 268.443 482.122 267.203C481.679 265.911 480.972 264.723 480.044 263.714C479.097 262.707 478.271 261.595 477.58 260.401C477.272 259.788 477.108 259.113 477.101 258.428C477.122 257.73 477.275 257.042 477.552 256.4C478.224 255.122 478.739 253.77 479.085 252.371C479.177 251.643 479.087 250.905 478.821 250.221C478.566 249.563 478.231 248.939 477.825 248.36C477.001 247.314 476.271 246.2 475.643 245.028C475.378 244.443 475.243 243.809 475.248 243.167C475.257 242.55 475.388 241.94 475.634 241.371C476.085 240.227 476.762 239.194 477.251 238.087C477.822 237.027 477.957 235.79 477.627 234.634C477.242 233.536 476.518 232.689 476.179 231.74C476.013 231.292 475.954 230.812 476.006 230.337C476.058 229.863 476.22 229.407 476.48 229.004C476.95 228.195 477.543 227.497 478.013 226.78C478.505 226.11 478.813 225.324 478.906 224.501C478.907 223.791 478.802 223.086 478.596 222.407C478.431 221.847 478.346 221.268 478.342 220.685C478.35 220.286 478.456 219.894 478.651 219.544C478.846 219.194 479.124 218.896 479.461 218.675C479.715 218.565 479.997 218.533 480.27 218.582Z" fill="#455A64"/>
<path d="M603.826 247.653C604.141 247.662 604.456 247.637 604.766 247.578C605.672 247.416 606.534 247.067 607.295 246.555C608.529 245.745 609.437 244.533 609.862 243.13C610.144 242.194 610.212 241.208 610.062 240.243C609.913 239.277 609.549 238.357 608.997 237.547C608.3 236.651 607.516 235.826 606.656 235.081C605.73 234.323 604.988 233.369 604.484 232.289C604.1 231.06 604.19 229.734 604.738 228.567C605.217 227.311 605.932 226.092 606.393 224.705C606.902 223.175 607.082 221.556 606.922 219.953C606.762 218.35 606.265 216.797 605.463 215.395C604.661 213.993 603.571 212.773 602.264 211.812C600.957 210.851 599.462 210.172 597.874 209.817L597.977 210.086C598.538 209.334 598.909 208.46 599.058 207.537C599.196 206.606 599.151 205.659 598.927 204.745C598.71 203.814 598.321 202.931 597.78 202.14C597.235 201.339 596.569 200.626 595.805 200.027C593.505 198.352 590.843 197.23 588.029 196.752C585.399 196.21 582.704 196.047 580.027 196.268L580.215 196.435C580.189 194.91 579.742 193.421 578.923 192.129C578.105 190.837 576.945 189.79 575.57 189.103C574.277 188.47 572.845 188.169 571.404 188.228C570.055 188.347 568.731 188.661 567.474 189.158C566.864 189.359 566.233 189.487 565.593 189.54C564.989 189.581 564.383 189.509 563.806 189.326C562.706 188.926 561.658 188.398 560.685 187.753C559.757 187.155 558.755 186.676 557.704 186.33C556.729 186.035 555.715 185.884 554.695 185.883C552.959 185.86 551.247 186.286 549.73 187.121C548.604 187.744 547.606 188.571 546.787 189.559C546.275 190.173 545.842 190.848 545.499 191.569C545.375 191.811 545.271 192.063 545.188 192.322C545.188 192.322 545.301 192.071 545.555 191.587C545.916 190.887 546.357 190.232 546.871 189.633C547.697 188.672 548.695 187.871 549.815 187.269C551.312 186.468 552.993 186.064 554.695 186.097C555.69 186.11 556.679 186.266 557.629 186.562C558.659 186.904 559.639 187.38 560.543 187.977C561.536 188.635 562.603 189.179 563.722 189.596C564.329 189.785 564.966 189.864 565.602 189.828C566.243 189.773 566.874 189.642 567.483 189.438C568.713 188.946 570.008 188.632 571.329 188.507C572.715 188.455 574.093 188.749 575.334 189.363C576.655 190.024 577.767 191.029 578.551 192.271C579.335 193.513 579.761 194.943 579.782 196.407V196.594H579.97C582.613 196.385 585.273 196.551 587.869 197.087C590.626 197.563 593.236 198.662 595.495 200.297C596.22 200.877 596.854 201.56 597.375 202.326C597.892 203.084 598.264 203.929 598.475 204.82C598.689 205.694 598.731 206.6 598.598 207.49C598.458 208.358 598.113 209.18 597.592 209.891L597.422 210.105L597.695 210.17C599.235 210.514 600.686 211.173 601.955 212.103C603.224 213.033 604.283 214.215 605.064 215.574C605.846 216.932 606.332 218.436 606.493 219.991C606.654 221.546 606.485 223.116 605.998 224.603C605.556 225.952 604.841 227.171 604.352 228.455C603.785 229.694 603.701 231.096 604.117 232.392C604.637 233.527 605.412 234.529 606.383 235.323C607.233 236.048 608.008 236.856 608.697 237.733C609.244 238.509 609.612 239.395 609.774 240.328C609.937 241.261 609.89 242.217 609.637 243.13C609.234 244.506 608.359 245.7 607.164 246.508C606.422 247.021 605.585 247.382 604.7 247.569C604.127 247.634 603.826 247.634 603.826 247.653Z" fill="#263238"/>
<path d="M476.217 210.403C476.227 210.329 476.227 210.254 476.217 210.179C476.217 210.012 476.217 209.798 476.292 209.519C476.367 208.914 476.461 208.067 476.584 206.978C476.706 205.89 476.894 204.531 477.232 202.996C477.583 201.252 478.141 199.556 478.897 197.943C479.806 195.986 481.13 194.247 482.78 192.843C483.708 192.083 484.753 191.474 485.874 191.038C487.091 190.637 488.331 190.307 489.588 190.052C490.931 189.763 492.207 189.226 493.349 188.47C494.498 187.622 495.534 186.634 496.433 185.529C497.374 184.45 498.314 183.296 499.32 182.263C500.359 181.201 501.586 180.337 502.94 179.713C505.704 178.566 508.679 178.002 511.676 178.057C514.442 178.016 517.208 178.178 519.95 178.541C524.591 179.123 529.102 180.459 533.303 182.496C536.134 183.887 538.724 185.715 540.976 187.911C541.371 188.312 541.728 188.647 542.019 188.963L542.725 189.791L543.157 190.294C543.261 190.405 543.317 190.461 543.317 190.452C543.282 190.384 543.237 190.322 543.185 190.266L542.781 189.745C542.584 189.512 542.358 189.224 542.095 188.898C541.831 188.572 541.465 188.219 541.079 187.809C538.848 185.548 536.26 183.662 533.416 182.226C529.19 180.133 524.638 178.761 519.95 178.169C517.194 177.791 514.412 177.62 511.629 177.657C508.615 177.615 505.626 178.188 502.846 179.341C501.442 179.982 500.167 180.872 499.085 181.965C498.023 183.026 497.12 184.18 496.189 185.259C495.31 186.34 494.295 187.306 493.171 188.135C492.06 188.878 490.815 189.403 489.503 189.679C488.23 189.942 486.974 190.28 485.742 190.694C484.595 191.142 483.528 191.77 482.583 192.555C480.911 193.993 479.57 195.771 478.652 197.766C477.905 199.405 477.359 201.126 477.026 202.893C476.758 204.219 476.56 205.558 476.433 206.904C476.32 208.002 476.254 208.867 476.217 209.454C476.217 209.723 476.217 209.947 476.17 210.114L476.217 210.403Z" fill="#263238"/>
<path d="M528.244 259.61C528.193 258.816 527.926 258.051 527.47 257.396C527.015 256.74 526.389 256.219 525.658 255.888C524.917 255.579 524.097 255.502 523.31 255.668C522.523 255.835 521.807 256.236 521.257 256.819C520.769 257.4 520.484 258.122 520.445 258.877C520.406 259.632 520.615 260.379 521.041 261.006C521.445 261.654 522.034 262.169 522.734 262.486C523.642 262.875 524.649 262.982 525.621 262.793C526.429 262.682 527.169 262.282 527.699 261.667C528.119 261.066 528.312 260.338 528.244 259.61Z" fill="#5B342F"/>
<path d="M526.721 253.887C526.279 253.887 526.514 256.837 524.144 259.145C521.775 261.453 518.568 261.378 518.587 261.797C518.587 261.983 519.339 262.309 520.684 262.234C522.429 262.108 524.075 261.384 525.338 260.187C526.549 259.033 527.257 257.458 527.313 255.795C527.332 254.548 526.937 253.85 526.721 253.887Z" fill="#263238"/>
<path d="M578.748 302.797L555.644 294.124C555.644 294.124 537.779 304.593 524.097 302.425C513.453 300.74 512.578 295.325 512.578 295.325L499.781 297.372C499.781 297.372 480.382 313.359 476.339 329.532C473.941 339.107 473.368 351.651 473.368 362.65C473.368 367.051 479.01 384.462 479.01 384.462L481.21 409.652L470.5 451.647H582.283V335.468L578.748 302.797Z" fill="#FF725E"/>
<path d="M453.668 372.104L437.439 331.886L484.012 299.773L499.781 297.372L495.681 354.293L453.668 372.104Z" fill="#FF725E"/>
<path d="M477.985 379.744C477.87 379.567 477.772 379.38 477.693 379.186C477.524 378.804 477.232 378.255 476.95 377.539C476.104 375.488 475.409 373.38 474.872 371.229C473.18 364.106 472.697 356.754 473.443 349.473C474.209 342.219 475.561 335.037 477.486 327.996C478.201 325.298 478.803 323.111 479.235 321.613L479.752 319.882C479.802 319.677 479.872 319.478 479.959 319.286C479.948 319.498 479.91 319.707 479.846 319.91C479.734 320.356 479.593 320.943 479.423 321.659C479.028 323.232 478.483 325.381 477.825 328.08C476.002 335.111 474.701 342.264 473.932 349.483C473.19 356.716 473.621 364.02 475.211 371.118C475.702 373.258 476.331 375.365 477.091 377.427C477.345 378.162 477.599 378.72 477.74 379.102C477.847 379.305 477.929 379.521 477.985 379.744Z" fill="#263238"/>
<g opacity="0.3">
<path opacity="0.3" d="M472.672 357.495L473.687 356.769C473.625 344.293 475.659 331.893 479.705 320.077C472.183 331.16 468.967 345.109 472.672 357.495Z" fill="black"/>
</g>
<path opacity="0.3" d="M504.717 351.939C504.717 351.939 520.703 410.666 529.683 421.432C538.663 432.199 543.496 435.391 557.271 436.498C571.047 437.605 576.162 421.814 579.227 415.663C582.293 409.512 581.729 400.281 581.729 400.281L562.922 389.896L548.066 414.09L509.795 350.888L504.717 351.939Z" fill="black"/>
<path d="M507.228 359.588C507.228 359.588 523.552 397.173 535.259 418.725C545.169 436.982 565.348 434.953 571.808 424.801C578.268 414.649 588.96 384.257 588.96 384.257L554.855 378.33L551.093 389.022L525.235 356.387L507.228 359.588Z" fill="#824E44"/>
<path d="M535.127 354.163L532.616 342.922C532.616 342.922 531.469 339.814 529.598 342.559C527.727 345.304 528.601 350.478 528.601 350.478C528.601 350.478 525.066 323.744 521.963 320.831C520.825 319.761 519.273 321.231 519.273 321.231C519.273 321.231 518.907 316.001 517.252 316.029C515.597 316.057 514.036 319.966 514.036 319.966C513.422 319.656 512.718 319.569 512.046 319.72C511.374 319.872 510.777 320.252 510.359 320.794C508.911 322.534 508.902 337.069 508.902 337.069C508.902 337.069 507.52 325.093 505.357 324.339C501.878 323.129 501.878 327.689 501.878 327.689L502.893 343.276C502.893 343.276 504.774 353.912 507.172 360.603C509.569 367.293 510.933 367.358 510.933 367.358L526.495 366.949C526.495 366.949 530.012 363.776 532.776 361.31C533.773 360.432 534.517 359.308 534.93 358.052C535.343 356.796 535.411 355.454 535.127 354.163Z" fill="#824E44"/>
<path d="M561.512 404.18C561.407 404.032 561.319 403.873 561.249 403.706C561.07 403.352 560.854 402.896 560.581 402.338L559.368 400.253C558.879 399.462 558.268 398.569 557.629 397.583C554.93 393.674 550.858 388.528 546.232 382.954C541.606 377.38 537.309 372.383 534.309 368.698C532.804 366.837 531.62 365.339 530.82 364.269L529.936 363.022C529.822 362.883 529.727 362.73 529.654 362.566C529.786 362.688 529.905 362.822 530.012 362.966L530.952 364.157C531.789 365.181 533.011 366.66 534.553 368.475C537.619 372.104 541.935 377.064 546.58 382.647C551.225 388.231 555.25 393.423 557.864 397.387C558.494 398.401 559.086 399.304 559.566 400.123C560.045 400.942 560.412 401.658 560.703 402.254C560.995 402.849 561.136 403.296 561.296 403.678C561.388 403.836 561.461 404.004 561.512 404.18Z" fill="#5B342F"/>
<path d="M574.911 301.792C574.911 301.792 593.529 305.561 598.184 326.386C602.491 345.565 601.155 386.36 601.155 386.36L550.492 377.566L562.828 307.915L574.911 301.792Z" fill="#FF725E"/>
<path d="M557.685 335.068C557.693 335.143 557.693 335.217 557.685 335.292C557.685 335.468 557.629 335.673 557.6 335.934C557.506 336.539 557.384 337.357 557.224 338.4C556.876 340.586 556.378 343.676 555.767 347.482C554.478 355.187 552.711 365.795 550.736 377.594L550.539 377.315L552.203 377.613L583.666 383.196L593.191 385.011L595.777 385.513L596.444 385.653L596.67 385.718C596.592 385.732 596.513 385.732 596.435 385.718L595.758 385.616L593.153 385.206L583.6 383.596L552.109 378.088L550.445 377.799L550.209 377.753V377.52C552.241 365.73 554.055 355.122 555.381 347.426C556.058 343.629 556.604 340.549 556.999 338.372C557.187 337.339 557.346 336.511 557.459 335.915C557.459 335.664 557.553 335.45 557.591 335.282C557.611 335.206 557.642 335.134 557.685 335.068Z" fill="#263238"/>
<path d="M560.572 328.378C560.665 327.967 560.794 327.566 560.957 327.177C561.239 326.424 561.662 325.316 562.236 324.004C563.637 320.474 565.705 317.24 568.329 314.475C569.83 312.992 571.584 311.782 573.51 310.902C575.074 310.182 576.723 309.66 578.419 309.348C579.553 309.131 580.705 309.013 581.86 308.994C582.284 308.965 582.711 308.986 583.13 309.059C581.571 309.186 580.021 309.394 578.484 309.683C574.785 310.435 571.379 312.217 568.668 314.82C566.096 317.543 564.027 320.693 562.556 324.125L561.136 327.233C560.992 327.634 560.803 328.018 560.572 328.378Z" fill="#263238"/>
<path d="M513.744 339.414C513.577 338.474 513.493 337.521 513.491 336.566C513.396 334.808 513.293 332.379 513.284 329.68C513.254 327.379 513.348 325.077 513.566 322.785C513.606 321.839 513.764 320.901 514.036 319.993C514.042 320.944 513.998 321.895 513.904 322.841C513.81 324.59 513.763 327.019 513.773 329.708C513.782 332.398 513.773 334.677 513.829 336.585C513.88 337.529 513.852 338.475 513.744 339.414Z" fill="#5B342F"/>
<path d="M518.888 321.408C519.008 322.177 519.058 322.956 519.038 323.734C519.038 325.167 519.142 327.149 519.255 329.318C519.367 331.486 519.508 333.477 519.621 334.901C519.723 335.672 519.755 336.451 519.715 337.227C519.48 336.483 519.331 335.715 519.273 334.938C519.076 333.505 518.878 331.532 518.766 329.355C518.653 327.177 518.643 325.167 518.69 323.725C518.669 322.948 518.735 322.171 518.888 321.408Z" fill="#5B342F"/>
<path d="M168.944 213.613C167.693 205.331 165.615 196.277 160.096 189.931C156.379 185.502 151.947 181.713 146.978 178.718C141.393 175.377 136.466 174.279 130.476 173.646L126.545 177.099C139.117 180.104 150.053 188.749 156.475 199.85C162.898 210.952 164.938 224.352 162.822 236.989C161.459 245.252 158.422 253.152 156.109 261.183C153.795 269.213 152.206 277.765 153.814 285.991C160.716 283.339 158.77 287.852 161.685 281.087C164.6 274.322 166.113 259.499 167.806 252.352C170.599 240.608 170.674 224.957 168.944 213.613Z" fill="#FF725E"/>
<path d="M162.174 195.179C151.586 178.885 126.856 173.86 126.856 173.86C90.6539 171.301 84.1846 198.827 80.5268 223.905C78.2607 239.482 86.6576 288.234 86.6576 288.234L95.5247 291.407H153.824C153.824 290.356 157.952 281.534 158.967 278.659C164.233 252.529 168.408 204.754 162.174 195.179Z" fill="#263238"/>
<path d="M132.009 183.194L129.742 181.053L105.294 190.815C103.591 190.907 101.985 191.626 100.791 192.832C99.5971 194.038 98.9025 195.642 98.844 197.329L99.0603 276.248C99.0603 281.599 100.104 286.233 103.376 290.495L106.808 294.99C114.651 305.226 130.777 304.388 136.973 293.129C137.356 292.491 137.65 291.806 137.848 291.091C137.999 290.508 138.118 289.918 138.205 289.323C138.939 282.976 138.976 277.467 138.976 277.467C139.418 270.498 139.559 267.641 139.559 267.706C139.559 267.771 154.548 266.003 158.6 246.955C160.622 237.482 160.237 224.454 159.672 211.594C158.864 193.895 146.423 183.175 132.009 183.194Z" fill="#FFBF9D"/>
<path d="M127.58 223.477C127.553 224.12 127.273 224.726 126.801 225.168C126.328 225.609 125.7 225.851 125.05 225.841C124.733 225.849 124.417 225.795 124.122 225.681C123.826 225.567 123.557 225.396 123.329 225.178C123.101 224.959 122.92 224.698 122.795 224.409C122.671 224.12 122.607 223.81 122.605 223.496C122.632 222.854 122.91 222.247 123.38 221.805C123.851 221.362 124.476 221.117 125.125 221.123C125.444 221.115 125.76 221.171 126.056 221.285C126.352 221.4 126.622 221.572 126.851 221.791C127.079 222.01 127.261 222.272 127.386 222.562C127.512 222.851 127.577 223.162 127.58 223.477Z" fill="#263238"/>
<path d="M152.235 224.305C152.208 224.946 151.929 225.552 151.459 225.993C150.988 226.434 150.363 226.677 149.715 226.669C149.397 226.677 149.081 226.623 148.785 226.51C148.488 226.396 148.218 226.225 147.99 226.007C147.761 225.788 147.579 225.527 147.454 225.238C147.328 224.949 147.263 224.638 147.26 224.324C147.287 223.682 147.565 223.076 148.035 222.633C148.506 222.19 149.131 221.946 149.78 221.951C150.098 221.944 150.415 221.999 150.711 222.114C151.007 222.228 151.277 222.4 151.506 222.619C151.734 222.838 151.916 223.1 152.041 223.39C152.166 223.679 152.232 223.99 152.235 224.305Z" fill="#263238"/>
<path d="M157.086 216.712C156.757 217.019 154.943 215.549 152.263 215.418C149.583 215.288 147.561 216.526 147.288 216.182C147.147 216.033 147.495 215.465 148.379 214.897C149.577 214.159 150.976 213.804 152.385 213.883C153.779 213.948 155.116 214.45 156.203 215.316C156.992 215.986 157.246 216.582 157.086 216.712Z" fill="#263238"/>
<path d="M129.912 216.991C129.554 217.261 127.899 215.605 125.21 215.214C122.521 214.823 120.415 215.828 120.179 215.465C120.057 215.298 120.462 214.776 121.402 214.293C122.67 213.679 124.099 213.47 125.492 213.697C126.872 213.904 128.15 214.539 129.141 215.512C129.912 216.247 130.09 216.87 129.912 216.991Z" fill="#263238"/>
<path d="M139.315 236.272C139.315 236.123 140.988 235.918 143.706 235.714C144.392 235.714 145.041 235.574 145.182 235.118C145.276 234.422 145.151 233.714 144.825 233.09C144.273 231.421 143.687 229.671 143.067 227.841C140.631 220.397 138.901 214.237 139.211 214.144C139.522 214.051 141.741 220.025 144.176 227.497C144.759 229.358 145.317 231.117 145.85 232.773C146.238 233.614 146.314 234.562 146.066 235.453C145.954 235.686 145.79 235.891 145.587 236.052C145.383 236.214 145.145 236.327 144.891 236.384C144.508 236.469 144.116 236.503 143.725 236.486C140.96 236.495 139.315 236.421 139.315 236.272Z" fill="#263238"/>
<path d="M139.531 267.762C130.394 267.427 121.53 264.589 113.926 259.564C113.926 259.564 119.784 273.178 139.315 272.349L139.531 267.762Z" fill="#FF9A6C"/>
<path d="M137.81 242.637C137.334 241.977 136.696 241.448 135.955 241.102C135.214 240.755 134.396 240.601 133.579 240.655C132.986 240.678 132.404 240.819 131.867 241.07C131.331 241.321 130.851 241.677 130.457 242.116C130.08 242.541 129.842 243.069 129.775 243.631C129.707 244.192 129.814 244.761 130.081 245.261C130.487 245.759 131.035 246.125 131.653 246.312C132.272 246.499 132.932 246.5 133.551 246.313C134.839 245.93 136.038 245.297 137.077 244.452C137.389 244.256 137.66 244.003 137.876 243.707C137.977 243.564 138.034 243.395 138.043 243.221C138.051 243.046 138.01 242.873 137.923 242.721" fill="#FF9A6C"/>
<path d="M131.294 237.714C131.736 237.714 131.595 240.59 133.983 242.749C136.372 244.908 139.475 244.749 139.475 245.159C139.475 245.336 138.76 245.68 137.444 245.652C135.74 245.585 134.115 244.926 132.855 243.791C131.642 242.702 130.901 241.192 130.786 239.575C130.739 238.384 131.096 237.686 131.294 237.714Z" fill="#263238"/>
<path d="M132.479 206.662C132.112 207.332 129.517 206.597 126.348 206.495C123.179 206.392 120.537 206.848 120.227 206.15C120.085 205.815 120.631 205.22 121.75 204.671C123.235 204.033 124.847 203.737 126.464 203.805C128.081 203.873 129.662 204.302 131.087 205.061C132.159 205.694 132.648 206.346 132.479 206.662Z" fill="#263238"/>
<path d="M156.701 205.331C156.193 205.908 154.388 205.192 152.169 205.052C149.95 204.913 148.05 205.257 147.655 204.605C147.477 204.289 147.806 203.675 148.652 203.172C149.789 202.546 151.088 202.268 152.385 202.372C153.683 202.476 154.919 202.959 155.939 203.759C156.692 204.419 156.917 205.052 156.701 205.331Z" fill="#263238"/>
<path d="M99.3047 231.042C99.3047 231.042 113.014 235.267 120.772 201.777C123.424 190.331 134.152 181.053 134.152 181.053L129.799 179.76C129.799 179.76 102.765 187.297 102.304 187.632C101.844 187.967 95.4871 201.47 95.4871 201.47L99.3047 231.042Z" fill="#263238"/>
<path d="M102.643 229.795C102.709 228.362 101.214 224.91 99.8219 224.622C96.0606 223.849 89.1588 223.803 88.6134 233.378C87.8612 246.462 101.289 244.545 101.336 244.135C101.383 243.726 102.445 234.737 102.643 229.795Z" fill="#FFBF9D"/>
<path d="M97.5933 238.915C97.5369 238.915 97.3489 239.064 96.9539 239.213C96.3941 239.412 95.7786 239.392 95.2332 239.157C93.8603 238.57 92.8166 236.309 92.8824 233.946C92.9111 232.821 93.1973 231.717 93.7193 230.717C93.8655 230.316 94.108 229.957 94.4258 229.67C94.7436 229.383 95.1272 229.177 95.5435 229.07C95.8121 229.013 96.0925 229.052 96.335 229.179C96.5776 229.307 96.7668 229.515 96.8693 229.768C97.0292 230.14 96.9257 230.4 97.0009 230.428C97.0762 230.456 97.2924 230.223 97.2172 229.674C97.1614 229.348 96.9957 229.049 96.7471 228.828C96.3957 228.536 95.9446 228.39 95.4871 228.418C94.9423 228.492 94.4255 228.702 93.9848 229.027C93.5441 229.353 93.1939 229.784 92.967 230.279C92.3396 231.38 91.9942 232.617 91.9609 233.881C91.8951 236.523 93.1175 239.064 94.9981 239.724C95.3473 239.845 95.7196 239.887 96.0874 239.847C96.4551 239.807 96.8091 239.685 97.1232 239.492C97.5463 239.268 97.6404 238.98 97.5933 238.915Z" fill="#FF9A6C"/>
<path d="M108.604 224.64C108.604 224.64 109.328 224.64 110.579 224.24C112.336 223.713 113.945 222.789 115.28 221.541C116.207 220.689 117.03 219.734 117.735 218.694C118.525 217.486 119.196 216.205 119.738 214.869C120.867 211.754 121.809 208.575 122.558 205.35C123.406 202.134 124.42 198.963 125.596 195.849C126.558 193.306 127.709 190.837 129.037 188.46C129.942 186.863 130.953 185.327 132.065 183.864C132.46 183.342 132.798 182.933 133.005 182.7C133.111 182.562 133.231 182.434 133.363 182.319C133.271 182.468 133.171 182.611 133.062 182.747C132.864 183.026 132.545 183.408 132.121 183.938C131.052 185.429 130.076 186.983 129.197 188.591C127.906 190.97 126.785 193.436 125.84 195.97C124.759 198.836 123.762 202.046 122.841 205.452C122.076 208.69 121.112 211.879 119.954 215C119.399 216.352 118.709 217.645 117.895 218.861C117.169 219.913 116.32 220.875 115.365 221.728C113.99 222.985 112.329 223.894 110.523 224.38C109.898 224.55 109.253 224.638 108.604 224.64Z" fill="#263238"/>
<path d="M88.1339 279.208C88.3408 277.693 88.4382 276.167 88.4253 274.639C88.3696 270.456 87.9417 266.287 87.1465 262.179L85.6044 253.692C85.0086 250.449 84.613 247.174 84.4197 243.884C84.1874 240.254 84.4563 236.61 85.2189 233.052C85.6511 231.184 86.2815 229.365 87.0995 227.627C87.9457 225.836 88.9963 224.147 90.2307 222.593C92.7319 219.571 95.5184 216.791 98.5524 214.293C101.449 211.817 104.194 209.379 106.695 206.848C111.091 202.447 115.069 197.656 118.581 192.536C120.957 189.093 123.108 185.503 125.022 181.788C125.699 180.476 126.207 179.444 126.527 178.736C126.677 178.395 126.799 178.125 126.893 177.927C126.946 177.84 126.984 177.746 127.006 177.648L126.856 177.917L126.461 178.699C126.113 179.397 125.596 180.421 124.9 181.723C120.016 190.899 113.783 199.307 106.404 206.671C103.94 209.156 101.176 211.575 98.2704 214.06C95.2115 216.578 92.4057 219.383 89.8922 222.435C88.6439 224.01 87.5807 225.721 86.7234 227.534C85.9067 229.302 85.2765 231.148 84.8428 233.043C84.0793 236.632 83.8136 240.308 84.0529 243.968C84.2571 247.268 84.6653 250.553 85.2753 253.804C85.8489 256.856 86.3755 259.694 86.8644 262.29C87.6842 266.372 88.1498 270.516 88.2561 274.676C88.2561 276.146 88.2561 277.291 88.1715 278.063C88.1715 278.435 88.1715 278.733 88.1151 278.994C88.0586 279.254 88.1339 279.208 88.1339 279.208Z" fill="#455A64"/>
<path d="M83.8837 280.436C84.0906 278.922 84.1881 277.395 84.1752 275.867C84.1212 271.694 83.6933 267.533 82.8964 263.435C82.4262 260.839 81.956 258 81.3637 254.948C80.7626 251.706 80.3669 248.431 80.1789 245.14C79.9419 241.514 80.2109 237.872 80.9781 234.318C81.4086 232.446 82.039 230.624 82.8587 228.883C83.7093 227.095 84.7596 225.406 85.99 223.849C88.492 220.828 91.2819 218.051 94.3211 215.558C97.2172 213.073 99.9629 210.635 102.455 208.114C106.85 203.71 110.831 198.919 114.35 193.802C116.71 190.366 118.849 186.785 120.753 183.082C121.43 181.77 121.928 180.737 122.248 180.03C122.408 179.685 122.53 179.425 122.615 179.22C122.662 179.13 122.702 179.037 122.737 178.941C122.68 179.027 122.63 179.117 122.587 179.211C122.483 179.397 122.352 179.667 122.182 180.002C121.844 180.7 121.317 181.714 120.621 183.017C115.753 192.171 109.539 200.56 102.182 207.909C99.7184 210.393 96.9445 212.813 94.0484 215.297C90.983 217.808 88.1766 220.614 85.6702 223.672C84.4203 225.245 83.3542 226.953 82.492 228.763C81.671 230.528 81.0406 232.375 80.6114 234.271C79.8434 237.86 79.5776 241.536 79.8216 245.196C80.0257 248.496 80.4339 251.781 81.0439 255.032C81.6081 258.084 82.1441 260.922 82.6237 263.518C83.4409 267.601 83.9096 271.744 84.0247 275.904C84.0247 277.374 84.0247 278.519 83.9401 279.291L83.8837 280.175C83.8726 280.262 83.8726 280.349 83.8837 280.436Z" fill="#455A64"/>
<path d="M64.7578 451.536C64.7578 451.536 63.526 440.639 70.5689 422.447C76.333 407.558 83.1032 399.304 83.1032 399.304L174.313 393.358L181.346 451.536H64.7578Z" fill="#263238"/>
<path d="M173.241 359.523C174.576 339.433 173.241 308.976 173.241 308.976L158.196 283.972L138.374 280.892C138.374 280.892 138.318 294.627 127.946 296.897C110.203 300.778 98.6371 279.664 98.6371 279.664C96.9633 279.664 71.7255 284.912 63.7235 292.449C55.5053 300.191 41.899 320.719 38.0626 326.61C38.0626 326.61 11.4331 365.023 7.55907 375.556C6.49964 378.239 6.06609 381.123 6.29078 383.995C6.51547 386.866 7.3926 389.65 8.85669 392.139C9.66535 394.512 34.2449 429.426 53.3049 443.375L54.7906 440.583L64.6732 423.833L39.0781 382.219L68.7918 351.232L74.6311 345.807L76.3048 353.112L83.5076 387.468C83.5076 387.468 69.1585 415.859 67.1462 430.617C67.1462 430.617 137.669 454.681 181.234 442.798C181.215 442.798 171.896 379.623 173.241 359.523Z" fill="#EBEBEB"/>
<path d="M99.0414 416.287C99.0414 416.287 87.0995 413.095 85.8771 413.765C84.6547 414.435 75.7594 419.087 75.7594 419.087C74.4619 420.683 73.0577 422.191 71.5563 423.601C71.5563 423.601 68.4909 426.476 66.3846 426.569C65.2532 426.651 64.1162 426.531 63.0277 426.215L54.7718 440.592C54.7718 440.592 59.6708 445.245 62.2942 445.161C64.9177 445.078 79.2197 439.131 79.2197 439.131L82.6989 438.387C82.6989 438.387 95.7503 440.248 96.8035 436.368L97.0009 435.26L84.1752 432.776L79.295 433.055L87.9364 430.85C87.9364 430.85 100.16 431.436 101.317 431.24C102.473 431.045 103.931 429.435 103.555 428.449L101.035 427.863C101.035 427.863 103.997 426.262 104.091 424.513L92.8072 421.488C92.8072 421.488 100.057 418.79 99.0414 416.287Z" fill="#FFBF9D"/>
<path d="M102.361 427.816C102.004 427.775 101.653 427.69 101.317 427.565C100.659 427.369 99.709 427.109 98.496 426.802C96.117 426.197 92.8542 425.425 89.1682 424.624C88.7312 424.514 88.2887 424.427 87.8424 424.364C87.4231 424.334 87.0017 424.365 86.5917 424.457C85.7737 424.68 84.9462 424.959 84.1846 425.211C82.6613 425.722 81.2978 426.243 80.1789 426.718C79.0599 427.193 78.176 427.649 77.5836 427.974C77.2862 428.17 76.9715 428.338 76.6433 428.477C76.8833 428.211 77.1623 427.982 77.4708 427.797C78.2865 427.269 79.1379 426.796 80.019 426.383C81.325 425.772 82.662 425.229 84.0247 424.755C84.8052 424.475 85.5856 424.196 86.4695 423.954C86.9338 423.843 87.4131 423.805 87.8894 423.843C88.3877 423.843 88.8297 424.019 89.2904 424.103C92.9482 424.913 96.2393 425.741 98.59 426.448C99.7748 426.802 100.715 427.118 101.355 427.379C101.71 427.475 102.049 427.622 102.361 427.816Z" fill="#FF9A6C"/>
<path d="M93.0517 422.028C93.0047 422.102 92.1114 421.609 90.6445 421.153C88.6924 420.545 86.6261 420.383 84.6015 420.679C82.5769 420.976 80.6467 421.723 78.9565 422.866C77.6495 423.731 76.9724 424.447 76.9066 424.382C77.396 423.639 78.0365 423.006 78.7872 422.521C80.482 421.253 82.4717 420.428 84.5733 420.121C86.6749 419.813 88.8209 420.034 90.8137 420.762C91.6367 421.034 92.3973 421.464 93.0517 422.028Z" fill="#FF9A6C"/>
<path d="M234.521 332.165L187.976 297.874L170.599 286.55L157.754 283.972L163.208 337.674H175.272L227.167 359.998L290.742 365.339L291.672 345.835L234.521 332.165Z" fill="#EBEBEB"/>
<path d="M174.106 383.066C174.062 382.801 174.036 382.534 174.031 382.266C174.031 381.698 173.974 380.944 173.937 379.986C173.862 377.995 173.777 375.119 173.711 371.611C173.645 368.103 173.598 363.822 173.589 359.132C173.579 354.442 173.589 349.268 173.589 343.853C173.589 333.012 171.511 323.381 169.875 316.448C169.057 312.996 168.342 310.213 167.862 308.287C167.627 307.357 167.449 306.612 167.308 306.063C167.236 305.807 167.186 305.546 167.157 305.281C167.26 305.526 167.345 305.778 167.411 306.035C167.562 306.584 167.778 307.31 168.041 308.231C168.577 310.148 169.348 312.884 170.213 316.374C172.615 325.343 173.913 334.566 174.078 343.843C174.162 349.268 174.078 354.433 174.078 359.132C174.078 363.832 174.078 368.056 174.078 371.602C174.078 375.147 174.078 377.985 174.144 379.977C174.144 380.907 174.144 381.698 174.144 382.266C174.155 382.533 174.143 382.801 174.106 383.066Z" fill="#263238"/>
<g opacity="0.3">
<path opacity="0.3" d="M173.786 338.688C175.662 331.711 175.726 324.379 173.974 317.371C172.221 310.363 168.709 303.906 163.763 298.6C169.044 311.141 172.453 324.375 173.88 337.888" fill="black"/>
</g>
<path d="M135.412 174.27C106.263 176.857 105.125 212.115 101.251 239.929C95.7128 279.664 125.088 288.197 125.088 288.197L88.5947 281.422C88.5947 281.422 68.632 273.429 68.773 251.496C68.9141 229.563 72.4026 202.717 95.6376 182.319C115.704 164.694 133.579 173.069 135.412 174.27Z" fill="#FF725E"/>
<path d="M163.763 279.663C161.562 277.691 162.418 276.937 156.118 276.369C149 275.718 141.073 280.222 133.974 281.162C126.875 282.101 119.324 281.162 113.381 277.235C106.404 272.638 102.643 264.71 99.1637 257.172L82.0501 271.13C80.394 272.451 79.0682 274.133 78.1761 276.044C77.284 277.955 76.8495 280.044 76.9067 282.148C76.8788 282.868 77.0205 283.585 77.3204 284.242C78.3171 285.731 85.6609 282.213 87.1372 283.237C94.9793 288.662 98.3174 297.279 105.501 303.541C113.898 310.846 121.665 316.653 127.58 316.448C133.494 316.243 144.411 310.055 148.323 302.871C151.943 296.237 155.102 291.398 157.952 286.335C159.447 283.656 164.665 287.415 165.295 284.242C165.456 283.413 165.4 282.556 165.132 281.755C164.864 280.954 164.392 280.233 163.763 279.663Z" fill="#FF725E"/>
<path d="M68.7917 321.091C68.8825 321.304 68.9518 321.526 68.9986 321.752L69.5158 323.669C69.9483 325.391 70.5501 327.791 71.2836 330.732C72.741 336.715 74.7063 344.988 76.7843 354.145C78.8624 363.301 80.6584 371.611 81.8526 377.65C82.445 380.674 82.8869 383.122 83.1596 384.825C83.2787 385.637 83.3728 386.289 83.4417 386.779C83.4907 387.005 83.5128 387.236 83.5075 387.467C83.4331 387.25 83.3796 387.025 83.3477 386.797C83.2537 386.304 83.1314 385.662 82.9716 384.853C82.6142 383.112 82.1253 380.693 81.5141 377.715C80.2353 371.704 78.3829 363.403 76.3142 354.247C74.2455 345.09 72.3273 336.855 70.945 330.816C70.2774 327.857 69.7227 325.437 69.3277 323.706C69.1585 322.906 69.0174 322.264 68.9046 321.771C68.8474 321.548 68.8096 321.321 68.7917 321.091Z" fill="#263238"/>
<path d="M163.763 283.311C163.705 283.359 163.642 283.4 163.575 283.432L162.992 283.767C162.246 284.208 161.477 284.609 160.688 284.968C157.787 286.301 154.743 287.306 151.614 287.964C146.977 288.951 142.252 289.484 137.509 289.555C132.159 289.713 126.291 289.444 120.151 289.043C117.076 288.848 114.067 288.55 111.19 288.113C108.313 287.676 105.548 287.08 102.981 286.429C98.3904 285.256 93.9275 283.638 89.6571 281.599C86.7796 280.227 84.0187 278.628 81.4013 276.816C80.461 276.202 79.7933 275.634 79.3138 275.29L78.7872 274.871C78.665 274.778 78.6085 274.722 78.618 274.713L78.8154 274.834L79.3796 275.206C79.8686 275.532 80.555 276.072 81.5141 276.658C84.1568 278.412 86.9291 279.968 89.8076 281.311C94.0789 283.285 98.527 284.862 103.094 286.019C105.671 286.652 108.407 287.21 111.265 287.657C114.124 288.104 117.114 288.383 120.179 288.587C126.32 288.988 132.168 289.267 137.49 289.136C142.211 289.078 146.915 288.574 151.539 287.629C154.651 287.006 157.687 286.055 160.594 284.791C161.647 284.381 162.39 283.925 162.935 283.683L163.537 283.395C163.607 283.355 163.683 283.326 163.763 283.311Z" fill="#263238"/>
<path d="M107.861 287.089L107.683 286.978L107.166 286.605L105.2 285.154C104.354 284.512 103.32 283.674 102.182 282.734C101.599 282.26 101.007 281.711 100.358 281.152C99.709 280.594 99.0508 279.989 98.3738 279.291C95.1238 276.25 92.2799 272.81 89.911 269.055C87.0136 264.405 85.375 259.095 85.1531 253.636C85.0939 248.203 85.8449 242.791 87.3816 237.575C88.6698 232.755 90.0709 228.493 91.2086 224.891C92.3464 221.29 93.2303 218.433 93.8791 216.386C94.1706 215.409 94.4057 214.627 94.5843 214.06C94.6596 213.818 94.7254 213.622 94.7818 213.464C94.7985 213.392 94.8271 213.323 94.8664 213.26C94.8664 213.26 94.8664 213.334 94.8664 213.474L94.716 214.088L94.0954 216.433C93.5312 218.461 92.6755 221.393 91.5754 224.994C90.4752 228.595 89.1118 232.876 87.8141 237.686C86.3254 242.864 85.594 248.226 85.642 253.608C85.8725 258.996 87.4909 264.237 90.3436 268.832C92.6914 272.57 95.4959 276.008 98.6935 279.068C99.3611 279.738 100.019 280.352 100.659 280.929C101.298 281.506 101.872 282.055 102.445 282.539C103.602 283.469 104.57 284.353 105.407 285.014L107.288 286.54L107.777 286.95C107.814 287.033 107.871 287.08 107.861 287.089Z" fill="#263238"/>
<path d="M135.412 174.27C135.412 174.372 133.899 174.446 131.557 175.116C130.189 175.515 128.856 176.022 127.57 176.633C126.009 177.406 124.504 178.286 123.066 179.267C120.473 181.094 118.05 183.146 115.826 185.399C114.115 187.13 113.108 188.256 113.005 188.191C113.178 187.88 113.386 187.589 113.626 187.325C114.049 186.795 114.697 186.041 115.506 185.148C117.673 182.8 120.088 180.688 122.709 178.848C124.169 177.852 125.707 176.971 127.307 176.214C128.618 175.607 129.984 175.124 131.388 174.772C131.925 174.623 132.472 174.508 133.024 174.428C133.436 174.344 133.854 174.295 134.275 174.279C134.652 174.234 135.034 174.23 135.412 174.27Z" fill="#263238"/>
<g opacity="0.3">
<path opacity="0.3" d="M98.1575 204.401C98.3965 203.526 98.5818 202.637 98.7123 201.739C98.7425 201.393 98.6461 201.048 98.4408 200.766C98.2354 200.484 97.9347 200.284 97.5932 200.203C97.2517 200.122 96.8922 200.165 96.5799 200.324C96.2676 200.483 96.0233 200.747 95.8914 201.069C93.9606 206.119 92.0361 211.169 90.1179 216.219C86.3567 226.204 82.4544 236.44 82.257 247.104C82.0595 257.768 85.501 269.641 94.6126 275.346L91.9609 270.693C85.0873 261.388 84.8992 248.658 87.5227 237.407C90.1461 226.157 95.2426 215.586 98.1575 204.401Z" fill="black"/>
</g>
<path d="M164.317 285.87C164.27 285.87 164.543 285.442 164.75 284.633C165.008 283.481 164.899 282.278 164.44 281.19C163.749 279.582 162.459 278.299 160.838 277.607C158.85 276.746 156.666 276.425 154.51 276.676C152.335 276.901 150.177 277.268 148.05 277.775C146.076 278.221 144.289 278.705 142.85 279.142C141.412 279.58 140.217 279.971 139.399 280.24C138.986 280.401 138.562 280.532 138.13 280.631C138.509 280.398 138.912 280.208 139.334 280.064C140.133 279.738 141.289 279.301 142.747 278.817C144.204 278.333 145.963 277.812 147.947 277.337C150.09 276.797 152.272 276.414 154.472 276.193C156.719 275.939 158.992 276.29 161.055 277.207C162.77 277.963 164.119 279.352 164.816 281.078C165.264 282.232 165.321 283.5 164.976 284.688C164.881 285.014 164.746 285.327 164.571 285.619C164.5 285.715 164.415 285.8 164.317 285.87Z" fill="#263238"/>
<g opacity="0.3">
<path opacity="0.3" d="M154.623 287.564C143.415 292.492 131.057 294.285 118.891 292.747C106.799 291.193 96.7189 287.722 87.2218 280.157C87.2218 280.157 102.37 288.811 125.887 288.997C145.399 289.164 154.623 287.564 154.623 287.564Z" fill="black"/>
</g>
</svg>
