<svg width="14" height="14" viewBox="0 0 14 14" fill="none" xmlns="http://www.w3.org/2000/svg">
<path fill-rule="evenodd" clip-rule="evenodd" d="M7.00061 0.599976C5.26245 0.599976 5.04432 0.607576 4.36165 0.638643C3.68031 0.669843 3.21523 0.777711 2.8083 0.935979C2.38736 1.09945 2.03029 1.31812 1.67455 1.67399C1.31855 2.02972 1.09988 2.38679 0.935876 2.8076C0.777208 3.21467 0.669207 3.67987 0.63854 4.36095C0.608006 5.04362 0.600006 5.26189 0.600006 7.00004C0.600006 8.73819 0.60774 8.95566 0.638673 9.63834C0.670007 10.3197 0.777875 10.7847 0.93601 11.1917C1.09961 11.6126 1.31828 11.9697 1.67415 12.3254C2.02975 12.6814 2.38682 12.9006 2.8075 13.0641C3.2147 13.2224 3.6799 13.3302 4.36111 13.3614C5.04379 13.3925 5.26179 13.4001 6.99981 13.4001C8.73809 13.4001 8.95556 13.3925 9.63823 13.3614C10.3196 13.3302 10.7852 13.2224 11.1924 13.0641C11.6132 12.9006 11.9697 12.6814 12.3253 12.3254C12.6813 11.9697 12.9 11.6126 13.064 11.1918C13.2213 10.7847 13.3293 10.3195 13.3613 9.63847C13.392 8.9558 13.4 8.73819 13.4 7.00004C13.4 5.26189 13.392 5.04375 13.3613 4.36108C13.3293 3.67974 13.2213 3.21467 13.064 2.80773C12.9 2.38679 12.6813 2.02972 12.3253 1.67399C11.9693 1.31798 11.6133 1.09931 11.192 0.935979C10.784 0.777711 10.3186 0.669843 9.6373 0.638643C8.95463 0.607576 8.73729 0.599976 6.99861 0.599976H7.00061ZM6.42644 1.7533C6.59684 1.75304 6.78698 1.7533 7.00058 1.7533C8.7094 1.7533 8.91193 1.75944 9.58674 1.7901C10.2107 1.81864 10.5494 1.9229 10.775 2.01051C11.0737 2.12651 11.2866 2.26517 11.5105 2.48918C11.7345 2.71318 11.8732 2.92652 11.9894 3.22518C12.077 3.45052 12.1814 3.78919 12.2098 4.4132C12.2405 5.08787 12.2472 5.29054 12.2472 6.99856C12.2472 8.70658 12.2405 8.90924 12.2098 9.58392C12.1813 10.2079 12.077 10.5466 11.9894 10.7719C11.8734 11.0706 11.7345 11.2833 11.5105 11.5071C11.2865 11.7311 11.0738 11.8698 10.775 11.9858C10.5497 12.0738 10.2107 12.1778 9.58674 12.2063C8.91207 12.237 8.7094 12.2437 7.00058 12.2437C5.29163 12.2437 5.08909 12.237 4.41442 12.2063C3.79041 12.1775 3.45174 12.0733 3.22601 11.9857C2.92734 11.8697 2.714 11.731 2.49 11.507C2.266 11.283 2.12733 11.0702 2.01106 10.7714C1.92346 10.5461 1.81906 10.2074 1.79066 9.58339C1.75999 8.90871 1.75386 8.70604 1.75386 6.99696C1.75386 5.28787 1.75999 5.08627 1.79066 4.4116C1.81919 3.78759 1.92346 3.44892 2.01106 3.22332C2.12706 2.92465 2.266 2.71131 2.49 2.48731C2.714 2.26331 2.92734 2.12464 3.22601 2.00837C3.45161 1.92037 3.79041 1.81637 4.41442 1.7877C5.00482 1.76104 5.23363 1.75304 6.42644 1.7517V1.7533ZM10.4169 2.81598C9.99288 2.81598 9.64888 3.15959 9.64888 3.58372C9.64888 4.00773 9.99288 4.35173 10.4169 4.35173C10.8409 4.35173 11.1849 4.00773 11.1849 3.58372C11.1849 3.15972 10.8409 2.81598 10.4169 2.81598ZM7.00062 3.71332C5.18553 3.71332 3.71392 5.18494 3.71392 7.00002C3.71392 8.81511 5.18553 10.2861 7.00062 10.2861C8.8157 10.2861 10.2868 8.81511 10.2868 7.00002C10.2868 5.18494 8.8157 3.71332 7.00062 3.71332ZM7.00059 4.86667C8.17874 4.86667 9.13395 5.82175 9.13395 7.00002C9.13395 8.17817 8.17874 9.13338 7.00059 9.13338C5.82231 9.13338 4.86724 8.17817 4.86724 7.00002C4.86724 5.82175 5.82231 4.86667 7.00059 4.86667Z" fill="white"/>
</svg>
