<svg width="112" height="120" viewBox="0 0 112 120" fill="none" xmlns="http://www.w3.org/2000/svg">
<path d="M111.862 48.7387L66.2744 4.17313C60.5827 -1.39239 51.4172 -1.39239 45.7255 4.17313L0.137878 48.7387V120H111.862V48.7387Z" fill="#FF9201"/>
<rect x="16.0002" y="16" width="80" height="104" rx="4" fill="white"/>
<g clip-path="url(#clip0)">
<path fill-rule="evenodd" clip-rule="evenodd" d="M36.0002 51.5C40.1423 51.5 43.5002 48.1421 43.5002 44C43.5002 39.8578 40.1423 36.5 36.0002 36.5C31.858 36.5 28.5002 39.8578 28.5002 44C28.5002 48.1421 31.858 51.5 36.0002 51.5ZM36.0002 56C42.6276 56 48.0002 50.6274 48.0002 44C48.0002 37.3726 42.6276 32 36.0002 32C29.3728 32 24.0002 37.3726 24.0002 44C24.0002 50.6274 29.3728 56 36.0002 56Z" fill="#2EC5CE"/>
<rect x="52.0002" y="37" width="36" height="6" rx="0.5" fill="#2EC5CE"/>
<rect opacity="0.4" x="52.0002" y="46" width="16" height="5" rx="0.5" fill="#2EC5CE"/>
</g>
<path d="M111.862 120L65.1986 83.8613C59.4965 79.9406 51.9468 79.9199 46.222 83.8054C30.1875 94.6902 0.137878 120 0.137878 120H111.862Z" fill="#FFDC81"/>
<path d="M48.051 82.7586H47.7241L0.137878 49.6552V120C0.137878 120 30.1875 94.6904 46.2199 83.8055C46.8096 83.4062 47.4282 83.0752 48.051 82.7586Z" fill="#FFCA00"/>
<path d="M64.2762 82.7586H63.2976C63.9452 83.0897 64.5866 83.4414 65.1969 83.8614L111.862 120V49.6552L64.2762 82.7586Z" fill="#FFB800"/>
<defs>
<clipPath id="clip0">
<rect width="64" height="24" fill="white" transform="translate(24.0002 32)"/>
</clipPath>
</defs>
</svg>
