<svg width="30" height="28" viewBox="0 0 30 28" fill="none" xmlns="http://www.w3.org/2000/svg">
<path d="M6.96018 14.0005C6.05803 13.3359 5.24435 12.5525 4.54475 11.6701C3.01401 12.102 1.61597 12.897 0.451904 14.0005C1.6148 15.1041 3.01401 15.8991 4.54475 16.331C5.24435 15.4486 6.05686 14.6652 6.96018 14.0005ZM22.3072 14.0005C23.2524 14.6955 24.1045 15.5162 24.8367 16.4404C26.4384 15.9888 27.9028 15.1565 29.1216 14.0005C27.9028 12.8446 26.4384 12.0123 24.8367 11.5607C24.1045 12.4849 23.2524 13.3056 22.3072 14.0005Z" fill="#F4DCB3"/>
<path d="M19.0815 3.24347C19.3667 5.32133 19.1642 7.44225 18.4879 9.43164C18.4192 9.43629 18.3517 9.45026 18.2853 9.47586C17.5054 9.78085 16.7522 10.1545 16.0387 10.5887C15.8408 9.77386 15.5731 8.97648 15.2366 8.21286C15.2087 8.14767 15.1691 8.08947 15.1237 8.03825C16.0515 6.15712 17.4088 4.51347 19.0815 3.24347ZM14.1261 8.03825C14.0807 8.08947 14.0423 8.14767 14.0144 8.21286C13.678 8.97998 13.4091 9.77736 13.2123 10.5887C12.4999 10.1545 11.7468 9.78085 10.968 9.47586C10.9017 9.45026 10.833 9.43629 10.7643 9.43164C10.0868 7.44575 9.88545 5.32365 10.1706 3.24231C11.8446 4.51463 13.2007 6.15712 14.1261 8.03825ZM3.86841 9.54338C5.94975 9.25935 8.07184 9.4619 10.0589 10.1371C10.0624 10.2046 10.0764 10.2733 10.102 10.3384C10.4058 11.1195 10.7794 11.8738 11.2148 12.5874C10.4 12.7853 9.60374 13.0542 8.83895 13.3883C8.77493 13.4174 8.71556 13.4558 8.66434 13.5012C6.77973 12.5723 5.13607 11.215 3.86841 9.54338ZM8.66434 14.4976C8.71556 14.5442 8.77377 14.5826 8.83895 14.6106C9.60491 14.947 10.4023 15.2159 11.2148 15.4138C10.7794 16.1273 10.4058 16.8816 10.102 17.6627C10.0764 17.7279 10.0624 17.7966 10.0589 17.8641C8.07184 18.5404 5.94975 18.7418 3.86841 18.4578C5.13607 16.785 6.77973 15.4266 8.66434 14.4976ZM10.1706 24.7589C9.88428 22.6763 10.0868 20.5554 10.7643 18.5695C10.833 18.5649 10.9017 18.5509 10.968 18.5253C11.7468 18.2203 12.4999 17.8466 13.2123 17.4125C13.4091 18.2238 13.678 19.0212 14.0144 19.7883C14.0423 19.8535 14.0819 19.9117 14.1273 19.9629C13.2007 21.844 11.8446 23.4877 10.1706 24.7589ZM15.1249 19.9629C15.1691 19.9117 15.2087 19.8535 15.2366 19.7895C15.5731 19.0247 15.8408 18.2273 16.0387 17.4125C16.7522 17.8478 17.5054 18.2215 18.2853 18.5253C18.3517 18.5521 18.4204 18.566 18.4879 18.5695C19.1653 20.5577 19.3667 22.6787 19.0815 24.7589C17.4088 23.4877 16.0515 21.844 15.1249 19.9629ZM25.3849 18.4566C23.3048 18.7418 21.1827 18.5404 19.1945 17.8641C19.1898 17.7966 19.1758 17.7279 19.1502 17.6616C18.8476 16.884 18.4739 16.1296 18.0362 15.4126C18.8487 15.2159 19.6449 14.947 20.4121 14.6117C20.4772 14.5826 20.5366 14.5442 20.5878 14.4976C22.469 15.4254 24.1126 16.7827 25.3849 18.4566ZM20.5867 13.5012C20.5354 13.4558 20.4772 13.4174 20.4121 13.3883C19.6449 13.053 18.8487 12.7853 18.0374 12.5874C18.4739 11.8703 18.8476 11.116 19.1502 10.3384C19.1758 10.2733 19.1898 10.2046 19.1945 10.1371C21.1815 9.4619 23.3036 9.25935 25.3849 9.54338C24.1138 11.2161 22.4701 12.5734 20.5867 13.5012Z" fill="#57C4C4"/>
<path d="M19.4494 14.0006C18.7172 14.28 17.9617 14.4954 17.1946 14.6432L16.5008 14.7759L16.8966 15.3614C17.3366 16.011 17.7196 16.6989 18.0374 17.4125C17.3215 17.0936 16.6347 16.7117 15.9863 16.2729L15.4019 15.8771L15.2681 16.5709C15.1214 17.3403 14.9049 18.097 14.6255 18.8268C14.345 18.0935 14.1285 17.338 13.9818 16.5709L13.8491 15.8771L13.2636 16.2729C12.6175 16.7106 11.9307 17.0924 11.2148 17.4125C11.5338 16.6966 11.9156 16.0098 12.3544 15.3638L12.7525 14.7794L12.0588 14.6455C11.2905 14.4965 10.5338 14.28 9.80164 13.9995C10.5315 13.7213 11.2881 13.5048 12.0588 13.3558L12.7525 13.2219L12.3544 12.6375C11.9156 11.9915 11.5338 11.3047 11.2148 10.5888C11.9307 10.9089 12.6175 11.2907 13.2636 11.7284L13.8491 12.1242L13.9818 11.4304C14.1285 10.6633 14.345 9.9078 14.6255 9.17444C14.9049 9.90431 15.1214 10.6609 15.2681 11.4304L15.4019 12.1242L15.9863 11.7284C16.6347 11.2895 17.3215 10.9077 18.0374 10.5888C17.7196 11.3012 17.3378 11.988 16.8989 12.6387L16.5043 13.2219L17.1958 13.3558C17.9617 13.5048 18.7172 13.7201 19.4494 14.0006Z" fill="#F4DCB3"/>
<path d="M2.01129 27.5036C1.72028 27.5036 1.43159 27.4943 1.14989 27.4769C1.13126 27.1893 1.12195 26.9006 1.12195 26.6166C1.12195 24.0056 1.86695 21.4866 3.2743 19.3075C5.40803 19.6707 7.59297 19.5531 9.665 18.9629C9.07482 21.0338 8.95609 23.2199 9.32161 25.3536C7.14364 26.7598 4.62228 27.5036 2.01129 27.5036ZM28.1038 27.4769C27.8232 27.4943 27.5345 27.5036 27.2435 27.5036C24.6302 27.5036 22.1088 26.7586 19.9309 25.3524C20.0682 24.5457 20.1404 23.7332 20.1404 22.9196C20.1404 21.5832 19.953 20.2515 19.5851 18.9617C21.6595 19.5519 23.8468 19.6707 25.9817 19.3063C27.5415 21.7241 28.29 24.5551 28.1038 27.4769ZM28.1038 0.522991C28.2888 3.44595 27.5403 6.27695 25.9817 8.69238C23.8468 8.33036 21.6583 8.44909 19.5851 9.03927C19.9518 7.74949 20.1404 6.41664 20.1404 5.0803C20.1404 4.26778 20.0682 3.4541 19.9309 2.64857C22.11 1.24122 24.6314 0.496216 27.2435 0.496216C27.5275 0.496216 27.8162 0.50553 28.1038 0.522991ZM1.14989 0.522991C1.43741 0.50553 1.7261 0.496216 2.01129 0.496216C4.62112 0.496216 7.14132 1.24005 9.32161 2.6474C8.95725 4.77997 9.07482 6.96608 9.66617 9.03695C7.59414 8.44793 5.40803 8.33036 3.2743 8.69355C1.86695 6.51559 1.12195 3.99539 1.12195 1.3844C1.12195 1.0992 1.13126 0.811678 1.14989 0.522991Z" fill="#144A6C"/>
<path d="M2.01129 27.5036C1.72028 27.5036 1.43159 27.4943 1.14989 27.4769C1.13126 27.1893 1.12195 26.9006 1.12195 26.6166C1.12195 24.0056 1.86695 21.4866 3.2743 19.3075C5.40803 19.6707 7.59297 19.5531 9.665 18.9629C9.07482 21.0338 8.95609 23.2199 9.32161 25.3536C7.14364 26.7598 4.62228 27.5036 2.01129 27.5036ZM28.1038 27.4769C27.8232 27.4943 27.5345 27.5036 27.2435 27.5036C24.6302 27.5036 22.1088 26.7586 19.9309 25.3524C20.0682 24.5457 20.1404 23.7332 20.1404 22.9196C20.1404 21.5832 19.953 20.2515 19.5851 18.9617C21.6595 19.5519 23.8468 19.6707 25.9817 19.3063C27.5415 21.7241 28.29 24.5551 28.1038 27.4769ZM28.1038 0.522991C28.2888 3.44595 27.5403 6.27695 25.9817 8.69238C23.8468 8.33036 21.6583 8.44909 19.5851 9.03927C19.9518 7.74949 20.1404 6.41664 20.1404 5.0803C20.1404 4.26778 20.0682 3.4541 19.9309 2.64857C22.11 1.24122 24.6314 0.496216 27.2435 0.496216C27.5275 0.496216 27.8162 0.50553 28.1038 0.522991ZM1.14989 0.522991C1.43741 0.50553 1.7261 0.496216 2.01129 0.496216C4.62112 0.496216 7.14132 1.24005 9.32161 2.6474C8.95725 4.77997 9.07482 6.96608 9.66617 9.03695C7.59414 8.44793 5.40803 8.33036 3.2743 8.69355C1.86695 6.51559 1.12195 3.99539 1.12195 1.3844C1.12195 1.0992 1.13126 0.811678 1.14989 0.522991Z" fill="#144A6C"/>
</svg>
