<svg width="155" height="32" viewBox="0 0 155 32" fill="none" xmlns="http://www.w3.org/2000/svg">
<path d="M7.71139 16.0007C6.64247 15.2131 5.67838 14.2849 4.84945 13.2394C3.03573 13.7511 1.37925 14.6931 0 16.0007C1.37787 17.3082 3.03573 18.2502 4.84945 18.7619C5.67838 17.7164 6.64109 16.7882 7.71139 16.0007ZM25.8954 16.0007C27.0154 16.8241 28.025 17.7964 28.8925 18.8916C30.7904 18.3564 32.5255 17.3702 33.9696 16.0007C32.5255 14.6311 30.7904 13.6449 28.8925 13.1097C28.025 14.2049 27.0154 15.1772 25.8954 16.0007Z" fill="#F4DCB3"/>
<path d="M22.0735 3.25504C22.4114 5.71701 22.1715 8.23 21.3701 10.5871C21.2887 10.5927 21.2087 10.6092 21.1301 10.6395C20.206 11.0009 19.3136 11.4437 18.4682 11.9581C18.2337 10.9926 17.9165 10.0479 17.5179 9.14306C17.4848 9.06583 17.4379 8.99686 17.3841 8.93618C18.4833 6.70731 20.0915 4.75981 22.0735 3.25504ZM16.2021 8.93618C16.1483 8.99686 16.1027 9.06583 16.0696 9.14306C15.671 10.052 15.3524 10.9968 15.1193 11.9581C14.2752 11.4437 13.3829 11.0009 12.4601 10.6395C12.3815 10.6092 12.3002 10.5927 12.2188 10.5871C11.4161 8.23414 11.1774 5.71976 11.5154 3.25366C13.4987 4.76118 15.1056 6.70731 16.2021 8.93618ZM4.0481 10.7195C6.5142 10.383 9.02857 10.623 11.383 11.423C11.3871 11.503 11.4036 11.5843 11.434 11.6616C11.794 12.5871 12.2367 13.4808 12.7525 14.3263C11.7871 14.5608 10.8437 14.8794 9.9375 15.2752C9.86164 15.3097 9.7913 15.3552 9.73061 15.409C7.4976 14.3084 5.5501 12.7002 4.0481 10.7195ZM9.73061 16.5896C9.7913 16.6448 9.86026 16.6903 9.9375 16.7234C10.845 17.122 11.7898 17.4406 12.7525 17.6751C12.2367 18.5206 11.794 19.4143 11.434 20.3398C11.4036 20.4171 11.3871 20.4984 11.383 20.5784C9.02857 21.3798 6.5142 21.6184 4.0481 21.2819C5.5501 19.2999 7.4976 17.6903 9.73061 16.5896ZM11.5154 28.7477C11.1761 26.2803 11.4161 23.7673 12.2188 21.4143C12.3002 21.4087 12.3815 21.3922 12.4601 21.3619C13.3829 21.0005 14.2752 20.5577 15.1193 20.0433C15.3524 21.0046 15.671 21.9494 16.0696 22.8583C16.1027 22.9356 16.1496 23.0045 16.2034 23.0652C15.1055 25.2941 13.4987 27.2416 11.5154 28.7477ZM17.3855 23.0652C17.4379 23.0045 17.4848 22.9356 17.5179 22.8597C17.9165 21.9535 18.2337 21.0088 18.4682 20.0433C19.3136 20.5591 20.206 21.0019 21.1301 21.3619C21.2087 21.3936 21.2901 21.4101 21.3701 21.4143C22.1728 23.77 22.4114 26.283 22.0735 28.7477C20.0915 27.2416 18.4833 25.2941 17.3855 23.0652ZM29.5422 21.2805C27.0774 21.6184 24.5631 21.3798 22.2073 20.5784C22.2018 20.4984 22.1852 20.4171 22.1549 20.3384C21.7963 19.4171 21.3536 18.5233 20.835 17.6737C21.7977 17.4406 22.7411 17.122 23.65 16.7248C23.7272 16.6903 23.7976 16.6448 23.8583 16.5896C26.0871 17.6889 28.0346 19.2971 29.5422 21.2805ZM23.8569 15.409C23.7962 15.3552 23.7272 15.3097 23.65 15.2752C22.7411 14.878 21.7977 14.5608 20.8363 14.3263C21.3536 13.4767 21.7963 12.5829 22.1549 11.6616C22.1852 11.5843 22.2018 11.503 22.2073 11.423C24.5617 10.623 27.0761 10.383 29.5422 10.7195C28.036 12.7015 26.0885 14.3097 23.8569 15.409Z" fill="#57C4C4"/>
<path d="M22.5094 16.0007C21.6418 16.3317 20.7467 16.5869 19.8377 16.7621L19.0157 16.9193L19.4847 17.6131C20.006 18.3827 20.4598 19.1978 20.8363 20.0433C19.9881 19.6654 19.1743 19.213 18.4061 18.693L17.7137 18.2241L17.5551 19.0461C17.3813 19.9578 17.1248 20.8543 16.7937 21.7191C16.4613 20.8502 16.2048 19.955 16.031 19.0461L15.8738 18.2241L15.18 18.693C14.4145 19.2116 13.6008 19.664 12.7525 20.0433C13.1305 19.1951 13.5828 18.3813 14.1028 17.6158L14.5745 16.9234L13.7525 16.7648C12.8422 16.5883 11.9457 16.3317 11.0781 15.9993C11.9429 15.6697 12.8394 15.4132 13.7525 15.2366L14.5745 15.078L14.1028 14.3856C13.5828 13.6201 13.1305 12.8064 12.7525 11.9581C13.6008 12.3374 14.4145 12.7898 15.18 13.3084L15.8738 13.7774L16.031 12.9553C16.2048 12.0464 16.4613 11.1513 16.7937 10.2823C17.1248 11.1471 17.3813 12.0437 17.5551 12.9553L17.7137 13.7774L18.4061 13.3084C19.1743 12.7884 19.9881 12.336 20.8363 11.9581C20.4598 12.8022 20.0074 13.616 19.4874 14.387L19.0198 15.078L19.8391 15.2366C20.7467 15.4132 21.6418 15.6683 22.5094 16.0007Z" fill="#F4DCB3"/>
<path d="M1.84757 32C1.50276 32 1.1607 31.989 0.826925 31.9683C0.804857 31.6276 0.793823 31.2855 0.793823 30.949C0.793823 27.8553 1.67654 24.8706 3.34406 22.2887C5.87222 22.719 8.46108 22.5797 10.9161 21.8804C10.2169 24.3341 10.0762 26.9244 10.5093 29.4525C7.92869 31.1187 4.94123 32 1.84757 32ZM32.7635 31.9683C32.4311 31.989 32.089 32 31.7442 32C28.6478 32 25.6603 31.1173 23.0798 29.4511C23.2425 28.4953 23.328 27.5326 23.328 26.5685C23.328 24.9851 23.106 23.4073 22.6701 21.8791C25.1279 22.5783 27.7196 22.719 30.2491 22.2873C32.0973 25.152 32.9842 28.5064 32.7635 31.9683ZM32.7635 0.0317243C32.9828 3.49502 32.0959 6.84936 30.2491 9.7113C27.7196 9.28236 25.1266 9.42304 22.6701 10.1223C23.1046 8.59411 23.328 7.01487 23.328 5.43149C23.328 4.46877 23.2425 3.50468 23.0798 2.55024C25.6617 0.882723 28.6492 0 31.7442 0C32.0807 0 32.4228 0.0110355 32.7635 0.0317243ZM0.826925 0.0317243C1.1676 0.0110355 1.50965 0 1.84757 0C4.93985 0 7.92593 0.881343 10.5093 2.54886C10.0776 5.07564 10.2169 7.66588 10.9175 10.1196C8.46246 9.42166 5.87222 9.28236 3.34406 9.71268C1.67654 7.13211 0.793823 4.14603 0.793823 1.05237C0.793823 0.714452 0.804857 0.373778 0.826925 0.0317243Z" fill="#144A6C"/>
<path d="M1.84757 32C1.50276 32 1.1607 31.989 0.826925 31.9683C0.804857 31.6276 0.793823 31.2855 0.793823 30.949C0.793823 27.8553 1.67654 24.8706 3.34406 22.2887C5.87222 22.719 8.46108 22.5797 10.9161 21.8804C10.2169 24.3341 10.0762 26.9244 10.5093 29.4525C7.92869 31.1187 4.94123 32 1.84757 32ZM32.7635 31.9683C32.4311 31.989 32.089 32 31.7442 32C28.6478 32 25.6603 31.1173 23.0798 29.4511C23.2425 28.4953 23.328 27.5326 23.328 26.5685C23.328 24.9851 23.106 23.4073 22.6701 21.8791C25.1279 22.5783 27.7196 22.719 30.2491 22.2873C32.0973 25.152 32.9842 28.5064 32.7635 31.9683ZM32.7635 0.0317243C32.9828 3.49502 32.0959 6.84936 30.2491 9.7113C27.7196 9.28236 25.1266 9.42304 22.6701 10.1223C23.1046 8.59411 23.328 7.01487 23.328 5.43149C23.328 4.46877 23.2425 3.50468 23.0798 2.55024C25.6617 0.882723 28.6492 0 31.7442 0C32.0807 0 32.4228 0.0110355 32.7635 0.0317243ZM0.826925 0.0317243C1.1676 0.0110355 1.50965 0 1.84757 0C4.93985 0 7.92593 0.881343 10.5093 2.54886C10.0776 5.07564 10.2169 7.66588 10.9175 10.1196C8.46246 9.42166 5.87222 9.28236 3.34406 9.71268C1.67654 7.13211 0.793823 4.14603 0.793823 1.05237C0.793823 0.714452 0.804857 0.373778 0.826925 0.0317243Z" fill="#144A6C"/>
<path fill-rule="evenodd" clip-rule="evenodd" d="M50.1965 14.6697L47.1911 21.2695L47.0214 21.3053C46.4945 21.4157 46.0422 21.4198 45.4587 21.3053L45.2863 21.2722L42.1775 14.5056L42.1844 14.6491V22.4391L41.9182 22.4998C41.3513 22.628 41.03 22.6528 40.27 22.5011L39.9941 22.446V9.6272L40.2134 9.54169C40.7582 9.33205 41.3789 9.27825 41.9678 9.43273L42.1223 9.47411L46.3346 18.4351L50.3371 9.46445L50.5109 9.42859C51.0006 9.33204 51.6254 9.33756 52.1715 9.51687L52.4046 9.59548V22.4418L52.1343 22.4998C51.8116 22.5701 51.5412 22.6032 51.3109 22.6032C51.093 22.6032 50.8199 22.5701 50.4723 22.5011L50.1965 22.446V14.6697ZM59.1988 22.777C58.5009 22.777 57.8444 22.6556 57.2472 22.4142C56.6486 22.1729 56.1217 21.8239 55.6845 21.3729C55.2473 20.9219 54.9066 20.3688 54.6721 19.7275C54.4418 19.0971 54.3246 18.3992 54.3246 17.6517C54.3246 16.9317 54.4445 16.2462 54.6818 15.6131C54.9231 14.9759 55.2611 14.4173 55.6873 13.9512C56.1134 13.4808 56.6251 13.1126 57.2099 12.8574C58.3368 12.3581 59.6705 12.3485 60.7905 12.7926C61.3311 13.0091 61.8084 13.3167 62.2056 13.7043C62.6056 14.0987 62.9173 14.5746 63.1325 15.1166C63.3476 15.6559 63.4552 16.238 63.4552 16.8421C63.4552 17.2117 63.4304 17.6269 63.3752 18.1137L63.3421 18.4185H56.672C56.7782 19.024 57.0306 19.5233 57.4361 19.9399C57.9134 20.4295 58.4954 20.6667 59.2168 20.6667C59.3519 20.6667 59.5767 20.6502 59.8871 20.6198C60.1767 20.5922 60.465 20.515 60.745 20.3881C61.0332 20.2598 61.3587 20.0571 61.7104 19.7909L61.8815 19.6613L62.0732 19.7592C62.2966 19.8723 62.509 20.0557 62.7063 20.3067C62.9007 20.5509 63.0318 20.7964 63.0952 21.0336L63.1531 21.2446L62.9862 21.3853C61.8856 22.308 60.6112 22.777 59.1988 22.777ZM61.1325 16.4435C61.0967 16.1428 61.0153 15.8628 60.8884 15.6063C60.716 15.2628 60.4884 15.0049 60.1905 14.8173C59.9022 14.6339 59.523 14.5429 59.0637 14.5429C58.4058 14.5429 57.8734 14.7566 57.4334 15.1939C57.0762 15.5525 56.8389 15.9635 56.7162 16.4435H61.1325ZM73.3265 14.3484C73.6989 14.9539 73.8892 15.6835 73.8892 16.5152V22.4363L73.6244 22.4984C73.3775 22.5549 73.0851 22.5853 72.7555 22.5853C72.4672 22.5853 72.1845 22.5563 71.9141 22.5011L71.6424 22.4432V17.0545C71.6424 16.1759 71.4521 15.54 71.0769 15.1649C70.7018 14.7897 70.1128 14.5994 69.3225 14.5994C68.8963 14.5994 68.4743 14.6601 68.0688 14.7801C67.7419 14.8766 67.4564 14.9828 67.215 15.1001V22.4363L66.9502 22.4984C66.4868 22.606 65.8165 22.6211 65.2427 22.5011L64.9696 22.4432V14.038L65.0965 13.9346C65.5985 13.5277 66.2523 13.1774 67.0371 12.896C68.6688 12.3071 70.5597 12.3374 71.7886 12.9484C72.4355 13.2739 72.9527 13.7429 73.3265 14.3484ZM76.4822 14.7553H74.9968L74.9319 14.4973C74.8726 14.2656 74.8437 14.0243 74.8437 13.776C74.8437 13.5277 74.8726 13.2891 74.9333 13.0698L75.0009 12.816H76.4822V10.4396L76.7457 10.3775C77.2243 10.2644 77.9304 10.2589 78.427 10.3775L78.6904 10.4396V12.816H82.2199L82.2861 13.0712C82.344 13.2932 82.373 13.5291 82.373 13.776C82.373 14.0215 82.344 14.2629 82.2875 14.4946L82.224 14.7553H78.6904V19.0599C78.6904 19.7054 78.809 20.1426 79.0449 20.3633C79.2876 20.5909 79.6435 20.7053 80.1041 20.7053C80.3055 20.7053 80.5538 20.6502 80.8406 20.5426C81.1317 20.435 81.3923 20.2833 81.6172 20.093L81.8103 19.9288L82.0227 20.064C82.1992 20.1771 82.3661 20.3412 82.5302 20.566C82.6944 20.7936 82.8075 21.0695 82.8695 21.3867L82.9054 21.5715L82.7688 21.7012C82.4695 21.9853 82.0654 22.2349 81.5648 22.4418C81.0641 22.6515 80.5331 22.7591 79.9883 22.7591C79.2297 22.7591 78.5856 22.6225 78.0739 22.3508C77.5511 22.0777 77.1498 21.6832 76.8794 21.1798C76.616 20.6874 76.4822 20.0792 76.4822 19.3689V14.7553ZM86.1356 22.4142C85.537 22.1729 85.0115 21.8239 84.5729 21.3729C84.1371 20.9219 83.7964 20.3688 83.5619 19.7275C83.3316 19.0971 83.213 18.3992 83.213 17.6517C83.213 16.9317 83.3343 16.2462 83.5716 15.6131C83.8116 14.9759 84.1495 14.4173 84.5757 13.9512C85.0032 13.4808 85.5149 13.1126 86.0984 12.8574C87.2266 12.3581 88.5603 12.3485 89.6803 12.7926C90.2209 13.0091 90.6982 13.3167 91.094 13.7043C91.4954 14.0987 91.8057 14.5746 92.0209 15.1166C92.236 15.6559 92.345 16.238 92.345 16.8421C92.345 17.2117 92.3188 17.6269 92.265 18.1137L92.2305 18.4185H85.5618C85.6666 19.024 85.919 19.5233 86.3259 19.9399C86.8031 20.4295 87.3852 20.6667 88.1065 20.6667C88.2417 20.6667 88.4651 20.6502 88.7769 20.6198C89.0651 20.5922 89.3534 20.515 89.6347 20.3881C89.923 20.2598 90.2471 20.0571 90.6002 19.7909L90.7713 19.6613L90.9616 19.7592C91.1864 19.8723 91.3988 20.0557 91.5947 20.3067C91.7905 20.5509 91.9215 20.7964 91.985 21.0336L92.0429 21.2446L91.876 21.3853C90.7754 22.308 89.501 22.777 88.0872 22.777C87.3907 22.777 86.7328 22.6556 86.1356 22.4142ZM90.0223 16.4435C89.9851 16.1428 89.9037 15.8628 89.7768 15.6063C89.6044 15.2628 89.3782 15.0049 89.0803 14.8173C88.792 14.6339 88.4127 14.5429 87.9521 14.5429C87.2955 14.5429 86.7618 14.7566 86.3232 15.1939C85.9646 15.5525 85.7287 15.9635 85.606 16.4435H90.0223ZM106.211 16.0173C106.867 16.7041 107.2 17.591 107.2 18.6544C107.2 19.1151 107.126 19.5813 106.982 20.0405C106.833 20.5191 106.564 20.9646 106.18 21.3605C105.801 21.7536 105.298 22.0777 104.684 22.3273C104.069 22.5742 103.322 22.6997 102.46 22.6997C101.914 22.6997 101.357 22.6349 100.804 22.5066C100.24 22.3756 99.7226 22.1756 99.2633 21.9108C98.7943 21.6432 98.4026 21.337 98.102 21.006L97.9737 20.8653L98.0261 20.6819C98.1875 20.1109 98.564 19.6475 99.1461 19.3054L99.3778 19.1675L99.5653 19.362C99.9157 19.7275 100.345 20.0226 100.837 20.2419C101.761 20.6571 103.019 20.6681 103.878 20.3233C104.259 20.1716 104.527 19.9564 104.693 19.6681C104.869 19.3661 104.954 19.0475 104.954 18.693C104.954 18.1965 104.771 17.8144 104.395 17.5275C103.972 17.2048 103.288 16.9303 102.364 16.711C100.996 16.3897 99.9846 15.9125 99.3571 15.2918C98.7075 14.6504 98.3792 13.7898 98.3792 12.7333C98.3792 11.6588 98.7875 10.7568 99.5943 10.0548C100.39 9.36652 101.433 9.01758 102.693 9.01758C104.318 9.01758 105.717 9.44928 106.853 10.3003L107 10.4106L106.988 10.5954C106.972 10.8699 106.862 11.1651 106.664 11.4726C106.463 11.783 106.229 12.0037 105.969 12.1333L105.784 12.2257L105.618 12.1057C105.2 11.8064 104.75 11.5678 104.282 11.3968C103.826 11.2313 103.291 11.1471 102.693 11.1471C102.383 11.1471 102.048 11.2023 101.695 11.3154C101.372 11.4175 101.113 11.5899 100.902 11.8437C100.702 12.085 100.604 12.3429 100.604 12.6367C100.604 13.0464 100.738 13.3719 101.012 13.6339C101.215 13.8298 101.696 14.1222 102.852 14.4077C104.463 14.8146 105.56 15.3414 106.211 16.0173ZM117.079 15.0008C117.293 15.5359 117.402 16.1166 117.402 16.7262C117.402 17.0945 117.377 17.511 117.322 17.9979L117.289 18.3027H110.621C110.726 18.9068 110.979 19.4075 111.386 19.824C111.861 20.3123 112.445 20.5509 113.165 20.5509C113.3 20.5509 113.525 20.5343 113.835 20.504C114.123 20.475 114.412 20.3978 114.692 20.2709C114.983 20.1412 115.308 19.9399 115.66 19.6737L115.831 19.544L116.021 19.6419C116.247 19.755 116.46 19.9412 116.654 20.1909C116.849 20.4336 116.98 20.6819 117.045 20.9205L117.1 21.1301L116.933 21.2695C115.832 22.1922 114.561 22.6611 113.147 22.6611C112.449 22.6611 111.792 22.5397 111.194 22.297C110.597 22.0584 110.072 21.7067 109.633 21.257C109.197 20.8088 108.856 20.2557 108.622 19.6116C108.388 18.9785 108.271 18.2792 108.271 17.5358C108.271 16.8159 108.391 16.1304 108.63 15.4973C108.874 14.8559 109.212 14.296 109.635 13.8339C110.063 13.3636 110.576 12.9953 111.158 12.7402C112.286 12.2395 113.623 12.2312 114.737 12.6767C115.278 12.8919 115.752 13.1981 116.154 13.5884C116.555 13.9843 116.867 14.4587 117.079 15.0008ZM115.079 16.3262C115.045 16.0283 114.963 15.7456 114.836 15.489C114.663 15.1442 114.434 14.8863 114.14 14.7015C113.849 14.518 113.468 14.4256 113.01 14.4256C112.355 14.4256 111.821 14.6394 111.383 15.078C111.023 15.4366 110.787 15.8476 110.664 16.3262H115.079ZM125.199 12.754L125.214 12.9815C125.229 13.2381 125.195 13.5167 125.113 13.8105C125.033 14.1029 124.913 14.3567 124.756 14.5622L124.617 14.7442L124.395 14.6835C123.693 14.4946 122.705 14.4091 121.804 14.6201C121.564 14.6753 121.356 14.7456 121.182 14.8284V22.3204L120.918 22.3811C120.671 22.4391 120.378 22.468 120.05 22.468C119.748 22.468 119.458 22.4404 119.189 22.3839L118.918 22.3273V13.7705L119.039 13.667C119.465 13.3098 120.042 12.9981 120.753 12.7402C122.163 12.2299 123.698 12.2436 124.981 12.6809L125.199 12.754Z" fill="#57C4C4"/>
<path fill-rule="evenodd" clip-rule="evenodd" d="M134.033 14.9993C134.248 15.5441 134.356 16.1234 134.356 16.7261C134.356 17.0944 134.331 17.5109 134.276 17.9978L134.243 18.3026H127.571C127.677 18.9067 127.93 19.4074 128.335 19.8239C128.812 20.3122 129.394 20.5508 130.116 20.5508C130.251 20.5508 130.476 20.5343 130.787 20.5039C131.077 20.4749 131.365 20.3977 131.645 20.2708C131.931 20.1425 132.256 19.9425 132.609 19.6736L132.781 19.5439L132.972 19.6419C133.196 19.7536 133.408 19.9384 133.607 20.1881C133.798 20.4349 133.929 20.6791 133.997 20.9149L134.055 21.1273L133.887 21.2694C132.786 22.1921 131.512 22.6611 130.098 22.6611C129.399 22.6611 128.743 22.5397 128.148 22.2969C127.548 22.0569 127.021 21.7066 126.584 21.257C126.145 20.8032 125.806 20.2501 125.573 19.6115C125.341 18.9826 125.225 18.2847 125.225 17.5358C125.225 16.8158 125.345 16.1303 125.582 15.4972C125.821 14.8628 126.159 14.3042 126.586 13.8352C127.012 13.3649 127.524 12.9966 128.109 12.7401C129.233 12.2408 130.567 12.2298 131.69 12.6767C132.234 12.8946 132.71 13.2008 133.105 13.5883C133.503 13.9828 133.816 14.4573 134.033 14.9993ZM132.032 16.3262C131.998 16.0255 131.917 15.7483 131.787 15.4903C131.619 15.151 131.385 14.8862 131.09 14.7014C130.803 14.518 130.423 14.4255 129.964 14.4255C129.306 14.4255 128.772 14.6393 128.332 15.0779C127.977 15.4365 127.739 15.8476 127.615 16.3262H132.032ZM144.227 14.2311C144.599 14.8379 144.788 15.5676 144.788 16.3993V22.3204L144.523 22.3811C144.277 22.439 143.984 22.468 143.655 22.468C143.368 22.468 143.086 22.4404 142.813 22.3838L142.541 22.3287V16.9385C142.541 16.06 142.351 15.4241 141.976 15.049C141.601 14.6724 141.012 14.4835 140.223 14.4835C139.797 14.4835 139.375 14.5428 138.969 14.6642C138.644 14.758 138.357 14.8669 138.114 14.9855V22.3204L137.849 22.3811C137.387 22.49 136.718 22.5038 136.143 22.3838L135.87 22.3273V13.9207L135.997 13.8187C136.5 13.409 137.154 13.0587 137.938 12.7787C139.571 12.1925 141.463 12.2201 142.688 12.8325C143.333 13.1539 143.852 13.6256 144.227 14.2311ZM154.643 16.2434V21.6321L154.468 21.7314C153.998 21.9935 153.391 22.2087 152.613 22.3907C151.854 22.57 151.118 22.6611 150.424 22.6611C149.548 22.6611 148.799 22.5397 148.195 22.2983C147.572 22.0514 147.075 21.6832 146.718 21.2018C146.352 20.7163 146.166 20.0984 146.166 19.3688C146.166 18.7481 146.345 18.1716 146.699 17.6516C147.052 17.1316 147.572 16.7427 148.239 16.4917C149.323 16.0917 150.493 16.0434 151.676 16.2751C151.949 16.3289 152.204 16.391 152.436 16.4599V16.2434C152.436 15.6765 152.261 15.2545 151.902 14.9538C151.529 14.6407 150.987 14.4835 150.289 14.4835C149.831 14.4835 149.385 14.558 148.965 14.7069C148.543 14.8545 148.187 15.0366 147.911 15.2448L147.741 15.3717L147.552 15.2766C147.298 15.1497 147.082 14.9676 146.91 14.7304C146.736 14.4945 146.624 14.2463 146.577 13.9911L146.545 13.8145L146.672 13.6877C147.024 13.3359 147.545 13.0215 148.225 12.7539C148.9 12.4877 149.618 12.3525 150.366 12.3525C151.262 12.3525 152.035 12.5098 152.668 12.8215C153.311 13.1415 153.807 13.5911 154.142 14.1621C154.475 14.729 154.643 15.4296 154.643 16.2434ZM148.958 18.4419C148.647 18.6392 148.552 18.7909 148.527 18.886C148.46 19.144 148.453 19.2543 148.453 19.2902C148.453 19.686 148.602 19.9784 148.919 20.2101C149.264 20.4625 149.777 20.5894 150.443 20.5894C151.167 20.5894 151.836 20.497 152.436 20.315V18.5716C152.17 18.4681 151.872 18.3826 151.533 18.315C151.107 18.2295 150.678 18.1854 150.251 18.1854C149.664 18.1854 149.229 18.2723 148.958 18.4419Z" fill="#57C4C4"/>
</svg>
