<svg width="466" height="488" viewBox="0 0 466 488" fill="none" xmlns="http://www.w3.org/2000/svg">
<path d="M465.69 471.705H1.49384V0H465.69V471.705Z" fill="#144A6C"/>
<path d="M0 175.802C130.211 251.837 219.876 355.877 268.977 487.942L1.49381 488L0 175.802Z" fill="#F4DCB3"/>
<path d="M137.912 415.053C294.972 258.983 404.328 174.074 466 160.363L465.69 488L128.504 487.942L137.912 415.053Z" fill="#F4DCB3"/>
<path d="M288.9 382.037H177.197C156.032 382.037 138.688 364.694 138.688 343.466V297.768C138.688 276.56 156.032 259.197 177.197 259.197H288.9C310.085 259.197 327.428 276.56 327.428 297.768V343.466C327.428 364.694 310.085 382.037 288.9 382.037Z" fill="#57C4C4"/>
<path d="M311.132 412.723H145.11C141.87 412.723 139.212 415.384 139.212 418.608C139.212 421.851 141.87 424.512 145.11 424.512H152.792L149.979 443.467C149.649 445.681 152.676 446.672 153.723 444.691L164.471 424.512H293.711C293.75 424.667 293.75 424.842 293.828 424.997L304.73 445.486C305.778 447.467 308.785 446.478 308.475 444.244L305.545 424.512H311.132C314.372 424.512 317.03 421.851 317.03 418.608C317.03 415.384 314.372 412.723 311.132 412.723Z" fill="#144A6C"/>
<path d="M343.607 317.967C332.355 314.374 320.211 320.646 316.622 331.911L309.58 354.071H149.63L143.267 334.125C139.678 322.861 127.534 316.588 116.282 320.181C105.03 323.774 98.7639 335.931 102.353 347.195L118.28 397.167C119.308 400.39 121.093 403.148 123.324 405.459C129.202 413.345 138.553 418.511 149.087 418.511H310.395C323.936 418.511 335.557 410.004 340.29 398.08C340.794 397.07 341.299 396.06 341.648 394.933L357.556 344.962C361.125 333.698 354.859 321.54 343.607 317.967Z" fill="#4AA7A8"/>
<path d="M161.96 192.609C162.25 191.387 162.423 190.107 162.423 188.788C162.423 180.682 156.442 173.798 148.107 171.316C146.892 169.124 144.577 167.534 141.76 167.088C137.862 163.17 132.132 160.669 125.727 160.669C116.851 160.669 109.25 165.42 106.086 172.169C105.507 172.13 104.928 172.091 104.349 172.091C92.6378 172.091 83.1453 180.372 83.1453 190.592C83.1453 191.271 83.2032 191.95 83.2803 192.609H161.96Z" fill="white"/>
<path d="M340.8 54.2015C341.089 52.9604 341.282 51.6804 341.282 50.3617C341.282 42.2553 335.283 35.3906 326.95 32.8888C325.755 30.7168 323.42 29.1073 320.604 28.6806C316.708 24.7438 310.979 22.2614 304.575 22.2614C295.702 22.2614 288.122 27.013 284.958 33.7619C284.379 33.7231 283.801 33.6842 283.203 33.6842C271.494 33.6842 262.004 41.9648 262.004 52.1656C262.004 52.8638 262.062 53.5228 262.139 54.2015H340.8Z" fill="white"/>
</svg>
