<svg width="173" height="129" viewBox="0 0 173 129" fill="none" xmlns="http://www.w3.org/2000/svg">
<path d="M26 108H147V108C147 110.209 145.209 112 143 112H30C27.7909 112 26 110.209 26 108V108Z" fill="#144A6C"/>
<rect x="22" width="128" height="92" rx="27" fill="#57C4C4"/>
<path fill-rule="evenodd" clip-rule="evenodd" d="M31.8213 65.3307L29.0692 57.0742C29.0469 57.0075 29.0247 56.9407 29.0024 56.8739C27.5259 52.4422 25.9629 47.7511 22.1528 45.0635C15.6444 40.4724 5.4303 40.1777 1.1066 50.2321C-0.805172 54.6777 0.0538664 59.7195 1.47267 64.3461L10.8213 94.8315C12.6547 99.4982 19.4213 108.832 31.8213 108.832H140.821H141.321L141.321 108.827C153.403 108.589 160.013 99.7666 161.821 95.163L171.17 64.6777C172.589 60.051 173.448 55.0093 171.536 50.5636C167.212 40.5092 156.998 40.804 150.49 45.3951C146.68 48.0827 145.117 52.7739 143.64 57.2055L143.573 57.4058L140.932 65.3307H31.8213Z" fill="#49A7A7"/>
<path d="M137.215 125.354L128.5 110H137.5L138.708 124.895C138.777 125.748 137.637 126.099 137.215 125.354Z" fill="#144A6C"/>
<path d="M35.7855 125.354L44.5 110H35.5L34.2923 124.895C34.2231 125.748 35.3627 126.099 35.7855 125.354Z" fill="#144A6C"/>
</svg>
