<svg width="328" height="512" viewBox="0 0 328 512" fill="none" xmlns="http://www.w3.org/2000/svg">
<mask id="mask0" mask-type="alpha" maskUnits="userSpaceOnUse" x="0" y="0" width="328" height="512">
<rect width="328" height="512" rx="16" fill="#C4C4C4"/>
</mask>
<g mask="url(#mask0)">
<rect x="-221" y="-42" width="1092" height="571" rx="16" fill="#144A6C"/>
<path opacity="0.15" d="M498.008 354.06C382.04 191.743 222.221 381.421 95.5627 252.966C29.6619 186.13 16.2975 125.82 -30.9926 26.1189C-61.3247 -37.8299 -64.2158 -48.9627 -93.0046 -94.7017C-121.793 -140.441 -174 -193.331 -174 -193.331V-361H1189V755.974H863.753C863.753 755.974 690.036 761.246 606.846 622.824C556.249 538.635 557.373 437.152 498.008 354.06Z" fill="white"/>
<path opacity="0.15" d="M545.008 300.735C429.04 138.492 269.222 369.981 142.563 241.584C76.6619 174.779 42.1625 -61.9727 22.9682 -131.94C12.4509 -170.278 -3.60835 -204.783 -29.6928 -231.619C-55.7772 -258.456 -127 -246.407 -127 -246.407V-414H1236V632.361H931.002C931.002 632.361 717.123 645.779 647.518 549.66C586.772 465.773 604.373 383.788 545.008 300.735Z" fill="white"/>
</g>
</svg>
