<svg width="320" height="265" viewBox="0 0 320 265" fill="none" xmlns="http://www.w3.org/2000/svg">
<circle cx="241.708" cy="245.018" r="19.3861" fill="#57C4C4"/>
<circle cx="106.006" cy="19.3861" r="19.3861" fill="#F4DCB3"/>
<path d="M288.871 120.901C289.019 121.056 289.151 121.226 289.263 121.409L290.247 122.875C291.062 124.117 292.184 125.842 293.407 127.756C294.631 129.67 295.727 131.415 296.506 132.683L297.424 134.21C297.543 134.39 297.645 134.581 297.73 134.78C297.582 134.624 297.45 134.454 297.337 134.271L296.359 132.805C295.538 131.558 294.416 129.833 293.193 127.919C291.97 126.005 290.879 124.26 290.094 122.992C289.727 122.392 289.421 121.883 289.182 121.465C289.058 121.289 288.954 121.099 288.871 120.901Z" fill="#E0E0E0"/>
<path d="M23.7688 103.306C23.8465 103.196 23.9131 103.078 23.9676 102.955L24.4773 101.937C24.9157 101.031 25.4968 99.7078 26.2512 98.0639C27.709 94.7811 29.5798 90.1802 31.583 85.0805C33.5863 79.9808 35.4162 75.3493 36.8078 72.0411L38.4797 68.1323C38.6632 67.6946 38.8161 67.3434 38.9333 67.0686C38.9911 66.946 39.0372 66.8182 39.071 66.6869C38.9886 66.7941 38.9217 66.9123 38.8722 67.0381L38.3624 68.056C37.9241 68.9619 37.3175 70.2852 36.5937 71.924C35.1358 75.2119 33.26 79.8128 31.2619 84.9125C29.2637 90.0122 27.4236 94.6233 26.0218 97.9315L24.3499 101.84L23.9013 102.904C23.8408 103.032 23.7963 103.167 23.7688 103.306Z" fill="#E0E0E0"/>
<path d="M223.248 33.9561H287.51L274.94 42.878V50.3291C274.911 54.0106 273.42 57.5301 270.793 60.1137C268.166 62.6974 264.619 64.1336 260.932 64.1065H220.607C216.92 64.1336 213.373 62.6974 210.746 60.1137C208.12 57.5301 206.628 54.0106 206.6 50.3291C206.616 48.1625 207.059 46.0202 207.904 44.0247C208.75 42.0292 209.981 40.2195 211.527 38.6991C213.073 37.1786 214.903 35.9772 216.915 35.1633C218.926 34.3495 221.078 33.9393 223.248 33.9561Z" fill="#F3F4F6"/>
<path d="M264.098 43.9163C264.098 43.9877 253.393 44.0489 240.14 44.0489C226.887 44.0489 216.183 43.9877 216.183 43.9163C216.183 43.845 226.887 43.7838 240.14 43.7838C253.393 43.7838 264.098 43.8399 264.098 43.9163Z" fill="#6B7280"/>
<path d="M264.098 48.8736C264.098 48.945 253.393 49.0062 240.14 49.0062C226.887 49.0062 216.183 48.945 216.183 48.8736C216.183 48.8023 226.887 48.7411 240.14 48.7411C253.393 48.7411 264.098 48.7972 264.098 48.8736Z" fill="#6B7280"/>
<path d="M125.751 186.667H49.7092L62.0957 195.615V213.174C62.0957 213.655 62.1908 214.132 62.3755 214.577C62.5603 215.022 62.8311 215.426 63.1724 215.767C63.5138 216.107 63.9189 216.377 64.3648 216.561C64.8107 216.745 65.2885 216.839 65.7708 216.838H125.751C126.233 216.839 126.711 216.745 127.157 216.561C127.603 216.377 128.008 216.107 128.35 215.767C128.691 215.426 128.962 215.022 129.146 214.577C129.331 214.132 129.426 213.655 129.426 213.174V190.332C129.425 189.36 129.037 188.428 128.348 187.74C127.659 187.053 126.725 186.667 125.751 186.667Z" fill="#F3F4F6"/>
<path d="M122.581 199.076C122.581 199.152 111.112 199.208 96.9665 199.208C82.8214 199.208 71.3524 199.152 71.3524 199.076C71.3524 198.999 82.8163 198.943 96.9665 198.943C111.117 198.943 122.581 199.005 122.581 199.076Z" fill="#6B7280"/>
<path d="M122.581 205.82C122.581 205.891 111.112 205.952 96.9665 205.952C82.8214 205.952 71.3524 205.891 71.3524 205.82C71.3524 205.748 82.8163 205.687 96.9665 205.687C111.117 205.687 122.581 205.748 122.581 205.82Z" fill="#6B7280"/>
<path d="M281.011 100.135H192.016C181.096 100.135 172.244 108.974 172.244 119.878V192.2C172.244 203.103 181.096 211.942 192.016 211.942H281.011C291.931 211.942 300.783 203.103 300.783 192.2V119.878C300.783 108.974 291.931 100.135 281.011 100.135Z" fill="#144A6C"/>
<path d="M281.011 100.135H192.016C181.096 100.135 172.244 108.974 172.244 119.878V192.2C172.244 203.103 181.096 211.942 192.016 211.942H281.011C291.931 211.942 300.783 203.103 300.783 192.2V119.878C300.783 108.974 291.931 100.135 281.011 100.135Z" fill="#57C4C4"/>
<path d="M300.747 139.111H320L300.314 158.772L300.747 139.111Z" fill="#144A6C"/>
<path d="M300.747 139.111H320L300.314 158.772L300.747 139.111Z" fill="#57C4C4"/>
<path d="M169.165 151.199L161.096 142.038C158.914 139.859 158.165 138.811 158.603 138.429C159.184 137.92 158.935 138.088 163.466 141.483C163.466 141.483 157.044 136.582 159.271 136.551C159.664 136.551 160.754 137.182 161.922 137.946C160.331 136.597 159.883 135.686 160.194 135.253C160.703 134.5 164.639 137.223 166.448 138.531C164.97 137.432 162.151 135.299 161.657 134.627C160.974 133.711 162.355 133.787 163.476 134.169C164.735 134.597 171.693 138.144 173.753 139.06C173.918 139.159 174.102 139.22 174.293 139.24C174.485 139.261 174.678 139.239 174.86 139.178C175.042 139.117 175.209 139.016 175.349 138.885C175.488 138.753 175.598 138.592 175.669 138.414C176.429 135.228 178.728 133.156 179.604 132.887C180.481 132.617 181.159 133.737 180.532 134.551C179.942 135.498 179.486 136.522 179.176 137.594C178.892 138.435 178.753 139.318 178.763 140.205C178.763 141.223 178.835 142.104 178.901 142.842L186.277 152.944L173.941 160.07L169.165 151.199Z" fill="#B78876"/>
<path d="M166.28 142.908C166.198 143.02 164.751 142.037 163.079 140.709C161.407 139.381 160.102 138.21 160.199 138.103C160.296 137.996 161.728 138.984 163.4 140.302C165.072 141.62 166.351 142.791 166.28 142.908Z" fill="#AA6550"/>
<path d="M167.84 141.3C167.758 141.417 166.173 140.45 164.297 139.147C162.421 137.844 160.963 136.689 161.045 136.577C161.127 136.465 162.712 137.421 164.588 138.724C166.463 140.027 167.921 141.183 167.84 141.3Z" fill="#AA6550"/>
<path d="M168.981 139.589C168.9 139.706 167.381 138.821 165.592 137.61C163.803 136.398 162.416 135.324 162.493 135.202C162.569 135.08 164.088 135.971 165.882 137.182C167.677 138.393 169.058 139.472 168.981 139.589Z" fill="#AA6550"/>
<path d="M179.589 144.211L208.99 181.436L202.257 197.086C202.257 197.086 194.193 195.305 191.746 191.915C189.299 188.525 169.165 151.199 169.165 151.199L179.589 144.211Z" fill="#B78876"/>
<path d="M254.224 92.1346C256.34 93.9669 256.334 97.1936 256.09 99.9776C255.845 102.762 255.656 105.932 257.588 107.958C259.184 109.627 262.074 110.355 262.441 112.63C262.528 113.165 262.447 113.713 262.209 114.2C261.971 114.686 261.588 115.088 261.113 115.348C260.637 115.609 260.093 115.716 259.554 115.655C259.015 115.594 258.508 115.367 258.103 115.007C258.725 116.804 258.297 119.048 256.737 120.137C255.177 121.226 252.562 120.555 252.078 118.717C252.157 119.024 252.172 119.344 252.122 119.657C252.072 119.969 251.958 120.269 251.787 120.535C251.617 120.802 251.392 121.031 251.129 121.208C250.865 121.384 250.568 121.505 250.256 121.561C249.944 121.618 249.624 121.61 249.315 121.538C249.006 121.465 248.715 121.33 248.461 121.141C248.207 120.951 247.994 120.711 247.837 120.436C247.68 120.161 247.581 119.857 247.547 119.542" fill="#263238"/>
<path d="M223.931 110.925C223.646 111.607 223.102 112.148 222.418 112.429C221.734 112.71 220.966 112.708 220.283 112.424C219.601 112.14 219.059 111.597 218.778 110.914C218.496 110.231 218.498 109.464 218.782 108.783C219.267 107.724 220.413 106.961 220.526 105.8C220.658 104.401 219.226 103.398 217.977 102.787C216.728 102.176 215.219 101.382 215.082 99.9777C214.944 98.573 216.162 97.5704 217.177 96.6645C218.191 95.7585 219.216 94.3538 218.568 93.1476C218.247 92.5267 217.579 92.1755 217.146 91.6207C216.193 90.4094 216.692 88.4805 217.911 87.5491C219.129 86.6177 220.811 86.4701 222.33 86.7399C223.849 87.0096 225.276 87.6407 226.755 88.0835C229.205 88.795 231.777 88.9913 234.307 88.6602C236.837 88.3291 239.271 87.4776 241.455 86.1597" fill="#263238"/>
<path d="M232.958 143.748C235.592 144.278 238.328 143.754 240.578 142.287C242.828 140.821 244.41 138.53 244.983 135.91L252.216 102.797C252.667 100.885 252.73 98.9021 252.401 96.9654C252.071 95.0286 251.356 93.1775 250.298 91.5215C249.24 89.8655 247.859 88.4382 246.239 87.324C244.619 86.2098 242.791 85.4313 240.864 85.0347L240.11 84.9227C236.425 84.3818 232.671 85.2469 229.596 87.3455C226.521 89.4441 224.351 92.6223 223.518 96.2469C221.907 103.235 220.22 110.976 219.71 114.778C218.655 122.651 226.337 125.023 226.337 125.023L224.955 131.64C224.681 132.958 224.671 134.317 224.925 135.639C225.179 136.962 225.692 138.221 226.434 139.344C227.177 140.468 228.135 141.434 229.253 142.187C230.37 142.94 231.626 143.465 232.948 143.732L232.958 143.748Z" fill="#B78876"/>
<path d="M224.935 101.459C224.89 101.751 224.961 102.049 225.132 102.29C225.303 102.531 225.562 102.697 225.853 102.751C225.994 102.784 226.14 102.787 226.282 102.762C226.424 102.737 226.56 102.684 226.682 102.606C226.803 102.527 226.908 102.426 226.99 102.307C227.071 102.187 227.128 102.053 227.157 101.912C227.205 101.62 227.136 101.321 226.965 101.079C226.795 100.838 226.536 100.672 226.245 100.619C226.104 100.587 225.957 100.583 225.815 100.608C225.672 100.633 225.536 100.686 225.414 100.764C225.292 100.843 225.186 100.944 225.104 101.063C225.022 101.183 224.965 101.317 224.935 101.459Z" fill="#263238"/>
<path d="M224.644 100.339C224.761 100.507 225.704 99.998 226.918 100.181C228.131 100.364 228.921 101.092 229.074 100.965C229.15 100.909 229.043 100.624 228.702 100.288C228.231 99.8495 227.637 99.5669 226.999 99.4789C226.371 99.3841 225.728 99.4911 225.164 99.7843C224.751 100.018 224.588 100.263 224.644 100.339Z" fill="#263238"/>
<path d="M236.756 103.393C236.709 103.685 236.78 103.984 236.951 104.225C237.122 104.467 237.381 104.632 237.673 104.686C237.814 104.718 237.961 104.721 238.103 104.696C238.246 104.67 238.382 104.617 238.504 104.538C238.626 104.459 238.73 104.357 238.812 104.237C238.893 104.117 238.95 103.983 238.978 103.841C239.024 103.549 238.954 103.251 238.782 103.01C238.611 102.769 238.352 102.605 238.06 102.553C237.919 102.52 237.773 102.516 237.631 102.541C237.488 102.566 237.352 102.619 237.23 102.697C237.108 102.775 237.003 102.877 236.922 102.997C236.84 103.116 236.784 103.251 236.756 103.393Z" fill="#263238"/>
<path d="M236.501 102.304C236.618 102.467 237.561 101.963 238.769 102.146C239.977 102.329 240.777 103.057 240.93 102.93C241.002 102.874 240.9 102.589 240.553 102.253C240.083 101.814 239.488 101.531 238.851 101.444C238.222 101.349 237.579 101.456 237.016 101.749C236.623 101.968 236.44 102.227 236.501 102.304Z" fill="#263238"/>
<path d="M230.797 110.62C230.797 110.549 230.078 110.309 228.885 109.979C228.579 109.902 228.299 109.795 228.279 109.577C228.3 109.256 228.417 108.949 228.615 108.696C229.019 107.994 229.439 107.256 229.874 106.482C231.633 103.321 232.933 100.711 232.825 100.639C232.718 100.568 231.169 103.072 229.41 106.238L228.187 108.467C227.94 108.813 227.821 109.234 227.851 109.658C227.882 109.77 227.938 109.874 228.015 109.963C228.091 110.051 228.187 110.12 228.294 110.167C228.457 110.237 228.628 110.286 228.804 110.314C229.453 110.499 230.122 110.601 230.797 110.62Z" fill="#263238"/>
<path d="M236.878 97.5244C236.949 97.8705 238.183 97.8909 239.574 98.2675C240.966 98.6441 242.057 99.1989 242.291 98.9342C242.393 98.807 242.24 98.466 241.827 98.0843C241.267 97.6038 240.605 97.2573 239.89 97.0712C239.175 96.885 238.428 96.8643 237.704 97.0104C237.133 97.1427 236.852 97.387 236.878 97.5244Z" fill="#263238"/>
<path d="M225.603 96.9086C225.776 97.214 226.622 97.0511 227.642 97.1834C228.661 97.3158 229.466 97.6415 229.681 97.3819C229.788 97.2547 229.681 96.9595 229.365 96.6439C228.912 96.26 228.355 96.0191 227.765 95.952C227.175 95.885 226.579 95.9947 226.051 96.2673C225.684 96.4963 225.526 96.761 225.603 96.9086Z" fill="#263238"/>
<path d="M244.937 92.9286L244.972 92.9693C246.083 94.1396 246.697 95.6936 246.685 97.3056V97.4634C246.685 99.7537 246.272 102.044 246.277 104.309C246.282 106.574 246.721 108.986 248.153 110.767C248.739 111.505 249.881 112.116 250.549 111.455C250.784 111.173 250.934 110.831 250.982 110.467C252.195 105.118 254.377 100.537 255.198 94.8779C255.311 94.1203 255.243 93.3465 254.997 92.6207C254.752 91.8949 254.336 91.238 253.786 90.7045C252.725 89.6866 251.405 88.5872 249.993 89.0199C248.581 89.4525 246.517 91.6664 245.339 92.5825" fill="#263238"/>
<path d="M249.04 105.963C249.183 105.922 254.683 105.154 253.719 110.503C252.756 115.852 247.603 113.786 247.603 113.628C247.603 113.47 249.04 105.963 249.04 105.963Z" fill="#B78876"/>
<path d="M249.601 111.897C249.601 111.897 249.682 111.979 249.825 112.075C250.031 112.211 250.281 112.262 250.523 112.218C251.125 112.111 251.762 111.302 251.961 110.34C252.063 109.886 252.063 109.415 251.961 108.961C251.94 108.785 251.876 108.616 251.776 108.47C251.676 108.324 251.542 108.204 251.385 108.121C251.283 108.073 251.167 108.062 251.058 108.091C250.949 108.12 250.853 108.186 250.788 108.279C250.692 108.411 250.707 108.528 250.676 108.528C250.646 108.528 250.579 108.421 250.676 108.207C250.729 108.081 250.825 107.976 250.946 107.912C251.114 107.827 251.308 107.811 251.487 107.866C251.7 107.951 251.888 108.089 252.033 108.268C252.177 108.446 252.274 108.658 252.313 108.884C252.454 109.381 252.473 109.905 252.369 110.411C252.139 111.485 251.405 112.391 250.595 112.477C250.443 112.494 250.289 112.475 250.146 112.424C250.002 112.373 249.871 112.29 249.764 112.182C249.585 112.025 249.58 111.902 249.601 111.897Z" fill="#AA6550"/>
<path d="M250.054 89.8804C251.696 87.9209 248.525 84.3073 245.977 83.0808C243.428 81.8542 239.758 82.638 236.985 83.1266C235.237 83.437 233.463 83.9663 231.719 83.6355C230.562 83.3465 229.456 82.8849 228.437 82.2664C227.415 81.6591 226.281 81.2628 225.103 81.1009C224.51 81.0282 223.909 81.1181 223.364 81.3612C222.819 81.6042 222.35 81.9911 222.009 82.4802C221.402 83.4981 221.825 85.0911 222.967 85.422C222.623 85.1611 222.221 84.9875 221.795 84.9161C221.369 84.8446 220.932 84.8774 220.521 85.0117C220.11 85.1459 219.739 85.3776 219.437 85.6869C219.136 85.9962 218.915 86.3738 218.792 86.7873C218.669 87.2009 218.648 87.638 218.732 88.0613C218.815 88.4845 219 88.8812 219.271 89.2174C219.542 89.5536 219.89 89.8191 220.286 89.9914C220.682 90.1636 221.114 90.2372 221.545 90.2061C220.867 89.5139 219.552 90.3028 219.506 91.2698C219.46 92.2368 220.225 93.0562 221.035 93.5703C223.13 94.8834 225.791 94.9496 228.228 94.5119C230.664 94.0742 232.999 93.1682 235.425 92.6694C237.851 92.1707 241.924 91.224 244.116 92.3793C245.727 93.2242 246.614 95.4331 247.638 95.1328C248.123 94.9543 248.56 94.6655 248.914 94.2891C249.268 93.9128 249.529 93.4593 249.677 92.9646C249.953 91.9714 250.069 90.9405 250.019 89.9109" fill="#263238"/>
<path d="M260.54 114.691C260.64 114.669 260.735 114.627 260.82 114.569C261.072 114.408 261.273 114.178 261.401 113.908C261.599 113.475 261.659 112.992 261.574 112.523C261.442 111.907 261.104 111.355 260.616 110.956C260.037 110.48 259.385 110.1 258.684 109.831C257.897 109.544 257.14 109.179 256.426 108.742C255.678 108.217 255.107 107.476 254.79 106.619C254.442 105.697 254.28 104.714 254.316 103.729C254.367 101.693 254.933 99.7842 255.07 97.9876C255.208 96.191 254.978 94.5064 254.214 93.3409C253.639 92.4036 252.727 91.7208 251.665 91.4323C251.38 91.3607 251.087 91.3316 250.794 91.3458C250.692 91.3474 250.591 91.3628 250.493 91.3916C250.88 91.3891 251.265 91.437 251.64 91.5341C252.65 91.8529 253.506 92.5325 254.046 93.4427C254.754 94.5726 254.999 96.2114 254.82 97.9673C254.642 99.7232 254.097 101.632 254.035 103.724C254.003 104.745 254.176 105.763 254.545 106.716C254.886 107.622 255.496 108.401 256.294 108.95C257.025 109.389 257.799 109.754 258.603 110.04C259.284 110.292 259.922 110.649 260.494 111.098C260.959 111.466 261.289 111.978 261.432 112.554C261.525 112.992 261.482 113.448 261.309 113.862C261.152 114.216 260.881 114.508 260.54 114.691Z" fill="#455A64"/>
<path d="M222.794 85.2942C222.722 85.2407 222.643 85.1978 222.56 85.167C222.464 85.1201 222.365 85.081 222.264 85.0499C222.123 85.0017 221.978 84.966 221.831 84.943C221.347 84.8669 220.853 84.9016 220.385 85.0444C219.917 85.1872 219.487 85.4345 219.129 85.7675C218.766 86.2089 218.495 86.7178 218.33 87.2647C218.166 87.8116 218.111 88.3856 218.171 88.9536C218.239 89.659 218.449 90.3436 218.787 90.9669C219.125 91.5902 219.584 92.1395 220.138 92.5824C221.412 93.6072 222.963 94.2292 224.593 94.3689C226.363 94.5208 228.146 94.4128 229.884 94.0482C232.641 93.509 235.281 92.4891 237.683 91.0352C238.713 90.3992 239.79 89.8428 240.905 89.3709C241.877 88.9769 242.914 88.7647 243.963 88.7449C245.49 88.7119 247.001 89.0619 248.357 89.7628C248.847 90.0368 249.322 90.3375 249.779 90.6637C249.371 90.2633 248.91 89.9208 248.408 89.6458C247.048 88.8892 245.515 88.4981 243.958 88.5108C242.883 88.519 241.819 88.7243 240.818 89.1165C239.692 89.5878 238.603 90.1442 237.561 90.7807C235.175 92.2045 232.561 93.2049 229.833 93.7378C228.121 94.1 226.364 94.2114 224.619 94.0686C223.039 93.9377 221.533 93.3427 220.291 92.3585C219.757 91.9369 219.313 91.4133 218.983 90.8182C218.654 90.2231 218.447 89.5684 218.375 88.8925C218.312 88.3509 218.358 87.8024 218.508 87.2784C218.659 86.7544 218.911 86.2652 219.251 85.8388C219.591 85.5149 219.999 85.2706 220.445 85.1236C220.891 84.9766 221.365 84.9305 221.831 84.9888C222.16 85.061 222.483 85.1632 222.794 85.2942Z" fill="#455A64"/>
<path d="M225.776 80.8411C225.758 81.25 225.822 81.6585 225.965 82.0422C226.362 83.1028 227.105 83.999 228.075 84.587C228.726 85.0107 229.45 85.3109 230.211 85.4725C231.083 85.648 231.976 85.6943 232.861 85.61C234.732 85.4725 236.689 84.8313 238.744 84.3019C240.798 83.7726 242.852 83.4927 244.626 83.966C246.2 84.3825 247.6 85.2901 248.622 86.5566C249.325 87.3978 249.846 88.3751 250.151 89.4271C250.355 90.1753 250.381 90.613 250.416 90.6079C250.423 90.5028 250.423 90.3974 250.416 90.2923C250.388 89.9923 250.339 89.6947 250.269 89.4017C249.997 88.3165 249.49 87.3038 248.785 86.4345C247.753 85.116 246.323 84.1647 244.707 83.7217C242.872 83.2128 240.762 83.5029 238.698 84.0373C236.633 84.5717 234.691 85.213 232.861 85.3606C231.999 85.4496 231.129 85.4136 230.277 85.2537C229.54 85.104 228.836 84.8248 228.197 84.4292C227.252 83.8728 226.512 83.0267 226.087 82.0167C225.95 81.6342 225.846 81.241 225.776 80.8411Z" fill="#455A64"/>
<path d="M228.381 114.615C228.448 115.141 228.587 115.654 228.794 116.142C228.902 116.383 229.06 116.598 229.258 116.774C229.455 116.949 229.688 117.081 229.94 117.16C230.214 117.216 230.497 117.204 230.764 117.123C231.031 117.042 231.274 116.895 231.47 116.697C231.86 116.286 232.112 115.762 232.188 115.201C232.27 114.692 232.188 114.055 231.679 113.893C231.473 113.842 231.258 113.842 231.052 113.893L228.228 114.401" fill="#AA6550"/>
<path d="M228.875 116.753C229.324 116.925 229.801 117.015 230.282 117.017C230.78 116.988 231.249 116.774 231.597 116.417C231.803 116.198 231.959 115.939 232.057 115.655C232.154 115.372 232.19 115.071 232.163 114.773C232.148 114.62 232.113 114.469 232.061 114.325C231.995 114.188 232.015 114.198 231.898 114.182C231.781 114.167 231.597 114.182 231.444 114.208L230.97 114.244C230.358 114.289 229.808 114.325 229.344 114.35C228.836 114.421 228.32 114.411 227.815 114.32C228.292 114.146 228.791 114.043 229.298 114.015C229.757 113.948 230.318 113.882 230.914 113.811L231.383 113.76C231.552 113.735 231.722 113.72 231.893 113.714C232.028 113.718 232.158 113.764 232.265 113.847C232.36 113.931 232.432 114.037 232.474 114.157C232.543 114.34 232.588 114.532 232.606 114.727C232.64 115.093 232.592 115.463 232.466 115.809C232.34 116.154 232.139 116.468 231.877 116.727C231.442 117.14 230.862 117.365 230.262 117.353C229.869 117.355 229.485 117.247 229.15 117.043C228.977 116.9 228.86 116.773 228.875 116.753Z" fill="#263238"/>
<path d="M226.347 125.023C226.347 125.023 231.485 126.968 236.485 125.532C236.485 125.532 232.713 128.693 225.832 127.482L226.347 125.023Z" fill="#AA6550"/>
<path d="M234.187 197.992C233.939 197.83 233.704 197.65 233.483 197.452C233.264 197.274 232.973 197.055 232.662 196.821C232.352 196.587 231.974 196.312 231.541 196.032C231.108 195.752 230.659 195.447 230.134 195.157C229.609 194.867 229.054 194.561 228.457 194.256C225.842 192.971 223.03 192.132 220.138 191.772C219.471 191.701 218.838 191.62 218.242 191.604C217.646 191.589 217.09 191.564 216.585 191.569C216.081 191.574 215.617 191.599 215.214 191.615C214.812 191.63 214.465 191.66 214.195 191.691C213.903 191.736 213.608 191.756 213.313 191.752C213.6 191.679 213.891 191.624 214.185 191.589C214.522 191.531 214.862 191.491 215.204 191.467C215.607 191.437 216.066 191.381 216.58 191.381C217.095 191.381 217.651 191.35 218.252 191.381C218.854 191.411 219.496 191.462 220.169 191.523C221.627 191.704 223.069 192 224.481 192.409C225.882 192.838 227.246 193.381 228.559 194.032C229.155 194.348 229.731 194.638 230.236 194.964C230.741 195.289 231.22 195.579 231.638 195.875C232.056 196.17 232.423 196.455 232.744 196.699C233.065 196.943 233.33 197.178 233.539 197.371C233.772 197.559 233.988 197.767 234.187 197.992Z" fill="#FAFAFA"/>
<path d="M204.229 171.852L208.409 153.769C210.01 146.969 211.906 140.434 215.092 139.661V141.763L213.726 193.427C213.726 193.427 205.208 203.097 194.356 197.732C190.961 196.048 184.768 184.215 184.768 184.215C184.768 184.215 170.358 158.543 170.959 157.377C171.561 156.212 180.364 144.883 181.261 144.318L204.229 171.852Z" fill="#144A6C"/>
<path d="M247.241 134.541C255.549 136.129 264.903 140.969 269.21 153.372C270.78 157.902 282.219 191.294 282.219 191.294L262.711 190.887L259.561 184.011L261.09 195.182L262.41 211.113L213.15 211.942L213.496 187.94L213.97 140.2C213.97 140.2 214.521 139.477 223.018 134.8C228.289 131.894 247.241 134.541 247.241 134.541Z" fill="#144A6C"/>
<g opacity="0.2">
<path opacity="0.2" d="M252.155 166.472C252.965 176.55 253.893 179.664 254.703 189.742C254.722 190.696 254.895 191.641 255.213 192.541C255.383 192.988 255.656 193.39 256.011 193.712C256.365 194.035 256.79 194.27 257.252 194.399C258.689 194.689 260.555 195.727 260.958 194.322L259.597 184.616C259.304 183.205 258.853 181.83 258.251 180.519C255.228 173.816 254.112 173.425 252.134 166.472" fill="black"/>
</g>
<path d="M223.013 139.966L223.176 138.918L224.751 128.861C224.797 128.568 224.951 128.304 225.184 128.121C225.417 127.938 225.71 127.849 226.005 127.873L245.401 129.492C245.987 129.54 246.53 129.817 246.912 130.263C247.293 130.71 247.483 131.288 247.44 131.874L247.006 137.717L240.951 145.605L232.229 146.964" fill="#144A6C"/>
<path d="M213.272 158.874C213.349 158.874 213.405 166.752 213.405 176.468C213.405 186.184 213.349 194.063 213.272 194.063C213.196 194.063 213.14 186.184 213.14 176.468C213.14 166.752 213.201 158.874 213.272 158.874Z" fill="#263238"/>
<path d="M263.129 192.505C263.129 192.505 263.129 192.47 263.068 192.393C263.007 192.317 262.971 192.19 262.905 192.047L262.314 190.709L260.188 185.767L253.261 169.424C251.915 166.228 250.636 163.185 249.473 160.411C248.886 159.111 248.465 157.744 248.219 156.339C248.004 155.112 247.892 153.869 247.883 152.624C247.818 150.819 248.081 149.017 248.658 147.305L248.816 146.883L248.994 146.527C249.078 146.337 249.181 146.156 249.3 145.987L249.514 145.671C249.539 145.636 249.566 145.602 249.596 145.57C249.261 146.132 248.979 146.725 248.755 147.341C248.221 149.049 247.99 150.837 248.072 152.624C248.08 155.278 248.634 157.902 249.698 160.334L253.505 169.338L260.361 185.711L262.4 190.683L262.946 192.042L263.083 192.398C263.102 192.433 263.117 192.468 263.129 192.505Z" fill="#263238"/>
<path d="M253.286 136.317C253.108 136.498 252.919 136.668 252.72 136.826C252.147 137.262 251.522 137.626 250.86 137.91C249.81 138.347 248.711 138.655 247.587 138.826C246.101 139.057 244.604 139.204 243.102 139.269C241.43 139.34 239.605 139.31 237.648 139.345C235.568 139.342 233.497 139.595 231.48 140.098C229.245 140.626 227.223 141.816 225.679 143.514C224.91 144.438 224.359 145.523 224.068 146.689C223.757 147.885 223.778 149.143 224.129 150.328C224.324 150.913 224.612 151.463 224.981 151.957C225.352 152.437 225.821 152.832 226.357 153.117C226.877 153.402 227.469 153.526 228.059 153.474C228.637 153.415 229.171 153.142 229.558 152.71C229.903 152.256 230.148 151.734 230.278 151.179C230.408 150.624 230.42 150.048 230.312 149.489C230.228 148.936 230.056 148.4 229.803 147.901C229.551 147.414 229.249 146.955 228.9 146.532C227.538 144.964 225.703 143.88 223.671 143.442C221.91 143.028 220.074 143.048 218.324 143.503C216.883 143.875 215.508 144.464 214.246 145.249C213.284 145.848 212.377 146.529 211.534 147.285C210.836 147.896 210.341 148.425 210.005 148.771L209.628 149.178C209.586 149.227 209.54 149.271 209.49 149.31C210.09 148.553 210.755 147.85 211.478 147.209C212.312 146.438 213.217 145.746 214.179 145.142C215.454 144.332 216.847 143.725 218.308 143.34C220.088 142.864 221.958 142.832 223.752 143.249C225.837 143.688 227.721 144.794 229.12 146.399C229.476 146.824 229.787 147.284 230.047 147.773C230.305 148.298 230.477 148.859 230.557 149.438C230.646 150.027 230.636 150.628 230.527 151.214C230.417 151.824 230.148 152.395 229.747 152.868C229.318 153.348 228.726 153.651 228.085 153.718C227.442 153.779 226.796 153.646 226.229 153.336C225.661 153.033 225.162 152.613 224.767 152.105C224.377 151.586 224.075 151.009 223.869 150.395C223.503 149.163 223.482 147.855 223.808 146.613C224.106 145.406 224.676 144.283 225.475 143.33C227.056 141.599 229.124 140.383 231.408 139.844C233.448 139.346 235.542 139.103 237.642 139.121C239.605 139.091 241.43 139.121 243.091 139.075C244.588 139.023 246.08 138.889 247.562 138.673C248.679 138.513 249.774 138.223 250.824 137.808C251.483 137.541 252.109 137.2 252.69 136.79C252.894 136.653 253.031 136.526 253.133 136.454C253.18 136.404 253.231 136.358 253.286 136.317Z" fill="#FAFAFA"/>
<path d="M270.143 157.5C270.072 157.52 269.998 157.532 269.924 157.535C269.781 157.535 269.572 157.571 269.297 157.581C268.527 157.606 267.756 157.588 266.988 157.525C266.014 157.454 264.862 157.306 263.588 157.128C262.314 156.95 260.917 156.762 259.439 156.685C258.056 156.61 256.67 156.714 255.315 156.996C254.207 157.221 253.143 157.625 252.165 158.192C251.279 158.732 250.493 159.421 249.84 160.228C249.868 160.159 249.906 160.096 249.952 160.039C250.06 159.859 250.183 159.689 250.319 159.53C250.813 158.928 251.404 158.412 252.068 158.003C253.052 157.403 254.131 156.973 255.259 156.731C256.636 156.431 258.047 156.318 259.454 156.395C260.947 156.471 262.349 156.675 263.623 156.863C264.898 157.052 266.04 157.22 267.003 157.311C267.966 157.403 268.757 157.444 269.297 157.449C269.58 157.448 269.862 157.465 270.143 157.5Z" fill="#FAFAFA"/>
<path d="M257.894 180.316C256.936 180.093 255.951 180.009 254.968 180.067C253.816 180.144 252.676 180.347 251.568 180.672C250.269 181.023 248.816 181.537 247.185 182.041C245.414 182.641 243.56 182.962 241.69 182.993C239.536 182.993 237.406 182.551 235.43 181.695C233.235 180.769 231.282 179.351 229.721 177.552C228.877 176.612 228.189 175.544 227.682 174.387C227.143 173.189 226.941 171.868 227.096 170.564C227.274 169.25 227.915 168.043 228.906 167.16C229.398 166.731 229.988 166.431 230.624 166.284C231.246 166.153 231.89 166.17 232.504 166.336C233.118 166.501 233.684 166.81 234.156 167.236C234.617 167.658 234.937 168.21 235.074 168.819C235.205 169.415 235.157 170.036 234.936 170.605C234.721 171.152 234.397 171.649 233.983 172.066C233.192 172.856 232.237 173.463 231.184 173.842C230.689 174.03 230.177 174.171 229.655 174.265C229.4 174.31 229.145 174.366 228.896 174.402L228.136 174.494C226.273 174.678 224.393 174.545 222.575 174.102C221.075 173.745 219.63 173.191 218.278 172.453C217.255 171.901 216.296 171.239 215.418 170.478L214.908 170.035L214.49 169.613C214.265 169.399 214.054 169.172 213.858 168.931L213.491 168.493C213.45 168.446 213.412 168.394 213.379 168.34C213.429 168.383 213.475 168.428 213.517 168.478L213.899 168.895C214.101 169.129 214.317 169.35 214.547 169.557L214.97 169.969L215.479 170.402C216.361 171.141 217.32 171.785 218.339 172.32C219.684 173.038 221.119 173.576 222.605 173.918C224.405 174.347 226.265 174.467 228.105 174.275L228.85 174.183C229.099 174.142 229.359 174.086 229.604 174.041C230.114 173.949 230.614 173.809 231.098 173.623C232.115 173.253 233.039 172.664 233.804 171.898C234.194 171.504 234.499 171.035 234.701 170.519C234.901 169.994 234.946 169.423 234.829 168.875C234.678 168.314 234.376 167.806 233.957 167.404C233.537 167.002 233.016 166.722 232.448 166.595C231.868 166.427 231.254 166.41 230.664 166.544C230.075 166.679 229.529 166.961 229.079 167.363C228.135 168.203 227.526 169.354 227.361 170.605C227.215 171.86 227.409 173.13 227.922 174.285C228.415 175.415 229.083 176.461 229.9 177.384C231.434 179.15 233.351 180.543 235.507 181.456C237.451 182.303 239.548 182.747 241.669 182.759C243.521 182.736 245.357 182.427 247.113 181.843C248.739 181.334 250.172 180.855 251.512 180.514C252.632 180.2 253.782 180.011 254.943 179.95C255.366 179.923 255.789 179.923 256.212 179.95C256.574 180.005 256.885 180.031 257.13 180.087L257.685 180.224C257.759 180.245 257.829 180.276 257.894 180.316Z" fill="#FAFAFA"/>
<path d="M213.104 174.885C213.058 174.885 212.824 174.376 212.329 173.521C211.035 171.351 209.149 169.595 206.89 168.457C206.024 168.02 205.453 167.826 205.468 167.78C205.611 167.793 205.752 167.825 205.886 167.877C206.257 167.987 206.62 168.123 206.972 168.284C208.14 168.816 209.214 169.533 210.153 170.407C211.093 171.28 211.884 172.301 212.492 173.43C212.685 173.768 212.855 174.118 213.002 174.478C213.054 174.609 213.088 174.746 213.104 174.885Z" fill="#FAFAFA"/>
<path d="M193.326 196.669C193.326 196.669 193.291 196.628 193.245 196.541C193.199 196.455 193.122 196.317 193.036 196.16C192.852 195.824 192.587 195.32 192.261 194.668C191.314 192.829 190.533 190.91 189.926 188.932C189.521 187.559 189.276 186.143 189.197 184.713C189.157 183.915 189.189 183.114 189.294 182.321C189.421 181.482 189.622 180.656 189.896 179.853C190.491 178.116 191.521 176.56 192.888 175.333C193.618 174.664 194.477 174.15 195.411 173.822C196.346 173.494 197.338 173.359 198.327 173.425C199.354 173.501 200.314 173.968 201.008 174.728C201.338 175.103 201.578 175.55 201.71 176.032C201.842 176.514 201.861 177.02 201.767 177.512C201.657 177.993 201.405 178.431 201.044 178.769C200.69 179.092 200.263 179.324 199.8 179.446C198.903 179.679 197.95 179.564 197.134 179.125C196.377 178.717 195.715 178.153 195.192 177.471C194.691 176.839 194.277 176.142 193.963 175.399C193.412 174.067 193.183 172.623 193.296 171.185C193.399 169.999 193.746 168.847 194.315 167.801C194.737 167.011 195.277 166.291 195.916 165.663C196.315 165.265 196.754 164.909 197.226 164.599C197.384 164.493 197.516 164.426 197.603 164.375L197.735 164.309C197.735 164.309 197.572 164.426 197.256 164.645C196.801 164.969 196.376 165.334 195.987 165.734C195.376 166.367 194.861 167.086 194.458 167.867C193.916 168.9 193.592 170.033 193.505 171.195C193.406 172.605 193.644 174.018 194.198 175.318C194.507 176.039 194.912 176.715 195.401 177.328C195.908 177.982 196.547 178.521 197.277 178.911C198.039 179.321 198.928 179.426 199.764 179.206C200.193 179.106 200.586 178.89 200.9 178.581C201.214 178.272 201.437 177.883 201.543 177.456C201.624 177.006 201.603 176.544 201.481 176.103C201.359 175.663 201.14 175.255 200.84 174.911C200.189 174.202 199.292 173.769 198.332 173.7C197.379 173.637 196.424 173.767 195.524 174.083C194.623 174.399 193.796 174.893 193.092 175.537C191.757 176.735 190.749 178.251 190.161 179.944C189.886 180.73 189.683 181.539 189.554 182.362C189.448 183.141 189.413 183.928 189.447 184.713C189.519 186.128 189.751 187.53 190.14 188.892C190.728 190.864 191.478 192.784 192.383 194.633L193.112 196.16C193.189 196.323 193.25 196.455 193.301 196.557C193.352 196.658 193.326 196.669 193.326 196.669Z" fill="#FAFAFA"/>
<path d="M187.031 151.738C187.031 151.738 187.057 151.809 187.077 151.947C187.113 152.152 187.138 152.36 187.153 152.568C187.221 153.328 187.221 154.093 187.153 154.853C186.948 157.384 186.08 159.818 184.639 161.91C183.197 164.002 181.231 165.681 178.937 166.778C178.25 167.113 177.535 167.387 176.801 167.597C176.546 167.679 176.337 167.714 176.199 167.75C176.062 167.785 175.985 167.791 175.985 167.78C176.241 167.67 176.503 167.577 176.77 167.5C177.485 167.253 178.182 166.955 178.855 166.61C181.088 165.483 183.002 163.815 184.42 161.757C185.838 159.699 186.715 157.318 186.97 154.833C187.05 154.082 187.079 153.327 187.057 152.573C187.03 152.295 187.022 152.017 187.031 151.738Z" fill="#FAFAFA"/>
<path d="M274.603 173.806C273.845 174.281 273.178 174.888 272.636 175.598C272.126 176.254 271.616 177.125 271.04 178.041C270.408 179.067 269.68 180.03 268.864 180.916C267.371 182.526 265.602 183.855 263.639 184.841C263.048 185.139 262.439 185.399 261.814 185.619C261.586 185.708 261.351 185.777 261.111 185.823C261.322 185.702 261.544 185.602 261.773 185.523C262.201 185.334 262.823 185.07 263.552 184.673C265.457 183.651 267.179 182.321 268.65 180.738C269.457 179.865 270.182 178.92 270.816 177.914C271.323 177.073 271.876 176.261 272.473 175.481C272.887 174.958 273.381 174.503 273.935 174.132C274.086 174.032 274.244 173.946 274.41 173.873C274.542 173.822 274.603 173.796 274.603 173.806Z" fill="#FAFAFA"/>
<path d="M247.057 135.151C246.982 135.183 246.903 135.204 246.823 135.213L246.145 135.335C245.553 135.431 244.697 135.559 243.642 135.701C241.521 135.986 238.585 136.322 235.328 136.561C233.803 136.7 232.272 136.755 230.741 136.724C229.478 136.693 228.226 136.479 227.025 136.088C226.214 135.825 225.449 135.439 224.756 134.943C224.567 134.81 224.387 134.665 224.216 134.51C224.104 134.398 224.048 134.342 224.053 134.332C224.058 134.322 224.318 134.536 224.812 134.841C225.517 135.293 226.28 135.646 227.081 135.889C228.271 136.251 229.507 136.443 230.751 136.459C232.282 136.476 233.813 136.415 235.338 136.276C238.585 136.037 241.521 135.737 243.642 135.498L246.155 135.213C246.454 135.171 246.755 135.151 247.057 135.151Z" fill="#263238"/>
<path d="M281.989 194.897C282.373 196.866 282.318 198.896 281.829 200.841C281.339 202.786 280.427 204.6 279.157 206.155C277.887 207.709 276.29 208.965 274.479 209.834C272.669 210.703 270.689 211.164 268.68 211.184L230.068 210.756L231.087 198.272L264.149 193.315" fill="#B78876"/>
<path d="M233.453 198.816C233.274 198.872 231.047 197.875 229.048 196.954C226.929 195.973 224.602 195.522 222.269 195.64L213.063 196.109C213.063 196.109 213.629 197.636 214.592 198.145C215.556 198.654 221.331 198.816 221.331 198.816L221.035 199.117C219.828 200.359 218.181 201.078 216.448 201.122H215.566C214.913 201.07 214.268 200.944 213.644 200.745L211.376 199.829C210.688 199.524 209.964 199.57 209.663 200.262C209.363 200.954 209.592 201.748 211.468 202.689C212.513 203.198 216.397 204.557 216.397 204.557C216.423 205.109 216.5 205.658 216.626 206.196C216.794 206.761 218.319 207.326 218.319 207.326C218.715 208.164 219.168 208.973 219.674 209.749C219.853 209.952 221.234 210.385 222.707 210.797C225.082 211.461 227.597 211.441 229.961 210.741L233.468 209.693V199.005" fill="#B78876"/>
<path d="M220.862 205.794C219.24 205.753 217.65 205.335 216.219 204.573C216.219 204.512 217.238 204.898 218.528 205.229C219.817 205.56 220.867 205.718 220.862 205.794Z" fill="#AA6550"/>
<path d="M220.536 207.937C220.104 208.026 219.655 207.993 219.241 207.84C218.809 207.761 218.406 207.563 218.079 207.27C218.496 207.353 218.905 207.471 219.302 207.621C219.721 207.695 220.133 207.8 220.536 207.937Z" fill="#AA6550"/>
<path d="M222.218 197.987C222.017 198.27 221.778 198.525 221.51 198.745C220.899 199.327 220.225 199.839 219.501 200.272C218.771 200.697 217.978 201.003 217.151 201.178C216.819 201.267 216.475 201.304 216.132 201.29C217.271 201.028 218.371 200.62 219.404 200.074C220.113 199.647 220.786 199.166 221.418 198.633C221.665 198.394 221.933 198.178 222.218 197.987Z" fill="#AA6550"/>
<path d="M234.39 197.142L233.452 211.26H269.822C272.291 211.262 274.714 210.592 276.831 209.321C279.226 207.884 281.12 205.745 282.254 203.195C283.389 200.645 283.709 197.809 283.172 195.07C282.648 192.389 281.863 189.766 280.827 187.238L262.538 190.246L263.124 192.516L234.39 197.142Z" fill="#144A6C"/>
<path d="M271.55 191.33C271.429 191.365 271.307 191.392 271.183 191.411L270.117 191.604L266.187 192.256L253.261 194.292L240.318 196.272L236.394 196.842L235.323 196.984C235.198 197.001 235.072 197.012 234.946 197.015C235.067 196.973 235.191 196.944 235.318 196.928L236.378 196.74L240.293 196.083L253.22 194.047L266.187 192.052L270.112 191.482L271.183 191.34C271.304 191.323 271.427 191.32 271.55 191.33Z" fill="#263238"/>
<path d="M252.934 211.27C252.868 211.27 253.154 210.252 253.189 208.588C253.197 208.136 253.178 207.684 253.133 207.234C253.09 206.721 253.015 206.211 252.909 205.707C252.657 204.546 252.259 203.421 251.726 202.359C251.181 201.301 250.514 200.31 249.738 199.407L249.229 198.811C249.055 198.618 248.867 198.45 248.693 198.277C248.352 197.926 247.99 197.646 247.674 197.376C246.374 196.358 245.452 195.849 245.482 195.803C245.708 195.893 245.924 196.004 246.13 196.134C246.383 196.266 246.628 196.414 246.864 196.577C247.134 196.77 247.47 196.959 247.791 197.233C248.158 197.508 248.509 197.804 248.841 198.119C249.02 198.292 249.219 198.455 249.397 198.628L249.953 199.228C250.751 200.138 251.436 201.141 251.991 202.216C252.531 203.301 252.929 204.45 253.174 205.636C253.278 206.155 253.347 206.681 253.378 207.209C253.411 207.666 253.411 208.126 253.378 208.583C253.368 208.963 253.334 209.342 253.276 209.718C253.248 210.001 253.199 210.282 253.128 210.558C253.084 210.8 253.019 211.039 252.934 211.27Z" fill="#FAFAFA"/>
<path d="M275.077 210.207C274.509 210.203 273.943 210.137 273.39 210.008C272.738 209.859 272.105 209.635 271.504 209.341C270.707 208.946 269.987 208.412 269.378 207.764C268.639 206.969 268.103 206.009 267.814 204.964C267.652 204.384 267.562 203.786 267.543 203.183C267.506 202.546 267.558 201.907 267.696 201.285C267.833 200.622 268.088 199.989 268.451 199.417C268.829 198.81 269.355 198.31 269.98 197.961C270.626 197.585 271.369 197.408 272.116 197.452C272.499 197.479 272.874 197.583 273.216 197.758C273.559 197.933 273.863 198.175 274.109 198.47C274.363 198.761 274.555 199.102 274.671 199.471C274.786 199.84 274.824 200.229 274.782 200.613C274.719 200.986 274.574 201.34 274.357 201.65C274.14 201.96 273.857 202.218 273.528 202.404C272.294 203.05 270.873 203.244 269.511 202.954C267.577 202.653 265.81 201.687 264.515 200.222C263.22 198.757 262.479 196.886 262.421 194.933C262.388 194.366 262.436 193.797 262.563 193.243C262.516 193.804 262.503 194.366 262.522 194.928C262.617 196.46 263.119 197.939 263.975 199.213C264.613 200.149 265.436 200.944 266.394 201.551C267.351 202.157 268.422 202.562 269.542 202.74C270.843 203.02 272.201 202.84 273.385 202.231C273.681 202.065 273.936 201.834 274.131 201.557C274.327 201.28 274.459 200.962 274.517 200.628C274.547 200.28 274.507 199.929 274.401 199.596C274.295 199.263 274.125 198.954 273.899 198.686C273.673 198.419 273.396 198.199 273.085 198.039C272.774 197.879 272.434 197.781 272.085 197.753C271.394 197.706 270.704 197.863 270.102 198.206C269.536 198.543 269.049 198.999 268.675 199.542C268.301 200.085 268.049 200.702 267.936 201.351C267.798 201.955 267.745 202.575 267.778 203.193C267.792 203.776 267.876 204.356 268.028 204.919C268.296 205.936 268.807 206.874 269.516 207.652C270.099 208.29 270.789 208.823 271.555 209.224C272.142 209.524 272.761 209.758 273.4 209.922C274.471 210.161 275.082 210.171 275.077 210.207Z" fill="#FAFAFA"/>
<path d="M130.808 56.401H39.7235C34.3997 56.401 29.294 58.5126 25.5295 62.2713C21.7651 66.03 19.6502 71.128 19.6502 76.4436V108.854H0L19.6502 128.474V150.506C19.6502 155.822 21.7651 160.92 25.5295 164.679C29.294 168.437 34.3997 170.549 39.7235 170.549H130.808C136.131 170.549 141.237 168.437 145.002 164.679C148.766 160.92 150.881 155.822 150.881 150.506V76.4436C150.881 71.128 148.766 66.03 145.002 62.2713C141.237 58.5126 136.131 56.401 130.808 56.401Z" fill="#57C4C4"/>
<path d="M93.5971 59.8263C93.0211 61.3175 94.01 62.941 95.1263 64.0913C96.2427 65.2415 97.5782 66.3307 97.9299 67.8881C98.2204 69.1961 97.7362 70.555 97.8534 71.8884C97.9707 73.2219 98.7098 74.479 99.1277 75.7819C99.8872 78.1435 99.5814 80.7239 98.9035 83.1109C98.4145 85.0944 97.4803 86.941 96.1713 88.5109C95.512 89.2884 94.6949 89.9173 93.774 90.356C92.8531 90.7947 91.8494 91.0332 90.8293 91.0556C90.5408 91.0737 90.2518 91.0325 89.9799 90.9344C89.7081 90.8363 89.4594 90.6836 89.2491 90.4856C88.9632 90.0738 88.8054 89.5869 88.7955 89.086C87.6282 78.8382 87.6282 68.4912 88.7955 58.2434" fill="#263238"/>
<path d="M92.5216 92.8523C96.9563 92.6589 101.055 96.8985 100.703 101.316C105.194 102.41 108.349 107.342 107.487 111.872C107.197 113.368 106.529 114.793 106.437 116.31C106.335 117.969 106.947 119.583 107.248 121.211C107.825 124.18 107.517 127.252 106.361 130.047C105.663 131.731 104.358 133.472 102.533 133.523C101.914 133.497 101.312 133.319 100.779 133.006C100.245 132.693 99.7974 132.253 99.4743 131.726C98.839 130.659 98.4199 129.478 98.2408 128.25C97.4507 124.27 97.2213 120.183 96.1203 116.279C95.0193 112.376 92.8784 108.528 89.346 106.548C87.3937 105.449 85.0489 104.93 83.4942 103.316C82.7122 102.436 82.1907 101.355 81.9882 100.196C81.7857 99.0367 81.91 97.8438 82.3473 96.7509C82.8055 95.6678 83.4872 94.6933 84.348 93.8909C85.2087 93.0885 86.2291 92.4762 87.3427 92.094" fill="#263238"/>
<path d="M61.8255 63.4754C61.7745 61.582 63.5229 60.1214 65.2865 59.4037C67.0502 58.6861 69.0127 58.4469 70.5827 57.3679C71.9793 56.4314 72.9121 54.9707 74.0896 53.8052C75.5436 52.333 77.3638 51.2737 79.3633 50.736C81.3629 50.1983 83.4697 50.2017 85.4675 50.7457C87.4653 51.2897 89.2822 52.3548 90.7314 53.8317C92.1807 55.3085 93.2103 57.1438 93.7143 59.1493C94.3923 61.8416 93.9284 65.0277 91.8028 66.8192C89.3357 68.8957 85.686 68.4326 82.5104 67.7862C79.3348 67.1398 75.7666 66.5036 73.1262 68.3613C71.5359 69.4759 70.6183 71.298 69.6448 72.9826C68.6712 74.6672 67.4529 76.3824 65.6128 77.0186C63.7726 77.6548 61.2698 76.5555 61.1985 74.6163" fill="#263238"/>
<path d="M69.2982 63.8623C68.5089 63.9475 67.7804 64.3252 67.2566 64.9208C66.7328 65.5164 66.4518 66.2865 66.4691 67.0789L68.3602 109.831C68.4418 114.88 75.8329 117.715 81.2463 117.587C86.7157 117.46 86.889 114.783 86.9604 109.979C87.0725 101.957 87.0623 98.9445 87.0674 98.9903C87.0725 99.0361 93.9743 97.8298 95.3863 88.8112C96.0846 84.3375 95.845 76.9984 95.4525 70.9978C95.1008 65.5978 91.5021 58.9814 86.1142 59.5617L69.2982 63.8623Z" fill="#FFBE9D"/>
<path d="M93.8979 76.6676C93.9007 76.968 93.7863 77.2577 93.5789 77.4753C93.3714 77.6929 93.0873 77.8212 92.7866 77.8331C92.6412 77.8456 92.4946 77.8291 92.3556 77.7845C92.2166 77.74 92.0878 77.6682 91.9768 77.5735C91.8658 77.4788 91.7748 77.3629 91.709 77.2328C91.6433 77.1026 91.6041 76.9606 91.5939 76.8152C91.5897 76.5144 91.7037 76.224 91.9114 76.0061C92.1191 75.7883 92.404 75.6603 92.7051 75.6497C92.8506 75.6372 92.9971 75.6537 93.1361 75.6983C93.2752 75.7428 93.4039 75.8146 93.5149 75.9093C93.6259 76.004 93.7169 76.1198 93.7827 76.25C93.8484 76.3802 93.8876 76.5222 93.8979 76.6676Z" fill="#263238"/>
<path d="M93.8672 74.8353C93.7245 74.988 92.8478 74.3264 91.604 74.3264C90.3603 74.3264 89.4479 74.9575 89.3102 74.8048C89.244 74.7386 89.3918 74.4638 89.7894 74.1737C90.326 73.8006 90.9655 73.6032 91.6193 73.6088C92.2666 73.605 92.8984 73.8063 93.4238 74.1839C93.8061 74.4842 93.9386 74.7692 93.8672 74.8353Z" fill="#263238"/>
<path d="M81.9446 76.6676C81.9475 76.968 81.8331 77.2577 81.6256 77.4753C81.4182 77.6929 81.134 77.8212 80.8334 77.8331C80.6879 77.8456 80.5414 77.8291 80.4024 77.7845C80.2633 77.74 80.1346 77.6682 80.0236 77.5735C79.9125 77.4788 79.8215 77.3629 79.7558 77.2328C79.69 77.1026 79.6509 76.9606 79.6406 76.8152C79.6364 76.5144 79.7504 76.224 79.9581 76.0061C80.1658 75.7883 80.4508 75.6603 80.7518 75.6497C80.8973 75.6372 81.0438 75.6537 81.1829 75.6983C81.3219 75.7428 81.4507 75.8146 81.5617 75.9093C81.6727 76.004 81.7637 76.1198 81.8294 76.25C81.8952 76.3802 81.9343 76.5222 81.9446 76.6676Z" fill="#263238"/>
<path d="M81.6642 75.0947C81.5215 75.2474 80.6448 74.5858 79.401 74.5858C78.1573 74.5858 77.2449 75.2169 77.1123 75.0642C77.0461 74.998 77.1888 74.7232 77.5864 74.4331C78.1228 74.0591 78.762 73.86 79.4163 73.8631C80.0642 73.8608 80.696 74.0639 81.2208 74.4433C81.5776 74.7537 81.7101 75.0286 81.6642 75.0947Z" fill="#263238"/>
<path d="M86.1754 84.2967C86.1754 84.2254 86.94 84.0931 88.2143 83.9302C88.5304 83.8946 88.8311 83.8285 88.8872 83.6147C88.9106 83.2866 88.8361 82.959 88.6731 82.6731L87.725 80.2607C86.415 76.8253 85.4618 74.0006 85.6045 73.9497C85.7472 73.8988 86.9196 76.642 88.2296 80.0571L89.1369 82.4848C89.3346 82.8671 89.394 83.3057 89.3051 83.7267C89.2604 83.8377 89.1914 83.9373 89.1033 84.0183C89.0151 84.0993 88.9099 84.1596 88.7954 84.1949C88.6293 84.2406 88.458 84.2646 88.2857 84.2662C86.9604 84.3578 86.1805 84.3679 86.1754 84.2967Z" fill="#263238"/>
<path d="M87.0675 98.9953C82.8224 99.0685 78.6403 97.9637 74.9868 95.8042C74.9868 95.8042 77.928 101.983 86.9502 101.118L87.0675 98.9953Z" fill="#EB996E"/>
<path d="M85.6555 87.2894C85.4155 86.9883 85.1017 86.7541 84.7445 86.6097C84.3873 86.4652 83.9988 86.4153 83.6166 86.4649C83.3421 86.4894 83.0755 86.5693 82.8328 86.6997C82.5901 86.83 82.3764 87.0081 82.2046 87.2232C82.0389 87.4308 81.9411 87.6843 81.9247 87.9493C81.9083 88.2143 81.974 88.4779 82.1129 88.7043C82.3124 88.9278 82.5747 89.0862 82.8656 89.1588C83.1565 89.2314 83.4626 89.2149 83.744 89.1114C84.3308 88.9032 84.8699 88.5795 85.3293 88.1597C85.4704 88.0613 85.5915 87.9369 85.6861 87.7932C85.7325 87.7249 85.7574 87.6442 85.7574 87.5617C85.7574 87.4791 85.7325 87.3984 85.6861 87.3301" fill="#EB996E"/>
<path d="M82.5156 85.1721C82.7195 85.1721 82.7246 86.5107 83.8817 87.4624C85.0388 88.4142 86.4762 88.2666 86.4864 88.4803C86.4864 88.5668 86.1653 88.745 85.5587 88.7602C84.7676 88.7746 83.9967 88.5096 83.3821 88.0121C82.7939 87.5316 82.4156 86.8418 82.327 86.0882C82.2709 85.4928 82.4238 85.1721 82.5156 85.1721Z" fill="#263238"/>
<path d="M82.174 72.9165C82.0517 73.2575 80.8079 73.0997 79.3501 73.2778C77.8923 73.456 76.7097 73.858 76.516 73.5527C76.4293 73.4102 76.6332 73.0895 77.1073 72.7638C77.7402 72.3576 78.4574 72.1007 79.2046 72.0125C79.9518 71.9243 80.7093 72.0072 81.4196 72.2548C81.9752 72.494 82.2454 72.7587 82.174 72.9165Z" fill="#263238"/>
<path d="M93.3881 71.2421C93.1689 71.522 92.3126 71.2421 91.2778 71.2421C90.2431 71.2421 89.3765 71.4355 89.1777 71.1403C89.086 70.9978 89.2236 70.7178 89.6059 70.4481C90.1175 70.1285 90.7122 69.9672 91.3154 69.9844C91.9186 70.0016 92.5032 70.1966 92.9956 70.5448C93.3881 70.8145 93.4952 71.1046 93.3881 71.2421Z" fill="#263238"/>
<path d="M63.003 93.4732C64.2459 93.7241 65.5307 93.6763 66.7514 93.3338C67.9721 92.9913 69.0938 92.3639 70.0239 91.5034C70.954 90.6428 71.6658 89.5738 72.1007 88.3845C72.5355 87.1951 72.6809 85.9197 72.5248 84.6632C72.2444 82.4492 71.0517 80.2048 71.8214 78.1079C72.8408 75.3443 76.7199 74.4943 77.7496 71.7307C78.3459 70.1275 77.8107 68.2495 78.4887 66.6768C79.1258 65.2008 80.6856 64.3509 82.2046 63.8012C83.7236 63.2515 85.3446 62.8749 86.6189 61.8875C87.8932 60.9002 88.6833 59.0374 87.8626 57.6479C81.1305 58.4544 74.5186 60.0588 68.1666 62.427C66.6935 62.9767 65.149 63.6383 64.2773 64.9413C63.3598 66.3256 63.4057 68.1069 63.4821 69.7661C63.8593 77.8483 62.6258 85.4164 63.003 93.4986" fill="#263238"/>
<path d="M60.857 90.9387C60.8057 90.931 60.7558 90.9156 60.7092 90.8929C60.5637 90.8422 60.425 90.7738 60.2963 90.6893C59.7997 90.3685 59.4095 89.9081 59.1749 89.366C58.7891 88.5092 58.6856 87.5522 58.8792 86.6329C59.1862 85.4386 59.7439 84.3231 60.5155 83.3604C61.3055 82.261 62.3097 81.1464 62.9928 79.7264C63.357 79.0049 63.5604 78.2131 63.5891 77.4056C63.5597 76.5484 63.3874 75.7022 63.0794 74.9016C62.7359 74.036 62.5544 73.1147 62.5442 72.1837C62.5935 71.1876 62.8865 70.2186 63.3974 69.3616C63.9083 68.5046 64.6217 67.7855 65.4752 67.2673C66.3905 66.7686 67.4057 66.4799 68.4469 66.4224C69.4544 66.373 70.4522 66.2022 71.4186 65.9134C72.326 65.5704 73.0716 64.9003 73.5085 64.0354C73.9249 63.1845 74.2561 62.2946 74.4974 61.3787C74.7553 60.4999 75.0967 59.6478 75.5169 58.8339C76.2833 57.2908 77.4504 55.9814 78.8964 55.0422C80.1732 54.2407 81.667 53.8531 83.1731 53.9327C84.4205 53.9971 85.6087 54.4835 86.5424 55.3119C87.2384 55.9367 87.7571 56.7337 88.0461 57.6226C88.2339 58.179 88.3051 58.768 88.2551 59.353C88.2447 59.5565 88.2105 59.7581 88.1532 59.9536C88.1532 59.9536 88.1889 59.7449 88.2041 59.3479C88.2286 58.7719 88.1421 58.1966 87.9493 57.6531C87.5983 56.6529 86.9542 55.7813 86.1006 55.1514C85.2471 54.5215 84.2235 54.1625 83.1629 54.121C81.6985 54.0566 80.2498 54.444 79.0137 55.2305C77.6065 56.1538 76.473 57.4367 75.731 58.9459C75.3192 59.76 74.988 60.6123 74.7421 61.4906C74.4932 62.4231 74.1516 63.3284 73.7226 64.1932C73.4863 64.6407 73.1781 65.0464 72.8102 65.3943C72.4299 65.7459 71.9827 66.0177 71.4951 66.1934C70.502 66.499 69.4746 66.6802 68.4367 66.7329C67.4333 66.7856 66.4544 67.0621 65.572 67.5421C64.7561 68.0363 64.0737 68.7223 63.5841 69.5402C63.0946 70.3581 62.8128 71.2831 62.7634 72.2346C62.7724 73.1369 62.9451 74.0302 63.2731 74.871C63.5975 75.6962 63.7785 76.5705 63.8083 77.4565C63.774 78.2967 63.5584 79.1196 63.1763 79.8689C62.4626 81.3245 61.4483 82.4137 60.6531 83.5181C59.8856 84.4536 59.3261 85.5414 59.0117 86.7093C58.8086 87.5979 58.8925 88.5279 59.2513 89.366C59.4718 89.9 59.8394 90.3606 60.3116 90.6944C60.6531 90.8674 60.8621 90.9183 60.857 90.9387Z" fill="#455A64"/>
<path d="M87.0522 51.6932C87.1759 51.7024 87.2961 51.7389 87.4039 51.8001C87.7098 51.9297 87.9963 52.101 88.2551 52.3091C89.1432 52.9971 89.7315 54.0004 89.8977 55.1105C90.0638 56.2205 89.795 57.3517 89.1472 58.2689C88.9589 58.5423 88.7362 58.7903 88.4845 59.0069C88.301 59.1596 88.1889 59.2257 88.1787 59.2105C88.4661 58.8853 88.7367 58.5455 88.9892 58.1926C89.5636 57.2982 89.7939 56.2263 89.6374 55.1754C89.4809 54.1244 88.9481 53.1658 88.1379 52.477C87.7914 52.1951 87.4289 51.9334 87.0522 51.6932Z" fill="#455A64"/>
<path d="M107.023 113.465C107.131 113.152 107.218 112.832 107.283 112.508C107.403 111.619 107.248 110.716 106.84 109.917C106.211 108.745 105.211 107.815 103.996 107.271C103.285 106.935 102.542 106.671 101.778 106.482C100.983 106.278 100.142 106.11 99.301 105.836C98.4547 105.605 97.6743 105.18 97.0225 104.594C96.4388 104.01 96.0612 103.253 95.947 102.436C95.8094 101.677 95.7635 100.96 95.5953 100.318C95.4445 99.7252 95.1643 99.1725 94.7746 98.7C94.2045 98.0078 93.4473 97.4938 92.5929 97.219C91.9864 97.0357 91.6245 97.0357 91.6245 97.0052C91.7109 96.9966 91.798 96.9966 91.8844 97.0052C92.1338 97.0224 92.3811 97.0616 92.6235 97.1223C93.5176 97.3684 94.3168 97.8774 94.9173 98.583C95.3371 99.0708 95.6419 99.6465 95.8094 100.268C95.9929 100.934 96.0489 101.662 96.1917 102.395C96.2964 103.168 96.655 103.884 97.2111 104.431C97.8362 104.985 98.5811 105.387 99.3877 105.607C100.208 105.871 101.049 106.044 101.85 106.253C102.623 106.442 103.375 106.711 104.093 107.057C105.348 107.631 106.372 108.612 106.998 109.841C107.406 110.676 107.538 111.619 107.375 112.533C107.327 112.777 107.25 113.015 107.146 113.241C107.113 113.319 107.072 113.395 107.023 113.465Z" fill="#455A64"/>
<path d="M67.8148 97.5245C63.2272 96.303 59.3023 91.8395 57.7017 87.3963C56.1011 82.9532 56.1011 78.1028 56.514 73.4001C56.8097 69.9952 57.4111 66.3918 59.6744 63.8267C63.0896 59.9586 66.8106 57.9839 71.9487 58.1468" fill="#263238"/>
<path d="M94.4739 107.449L90.2176 106.38C90.6816 106.062 91.0199 105.592 91.1743 105.051C91.3288 104.51 91.2897 103.933 91.0638 103.418C90.7943 102.758 90.3486 102.185 89.7751 101.76C89.2017 101.336 88.5225 101.076 87.8117 101.011L68.4113 98.8222C68.0721 98.7771 67.7275 98.8468 67.4328 99.0203C67.138 99.1937 66.91 99.4609 66.7852 99.7791C65.9255 101.964 65.8966 103.762 66.6986 105.174H66.6068L62.8654 105.917L56.5243 161.77L98.0573 159.83L94.4739 107.449Z" fill="#F5F5F5"/>
<path d="M88.3673 106.594C88.1125 106.668 87.8514 106.719 87.5874 106.747C87.0776 106.828 86.3487 106.915 85.4414 107.006C80.693 107.447 75.906 107.209 71.225 106.299C70.3278 106.121 69.6091 105.958 69.1147 105.826C68.8549 105.775 68.6006 105.7 68.3552 105.602C68.6184 105.621 68.8794 105.663 69.1351 105.729C69.6448 105.826 70.3635 105.963 71.2606 106.116C75.9368 106.919 80.6932 107.155 85.4261 106.818C86.3334 106.757 87.0675 106.691 87.5772 106.64C87.8389 106.604 88.1031 106.589 88.3673 106.594Z" fill="#263238"/>
<path d="M69.5938 115.47C70.0024 114.623 70.4887 113.815 71.0465 113.058C71.5334 112.252 72.0949 111.494 72.7236 110.793C72.3143 111.641 71.8262 112.448 71.2657 113.205C70.7815 114.011 70.2217 114.77 69.5938 115.47Z" fill="#E0E0E0"/>
<path d="M82.9793 116.417C81.6837 115.089 80.518 113.64 79.4979 112.091C80.177 112.725 80.7948 113.422 81.3431 114.172C81.9599 114.866 82.5079 115.618 82.9793 116.417Z" fill="#E0E0E0"/>
<path d="M76.7607 123.517C76.4676 122.611 76.2578 121.681 76.1337 120.738C75.9216 119.81 75.8004 118.864 75.7718 117.913C76.0656 118.818 76.2755 119.748 76.3988 120.692C76.6051 121.621 76.7263 122.566 76.7607 123.517Z" fill="#E0E0E0"/>
<path d="M86.9808 123.954C86.2612 124.848 85.4739 125.685 84.6259 126.458C83.8383 127.296 82.9861 128.07 82.0772 128.774C82.7967 127.88 83.584 127.043 84.4322 126.27C85.223 125.436 86.0749 124.662 86.9808 123.954Z" fill="#E0E0E0"/>
<path d="M73.2741 133.472C71.3958 132.351 69.8659 130.732 68.8547 128.794C68.926 128.749 69.7059 129.97 70.9344 131.258C72.1628 132.545 73.325 133.406 73.2741 133.472Z" fill="#E0E0E0"/>
<path d="M77.6782 140.821C77.6782 140.897 76.516 141.269 75.1703 141.987C73.8246 142.704 72.8408 143.457 72.7899 143.391C73.4314 142.705 74.1977 142.147 75.048 141.747C75.8565 141.272 76.7497 140.957 77.6782 140.821Z" fill="#E0E0E0"/>
<path d="M84.8399 141.294C84.5361 141.037 84.264 140.745 84.0294 140.424C83.5605 139.864 82.9335 139.065 82.2811 138.154C81.6286 137.243 81.0781 136.393 80.6958 135.762C80.4683 135.436 80.2801 135.084 80.1351 134.714C80.4062 135.004 80.647 135.321 80.8538 135.66L82.5002 138.001L84.1773 140.312C84.4323 140.615 84.6544 140.944 84.8399 141.294Z" fill="#E0E0E0"/>
<path d="M85.5587 147.565C84.5679 147.912 83.5425 148.151 82.5003 148.277C81.4694 148.492 80.4185 148.596 79.3654 148.588C80.3836 148.332 81.417 148.142 82.4595 148.018C83.4827 147.806 84.5175 147.654 85.5587 147.565Z" fill="#E0E0E0"/>
<path d="M73.9622 105.805C73.9265 105.805 74.1712 105.5 74.3802 104.96C74.639 104.254 74.7161 103.495 74.6045 102.751C74.4779 102.002 74.257 101.272 73.9469 100.578C73.7967 100.294 73.6803 99.9935 73.6003 99.6824C73.8132 99.9264 73.9853 100.203 74.11 100.502C74.4808 101.191 74.734 101.938 74.8593 102.711C74.9826 103.5 74.8746 104.307 74.5484 105.037C74.4345 105.346 74.2303 105.613 73.9622 105.805Z" fill="#E0E0E0"/>
<path d="M81.7204 101.621C82.0838 102.121 82.3437 102.688 82.4846 103.29C82.6255 103.891 82.6447 104.514 82.5411 105.123C82.4646 105.123 82.4544 104.314 82.225 103.352C81.9957 102.39 81.6643 101.662 81.7204 101.621Z" fill="#E0E0E0"/>
<path d="M116.713 141.416L136.032 107.535L138.362 101.657C138.362 101.657 144.387 88.7296 144.805 87.4063C145.289 85.8795 146.14 85.7573 146.691 85.9711C147.547 86.3121 147.822 87.5845 147.445 88.9027C147.313 89.3556 144.973 96.4606 144.973 96.4606C145.602 95.9191 146.27 95.4241 146.971 94.9796C148.455 93.9616 151.171 94.0125 153.689 94.9083C156.208 95.8041 156.829 96.2774 156.529 97.2648C156.462 97.4501 156.355 97.6181 156.215 97.7564C156.074 97.8947 155.905 97.9998 155.718 98.0638C155.125 98.3111 154.461 98.3256 153.858 98.1045C149.81 96.7304 148.016 98.5524 148.016 98.5524L147.715 99.3209C147.715 99.3209 150.774 98.3488 152.486 99.723C152.742 99.9247 152.957 100.173 153.119 100.456C153.673 100.637 154.17 100.959 154.561 101.39C154.953 101.822 155.224 102.348 155.35 102.917C155.475 103.485 155.449 104.077 155.275 104.633C155.101 105.188 154.785 105.689 154.357 106.085C154.171 106.296 153.926 106.447 153.653 106.516C153.38 106.585 153.092 106.569 152.828 106.472C152.581 106.304 152.382 106.074 152.252 105.805C152.169 105.67 152.075 105.543 151.972 105.423L150.82 107.459C150.82 107.459 147.98 111.887 146.961 113.958L133.657 149.346C133.22 150.511 132.554 151.577 131.699 152.482C130.845 153.388 129.818 154.114 128.679 154.618C127.54 155.123 126.312 155.396 125.066 155.421C123.82 155.447 122.582 155.224 121.423 154.766C120.173 154.273 119.044 153.518 118.111 152.552C117.179 151.585 116.465 150.43 116.018 149.164C115.572 147.898 115.403 146.552 115.523 145.215C115.642 143.878 116.049 142.583 116.713 141.416Z" fill="#FFBE9D"/>
<path d="M137.363 107.418C138.046 107.866 138.989 107.561 139.601 107.032C140.212 106.502 140.62 105.775 141.211 105.199C142.929 103.484 145.799 103.321 147.445 101.525C147.675 101.275 147.879 100.894 147.68 100.619C147.481 100.344 147.114 100.395 146.808 100.456L138.902 102.018" fill="#FFBE9D"/>
<path d="M138.902 102.018C139.169 101.898 139.45 101.812 139.738 101.764C140.283 101.626 141.079 101.448 142.057 101.255L145.503 100.527L146.523 100.318C146.915 100.175 147.349 100.19 147.731 100.359C147.84 100.44 147.922 100.551 147.968 100.679C148.013 100.807 148.019 100.945 147.986 101.077C147.933 101.292 147.828 101.492 147.68 101.657C147.413 101.951 147.114 102.214 146.788 102.441C145.473 103.352 144.03 103.723 142.878 104.329C142.328 104.588 141.823 104.932 141.379 105.347C140.972 105.739 140.65 106.187 140.314 106.568C140.072 106.905 139.759 107.185 139.397 107.388C139.035 107.591 138.633 107.713 138.219 107.744C137.612 107.744 137.363 107.444 137.383 107.439C137.649 107.53 137.928 107.573 138.209 107.566C138.585 107.504 138.944 107.365 139.263 107.157C139.582 106.949 139.855 106.678 140.064 106.36C140.391 105.915 140.74 105.487 141.109 105.077C141.571 104.62 142.103 104.239 142.684 103.947C143.872 103.306 145.309 102.929 146.523 102.064C146.815 101.857 147.085 101.62 147.328 101.357C147.552 101.107 147.629 100.807 147.471 100.721C147.313 100.634 146.961 100.675 146.609 100.746L145.59 100.934L142.124 101.57C141.135 101.744 140.334 101.876 139.779 101.957C139.492 102.023 139.196 102.044 138.902 102.018Z" fill="#EB996E"/>
<path d="M147.608 99.3311C147.811 98.8586 148.122 98.4403 148.516 98.1096C148.957 97.7793 149.493 97.6007 150.045 97.6007C150.738 97.6048 151.426 97.7182 152.084 97.9366C152.756 98.1629 153.449 98.3198 154.153 98.4048C154.744 98.4726 155.343 98.3812 155.886 98.1402C156.074 98.054 156.238 97.9254 156.366 97.7646C156.494 97.6037 156.583 97.4151 156.626 97.2139C156.664 97.0722 156.664 96.9229 156.626 96.7812C156.595 96.7812 156.595 96.9339 156.519 97.1884C156.463 97.3599 156.37 97.5171 156.246 97.649C156.123 97.7809 155.972 97.8843 155.805 97.9518C155.286 98.1444 154.728 98.2073 154.179 98.1351C153.495 98.0277 152.823 97.8573 152.171 97.6261C151.49 97.4024 150.777 97.2923 150.06 97.3004C149.458 97.3144 148.879 97.5294 148.414 97.9111C148.105 98.1674 147.868 98.4987 147.726 98.873C147.598 99.1733 147.588 99.326 147.608 99.3311Z" fill="#EB996E"/>
<path d="M147.583 88.3938C147.383 88.8491 147.223 89.3208 147.104 89.8036C146.803 90.7808 146.446 91.9412 146.049 93.2238C145.651 94.5063 145.259 95.6566 144.942 96.6287C144.758 97.0897 144.616 97.5668 144.519 98.0537C144.773 97.625 144.981 97.1713 145.141 96.6999C145.478 95.8449 145.906 94.6641 146.334 93.3154C146.762 91.9666 147.094 90.7706 147.308 89.8596C147.451 89.382 147.543 88.8907 147.583 88.3938Z" fill="#EB996E"/>
<path d="M148.699 101.459C148.855 101.481 149.013 101.481 149.168 101.459C149.364 101.425 149.564 101.434 149.756 101.485C149.948 101.536 150.126 101.628 150.279 101.754C150.368 101.847 150.431 101.962 150.462 102.087C150.493 102.212 150.492 102.342 150.458 102.466C150.375 102.779 150.254 103.08 150.096 103.362C149.892 103.716 149.825 104.133 149.907 104.533C149.977 104.745 150.095 104.937 150.253 105.096C150.41 105.254 150.603 105.373 150.815 105.444C151.024 105.51 151.244 105.533 151.462 105.511C151.681 105.489 151.892 105.423 152.084 105.316C152.441 105.134 152.734 104.849 152.925 104.497C153.201 103.917 153.39 103.3 153.486 102.665C153.56 102.239 153.56 101.803 153.486 101.377C153.47 101.217 153.408 101.065 153.307 100.939C153.282 100.939 153.348 101.102 153.373 101.392C153.395 101.808 153.359 102.224 153.266 102.629C153.146 103.231 152.947 103.814 152.675 104.365C152.509 104.675 152.245 104.921 151.924 105.066C151.603 105.21 151.244 105.245 150.901 105.164C150.733 105.11 150.58 105.017 150.455 104.893C150.329 104.769 150.234 104.618 150.177 104.451C150.111 104.119 150.167 103.774 150.335 103.479C150.494 103.171 150.614 102.844 150.692 102.507C150.726 102.345 150.719 102.178 150.67 102.02C150.62 101.862 150.532 101.72 150.412 101.606C150.235 101.466 150.027 101.369 149.806 101.323C149.585 101.277 149.356 101.284 149.138 101.342C148.986 101.357 148.838 101.396 148.699 101.459Z" fill="#EB996E"/>
<path d="M152.033 105.021C152.033 105.021 151.936 105.154 151.946 105.439C151.961 105.639 152.022 105.832 152.124 106.005C152.227 106.177 152.368 106.323 152.537 106.431C152.799 106.581 153.095 106.66 153.396 106.66C153.698 106.66 153.994 106.581 154.255 106.431C154.884 106.069 155.348 105.478 155.55 104.782C155.772 104.101 155.772 103.367 155.55 102.685C155.369 102.134 155.043 101.642 154.607 101.26C154.319 101.003 153.986 100.803 153.623 100.67C153.494 100.608 153.353 100.577 153.21 100.578C153.665 100.798 154.087 101.079 154.464 101.413C154.892 101.829 155.194 102.357 155.336 102.937C155.479 103.516 155.456 104.124 155.27 104.691C155.087 105.316 154.679 105.851 154.123 106.192C153.901 106.322 153.649 106.394 153.391 106.401C153.134 106.408 152.879 106.35 152.65 106.233C152.498 106.144 152.366 106.024 152.265 105.881C152.163 105.738 152.092 105.575 152.058 105.403C152.007 105.179 152.058 105.021 152.033 105.021Z" fill="#EB996E"/>
<path d="M145.6 108.218C145.398 108.081 145.16 108.009 144.917 108.009C144.295 107.948 143.671 108.097 143.143 108.431L143.362 108.579C143.431 108.243 143.479 107.903 143.505 107.561C143.683 105.597 143.056 104.08 142.995 104.121C143.191 105.248 143.265 106.393 143.214 107.536C143.19 107.862 143.147 108.186 143.087 108.508L143.026 108.839L143.306 108.65C143.784 108.339 144.342 108.173 144.912 108.172C145.335 108.182 145.59 108.253 145.6 108.218Z" fill="#EB996E"/>
<path d="M149.622 96.1452C149.54 96.1452 149.653 96.7559 150.193 97.2242C150.733 97.6924 151.34 97.7331 151.34 97.6466C151.34 97.5601 150.855 97.4125 150.392 97.0002C149.928 96.588 149.703 96.1147 149.622 96.1452Z" fill="#EB996E"/>
<path d="M89.3103 169.531L109.521 169.73L106.131 155.087L107.268 157.851C108.316 160.402 110.1 162.585 112.394 164.121C114.688 165.657 117.387 166.477 120.149 166.477C126.541 166.477 130.961 161.729 133.662 155.947C139.983 142.429 146.074 120.661 146.074 120.661L133.754 109.851C124.834 126.698 116.454 141.325 116.454 141.325C116.454 141.325 114.032 133.981 112.162 127.425C110.291 120.87 110.306 117.43 107.436 114.162C103.017 109.134 96.732 107.887 90.8803 106.38L90.6611 133.579L89.3103 169.531Z" fill="#144A6C"/>
<path d="M66.1837 149.3L102.986 156.425L104.776 170.544H48.3481C46.8035 170.563 45.2719 170.26 43.8511 169.655C42.4302 169.05 41.1514 168.155 40.0961 167.029C39.0409 165.902 38.2325 164.569 37.7224 163.113C37.2124 161.657 37.012 160.111 37.134 158.573C37.9445 148.282 38.8263 135.609 39.4992 130.25C40.0089 126.072 41.691 121.751 43.6637 118.035C46.5131 112.681 56.0094 105.82 64.3333 105.464L65.9084 140.465" fill="#144A6C"/>
<g opacity="0.4">
<path opacity="0.4" d="M89.3103 169.531L109.521 169.73L106.131 155.087L107.268 157.851C108.316 160.402 110.1 162.585 112.394 164.121C114.688 165.657 117.387 166.478 120.149 166.477C126.541 166.477 130.961 161.729 133.662 155.947C139.983 142.429 146.074 120.661 146.074 120.661L133.754 109.851C124.834 126.698 116.454 141.325 116.454 141.325C116.454 141.325 114.032 133.981 112.162 127.425C110.291 120.87 110.306 117.43 107.436 114.162C103.017 109.134 96.732 107.887 90.8803 106.38L90.6611 133.579L89.3103 169.531Z" fill="black"/>
<path opacity="0.4" d="M66.1837 149.3L99.3775 155.377C100.054 155.502 100.678 155.825 101.171 156.304C101.663 156.783 102.002 157.398 102.145 158.07L104.776 170.574H48.3481C46.8035 170.593 45.2719 170.291 43.8511 169.685C42.4302 169.08 41.1514 168.186 40.0961 167.059C39.0409 165.933 38.2325 164.599 37.7224 163.143C37.2124 161.688 37.012 160.141 37.134 158.604C37.9445 148.313 38.8263 135.64 39.4992 130.281C40.0089 126.102 41.691 121.781 43.6637 118.066C46.5131 112.712 56.0094 105.851 64.3333 105.495L65.9084 140.495" fill="black"/>
</g>
<path d="M59.1748 148.252C59.1617 148.14 59.1617 148.027 59.1748 147.916C59.1748 147.666 59.1748 147.346 59.1748 146.954C59.1748 146.084 59.1748 144.882 59.1748 143.391C59.1748 140.404 59.1188 136.266 58.8894 131.721C58.7721 129.441 58.6243 127.273 58.4663 125.308C58.3923 123.564 58.1448 121.832 57.7272 120.137C57.4357 119.006 56.8802 117.959 56.1062 117.083C55.8065 116.778 55.49 116.489 55.1581 116.218C55.5473 116.418 55.9004 116.681 56.2031 116.997C57.0283 117.866 57.6224 118.929 57.9311 120.086C58.3763 121.795 58.6427 123.545 58.7263 125.308C58.8996 127.278 59.0525 129.446 59.1697 131.726C59.4042 136.307 59.4297 140.424 59.3787 143.432C59.3481 144.928 59.3074 146.14 59.2717 146.995L59.2156 147.956C59.2137 148.056 59.2 148.155 59.1748 148.252Z" fill="#263238"/>
<path d="M102.273 157.443C101.885 157.015 101.432 156.649 100.932 156.359C100.337 156.036 99.7059 155.785 99.0512 155.611C98.2917 155.392 97.3997 155.224 96.4159 155.026C92.4808 154.222 87.0521 153.107 81.0373 151.972C75.0225 150.837 69.5479 149.936 65.5873 149.305L60.8927 148.557L59.6183 148.343C59.4683 148.325 59.3199 148.294 59.1749 148.252C59.3253 148.252 59.4753 148.266 59.6234 148.292L60.908 148.455C62.0192 148.603 63.6299 148.827 65.6128 149.122C69.5836 149.712 75.0632 150.588 81.0832 151.713C87.1031 152.837 92.5318 153.977 96.4516 154.822C97.4354 155.036 98.3274 155.219 99.092 155.453C99.754 155.64 100.389 155.911 100.983 156.258C101.365 156.473 101.709 156.748 102.003 157.072C102.081 157.152 102.153 157.239 102.217 157.331C102.252 157.393 102.278 157.443 102.273 157.443Z" fill="#263238"/>
<path d="M59.287 148.252C59.287 148.298 58.6091 148.455 57.559 148.883C56.946 149.136 56.35 149.428 55.7749 149.758C55.0795 150.172 54.4167 150.638 53.7921 151.153C53.1847 151.678 52.6189 152.25 52.0998 152.863C51.6726 153.368 51.2809 153.902 50.9274 154.461C50.3259 155.423 50.0506 156.074 50.0048 156.054C50.0365 155.89 50.0896 155.731 50.1628 155.581C50.3364 155.162 50.5374 154.756 50.7643 154.364C51.1046 153.783 51.488 153.229 51.9112 152.705C52.9575 151.423 54.2374 150.351 55.6832 149.544C56.2688 149.214 56.8809 148.934 57.5131 148.705C57.9383 148.546 58.3744 148.419 58.818 148.323C58.9702 148.277 59.1281 148.253 59.287 148.252Z" fill="#263238"/>
<path d="M106.809 157.047C106.774 156.932 106.749 156.814 106.733 156.695C106.692 156.441 106.636 156.105 106.57 155.677C106.427 154.797 106.239 153.525 106.024 151.947C105.596 148.796 105.076 144.43 104.638 139.595C104.2 134.759 103.94 130.372 103.797 127.191C103.726 125.603 103.685 124.316 103.664 123.425C103.664 123.001 103.664 122.662 103.664 122.407C103.653 122.289 103.653 122.169 103.664 122.051C103.692 122.168 103.706 122.287 103.705 122.407L103.771 123.425C103.827 124.341 103.899 125.619 103.991 127.181C104.179 130.357 104.475 134.739 104.908 139.569C105.341 144.399 105.836 148.766 106.218 151.921C106.407 153.479 106.565 154.746 106.677 155.662C106.723 156.085 106.764 156.421 106.794 156.68C106.815 156.801 106.82 156.924 106.809 157.047Z" fill="#263238"/>
<path d="M119.012 151.575C119.012 151.575 118.895 151.463 118.717 151.239C118.47 150.914 118.243 150.574 118.039 150.221C116.671 147.89 116.04 145.201 116.229 142.506C116.255 142.1 116.309 141.697 116.392 141.299C116.41 141.151 116.448 141.005 116.505 140.867C116.55 140.867 116.454 141.498 116.418 142.516C116.333 145.173 116.948 147.805 118.202 150.15C118.681 151.031 119.053 151.545 119.012 151.575Z" fill="#263238"/>
<path d="M59.0271 129.339C59.0271 129.339 58.9608 129.364 58.8385 129.38C58.6545 129.409 58.469 129.428 58.2829 129.436C57.5991 129.464 56.9144 129.41 56.244 129.273C55.2481 129.073 54.276 128.769 53.3436 128.367C52.2884 127.929 51.167 127.349 49.9946 126.784C48.8971 126.234 47.7608 125.764 46.5947 125.379C45.6485 125.062 44.665 124.869 43.6688 124.804C42.7462 124.774 41.824 124.879 40.9316 125.115C40.9864 125.078 41.0466 125.051 41.11 125.033C41.2751 124.961 41.4455 124.902 41.6197 124.855C42.2841 124.677 42.9712 124.599 43.6587 124.621C44.6764 124.653 45.6849 124.824 46.6559 125.13C47.837 125.509 48.9859 125.983 50.0915 126.545C51.269 127.125 52.3802 127.695 53.42 128.138C54.3355 128.544 55.288 128.861 56.2643 129.085C57.1732 129.27 58.0996 129.355 59.0271 129.339Z" fill="#FAFAFA"/>
<path d="M65.3528 128.102C64.3736 128.4 63.371 128.615 62.3556 128.744C61.3497 128.962 60.3261 129.09 59.2972 129.125C60.2764 128.828 61.279 128.613 62.2944 128.484C63.3003 128.265 64.3239 128.137 65.3528 128.102Z" fill="#FAFAFA"/>
<path d="M58.7977 139.024C58.5631 139.157 58.3154 139.264 58.0586 139.345C57.5743 139.533 56.8658 139.788 55.9839 140.073C53.6779 140.812 51.3244 141.393 48.9394 141.813C47.5428 142.058 46.2022 142.236 44.9788 142.358C43.8938 142.498 42.7973 142.527 41.7063 142.445C40.9663 142.385 40.2455 142.179 39.5858 141.839C39.4065 141.746 39.2359 141.637 39.0761 141.513C39.0173 141.473 38.9641 141.425 38.9181 141.371C38.9181 141.371 39.1628 141.528 39.6266 141.747C40.2873 142.045 40.9977 142.218 41.7216 142.256C42.7992 142.312 43.8797 142.264 44.9482 142.114C46.1665 141.976 47.4969 141.793 48.8885 141.549C51.2622 141.129 53.6106 140.576 55.9228 139.895C56.8097 139.63 57.5233 139.386 58.0178 139.248C58.2718 139.155 58.5325 139.08 58.7977 139.024Z" fill="#FAFAFA"/>
<path d="M65.1846 141.707C64.2662 141.853 63.3361 141.913 62.4066 141.885C61.4799 141.944 60.5498 141.915 59.6285 141.799C60.547 141.653 61.477 141.593 62.4066 141.62C63.3333 141.562 64.2634 141.591 65.1846 141.707Z" fill="#FAFAFA"/>
<path d="M38.9538 164.895C38.9597 164.801 38.9786 164.708 39.0099 164.62C39.0608 164.416 39.1322 164.167 39.2138 163.856L39.3667 163.307C39.4329 163.108 39.5196 162.899 39.6012 162.67C39.7844 162.151 39.9954 161.641 40.2332 161.144L40.6461 160.273C40.7939 159.968 40.9825 159.673 41.1558 159.357C41.5403 158.69 41.9588 158.042 42.4098 157.418C44.4922 154.543 47.2074 152.184 50.3463 150.522C51.029 150.161 51.73 149.837 52.4464 149.55C52.7879 149.422 53.104 149.275 53.4251 149.173L54.3477 148.883C54.8763 148.715 55.4141 148.577 55.9585 148.471C56.1981 148.42 56.4172 148.364 56.6211 148.328L57.192 148.252L57.977 148.155C58.0683 148.142 58.161 148.142 58.2523 148.155C58.1653 148.188 58.0746 148.21 57.9821 148.221L57.2073 148.369L56.6466 148.465L55.9891 148.628C55.5201 148.756 54.9696 148.862 54.4038 149.076L53.4965 149.382C53.1804 149.488 52.8644 149.636 52.5331 149.768C51.8271 150.061 51.1364 150.389 50.4636 150.751C48.9307 151.597 47.4876 152.596 46.1563 153.733C44.8413 154.892 43.646 156.179 42.5882 157.576C42.1294 158.237 41.6758 158.858 41.3291 159.484C41.1507 159.795 40.9621 160.085 40.8194 160.385L40.3912 161.24C40.1007 161.78 39.9223 162.299 39.7286 162.767C39.6419 162.991 39.5502 163.2 39.4788 163.393L39.3004 163.933L39.0506 164.681C39.0262 164.755 38.9938 164.827 38.9538 164.895Z" fill="#FAFAFA"/>
<path d="M64.5169 149.26C63.6643 149.999 62.9558 150.889 62.427 151.886C61.871 152.975 61.4761 154.139 61.2546 155.342C60.991 156.821 60.8207 158.315 60.7449 159.815C60.6814 161.327 60.511 162.832 60.2351 164.319C59.9854 165.539 59.5542 166.714 58.9557 167.806C58.556 168.538 58.0395 169.199 57.4265 169.765C57.2595 169.92 57.0806 170.061 56.8913 170.188C56.7638 170.274 56.6925 170.32 56.6874 170.31C57.5554 169.587 58.2784 168.706 58.8181 167.714C59.3828 166.631 59.788 165.472 60.021 164.274C60.2924 162.796 60.4627 161.301 60.5308 159.8C60.597 158.287 60.7673 156.78 61.0405 155.291C61.2779 154.071 61.6971 152.894 62.2842 151.799C62.6849 151.06 63.2011 150.39 63.8134 149.814C63.9738 149.661 64.1441 149.518 64.3232 149.387C64.3821 149.336 64.4471 149.294 64.5169 149.26Z" fill="#FAFAFA"/>
<path d="M73.218 170.63C73.1467 170.63 73.218 166.243 73.4066 160.838C73.5952 155.433 73.7889 151.051 73.8603 151.051C73.9317 151.051 73.8603 155.438 73.6717 160.848C73.4831 166.258 73.2894 170.635 73.218 170.63Z" fill="#FAFAFA"/>
<path d="M87.0521 169.877C86.9562 169.673 86.881 169.46 86.8278 169.241C86.7451 168.99 86.6754 168.736 86.6188 168.478C86.5526 168.177 86.4608 167.836 86.4047 167.46C86.2462 166.562 86.1559 165.653 86.1346 164.742C86.0845 162.502 86.4296 160.271 87.1541 158.151C87.4494 157.287 87.8089 156.447 88.2296 155.637C88.3978 155.286 88.5864 154.99 88.7393 154.726C88.8688 154.495 89.0118 154.273 89.1675 154.059C89.2812 153.865 89.4162 153.684 89.5702 153.52C89.6161 153.545 89.0605 154.334 88.3927 155.723C87.9965 156.534 87.6559 157.371 87.3732 158.227C86.675 160.326 86.3305 162.526 86.3538 164.737C86.3653 165.638 86.4352 166.537 86.5628 167.429C86.8176 168.946 87.1031 169.862 87.0521 169.877Z" fill="#FAFAFA"/>
<path d="M63.5586 113.628C63.5586 113.668 62.7532 113.317 61.4279 112.89C57.9759 111.777 54.3176 111.453 50.7235 111.943C49.3472 112.131 48.5062 112.345 48.496 112.299C48.6787 112.211 48.8724 112.148 49.072 112.111C49.6053 111.964 50.1465 111.847 50.6929 111.76C54.3143 111.159 58.0291 111.487 61.4891 112.712C62.0089 112.895 62.5193 113.104 63.0183 113.338C63.2096 113.412 63.3911 113.509 63.5586 113.628Z" fill="#FAFAFA"/>
<path d="M103.827 135.05C103.197 135.083 102.565 135.073 101.936 135.02C100.769 134.974 99.1583 134.913 97.3793 134.872C95.6004 134.831 93.9896 134.806 92.8223 134.795C92.1912 134.815 91.5594 134.793 90.9312 134.729C91.0983 134.69 91.2693 134.669 91.4409 134.668C91.7672 134.668 92.2412 134.622 92.8274 134.607C93.9947 134.571 95.6055 134.561 97.3895 134.607C99.1736 134.653 100.784 134.744 101.977 134.841C102.558 134.887 103.027 134.928 103.353 134.969C103.514 134.979 103.673 135.006 103.827 135.05Z" fill="#FAFAFA"/>
<path d="M113.89 133.12C113.89 133.166 113.252 133.385 112.258 133.874C109.658 135.151 107.456 137.111 105.887 139.543C105.285 140.475 104.995 141.096 104.954 141.07C104.982 140.91 105.037 140.755 105.117 140.612C105.296 140.208 105.5 139.815 105.729 139.437C106.476 138.178 107.415 137.043 108.512 136.072C109.605 135.099 110.841 134.297 112.177 133.696C112.58 133.514 112.993 133.358 113.416 133.227C113.568 133.171 113.728 133.135 113.89 133.12Z" fill="#FAFAFA"/>
<path d="M108.925 116.809C108.047 116.779 107.171 116.901 106.335 117.17C105.433 117.484 104.559 117.873 103.72 118.33C102.686 118.903 101.605 119.388 100.489 119.781C98.4261 120.441 96.2323 120.582 94.1018 120.193C93.4615 120.077 92.8322 119.907 92.2209 119.684C91.9922 119.613 91.7718 119.517 91.5633 119.399C91.5633 119.348 92.5216 119.75 94.112 120.01C96.2128 120.337 98.3611 120.172 100.387 119.526C101.49 119.137 102.562 118.664 103.593 118.112C104.446 117.659 105.338 117.285 106.259 116.992C106.885 116.793 107.539 116.699 108.196 116.712C108.367 116.717 108.537 116.734 108.706 116.763C108.864 116.783 108.93 116.798 108.925 116.809Z" fill="#FAFAFA"/>
<path d="M106.381 150.919C106.196 151.036 105.998 151.13 105.79 151.199C105.596 151.28 105.357 151.377 105.071 151.468C104.786 151.56 104.465 151.682 104.103 151.774C103.249 152.011 102.381 152.192 101.503 152.313C100.428 152.452 99.3445 152.509 98.2612 152.481C97.1781 152.441 96.0996 152.32 95.0346 152.12C94.1701 151.946 93.3186 151.713 92.4859 151.423C92.124 151.311 91.813 151.173 91.5378 151.061C91.2625 150.949 91.0281 150.842 90.8344 150.751C90.6316 150.667 90.4385 150.561 90.2584 150.435C90.2584 150.389 91.1198 150.797 92.5471 151.245C93.3828 151.507 94.234 151.718 95.0957 151.876C97.204 152.265 99.3597 152.331 101.488 152.069C102.357 151.962 103.218 151.803 104.067 151.591C105.504 151.224 106.366 150.873 106.381 150.919Z" fill="#FAFAFA"/>
<path d="M118.095 165.984C118.022 165.938 117.955 165.883 117.896 165.821C117.779 165.704 117.585 165.546 117.386 165.312C116.771 164.654 116.231 163.931 115.776 163.154C114.305 160.551 113.522 157.617 113.502 154.629C113.506 151.661 113.895 148.707 114.659 145.839C114.935 144.74 115.169 143.854 115.358 143.249C115.444 142.969 115.516 142.74 115.572 142.551C115.628 142.363 115.653 142.307 115.663 142.312C115.662 142.397 115.649 142.481 115.623 142.562C115.582 142.755 115.526 142.989 115.46 143.274C115.307 143.931 115.098 144.801 114.843 145.885C114.139 148.743 113.782 151.675 113.777 154.619C113.794 157.559 114.531 160.451 115.923 163.042C116.36 163.818 116.872 164.549 117.453 165.225C117.855 165.714 118.11 165.963 118.095 165.984Z" fill="#FAFAFA"/>
<path d="M136.644 148.7C135.83 148.055 134.92 147.539 133.948 147.173C132.884 146.805 131.793 146.521 130.685 146.323C129.309 146.091 127.948 145.78 126.607 145.391C124.187 144.606 121.979 143.279 120.149 141.513C119.597 140.98 119.086 140.407 118.62 139.798C118.452 139.584 118.34 139.406 118.258 139.289C118.176 139.172 118.141 139.106 118.151 139.101C118.348 139.299 118.532 139.51 118.701 139.732C119.191 140.313 119.717 140.862 120.277 141.376C122.114 143.078 124.3 144.362 126.684 145.137C128.01 145.523 129.356 145.839 130.716 146.084C131.833 146.298 132.931 146.602 133.999 146.995C134.72 147.267 135.396 147.644 136.007 148.114C136.174 148.239 136.33 148.377 136.476 148.527C136.603 148.638 136.654 148.694 136.644 148.7Z" fill="#FAFAFA"/>
<path d="M142.475 131.716C142.279 131.576 142.096 131.417 141.93 131.243C141.762 131.085 141.558 130.891 141.303 130.678C141.048 130.464 140.793 130.209 140.447 129.965C139.694 129.359 138.904 128.799 138.082 128.291C136.065 127.045 133.872 126.108 131.577 125.512C130.639 125.271 129.688 125.086 128.728 124.957C128.32 124.891 127.948 124.865 127.622 124.835C127.296 124.804 127.01 124.779 126.781 124.769C126.54 124.768 126.299 124.746 126.062 124.703C126.3 124.666 126.541 124.654 126.781 124.667C127.064 124.653 127.348 124.653 127.632 124.667C127.958 124.667 128.341 124.692 128.753 124.748C129.724 124.854 130.686 125.024 131.633 125.257C132.795 125.554 133.933 125.935 135.038 126.397C136.135 126.875 137.195 127.433 138.209 128.067C139.034 128.592 139.822 129.172 140.569 129.802C140.895 130.062 141.16 130.311 141.405 130.555C141.614 130.745 141.813 130.946 142.001 131.156C142.179 131.325 142.338 131.513 142.475 131.716Z" fill="#FAFAFA"/>
<path d="M97.8738 108.355C97.5745 108.554 97.2484 108.71 96.9053 108.818C96.1011 109.133 95.2748 109.388 94.4331 109.582C93.5945 109.779 92.7427 109.915 91.8844 109.989C91.5296 110.042 91.1687 110.042 90.814 109.989C90.814 109.907 92.4298 109.775 94.3821 109.312C96.3344 108.849 97.8432 108.279 97.8738 108.355Z" fill="#FAFAFA"/>
<path d="M115.954 180.036C116.02 180.263 116.028 180.503 115.978 180.734C115.927 180.965 115.819 181.18 115.664 181.358C115.509 181.537 115.312 181.674 115.09 181.757C114.868 181.84 114.629 181.866 114.394 181.832C114.122 181.794 113.868 181.677 113.661 181.496C113.455 181.316 113.306 181.079 113.232 180.815L112.799 179.216H112.865C112.909 179.447 112.898 179.685 112.832 179.911C112.766 180.136 112.647 180.343 112.485 180.513C112.323 180.684 112.123 180.813 111.901 180.892C111.679 180.97 111.442 180.994 111.208 180.962C110.541 180.962 109.965 179.99 109.771 179.476C109.267 179.525 108.759 179.435 108.303 179.216C107.846 178.997 107.458 178.658 107.181 178.234L104.189 173.572L98.6486 169.526L102.003 157.571L113.925 165.276C114.394 165.643 114.466 165.785 115.21 166.482L122.907 173.552C122.035 174.061 121.296 174.035 120.083 173.552C118.87 173.068 113.558 169.48 113.558 169.48L115.954 179.99" fill="#FFBE9D"/>
<path d="M105.754 170.203C105.754 170.203 105.892 170.264 106.106 170.412L106.504 170.686C106.692 170.805 106.864 170.948 107.013 171.114C107.19 171.316 107.328 171.549 107.421 171.801C107.513 172.071 107.61 172.346 107.712 172.636L108.364 174.549C108.818 175.913 109.215 177.145 109.491 178.046C109.665 178.524 109.796 179.016 109.883 179.517C109.652 179.063 109.461 178.589 109.312 178.102C108.991 177.216 108.563 175.995 108.109 174.636C107.89 173.959 107.676 173.313 107.477 172.717C107.385 172.422 107.299 172.142 107.212 171.877C107.136 171.644 107.02 171.426 106.871 171.231C106.742 171.072 106.594 170.929 106.432 170.803L106.065 170.493C105.846 170.32 105.744 170.218 105.754 170.203Z" fill="#EB996E"/>
<path d="M112.926 179.491C112.85 179.329 112.794 179.158 112.758 178.982L112.376 177.618C112.049 176.468 111.616 174.875 111.061 173.14C110.505 171.404 109.924 169.857 109.226 168.9C108.965 168.518 108.635 168.188 108.252 167.928C107.972 167.755 107.793 167.704 107.798 167.673C107.845 167.672 107.892 167.681 107.936 167.699C108.063 167.731 108.186 167.777 108.303 167.836C108.726 168.072 109.093 168.397 109.378 168.788C110.138 169.755 110.75 171.333 111.31 173.058C111.871 174.784 112.279 176.407 112.554 177.573C112.692 178.153 112.794 178.626 112.86 178.957C112.909 179.131 112.931 179.311 112.926 179.491Z" fill="#EB996E"/>
<path d="M116.005 180.214C115.913 180.045 115.843 179.866 115.796 179.68C115.669 179.272 115.511 178.779 115.322 178.193C114.935 176.936 114.42 175.196 113.864 173.272C113.309 171.348 112.845 169.658 112.462 168.335C112.331 167.845 112.045 167.409 111.647 167.093C111.485 166.989 111.315 166.901 111.137 166.829C111.187 166.816 111.24 166.816 111.29 166.829C111.433 166.861 111.569 166.917 111.693 166.996C112.138 167.302 112.467 167.748 112.625 168.264C113.043 169.521 113.538 171.262 114.104 173.185C114.67 175.109 115.149 176.865 115.49 178.132C115.643 178.723 115.776 179.227 115.878 179.659C115.939 179.839 115.982 180.025 116.005 180.214Z" fill="#EB996E"/>
<path d="M188.438 69.8475C188.438 70.1998 188.543 70.5442 188.739 70.8372C188.935 71.1301 189.213 71.3584 189.539 71.4932C189.865 71.6281 190.224 71.6633 190.57 71.5946C190.916 71.5259 191.234 71.3562 191.484 71.1071C191.733 70.858 191.903 70.5406 191.972 70.195C192.041 69.8495 192.005 69.4913 191.87 69.1658C191.735 68.8403 191.507 68.5621 191.213 68.3664C190.92 68.1706 190.575 68.0662 190.222 68.0662C189.749 68.0662 189.295 68.2538 188.961 68.5879C188.626 68.922 188.438 69.3751 188.438 69.8475Z" fill="#455A64"/>
<path d="M183.081 71.6288C184.066 71.6288 184.865 70.8313 184.865 69.8475C184.865 68.8637 184.066 68.0662 183.081 68.0662C182.095 68.0662 181.297 68.8637 181.297 69.8475C181.297 70.8313 182.095 71.6288 183.081 71.6288Z" fill="#455A64"/>
<path d="M174.176 68.9568C173.999 69.2619 173.917 69.6124 173.94 69.964C173.963 70.3156 174.09 70.6525 174.305 70.9321C174.519 71.2118 174.812 71.4215 175.146 71.5348C175.481 71.6482 175.841 71.66 176.182 71.5689C176.523 71.4777 176.829 71.2877 177.062 71.0228C177.294 70.7579 177.443 70.43 177.489 70.0807C177.535 69.7314 177.476 69.3762 177.32 69.0602C177.164 68.7442 176.918 68.4815 176.612 68.3054C176.41 68.1878 176.186 68.1114 175.953 68.0805C175.721 68.0496 175.485 68.0649 175.258 68.1254C175.032 68.1859 174.82 68.2905 174.634 68.4332C174.448 68.5759 174.292 68.7539 174.176 68.9568Z" fill="#455A64"/>
<path d="M182.969 49.0364C182.85 49.0275 182.731 49.0275 182.612 49.0364L181.552 49.0669C181.317 49.0669 181.042 49.0669 180.767 49.1025L179.834 49.2349L178.743 49.3926L177.52 49.6929C175.424 50.2124 173.428 51.0721 171.612 52.2377C168.925 53.9457 166.665 56.2441 165.005 58.9573C163.344 61.6706 162.326 64.727 162.029 67.8931C161.949 68.8427 161.93 69.7964 161.973 70.7483C162.008 71.2267 161.998 71.7204 162.07 72.2039C162.141 72.6874 162.217 73.1811 162.289 73.6748C162.662 75.6975 163.332 77.6542 164.277 79.482C165.283 81.3969 166.562 83.1559 168.074 84.7038C169.686 86.2858 171.532 87.6094 173.549 88.6278C175.635 89.6939 177.894 90.3831 180.221 90.6637C180.81 90.7514 181.405 90.8007 182 90.8113C182.599 90.8563 183.2 90.8682 183.8 90.8469C185.01 90.797 186.214 90.6455 187.398 90.3939C189.956 89.8407 192.388 88.8172 194.57 87.3758L194.356 87.4013L201.661 90.3278L202.094 90.5008L201.971 90.0529L199.82 82.2558L199.785 82.4441C201.767 79.8224 203.103 76.771 203.684 73.5374C203.964 72.0276 204.06 70.4896 203.97 68.9568C203.952 68.2216 203.882 67.4885 203.761 66.7632C203.706 66.4036 203.65 66.0473 203.592 65.6944C203.531 65.3432 203.424 65.0022 203.338 64.6765C202.114 59.8815 199.223 55.6768 195.182 52.8128C193.69 51.7468 192.059 50.8905 190.334 50.268L189.238 49.8762L188.219 49.6115L187.271 49.3774C186.965 49.3214 186.669 49.2909 186.394 49.2451C185.844 49.1789 185.375 49.0822 184.931 49.0618L183.861 49.0262H183.203C183.128 49.0207 183.054 49.0207 182.979 49.0262C183.051 49.0493 183.127 49.0596 183.203 49.0567L183.856 49.1127L184.921 49.184C185.344 49.2145 185.823 49.3214 186.374 49.4028C190.339 50.0907 194.019 51.9131 196.967 54.6487C199.915 57.3844 202.004 60.9157 202.981 64.8139C203.057 65.1498 203.164 65.4858 203.225 65.8318C203.287 66.1779 203.327 66.524 203.383 66.8803C203.5 67.5923 203.565 68.3118 203.577 69.0331C203.657 70.5308 203.558 72.0327 203.282 73.5069C202.69 76.6696 201.365 79.6501 199.413 82.2099L199.346 82.2965L199.377 82.4034C200.057 84.921 200.767 87.5217 201.508 90.2056L201.819 89.9308L194.514 86.9941L194.402 86.9483L194.295 87.0145C191.162 89.0869 187.519 90.2595 183.764 90.4041C183.178 90.4245 182.591 90.4144 182.005 90.3736C181.423 90.363 180.843 90.3137 180.267 90.226C177.992 89.9511 175.783 89.2774 173.742 88.236C171.77 87.2393 169.961 85.9468 168.38 84.4035C166.897 82.8953 165.641 81.1811 164.649 79.314C163.728 77.5201 163.076 75.6014 162.712 73.6188C162.635 73.1099 162.559 72.6569 162.488 72.1785C162.416 71.7001 162.426 71.2217 162.391 70.7483C162.343 69.8154 162.357 68.8803 162.432 67.9491C162.709 64.8327 163.694 61.8204 165.311 59.1405C166.928 56.4606 169.135 54.1836 171.765 52.482C173.55 51.3031 175.514 50.4197 177.581 49.866L178.784 49.5453L179.864 49.3672L180.792 49.2145C181.078 49.184 181.338 49.1738 181.567 49.1585L182.622 49.0822C182.739 49.0791 182.855 49.0637 182.969 49.0364Z" fill="#455A64"/>
</svg>
