<svg width="551" height="456" viewBox="0 0 551 456" fill="none" xmlns="http://www.w3.org/2000/svg">
<circle cx="416.08" cy="421.778" r="33.3715" fill="#57C4C4"/>
<circle cx="182.48" cy="33.3715" r="33.3715" fill="#F4DCB3"/>
<path d="M497.267 208.438C497.522 208.706 497.749 209 497.942 209.316L499.636 211.843C501.04 213.984 502.97 216.959 505.076 220.258C507.182 223.557 509.068 226.567 510.411 228.752L511.99 231.384C512.195 231.695 512.371 232.024 512.517 232.367C512.262 232.099 512.035 231.805 511.841 231.489L510.156 228.962C508.744 226.813 506.813 223.838 504.707 220.539C502.601 217.239 500.724 214.23 499.372 212.045C498.741 211.009 498.214 210.132 497.802 209.412C497.589 209.108 497.41 208.781 497.267 208.438Z" fill="#E0E0E0"/>
<path d="M40.9161 178.105C41.0499 177.915 41.1645 177.712 41.2583 177.499L42.1357 175.744C42.8903 174.182 43.8907 171.901 45.1893 169.067C47.6988 163.407 50.9191 155.475 54.3675 146.683C57.816 137.891 60.9661 129.906 63.3615 124.202L66.2396 117.463C66.5555 116.709 66.8187 116.103 67.0205 115.629C67.12 115.418 67.1993 115.198 67.2575 114.971C67.1157 115.156 67.0005 115.36 66.9153 115.577L66.0378 117.332C65.2832 118.894 64.239 121.175 62.993 124C60.4835 129.669 57.2544 137.601 53.8147 146.393C50.3751 155.185 47.2075 163.135 44.7944 168.839L41.9164 175.578L41.1442 177.412C41.0401 177.632 40.9634 177.865 40.9161 178.105Z" fill="#E0E0E0"/>
<path d="M384.302 58.5419H494.924L473.285 73.9238V86.7698C473.237 93.1169 470.669 99.1848 466.147 103.639C461.626 108.093 455.52 110.569 449.173 110.523H379.757C373.41 110.569 367.304 108.093 362.782 103.639C358.26 99.1848 355.693 93.1169 355.644 86.7698C355.672 83.0344 356.435 79.3411 357.89 75.9007C359.345 72.4604 361.464 69.3404 364.125 66.7191C366.787 64.0977 369.938 62.0264 373.4 60.6233C376.862 59.2202 380.567 58.513 384.302 58.5419Z" fill="#F3F4F6"/>
<path d="M454.622 75.7136C454.622 75.8365 436.195 75.9418 413.381 75.9418C390.567 75.9418 372.14 75.8365 372.14 75.7136C372.14 75.5908 390.567 75.4855 413.381 75.4855C436.195 75.4855 454.622 75.582 454.622 75.7136Z" fill="#6B7280"/>
<path d="M454.622 84.2601C454.622 84.383 436.195 84.4883 413.381 84.4883C390.567 84.4883 372.14 84.383 372.14 84.2601C372.14 84.1373 390.567 84.032 413.381 84.032C436.195 84.032 454.622 84.1285 454.622 84.2601Z" fill="#6B7280"/>
<path d="M216.47 321.824H85.5701L106.892 337.25V367.522C106.892 368.353 107.056 369.175 107.374 369.942C107.692 370.709 108.158 371.406 108.746 371.993C109.334 372.58 110.031 373.045 110.799 373.362C111.566 373.679 112.389 373.841 113.219 373.84H216.47C217.3 373.841 218.123 373.679 218.89 373.362C219.658 373.045 220.355 372.58 220.943 371.993C221.53 371.406 221.997 370.709 222.315 369.942C222.633 369.175 222.796 368.353 222.796 367.522V328.142C222.794 326.466 222.126 324.859 220.94 323.674C219.754 322.49 218.146 321.824 216.47 321.824Z" fill="#F3F4F6"/>
<path d="M211.012 343.217C211.012 343.348 191.269 343.445 166.92 343.445C142.57 343.445 122.827 343.348 122.827 343.217C122.827 343.085 142.561 342.989 166.92 342.989C191.278 342.989 211.012 343.094 211.012 343.217Z" fill="#6B7280"/>
<path d="M211.012 354.843C211.012 354.966 191.269 355.071 166.92 355.071C142.57 355.071 122.827 354.966 122.827 354.843C122.827 354.72 142.561 354.615 166.92 354.615C191.278 354.615 211.012 354.72 211.012 354.843Z" fill="#6B7280"/>
<path d="M483.736 172.638H330.54C311.742 172.638 296.503 187.877 296.503 206.675V331.362C296.503 350.16 311.742 365.399 330.54 365.399H483.736C502.534 365.399 517.773 350.16 517.773 331.362V206.675C517.773 187.877 502.534 172.638 483.736 172.638Z" fill="#144A6C"/>
<path d="M483.736 172.638H330.54C311.742 172.638 296.503 187.877 296.503 206.675V331.362C296.503 350.16 311.742 365.399 330.54 365.399H483.736C502.534 365.399 517.773 350.16 517.773 331.362V206.675C517.773 187.877 502.534 172.638 483.736 172.638Z" fill="#57C4C4"/>
<path d="M517.711 239.834H550.853L516.966 273.731L517.711 239.834Z" fill="#144A6C"/>
<path d="M517.711 239.834H550.853L516.966 273.731L517.711 239.834Z" fill="#57C4C4"/>
<path d="M291.203 260.674L277.313 244.88C273.558 241.124 272.268 239.317 273.022 238.659C274.023 237.781 273.593 238.071 281.393 243.923C281.393 243.923 270.337 235.473 274.172 235.421C274.847 235.421 276.725 236.509 278.735 237.825C275.997 235.5 275.225 233.929 275.76 233.183C276.637 231.885 283.411 236.579 286.526 238.834C283.982 236.939 279.129 233.262 278.278 232.104C277.102 230.525 279.48 230.656 281.411 231.314C283.578 232.051 295.556 238.167 299.1 239.747C299.385 239.916 299.702 240.022 300.031 240.057C300.361 240.092 300.693 240.056 301.007 239.95C301.32 239.844 301.607 239.671 301.848 239.444C302.088 239.216 302.277 238.939 302.4 238.632C303.707 233.139 307.665 229.568 309.174 229.103C310.683 228.638 311.85 230.568 310.771 231.972C309.755 233.606 308.97 235.372 308.437 237.22C307.948 238.669 307.707 240.191 307.726 241.721C307.726 243.476 307.849 244.994 307.963 246.266L320.66 263.684L299.425 275.968L291.203 260.674Z" fill="#B78876"/>
<path d="M286.237 246.38C286.097 246.573 283.605 244.88 280.726 242.59C277.848 240.299 275.602 238.281 275.769 238.097C275.936 237.913 278.401 239.615 281.279 241.888C284.157 244.16 286.36 246.178 286.237 246.38Z" fill="#AA6550"/>
<path d="M288.922 243.607C288.782 243.809 286.053 242.142 282.824 239.896C279.594 237.649 277.085 235.658 277.225 235.465C277.366 235.272 280.095 236.921 283.324 239.167C286.553 241.414 289.062 243.406 288.922 243.607Z" fill="#AA6550"/>
<path d="M290.887 240.659C290.747 240.861 288.132 239.334 285.052 237.246C281.972 235.158 279.586 233.306 279.717 233.095C279.849 232.885 282.464 234.42 285.552 236.509C288.641 238.597 291.019 240.457 290.887 240.659Z" fill="#AA6550"/>
<path d="M309.147 248.627L359.759 312.804L348.168 339.786C348.168 339.786 334.287 336.715 330.075 330.871C325.863 325.027 291.203 260.674 291.203 260.674L309.147 248.627Z" fill="#B78876"/>
<path d="M437.625 158.845C441.267 162.004 441.258 167.567 440.837 172.366C440.416 177.166 440.091 182.633 443.417 186.125C446.163 189.003 451.138 190.258 451.77 194.18C451.92 195.102 451.78 196.047 451.371 196.886C450.961 197.725 450.302 198.417 449.484 198.866C448.665 199.315 447.728 199.5 446.8 199.394C445.872 199.289 445 198.899 444.303 198.278C445.373 201.375 444.636 205.245 441.951 207.123C439.266 209 434.765 207.842 433.931 204.675C434.068 205.203 434.094 205.755 434.008 206.294C433.921 206.833 433.725 207.349 433.431 207.809C433.137 208.269 432.751 208.664 432.297 208.968C431.844 209.272 431.332 209.48 430.795 209.578C430.258 209.676 429.706 209.662 429.174 209.537C428.642 209.412 428.142 209.179 427.705 208.853C427.267 208.526 426.901 208.113 426.631 207.638C426.36 207.164 426.19 206.639 426.131 206.096" fill="#263238"/>
<path d="M385.478 191.241C384.988 192.416 384.051 193.348 382.874 193.833C381.696 194.318 380.375 194.315 379.2 193.825C378.024 193.335 377.092 192.398 376.607 191.221C376.123 190.043 376.126 188.722 376.615 187.547C377.449 185.721 379.423 184.405 379.616 182.405C379.845 179.992 377.379 178.263 375.229 177.21C373.079 176.157 370.482 174.788 370.245 172.366C370.008 169.945 372.105 168.216 373.851 166.654C375.598 165.092 377.361 162.67 376.247 160.591C375.694 159.52 374.545 158.915 373.799 157.958C372.158 155.87 373.018 152.545 375.115 150.939C377.212 149.333 380.108 149.079 382.723 149.544C385.337 150.009 387.794 151.097 390.339 151.86C394.557 153.087 398.984 153.425 403.34 152.854C407.695 152.283 411.885 150.816 415.645 148.543" fill="#263238"/>
<path d="M401.018 247.828C405.551 248.743 410.262 247.839 414.135 245.311C418.007 242.782 420.731 238.833 421.717 234.315L434.168 177.227C434.945 173.931 435.054 170.512 434.487 167.173C433.919 163.834 432.689 160.643 430.867 157.788C429.045 154.933 426.669 152.472 423.88 150.551C421.09 148.63 417.944 147.288 414.627 146.604L413.328 146.411C406.985 145.478 400.523 146.97 395.23 150.588C389.937 154.206 386.201 159.685 384.767 165.934C381.994 177.982 379.09 191.328 378.212 197.883C376.396 211.457 389.619 215.546 389.619 215.546L387.242 226.953C386.77 229.226 386.752 231.569 387.189 233.849C387.626 236.129 388.509 238.299 389.788 240.237C391.066 242.174 392.715 243.84 394.639 245.138C396.563 246.436 398.725 247.341 401 247.802L401.018 247.828Z" fill="#B78876"/>
<path d="M387.206 174.92C387.129 175.423 387.251 175.937 387.546 176.353C387.84 176.769 388.285 177.054 388.786 177.148C389.029 177.204 389.28 177.21 389.525 177.167C389.77 177.124 390.004 177.032 390.214 176.897C390.423 176.762 390.603 176.587 390.744 176.381C390.884 176.176 390.982 175.945 391.032 175.701C391.114 175.198 390.995 174.682 390.702 174.266C390.408 173.849 389.963 173.564 389.462 173.472C389.218 173.417 388.966 173.41 388.721 173.453C388.475 173.496 388.24 173.588 388.03 173.723C387.82 173.857 387.639 174.033 387.498 174.238C387.356 174.444 387.257 174.675 387.206 174.92Z" fill="#263238"/>
<path d="M386.706 172.989C386.908 173.279 388.531 172.402 390.62 172.717C392.708 173.033 394.068 174.288 394.331 174.069C394.463 173.972 394.279 173.481 393.691 172.902C392.881 172.145 391.858 171.658 390.76 171.507C389.678 171.343 388.572 171.527 387.601 172.033C386.891 172.437 386.61 172.858 386.706 172.989Z" fill="#263238"/>
<path d="M407.555 178.254C407.475 178.758 407.596 179.273 407.891 179.69C408.186 180.106 408.632 180.391 409.134 180.483C409.378 180.538 409.63 180.544 409.875 180.5C410.121 180.457 410.355 180.364 410.565 180.228C410.774 180.093 410.954 179.916 411.094 179.71C411.234 179.503 411.332 179.271 411.381 179.026C411.46 178.523 411.339 178.009 411.044 177.594C410.748 177.179 410.302 176.896 409.801 176.806C409.558 176.75 409.307 176.743 409.061 176.785C408.815 176.828 408.581 176.919 408.371 177.054C408.162 177.19 407.981 177.365 407.841 177.571C407.701 177.777 407.604 178.01 407.555 178.254Z" fill="#263238"/>
<path d="M407.116 176.376C407.318 176.657 408.941 175.789 411.021 176.104C413.1 176.42 414.478 177.675 414.741 177.456C414.864 177.359 414.689 176.868 414.092 176.289C413.282 175.532 412.259 175.045 411.161 174.893C410.079 174.73 408.973 174.914 408.002 175.42C407.327 175.797 407.011 176.245 407.116 176.376Z" fill="#263238"/>
<path d="M397.297 190.714C397.297 190.591 396.06 190.179 394.007 189.609C393.48 189.477 392.998 189.293 392.963 188.915C392.999 188.363 393.2 187.834 393.542 187.397C394.238 186.186 394.96 184.914 395.709 183.58C398.736 178.131 400.974 173.63 400.79 173.507C400.605 173.384 397.938 177.701 394.911 183.159L392.805 187.002C392.379 187.599 392.175 188.325 392.226 189.056C392.279 189.25 392.376 189.429 392.508 189.581C392.64 189.733 392.804 189.853 392.989 189.933C393.27 190.054 393.565 190.139 393.866 190.188C394.984 190.505 396.136 190.682 397.297 190.714Z" fill="#263238"/>
<path d="M407.765 168.137C407.888 168.734 410.012 168.769 412.407 169.418C414.803 170.067 416.68 171.024 417.084 170.567C417.26 170.348 416.996 169.76 416.286 169.102C415.321 168.274 414.18 167.676 412.95 167.355C411.72 167.035 410.433 166.999 409.187 167.251C408.204 167.479 407.722 167.9 407.765 168.137Z" fill="#263238"/>
<path d="M388.356 167.075C388.654 167.602 390.111 167.321 391.866 167.549C393.621 167.777 395.007 168.339 395.376 167.891C395.56 167.672 395.376 167.163 394.832 166.619C394.053 165.957 393.094 165.542 392.079 165.426C391.063 165.31 390.036 165.5 389.128 165.97C388.496 166.364 388.224 166.821 388.356 167.075Z" fill="#263238"/>
<path d="M421.638 160.213L421.699 160.284C423.611 162.301 424.668 164.98 424.648 167.76V168.032C424.648 171.98 423.937 175.929 423.946 179.834C423.955 183.738 424.709 187.897 427.175 190.969C428.184 192.241 430.149 193.294 431.299 192.153C431.704 191.668 431.962 191.077 432.045 190.451C434.133 181.229 437.889 173.332 439.301 163.574C439.497 162.268 439.379 160.934 438.956 159.683C438.533 158.431 437.819 157.299 436.871 156.379C435.046 154.624 432.773 152.729 430.342 153.475C427.912 154.22 424.358 158.037 422.331 159.617" fill="#263238"/>
<path d="M428.702 182.685C428.947 182.615 438.415 181.29 436.757 190.512C435.098 199.734 426.227 196.172 426.227 195.9C426.227 195.628 428.702 182.685 428.702 182.685Z" fill="#B78876"/>
<path d="M429.667 192.916C429.667 192.916 429.807 193.057 430.053 193.224C430.407 193.458 430.838 193.546 431.255 193.469C432.29 193.285 433.387 191.89 433.729 190.231C433.906 189.449 433.906 188.636 433.729 187.853C433.693 187.55 433.584 187.26 433.411 187.008C433.239 186.756 433.008 186.549 432.738 186.406C432.562 186.323 432.363 186.305 432.175 186.354C431.987 186.404 431.823 186.519 431.711 186.678C431.545 186.906 431.571 187.108 431.518 187.108C431.466 187.108 431.352 186.923 431.518 186.555C431.609 186.336 431.774 186.156 431.983 186.046C432.271 185.899 432.605 185.871 432.913 185.967C433.281 186.113 433.605 186.351 433.854 186.659C434.102 186.966 434.268 187.332 434.335 187.722C434.578 188.579 434.611 189.482 434.431 190.354C434.037 192.206 432.773 193.768 431.378 193.917C431.117 193.944 430.852 193.913 430.605 193.825C430.357 193.737 430.133 193.594 429.948 193.408C429.641 193.136 429.632 192.925 429.667 192.916Z" fill="#AA6550"/>
<path d="M430.448 154.958C433.273 151.579 427.815 145.349 423.428 143.235C419.041 141.12 412.723 142.471 407.95 143.314C404.94 143.849 401.886 144.761 398.885 144.191C396.894 143.693 394.989 142.897 393.235 141.831C391.475 140.784 389.524 140.1 387.496 139.821C386.476 139.696 385.441 139.851 384.502 140.27C383.564 140.689 382.757 141.356 382.17 142.199C381.126 143.954 381.854 146.701 383.819 147.271C383.227 146.821 382.534 146.522 381.801 146.399C381.068 146.276 380.315 146.332 379.608 146.564C378.902 146.795 378.262 147.195 377.743 147.728C377.225 148.261 376.843 148.912 376.632 149.625C376.42 150.338 376.384 151.092 376.528 151.821C376.672 152.551 376.99 153.235 377.456 153.815C377.922 154.394 378.522 154.852 379.204 155.149C379.886 155.446 380.63 155.573 381.371 155.519C380.204 154.326 377.94 155.686 377.861 157.353C377.782 159.02 379.099 160.433 380.494 161.319C384.1 163.583 388.681 163.697 392.875 162.942C397.069 162.188 401.088 160.626 405.265 159.766C409.441 158.906 416.452 157.274 420.225 159.266C422.998 160.722 424.525 164.531 426.289 164.013C427.124 163.705 427.876 163.207 428.485 162.558C429.094 161.91 429.544 161.128 429.798 160.275C430.274 158.563 430.472 156.785 430.386 155.01" fill="#263238"/>
<path d="M448.497 197.734C448.67 197.694 448.833 197.623 448.98 197.523C449.414 197.244 449.76 196.849 449.98 196.382C450.32 195.636 450.424 194.803 450.278 193.996C450.051 192.934 449.469 191.981 448.629 191.293C447.632 190.472 446.509 189.818 445.303 189.354C443.948 188.859 442.646 188.23 441.416 187.476C440.127 186.571 439.145 185.295 438.599 183.817C438 182.226 437.722 180.532 437.783 178.833C437.871 175.323 438.845 172.033 439.082 168.935C439.319 165.838 438.924 162.934 437.608 160.924C436.618 159.308 435.049 158.131 433.221 157.634C432.73 157.51 432.225 157.46 431.72 157.485C431.545 157.487 431.371 157.514 431.202 157.564C431.868 157.559 432.532 157.642 433.177 157.809C434.915 158.359 436.39 159.53 437.318 161.1C438.538 163.048 438.959 165.873 438.652 168.9C438.345 171.928 437.406 175.218 437.301 178.824C437.245 180.586 437.543 182.34 438.178 183.984C438.765 185.545 439.815 186.889 441.188 187.836C442.447 188.592 443.779 189.221 445.163 189.714C446.336 190.149 447.435 190.765 448.418 191.539C449.22 192.173 449.788 193.056 450.033 194.048C450.193 194.804 450.119 195.591 449.822 196.303C449.551 196.914 449.085 197.417 448.497 197.734Z" fill="#455A64"/>
<path d="M383.521 147.051C383.398 146.959 383.262 146.885 383.117 146.832C382.954 146.751 382.783 146.684 382.609 146.63C382.366 146.547 382.116 146.486 381.863 146.446C381.03 146.315 380.179 146.374 379.374 146.621C378.568 146.867 377.829 147.293 377.212 147.868C376.587 148.628 376.12 149.506 375.837 150.449C375.554 151.392 375.46 152.381 375.563 153.36C375.68 154.577 376.041 155.757 376.623 156.832C377.204 157.906 377.996 158.853 378.95 159.617C381.143 161.383 383.813 162.456 386.619 162.697C389.665 162.959 392.734 162.772 395.727 162.144C400.472 161.214 405.017 159.456 409.152 156.949C410.924 155.853 412.778 154.894 414.697 154.08C416.371 153.401 418.156 153.035 419.962 153.001C422.59 152.944 425.191 153.547 427.526 154.756C428.37 155.228 429.187 155.746 429.974 156.309C429.271 155.618 428.477 155.028 427.614 154.554C425.273 153.249 422.633 152.575 419.953 152.597C418.103 152.611 416.271 152.965 414.548 153.641C412.609 154.454 410.735 155.413 408.941 156.511C404.835 158.965 400.334 160.69 395.639 161.609C392.69 162.233 389.666 162.425 386.662 162.179C383.943 161.953 381.35 160.927 379.213 159.231C378.293 158.504 377.528 157.601 376.962 156.575C376.395 155.549 376.039 154.42 375.914 153.255C375.806 152.321 375.884 151.376 376.143 150.472C376.402 149.569 376.837 148.725 377.423 147.99C378.008 147.432 378.71 147.011 379.478 146.757C380.246 146.504 381.06 146.424 381.863 146.525C382.43 146.649 382.986 146.826 383.521 147.051Z" fill="#455A64"/>
<path d="M388.654 139.374C388.623 140.079 388.733 140.783 388.979 141.445C389.664 143.273 390.943 144.818 392.612 145.832C393.733 146.563 394.979 147.08 396.288 147.359C397.789 147.661 399.327 147.741 400.851 147.596C404.071 147.359 407.441 146.253 410.977 145.341C414.513 144.428 418.049 143.945 421.103 144.762C423.813 145.48 426.223 147.044 427.982 149.228C429.192 150.678 430.088 152.363 430.614 154.177C430.965 155.467 431.009 156.221 431.071 156.212C431.083 156.031 431.083 155.85 431.071 155.668C431.023 155.151 430.938 154.638 430.816 154.133C430.348 152.262 429.477 150.516 428.263 149.017C426.487 146.744 424.025 145.104 421.243 144.34C418.084 143.463 414.452 143.963 410.898 144.884C407.344 145.806 404.001 146.911 400.851 147.166C399.367 147.319 397.868 147.257 396.402 146.981C395.134 146.723 393.922 146.242 392.822 145.56C391.195 144.601 389.921 143.142 389.19 141.401C388.955 140.741 388.776 140.063 388.654 139.374Z" fill="#455A64"/>
<path d="M393.138 197.602C393.254 198.508 393.493 199.394 393.849 200.235C394.035 200.65 394.307 201.021 394.648 201.324C394.988 201.626 395.389 201.853 395.823 201.99C396.294 202.087 396.781 202.065 397.241 201.925C397.701 201.786 398.118 201.533 398.455 201.191C399.128 200.482 399.561 199.58 399.693 198.611C399.833 197.734 399.693 196.637 398.815 196.356C398.461 196.268 398.09 196.268 397.736 196.356L392.875 197.234" fill="#AA6550"/>
<path d="M393.989 201.287C394.762 201.585 395.583 201.739 396.411 201.744C397.268 201.693 398.076 201.324 398.675 200.708C399.029 200.332 399.298 199.884 399.466 199.396C399.634 198.907 399.696 198.389 399.649 197.874C399.623 197.61 399.564 197.351 399.473 197.102C399.359 196.865 399.394 196.883 399.193 196.856C398.991 196.83 398.675 196.856 398.412 196.9L397.596 196.962C396.543 197.04 395.595 197.102 394.796 197.146C393.922 197.267 393.033 197.25 392.164 197.093C392.985 196.794 393.845 196.616 394.718 196.567C395.507 196.453 396.472 196.339 397.499 196.216L398.306 196.128C398.597 196.085 398.89 196.059 399.184 196.049C399.416 196.055 399.64 196.135 399.824 196.277C399.988 196.422 400.112 196.606 400.184 196.812C400.303 197.128 400.38 197.459 400.412 197.795C400.47 198.427 400.387 199.063 400.17 199.66C399.953 200.256 399.608 200.797 399.157 201.244C398.409 201.956 397.409 202.344 396.376 202.323C395.701 202.326 395.039 202.14 394.463 201.788C394.165 201.542 393.963 201.322 393.989 201.287Z" fill="#263238"/>
<path d="M389.637 215.546C389.637 215.546 398.482 218.898 407.09 216.424C407.09 216.424 400.596 221.873 388.751 219.784L389.637 215.546Z" fill="#AA6550"/>
<path d="M403.132 341.348C402.706 341.069 402.301 340.758 401.921 340.418C401.544 340.111 401.044 339.733 400.509 339.33C399.973 338.926 399.324 338.452 398.578 337.97C397.833 337.487 397.06 336.961 396.157 336.46C395.253 335.96 394.296 335.434 393.27 334.907C388.768 332.692 383.928 331.245 378.95 330.625C377.8 330.502 376.712 330.362 375.685 330.336C374.659 330.309 373.702 330.266 372.834 330.274C371.965 330.283 371.166 330.327 370.473 330.353C369.78 330.38 369.183 330.432 368.718 330.485C368.216 330.562 367.708 330.597 367.2 330.59C367.694 330.464 368.195 330.37 368.701 330.309C369.282 330.21 369.868 330.14 370.456 330.099C371.149 330.046 371.939 329.95 372.825 329.95C373.711 329.95 374.667 329.897 375.703 329.95C376.738 330.002 377.844 330.09 379.002 330.195C381.513 330.508 383.995 331.018 386.425 331.722C388.837 332.463 391.185 333.399 393.445 334.521C394.472 335.065 395.463 335.565 396.332 336.127C397.201 336.689 398.026 337.189 398.745 337.698C399.465 338.207 400.096 338.698 400.649 339.119C401.202 339.54 401.658 339.944 402.018 340.277C402.419 340.603 402.791 340.961 403.132 341.348Z" fill="#FAFAFA"/>
<path d="M351.564 296.281L358.759 265.105C361.514 253.382 364.779 242.116 370.263 240.782V244.406L367.911 333.477C367.911 333.477 353.249 350.149 334.567 340.9C328.724 337.996 318.062 317.595 318.062 317.595C318.062 317.595 293.257 273.336 294.292 271.326C295.327 269.317 310.481 249.785 312.026 248.811L351.564 296.281Z" fill="#144A6C"/>
<path d="M425.604 231.955C439.907 234.692 456.008 243.037 463.423 264.421C466.125 272.23 485.816 329.8 485.816 329.8L452.235 329.098L446.812 317.244L449.445 336.504L451.717 363.969L366.92 365.399L367.516 324.018L368.332 241.712C368.332 241.712 369.28 240.466 383.907 232.402C392.98 227.392 425.604 231.955 425.604 231.955Z" fill="#144A6C"/>
<g opacity="0.2">
<path opacity="0.2" d="M434.063 287.007C435.458 304.38 437.055 309.751 438.45 327.124C438.483 328.769 438.78 330.399 439.328 331.95C439.621 332.722 440.091 333.414 440.701 333.97C441.31 334.526 442.042 334.932 442.838 335.153C445.312 335.653 448.523 337.443 449.217 335.021L446.874 318.288C446.37 315.854 445.593 313.484 444.557 311.225C439.354 299.668 437.432 298.993 434.028 287.007" fill="black"/>
</g>
<path d="M383.898 241.309L384.179 239.501L386.891 222.162C386.969 221.658 387.235 221.203 387.635 220.887C388.036 220.571 388.541 220.419 389.049 220.46L422.437 223.25C423.445 223.333 424.38 223.811 425.037 224.581C425.695 225.35 426.022 226.348 425.946 227.357L425.201 237.43L414.776 251.031L399.763 253.374" fill="#144A6C"/>
<path d="M367.13 273.906C367.262 273.906 367.358 287.489 367.358 304.24C367.358 320.991 367.262 334.574 367.13 334.574C366.999 334.574 366.902 320.991 366.902 304.24C366.902 287.489 367.007 273.906 367.13 273.906Z" fill="#263238"/>
<path d="M452.955 331.889C452.955 331.889 452.955 331.827 452.849 331.696C452.744 331.564 452.683 331.345 452.569 331.099L451.551 328.791L447.892 320.271L435.967 292.096C433.651 286.586 431.448 281.338 429.447 276.556C428.436 274.316 427.711 271.958 427.289 269.536C426.919 267.421 426.725 265.278 426.71 263.131C426.598 260.019 427.05 256.913 428.044 253.961L428.316 253.233L428.623 252.619C428.767 252.292 428.943 251.981 429.149 251.689L429.518 251.145C429.56 251.083 429.607 251.024 429.658 250.969C429.081 251.94 428.596 252.962 428.21 254.023C427.292 256.968 426.894 260.05 427.034 263.131C427.049 267.707 428.002 272.231 429.834 276.425L436.388 291.947L448.19 320.175L451.7 328.748L452.639 331.09L452.876 331.705C452.908 331.763 452.934 331.825 452.955 331.889Z" fill="#263238"/>
<path d="M436.011 235.017C435.704 235.329 435.379 235.622 435.037 235.895C434.05 236.647 432.975 237.275 431.834 237.764C430.028 238.517 428.136 239.048 426.201 239.343C423.643 239.74 421.065 239.995 418.479 240.106C415.601 240.229 412.46 240.177 409.09 240.238C405.511 240.232 401.945 240.668 398.473 241.537C394.626 242.446 391.145 244.498 388.488 247.424C387.164 249.018 386.216 250.889 385.715 252.9C385.179 254.962 385.216 257.131 385.82 259.174C386.156 260.182 386.65 261.13 387.285 261.982C387.925 262.808 388.732 263.49 389.655 263.982C390.549 264.472 391.569 264.686 392.585 264.596C393.579 264.494 394.499 264.025 395.165 263.28C395.758 262.497 396.18 261.598 396.404 260.641C396.628 259.684 396.648 258.691 396.464 257.726C396.318 256.773 396.022 255.849 395.586 254.988C395.153 254.149 394.633 253.358 394.033 252.628C391.688 249.925 388.529 248.056 385.03 247.302C381.999 246.587 378.84 246.623 375.826 247.407C373.347 248.048 370.98 249.063 368.806 250.417C367.151 251.449 365.589 252.623 364.138 253.926C362.936 254.979 362.085 255.892 361.506 256.489L360.856 257.191C360.785 257.274 360.706 257.351 360.619 257.419C361.652 256.113 362.797 254.901 364.041 253.795C365.478 252.466 367.035 251.273 368.692 250.232C370.887 248.836 373.284 247.788 375.799 247.126C378.863 246.304 382.081 246.25 385.171 246.968C388.76 247.725 392.003 249.632 394.41 252.4C395.024 253.132 395.559 253.926 396.007 254.769C396.45 255.673 396.746 256.641 396.885 257.638C397.038 258.655 397.02 259.69 396.832 260.7C396.643 261.752 396.18 262.736 395.49 263.552C394.752 264.38 393.732 264.903 392.629 265.018C391.523 265.123 390.41 264.893 389.435 264.359C388.456 263.836 387.598 263.113 386.917 262.236C386.247 261.343 385.726 260.347 385.373 259.288C384.742 257.165 384.706 254.91 385.267 252.768C385.779 250.687 386.761 248.751 388.137 247.109C390.859 244.123 394.418 242.028 398.35 241.098C401.862 240.239 405.467 239.821 409.082 239.852C412.46 239.799 415.601 239.852 418.462 239.773C421.038 239.683 423.607 239.452 426.157 239.08C428.081 238.804 429.965 238.303 431.773 237.588C432.907 237.128 433.984 236.539 434.984 235.833C435.335 235.596 435.572 235.377 435.748 235.254C435.828 235.167 435.916 235.087 436.011 235.017Z" fill="#FAFAFA"/>
<path d="M465.029 271.537C464.906 271.572 464.779 271.592 464.651 271.599C464.406 271.599 464.046 271.66 463.572 271.678C462.246 271.721 460.919 271.689 459.597 271.581C457.921 271.458 455.938 271.204 453.744 270.897C451.551 270.59 449.146 270.265 446.602 270.133C444.222 270.004 441.836 270.184 439.503 270.668C437.595 271.056 435.764 271.753 434.08 272.731C432.556 273.663 431.202 274.85 430.079 276.24C430.127 276.123 430.192 276.014 430.272 275.916C430.457 275.606 430.669 275.312 430.904 275.038C431.754 274 432.771 273.11 433.914 272.406C435.608 271.371 437.465 270.629 439.407 270.212C441.777 269.695 444.206 269.5 446.628 269.633C449.199 269.765 451.612 270.116 453.806 270.44C455.999 270.765 457.965 271.055 459.623 271.213C461.282 271.37 462.642 271.441 463.572 271.449C464.059 271.449 464.545 271.478 465.029 271.537Z" fill="#FAFAFA"/>
<path d="M443.943 310.874C442.293 310.49 440.597 310.345 438.906 310.444C436.923 310.578 434.961 310.928 433.054 311.488C430.816 312.093 428.315 312.98 425.508 313.848C422.459 314.882 419.268 315.436 416.049 315.489C412.342 315.488 408.674 314.727 405.273 313.252C401.494 311.654 398.132 309.211 395.446 306.109C393.993 304.488 392.808 302.646 391.936 300.651C391.008 298.587 390.659 296.309 390.927 294.061C391.232 291.796 392.337 289.714 394.042 288.191C394.888 287.453 395.904 286.934 396.999 286.682C398.07 286.455 399.18 286.486 400.237 286.771C401.294 287.056 402.268 287.588 403.08 288.323C403.873 289.05 404.424 290.002 404.659 291.052C404.886 292.079 404.804 293.151 404.422 294.132C404.053 295.074 403.495 295.932 402.781 296.65C401.421 298.013 399.776 299.059 397.964 299.712C397.111 300.036 396.23 300.28 395.332 300.441C394.893 300.52 394.454 300.616 394.024 300.678L392.717 300.835C389.511 301.153 386.274 300.925 383.144 300.16C380.563 299.545 378.075 298.589 375.747 297.317C373.986 296.366 372.335 295.224 370.824 293.912L369.947 293.149L369.227 292.421C368.839 292.053 368.476 291.66 368.139 291.245L367.507 290.49C367.435 290.408 367.371 290.32 367.314 290.227C367.399 290.3 367.478 290.379 367.551 290.464L368.209 291.183C368.557 291.586 368.929 291.967 369.324 292.324L370.052 293.035L370.929 293.781C372.447 295.056 374.098 296.165 375.852 297.089C378.168 298.326 380.638 299.253 383.196 299.844C386.295 300.582 389.496 300.79 392.664 300.458L393.945 300.3C394.375 300.23 394.823 300.134 395.244 300.055C396.122 299.896 396.982 299.655 397.815 299.335C399.567 298.697 401.158 297.681 402.474 296.36C403.145 295.681 403.671 294.872 404.019 293.983C404.363 293.079 404.439 292.094 404.238 291.148C403.978 290.182 403.459 289.305 402.736 288.612C402.014 287.919 401.117 287.437 400.14 287.217C399.14 286.929 398.084 286.899 397.069 287.131C396.055 287.362 395.116 287.848 394.34 288.542C392.715 289.99 391.666 291.974 391.383 294.132C391.132 296.295 391.465 298.485 392.348 300.476C393.198 302.424 394.346 304.227 395.753 305.819C398.393 308.864 401.695 311.265 405.405 312.839C408.752 314.3 412.362 315.064 416.014 315.085C419.2 315.046 422.361 314.513 425.385 313.506C428.184 312.629 430.65 311.804 432.957 311.216C434.884 310.674 436.864 310.348 438.863 310.242C439.59 310.196 440.32 310.196 441.047 310.242C441.67 310.338 442.206 310.382 442.627 310.479L443.583 310.716C443.71 310.751 443.831 310.805 443.943 310.874Z" fill="#FAFAFA"/>
<path d="M366.84 301.511C366.762 301.511 366.358 300.634 365.507 299.16C363.279 295.419 360.032 292.39 356.144 290.429C354.653 289.674 353.67 289.341 353.696 289.262C353.943 289.283 354.185 289.339 354.416 289.429C355.054 289.619 355.679 289.853 356.285 290.131C358.295 291.047 360.144 292.283 361.76 293.79C363.379 295.295 364.74 297.055 365.788 299.002C366.119 299.584 366.412 300.188 366.665 300.809C366.754 301.034 366.813 301.27 366.84 301.511Z" fill="#FAFAFA"/>
<path d="M332.795 339.067C332.795 339.067 332.734 338.996 332.655 338.847C332.576 338.698 332.444 338.461 332.295 338.189C331.979 337.61 331.523 336.741 330.961 335.618C329.331 332.447 327.986 329.138 326.942 325.729C326.244 323.361 325.823 320.92 325.688 318.455C325.618 317.078 325.673 315.698 325.854 314.331C326.072 312.884 326.419 311.46 326.89 310.075C327.914 307.081 329.687 304.399 332.04 302.283C333.297 301.13 334.775 300.244 336.384 299.678C337.994 299.113 339.701 298.879 341.403 298.993C343.172 299.125 344.823 299.929 346.018 301.239C346.587 301.887 347 302.656 347.227 303.488C347.453 304.32 347.487 305.192 347.326 306.039C347.136 306.87 346.702 307.624 346.08 308.206C345.471 308.763 344.737 309.164 343.939 309.373C342.394 309.775 340.755 309.578 339.35 308.82C338.046 308.117 336.907 307.145 336.006 305.969C335.143 304.879 334.432 303.678 333.892 302.397C332.942 300.1 332.548 297.61 332.742 295.132C332.92 293.087 333.517 291.1 334.497 289.297C335.224 287.936 336.153 286.693 337.252 285.612C337.94 284.925 338.696 284.311 339.508 283.778C339.78 283.593 340.008 283.479 340.157 283.392L340.385 283.277C340.385 283.277 340.104 283.479 339.56 283.857C338.777 284.415 338.045 285.044 337.375 285.734C336.324 286.826 335.437 288.064 334.743 289.411C333.81 291.192 333.252 293.145 333.102 295.15C332.932 297.58 333.341 300.015 334.295 302.257C334.828 303.499 335.525 304.665 336.366 305.723C337.239 306.849 338.339 307.779 339.595 308.452C340.907 309.158 342.437 309.34 343.877 308.961C344.616 308.788 345.293 308.415 345.833 307.882C346.373 307.35 346.756 306.678 346.94 305.942C347.079 305.167 347.042 304.37 346.833 303.611C346.623 302.852 346.246 302.149 345.729 301.555C344.609 300.334 343.064 299.586 341.412 299.467C339.772 299.358 338.128 299.583 336.577 300.128C335.027 300.672 333.603 301.525 332.391 302.634C330.094 304.7 328.359 307.314 327.346 310.233C326.873 311.588 326.523 312.983 326.302 314.401C326.12 315.744 326.058 317.101 326.117 318.455C326.24 320.894 326.641 323.311 327.311 325.659C328.322 329.059 329.613 332.37 331.172 335.557L332.426 338.189C332.558 338.47 332.663 338.698 332.751 338.873C332.839 339.049 332.795 339.067 332.795 339.067Z" fill="#FAFAFA"/>
<path d="M321.958 261.604C321.958 261.604 322.002 261.727 322.037 261.964C322.099 262.318 322.143 262.676 322.169 263.035C322.285 264.345 322.285 265.664 322.169 266.974C321.814 271.339 320.322 275.534 317.84 279.141C315.358 282.749 311.974 285.642 308.024 287.533C306.842 288.11 305.612 288.583 304.348 288.946C303.909 289.086 303.549 289.148 303.312 289.209C303.075 289.271 302.944 289.279 302.944 289.262C303.383 289.072 303.835 288.911 304.295 288.779C305.526 288.352 306.725 287.839 307.884 287.244C311.728 285.302 315.022 282.425 317.463 278.876C319.904 275.328 321.414 271.223 321.853 266.939C321.991 265.645 322.041 264.344 322.002 263.043C321.957 262.565 321.942 262.084 321.958 261.604Z" fill="#FAFAFA"/>
<path d="M472.706 299.651C471.401 300.469 470.254 301.515 469.319 302.74C468.442 303.872 467.564 305.372 466.573 306.952C465.485 308.72 464.231 310.38 462.826 311.909C460.257 314.684 457.211 316.976 453.832 318.674C452.815 319.189 451.766 319.638 450.691 320.017C450.299 320.171 449.893 320.288 449.48 320.368C449.843 320.16 450.225 319.987 450.621 319.85C451.358 319.526 452.428 319.069 453.683 318.385C456.962 316.623 459.926 314.331 462.458 311.602C463.848 310.097 465.096 308.467 466.187 306.732C467.059 305.282 468.011 303.882 469.039 302.538C469.752 301.637 470.602 300.852 471.557 300.213C471.816 300.041 472.089 299.891 472.373 299.765C472.601 299.677 472.706 299.633 472.706 299.651Z" fill="#FAFAFA"/>
<path d="M425.288 233.008C425.16 233.063 425.024 233.098 424.885 233.113L423.718 233.324C422.7 233.49 421.226 233.71 419.409 233.955C415.759 234.447 410.705 235.026 405.098 235.438C402.473 235.678 399.836 235.772 397.201 235.719C395.027 235.666 392.872 235.297 390.804 234.622C389.408 234.17 388.091 233.504 386.899 232.648C386.574 232.419 386.263 232.17 385.969 231.902C385.776 231.709 385.68 231.613 385.688 231.595C385.697 231.578 386.145 231.946 386.996 232.473C388.208 233.252 389.522 233.86 390.901 234.28C392.95 234.904 395.077 235.235 397.218 235.263C399.854 235.291 402.49 235.186 405.115 234.947C410.705 234.535 415.759 234.017 419.409 233.604L423.735 233.113C424.25 233.042 424.769 233.007 425.288 233.008Z" fill="#263238"/>
<path d="M485.421 336.013C486.081 339.408 485.987 342.906 485.144 346.26C484.302 349.614 482.732 352.742 480.545 355.421C478.359 358.1 475.61 360.266 472.493 361.765C469.377 363.263 465.968 364.058 462.51 364.092L396.043 363.355L397.797 341.831L454.71 333.284" fill="#B78876"/>
<path d="M401.869 342.77C401.562 342.866 397.727 341.146 394.288 339.558C390.639 337.868 386.633 337.091 382.617 337.294L366.77 338.101C366.77 338.101 367.744 340.734 369.403 341.611C371.061 342.489 381.003 342.77 381.003 342.77L380.494 343.287C378.415 345.428 375.58 346.669 372.597 346.744H371.079C369.955 346.655 368.845 346.438 367.771 346.095L363.866 344.516C362.681 343.989 361.435 344.068 360.918 345.262C360.4 346.455 360.795 347.824 364.024 349.447C365.823 350.325 372.509 352.667 372.509 352.667C372.555 353.619 372.687 354.565 372.904 355.493C373.193 356.467 375.817 357.441 375.817 357.441C376.499 358.885 377.279 360.28 378.151 361.617C378.458 361.968 380.836 362.714 383.372 363.425C387.46 364.569 391.788 364.536 395.858 363.329L401.895 361.521V343.094" fill="#B78876"/>
<path d="M380.195 354.8C377.403 354.729 374.666 354.008 372.202 352.694C372.202 352.588 373.957 353.255 376.177 353.826C378.397 354.396 380.204 354.668 380.195 354.8Z" fill="#AA6550"/>
<path d="M379.634 358.494C378.89 358.648 378.118 358.59 377.405 358.327C376.661 358.19 375.968 357.85 375.405 357.344C376.122 357.487 376.826 357.69 377.51 357.95C378.231 358.076 378.941 358.258 379.634 358.494Z" fill="#AA6550"/>
<path d="M382.53 341.339C382.183 341.827 381.773 342.267 381.31 342.647C380.259 343.65 379.099 344.533 377.853 345.279C376.596 346.012 375.231 346.54 373.808 346.841C373.236 346.994 372.644 347.059 372.053 347.034C374.014 346.583 375.908 345.878 377.686 344.937C378.905 344.202 380.064 343.372 381.152 342.454C381.577 342.042 382.038 341.669 382.53 341.339Z" fill="#AA6550"/>
<path d="M403.483 339.883L401.869 364.223H464.476C468.727 364.226 472.898 363.071 476.541 360.88C480.664 358.403 483.924 354.715 485.877 350.319C487.83 345.923 488.382 341.032 487.456 336.311C486.556 331.689 485.204 327.166 483.42 322.807L451.937 327.993L452.946 331.907L403.483 339.883Z" fill="#144A6C"/>
<path d="M467.45 329.862C467.243 329.922 467.032 329.969 466.819 330.002L464.985 330.336L458.219 331.459L435.967 334.969L413.688 338.382L406.932 339.365L405.089 339.611C404.874 339.64 404.657 339.658 404.44 339.663C404.647 339.591 404.862 339.541 405.08 339.514L406.905 339.189L413.644 338.057L435.897 334.548L458.219 331.108L464.976 330.125L466.819 329.879C467.028 329.851 467.24 329.845 467.45 329.862Z" fill="#263238"/>
<path d="M435.405 364.241C435.291 364.241 435.783 362.486 435.844 359.617C435.858 358.837 435.825 358.058 435.748 357.283C435.672 356.398 435.543 355.519 435.362 354.65C434.927 352.648 434.243 350.708 433.326 348.877C432.387 347.053 431.238 345.345 429.904 343.787L429.026 342.761C428.728 342.427 428.403 342.138 428.105 341.839C427.517 341.234 426.894 340.751 426.35 340.286C424.112 338.531 422.524 337.654 422.577 337.575C422.965 337.73 423.338 337.921 423.691 338.145C424.128 338.373 424.55 338.628 424.955 338.909C425.42 339.242 425.999 339.567 426.552 340.04C427.184 340.514 427.787 341.023 428.359 341.567C428.666 341.866 429.009 342.146 429.316 342.445L430.272 343.48C431.647 345.049 432.825 346.778 433.782 348.631C434.711 350.501 435.395 352.483 435.818 354.527C435.998 355.422 436.115 356.328 436.169 357.239C436.225 358.027 436.225 358.819 436.169 359.608C436.152 360.263 436.093 360.917 435.993 361.565C435.945 362.053 435.86 362.537 435.739 363.012C435.663 363.431 435.552 363.842 435.405 364.241Z" fill="#FAFAFA"/>
<path d="M473.522 362.407C472.545 362.401 471.57 362.286 470.618 362.065C469.495 361.807 468.406 361.422 467.371 360.915C466 360.233 464.761 359.312 463.712 358.195C462.44 356.826 461.516 355.171 461.019 353.369C460.741 352.368 460.585 351.337 460.553 350.298C460.49 349.2 460.579 348.099 460.817 347.025C461.051 345.882 461.491 344.791 462.115 343.805C462.766 342.759 463.672 341.896 464.748 341.295C465.86 340.647 467.139 340.341 468.424 340.418C469.085 340.464 469.73 340.643 470.319 340.944C470.909 341.246 471.431 341.664 471.855 342.173C472.294 342.675 472.623 343.262 472.823 343.898C473.022 344.534 473.087 345.205 473.013 345.867C472.906 346.51 472.656 347.121 472.283 347.655C471.909 348.189 471.422 348.633 470.855 348.956C468.731 350.068 466.285 350.403 463.941 349.903C460.612 349.385 457.57 347.718 455.341 345.193C453.112 342.667 451.836 339.441 451.735 336.074C451.679 335.097 451.762 334.116 451.981 333.161C451.9 334.127 451.876 335.097 451.91 336.066C452.074 338.707 452.937 341.257 454.411 343.454C455.51 345.067 456.926 346.438 458.574 347.484C460.222 348.53 462.066 349.228 463.993 349.535C466.234 350.016 468.572 349.706 470.609 348.657C471.118 348.37 471.557 347.972 471.894 347.494C472.231 347.016 472.457 346.469 472.557 345.893C472.609 345.293 472.542 344.688 472.359 344.113C472.177 343.539 471.882 343.006 471.494 342.546C471.105 342.085 470.629 341.706 470.093 341.429C469.557 341.153 468.972 340.985 468.372 340.936C467.182 340.855 465.995 341.126 464.958 341.717C463.983 342.299 463.146 343.085 462.502 344.021C461.858 344.957 461.424 346.02 461.229 347.139C460.992 348.18 460.9 349.249 460.957 350.316C460.981 351.321 461.126 352.319 461.387 353.29C461.85 355.044 462.729 356.66 463.949 358.002C464.953 359.103 466.14 360.021 467.459 360.714C468.47 361.23 469.536 361.633 470.636 361.916C472.478 362.328 473.531 362.346 473.522 362.407Z" fill="#FAFAFA"/>
<path d="M225.174 97.238H68.3806C59.2162 97.238 50.4271 100.879 43.9469 107.359C37.4667 113.839 33.8261 122.628 33.8261 131.792V187.669H-7.62939e-06L33.8261 221.495V259.481C33.8261 268.645 37.4667 277.434 43.9469 283.914C50.4271 290.395 59.2162 294.035 68.3806 294.035H225.174C234.339 294.035 243.128 290.395 249.608 283.914C256.088 277.434 259.729 268.645 259.729 259.481V131.792C259.729 122.628 256.088 113.839 249.608 107.359C243.128 100.879 234.339 97.238 225.174 97.238Z" fill="#57C4C4"/>
<path d="M161.12 103.143C160.128 105.714 161.83 108.514 163.752 110.497C165.674 112.48 167.973 114.357 168.578 117.042C169.078 119.298 168.245 121.64 168.446 123.939C168.648 126.238 169.921 128.406 170.64 130.652C171.947 134.723 171.421 139.172 170.254 143.287C169.412 146.707 167.804 149.891 165.551 152.597C164.416 153.938 163.009 155.022 161.424 155.778C159.839 156.535 158.111 156.946 156.355 156.985C155.858 157.016 155.361 156.945 154.893 156.776C154.425 156.606 153.997 156.343 153.635 156.002C153.143 155.292 152.871 154.452 152.854 153.589C150.844 135.921 150.844 118.082 152.854 100.415" fill="#263238"/>
<path d="M159.268 160.082C166.902 159.749 173.957 167.058 173.351 174.674C181.082 176.561 186.513 185.063 185.03 192.873C184.53 195.452 183.381 197.909 183.223 200.524C183.047 203.385 184.1 206.166 184.618 208.974C185.611 214.092 185.081 219.388 183.091 224.207C181.889 227.111 179.643 230.112 176.501 230.2C175.437 230.155 174.4 229.849 173.482 229.309C172.564 228.769 171.793 228.011 171.237 227.103C170.143 225.263 169.422 223.227 169.113 221.109C167.753 214.248 167.358 207.202 165.463 200.472C163.568 193.741 159.882 187.108 153.802 183.694C150.441 181.799 146.405 180.904 143.728 178.123C142.382 176.604 141.484 174.742 141.136 172.743C140.787 170.744 141.001 168.688 141.754 166.803C142.543 164.936 143.716 163.256 145.198 161.872C146.68 160.489 148.436 159.434 150.353 158.775" fill="#263238"/>
<path d="M106.427 109.435C106.34 106.171 109.349 103.652 112.385 102.415C115.421 101.178 118.8 100.765 121.502 98.9052C123.906 97.2906 125.512 94.7723 127.539 92.7629C130.042 90.2247 133.175 88.3984 136.617 87.4714C140.059 86.5444 143.686 86.5502 147.125 87.4881C150.564 88.426 153.692 90.2623 156.187 92.8085C158.681 95.3546 160.454 98.5188 161.321 101.976C162.488 106.618 161.69 112.111 158.031 115.2C153.784 118.78 147.501 117.981 142.035 116.867C136.568 115.752 130.426 114.656 125.881 117.858C123.143 119.78 121.564 122.921 119.888 125.826C118.212 128.73 116.115 131.687 112.947 132.784C109.779 133.881 105.471 131.985 105.348 128.642" fill="#263238"/>
<path d="M119.291 110.102C117.932 110.249 116.678 110.9 115.777 111.927C114.875 112.953 114.391 114.281 114.421 115.647L117.676 189.354C117.817 198.059 130.54 202.946 139.859 202.727C149.274 202.507 149.572 197.892 149.695 189.609C149.888 175.78 149.871 170.585 149.879 170.664C149.888 170.743 161.769 168.664 164.199 153.115C165.402 145.402 164.989 132.749 164.314 122.404C163.708 113.094 157.513 101.687 148.238 102.687L119.291 110.102Z" fill="#FFBE9D"/>
<path d="M161.637 132.179C161.642 132.697 161.445 133.196 161.088 133.571C160.731 133.946 160.242 134.168 159.724 134.188C159.474 134.21 159.222 134.181 158.982 134.104C158.743 134.027 158.521 133.904 158.33 133.741C158.139 133.577 157.983 133.377 157.869 133.153C157.756 132.929 157.689 132.684 157.671 132.433C157.664 131.915 157.86 131.414 158.218 131.038C158.575 130.663 159.066 130.442 159.584 130.424C159.834 130.402 160.087 130.431 160.326 130.507C160.565 130.584 160.787 130.708 160.978 130.871C161.169 131.035 161.326 131.234 161.439 131.459C161.552 131.683 161.62 131.928 161.637 132.179Z" fill="#263238"/>
<path d="M161.585 129.02C161.339 129.283 159.83 128.142 157.689 128.142C155.548 128.142 153.977 129.23 153.74 128.967C153.626 128.853 153.881 128.379 154.565 127.879C155.489 127.236 156.589 126.896 157.715 126.905C158.829 126.899 159.917 127.246 160.821 127.897C161.479 128.414 161.707 128.906 161.585 129.02Z" fill="#263238"/>
<path d="M141.061 132.179C141.066 132.697 140.869 133.196 140.512 133.571C140.155 133.946 139.665 134.168 139.148 134.188C138.897 134.21 138.645 134.181 138.406 134.104C138.167 134.027 137.945 133.904 137.754 133.741C137.563 133.577 137.406 133.377 137.293 133.153C137.18 132.929 137.112 132.684 137.095 132.433C137.087 131.915 137.284 131.414 137.641 131.038C137.999 130.663 138.489 130.442 139.008 130.424C139.258 130.402 139.51 130.431 139.75 130.507C139.989 130.584 140.211 130.708 140.402 130.871C140.593 131.035 140.749 131.234 140.863 131.459C140.976 131.683 141.043 131.928 141.061 132.179Z" fill="#263238"/>
<path d="M140.578 129.467C140.333 129.731 138.823 128.59 136.682 128.59C134.541 128.59 132.971 129.678 132.742 129.415C132.628 129.301 132.874 128.827 133.559 128.327C134.482 127.682 135.582 127.339 136.709 127.344C137.824 127.34 138.911 127.69 139.815 128.344C140.429 128.879 140.657 129.353 140.578 129.467Z" fill="#263238"/>
<path d="M148.344 145.332C148.344 145.209 149.66 144.981 151.854 144.7C152.398 144.639 152.915 144.525 153.012 144.156C153.052 143.59 152.924 143.026 152.643 142.533L151.011 138.374C148.756 132.451 147.115 127.581 147.361 127.493C147.607 127.405 149.625 132.135 151.88 138.023L153.442 142.208C153.782 142.867 153.884 143.623 153.731 144.349C153.654 144.54 153.536 144.712 153.384 144.852C153.232 144.991 153.051 145.096 152.854 145.156C152.568 145.235 152.273 145.276 151.976 145.279C149.695 145.437 148.352 145.455 148.344 145.332Z" fill="#263238"/>
<path d="M149.879 170.673C142.572 170.799 135.373 168.894 129.083 165.171C129.083 165.171 134.146 175.824 149.677 174.332L149.879 170.673Z" fill="#EB996E"/>
<path d="M147.449 150.491C147.036 149.972 146.495 149.568 145.881 149.319C145.266 149.07 144.597 148.984 143.939 149.07C143.466 149.112 143.007 149.25 142.59 149.475C142.172 149.699 141.804 150.006 141.508 150.377C141.223 150.735 141.055 151.172 141.026 151.629C140.998 152.086 141.111 152.54 141.35 152.931C141.694 153.316 142.145 153.589 142.646 153.714C143.147 153.839 143.674 153.811 144.158 153.633C145.168 153.273 146.096 152.716 146.887 151.992C147.13 151.822 147.339 151.608 147.501 151.36C147.581 151.242 147.624 151.103 147.624 150.961C147.624 150.818 147.581 150.679 147.501 150.561" fill="#EB996E"/>
<path d="M142.044 146.841C142.395 146.841 142.403 149.149 144.395 150.79C146.387 152.43 148.861 152.176 148.879 152.545C148.879 152.694 148.326 153.001 147.282 153.027C145.92 153.052 144.593 152.595 143.535 151.737C142.523 150.909 141.871 149.72 141.719 148.42C141.622 147.394 141.886 146.841 142.044 146.841Z" fill="#263238"/>
<path d="M141.456 125.712C141.245 126.3 139.104 126.028 136.595 126.335C134.085 126.642 132.049 127.335 131.716 126.808C131.567 126.563 131.918 126.01 132.734 125.448C133.823 124.748 135.058 124.305 136.344 124.153C137.63 124.001 138.934 124.144 140.157 124.571C141.113 124.983 141.579 125.44 141.456 125.712Z" fill="#263238"/>
<path d="M160.76 122.825C160.383 123.307 158.908 122.825 157.127 122.825C155.346 122.825 153.854 123.158 153.512 122.649C153.354 122.404 153.591 121.921 154.249 121.456C155.13 120.905 156.154 120.627 157.192 120.657C158.23 120.686 159.236 121.022 160.084 121.623C160.76 122.088 160.944 122.588 160.76 122.825Z" fill="#263238"/>
<path d="M108.454 161.153C110.594 161.585 112.806 161.503 114.907 160.912C117.008 160.322 118.939 159.24 120.54 157.756C122.141 156.273 123.367 154.43 124.115 152.379C124.864 150.329 125.114 148.13 124.845 145.964C124.363 142.147 122.309 138.277 123.634 134.662C125.389 129.897 132.067 128.432 133.839 123.667C134.866 120.903 133.945 117.665 135.112 114.954C136.208 112.409 138.893 110.944 141.508 109.996C144.123 109.049 146.913 108.399 149.107 106.697C151.301 104.995 152.661 101.783 151.248 99.3879C139.659 100.778 128.277 103.544 117.343 107.627C114.807 108.575 112.148 109.716 110.648 111.962C109.069 114.349 109.148 117.42 109.279 120.28C109.928 134.214 107.805 147.262 108.454 161.196" fill="#263238"/>
<path d="M104.76 156.783C104.672 156.769 104.586 156.743 104.506 156.704C104.255 156.616 104.017 156.499 103.795 156.353C102.94 155.8 102.268 155.006 101.865 154.071C101.201 152.594 101.022 150.944 101.356 149.359C101.884 147.3 102.844 145.377 104.172 143.717C105.532 141.822 107.261 139.9 108.437 137.452C109.064 136.208 109.414 134.843 109.463 133.451C109.413 131.973 109.116 130.514 108.586 129.134C107.995 127.642 107.682 126.053 107.665 124.448C107.75 122.731 108.254 121.06 109.133 119.583C110.013 118.105 111.241 116.865 112.71 115.972C114.286 115.112 116.033 114.615 117.826 114.515C119.56 114.43 121.278 114.136 122.941 113.638C124.503 113.046 125.787 111.891 126.539 110.4C127.256 108.933 127.826 107.399 128.241 105.82C128.685 104.305 129.273 102.836 129.996 101.432C131.315 98.772 133.324 96.5145 135.814 94.8953C138.011 93.5134 140.583 92.8453 143.175 92.9824C145.323 93.0935 147.368 93.9321 148.976 95.3603C150.174 96.4375 151.067 97.8116 151.564 99.344C151.887 100.303 152.01 101.319 151.924 102.327C151.906 102.678 151.847 103.026 151.748 103.363C151.748 103.363 151.81 103.003 151.836 102.319C151.878 101.326 151.729 100.334 151.397 99.3967C150.793 97.6723 149.684 96.1695 148.215 95.0835C146.746 93.9975 144.984 93.3786 143.158 93.3071C140.637 93.196 138.143 93.8639 136.015 95.2199C133.593 96.8117 131.642 99.0236 130.365 101.625C129.656 103.029 129.086 104.498 128.662 106.013C128.234 107.62 127.646 109.181 126.907 110.672C126.501 111.444 125.97 112.143 125.337 112.743C124.682 113.349 123.912 113.818 123.073 114.12C121.363 114.647 119.595 114.96 117.808 115.051C116.081 115.142 114.396 115.618 112.877 116.446C111.472 117.298 110.297 118.48 109.455 119.891C108.612 121.301 108.127 122.895 108.042 124.536C108.058 126.092 108.355 127.632 108.919 129.081C109.478 130.504 109.789 132.011 109.841 133.539C109.782 134.987 109.41 136.406 108.753 137.698C107.524 140.207 105.778 142.085 104.409 143.989C103.088 145.602 102.125 147.478 101.584 149.491C101.234 151.023 101.379 152.626 101.996 154.071C102.376 154.992 103.009 155.786 103.821 156.361C104.409 156.66 104.769 156.748 104.76 156.783Z" fill="#455A64"/>
<path d="M149.853 89.1216C150.066 89.1373 150.273 89.2003 150.458 89.3058C150.985 89.5293 151.478 89.8246 151.924 90.1833C153.453 91.3695 154.465 93.0993 154.751 95.013C155.037 96.9268 154.575 98.8771 153.459 100.458C153.135 100.93 152.752 101.357 152.319 101.731C152.003 101.994 151.81 102.108 151.792 102.082C152.287 101.521 152.753 100.935 153.187 100.327C154.176 98.7849 154.573 96.9368 154.303 95.1249C154.034 93.3131 153.117 91.6603 151.722 90.4729C151.126 89.9868 150.501 89.5356 149.853 89.1216Z" fill="#455A64"/>
<path d="M184.232 195.619C184.417 195.08 184.566 194.529 184.679 193.97C184.885 192.438 184.619 190.88 183.916 189.503C182.834 187.483 181.112 185.878 179.02 184.94C177.796 184.361 176.517 183.906 175.203 183.58C173.834 183.229 172.386 182.94 170.938 182.466C169.481 182.069 168.138 181.336 167.016 180.325C166.011 179.319 165.361 178.013 165.165 176.605C164.928 175.297 164.849 174.06 164.559 172.954C164.3 171.931 163.817 170.979 163.147 170.164C162.165 168.971 160.862 168.084 159.391 167.611C158.347 167.295 157.724 167.295 157.724 167.242C157.873 167.227 158.023 167.227 158.171 167.242C158.601 167.272 159.026 167.339 159.444 167.444C160.983 167.868 162.358 168.746 163.392 169.962C164.115 170.803 164.64 171.796 164.928 172.867C165.244 174.016 165.34 175.271 165.586 176.534C165.766 177.866 166.383 179.101 167.341 180.044C168.417 181 169.699 181.693 171.088 182.071C172.5 182.527 173.948 182.826 175.326 183.186C176.658 183.511 177.952 183.976 179.187 184.572C181.348 185.561 183.11 187.253 184.188 189.372C184.891 190.811 185.118 192.436 184.837 194.013C184.754 194.434 184.621 194.843 184.443 195.233C184.386 195.369 184.315 195.498 184.232 195.619Z" fill="#455A64"/>
<path d="M116.738 168.137C108.84 166.031 102.084 158.336 99.3287 150.675C96.5735 143.015 96.5735 134.653 97.2842 126.545C97.7931 120.675 98.8285 114.463 102.724 110.04C108.603 103.372 115.009 99.967 123.854 100.248" fill="#263238"/>
<path d="M162.629 185.248L155.302 183.405C156.101 182.856 156.683 182.045 156.949 181.113C157.215 180.181 157.147 179.186 156.759 178.298C156.295 177.16 155.527 176.171 154.54 175.439C153.553 174.708 152.384 174.261 151.16 174.148L117.764 170.375C117.18 170.297 116.587 170.417 116.08 170.716C115.572 171.015 115.18 171.476 114.965 172.024C113.485 175.791 113.435 178.892 114.816 181.325H114.658L108.217 182.606L97.3018 278.899L168.797 275.556L162.629 185.248Z" fill="#F5F5F5"/>
<path d="M152.117 183.773C151.678 183.902 151.229 183.99 150.774 184.037C149.897 184.177 148.642 184.326 147.08 184.484C138.906 185.244 130.666 184.833 122.608 183.264C121.063 182.957 119.826 182.677 118.975 182.448C118.528 182.362 118.09 182.233 117.668 182.062C118.121 182.096 118.57 182.169 119.01 182.282C119.888 182.448 121.125 182.685 122.669 182.949C130.719 184.334 138.907 184.74 147.054 184.16C148.616 184.054 149.879 183.94 150.757 183.852C151.207 183.79 151.662 183.764 152.117 183.773Z" fill="#263238"/>
<path d="M119.8 199.076C120.503 197.616 121.34 196.223 122.301 194.917C123.139 193.528 124.105 192.221 125.187 191.012C124.483 192.474 123.643 193.867 122.678 195.172C121.844 196.561 120.881 197.869 119.8 199.076Z" fill="#E0E0E0"/>
<path d="M142.842 200.708C140.612 198.418 138.605 195.921 136.849 193.25C138.018 194.344 139.081 195.546 140.025 196.839C141.087 198.035 142.03 199.331 142.842 200.708Z" fill="#E0E0E0"/>
<path d="M132.137 212.949C131.633 211.388 131.271 209.785 131.058 208.158C130.693 206.559 130.484 204.928 130.435 203.288C130.94 204.849 131.302 206.452 131.514 208.079C131.869 209.68 132.078 211.31 132.137 212.949Z" fill="#E0E0E0"/>
<path d="M149.73 213.704C148.491 215.244 147.136 216.688 145.676 218.021C144.321 219.464 142.854 220.799 141.289 222.013C142.527 220.472 143.883 219.029 145.343 217.696C146.704 216.258 148.171 214.924 149.73 213.704Z" fill="#E0E0E0"/>
<path d="M126.135 230.112C122.902 228.18 120.268 225.389 118.528 222.048C118.65 221.969 119.993 224.075 122.108 226.295C124.222 228.515 126.223 229.998 126.135 230.112Z" fill="#E0E0E0"/>
<path d="M133.716 242.783C133.716 242.914 131.716 243.555 129.399 244.792C127.083 246.029 125.389 247.328 125.302 247.214C126.406 246.031 127.725 245.07 129.189 244.38C130.581 243.56 132.118 243.017 133.716 242.783Z" fill="#E0E0E0"/>
<path d="M146.045 243.599C145.522 243.156 145.053 242.652 144.65 242.098C143.842 241.133 142.763 239.755 141.64 238.185C140.517 236.614 139.569 235.149 138.911 234.061C138.519 233.498 138.195 232.891 137.946 232.253C138.413 232.754 138.827 233.301 139.183 233.885L142.017 237.921L144.904 241.905C145.343 242.428 145.725 242.995 146.045 243.599Z" fill="#E0E0E0"/>
<path d="M147.282 254.409C145.576 255.007 143.811 255.419 142.017 255.638C140.243 256.008 138.434 256.187 136.621 256.173C138.374 255.732 140.153 255.404 141.947 255.19C143.708 254.824 145.49 254.564 147.282 254.409Z" fill="#E0E0E0"/>
<path d="M127.32 182.413C127.258 182.413 127.68 181.887 128.039 180.957C128.485 179.74 128.618 178.43 128.425 177.149C128.208 175.857 127.827 174.598 127.293 173.402C127.035 172.912 126.835 172.394 126.697 171.857C127.063 172.278 127.359 172.755 127.574 173.27C128.212 174.459 128.648 175.746 128.864 177.078C129.076 178.439 128.89 179.831 128.329 181.088C128.133 181.621 127.781 182.083 127.32 182.413Z" fill="#E0E0E0"/>
<path d="M140.675 175.201C141.3 176.062 141.748 177.04 141.99 178.076C142.233 179.113 142.266 180.188 142.087 181.237C141.956 181.237 141.938 179.842 141.543 178.184C141.149 176.526 140.578 175.271 140.675 175.201Z" fill="#E0E0E0"/>
<path d="M200.912 243.809L234.168 185.397L238.178 175.262C238.178 175.262 248.55 152.974 249.269 150.693C250.103 148.061 251.568 147.85 252.516 148.219C253.99 148.806 254.464 151 253.815 153.273C253.587 154.054 249.559 166.303 249.559 166.303C250.642 165.369 251.792 164.516 252.999 163.75C255.552 161.995 260.229 162.082 264.564 163.627C268.898 165.171 269.969 165.987 269.451 167.689C269.337 168.009 269.152 168.299 268.91 168.537C268.669 168.776 268.377 168.957 268.056 169.067C267.035 169.493 265.891 169.518 264.853 169.137C257.886 166.768 254.797 169.909 254.797 169.909L254.28 171.234C254.28 171.234 259.544 169.558 262.493 171.928C262.933 172.275 263.302 172.704 263.581 173.191C264.535 173.503 265.391 174.058 266.065 174.802C266.738 175.547 267.206 176.454 267.421 177.434C267.637 178.414 267.592 179.434 267.293 180.392C266.993 181.35 266.449 182.213 265.713 182.896C265.393 183.26 264.97 183.519 264.5 183.638C264.03 183.757 263.535 183.731 263.081 183.563C262.655 183.273 262.313 182.877 262.089 182.413C261.946 182.181 261.785 181.961 261.607 181.755L259.623 185.265C259.623 185.265 254.736 192.899 252.981 196.47L230.079 257.48C229.326 259.489 228.181 261.327 226.71 262.888C225.238 264.448 223.471 265.7 221.51 266.57C219.55 267.44 217.435 267.911 215.291 267.955C213.146 267.998 211.015 267.614 209.02 266.825C206.868 265.976 204.924 264.674 203.318 263.007C201.713 261.341 200.484 259.349 199.716 257.167C198.947 254.985 198.656 252.663 198.862 250.358C199.069 248.053 199.768 245.82 200.912 243.809Z" fill="#FFBE9D"/>
<path d="M236.458 185.195C237.634 185.967 239.258 185.441 240.311 184.528C241.363 183.615 242.065 182.361 243.083 181.369C246.04 178.412 250.98 178.131 253.815 175.034C254.209 174.604 254.56 173.946 254.218 173.472C253.876 172.998 253.244 173.086 252.718 173.191L239.108 175.885" fill="#FFBE9D"/>
<path d="M239.108 175.885C239.567 175.677 240.051 175.53 240.547 175.446C241.486 175.209 242.855 174.902 244.54 174.569L250.472 173.314L252.226 172.954C252.902 172.707 253.648 172.732 254.306 173.025C254.494 173.164 254.636 173.356 254.714 173.576C254.792 173.797 254.803 174.035 254.745 174.262C254.654 174.633 254.473 174.977 254.218 175.262C253.76 175.77 253.244 176.223 252.683 176.613C250.419 178.184 247.936 178.825 245.953 179.869C245.007 180.316 244.136 180.908 243.373 181.624C242.671 182.299 242.118 183.071 241.539 183.73C241.122 184.31 240.583 184.792 239.96 185.143C239.337 185.493 238.645 185.702 237.933 185.757C236.888 185.757 236.458 185.239 236.494 185.23C236.951 185.387 237.432 185.461 237.915 185.449C238.562 185.342 239.18 185.102 239.73 184.744C240.28 184.386 240.749 183.918 241.109 183.37C241.671 182.603 242.271 181.865 242.908 181.159C243.703 180.37 244.618 179.713 245.619 179.211C247.664 178.105 250.138 177.456 252.226 175.964C252.73 175.607 253.194 175.198 253.613 174.744C253.999 174.314 254.131 173.797 253.859 173.648C253.587 173.498 252.981 173.569 252.376 173.691L250.621 174.016L244.654 175.113C242.952 175.411 241.574 175.639 240.618 175.78C240.123 175.894 239.614 175.929 239.108 175.885Z" fill="#EB996E"/>
<path d="M254.095 171.252C254.444 170.438 254.979 169.716 255.657 169.146C256.417 168.577 257.34 168.269 258.29 168.269C259.483 168.276 260.667 168.471 261.8 168.848C262.956 169.238 264.15 169.509 265.362 169.655C266.379 169.772 267.409 169.614 268.345 169.199C268.667 169.05 268.95 168.829 269.171 168.551C269.392 168.274 269.545 167.949 269.618 167.602C269.684 167.358 269.684 167.1 269.618 166.856C269.565 166.856 269.565 167.119 269.433 167.558C269.337 167.854 269.177 168.125 268.965 168.352C268.753 168.579 268.493 168.758 268.205 168.874C267.312 169.206 266.351 169.315 265.406 169.19C264.229 169.005 263.072 168.711 261.949 168.313C260.777 167.927 259.55 167.737 258.316 167.751C257.28 167.775 256.282 168.146 255.482 168.804C254.951 169.246 254.543 169.817 254.297 170.462C254.078 170.98 254.06 171.243 254.095 171.252Z" fill="#EB996E"/>
<path d="M254.052 152.395C253.707 153.18 253.431 153.994 253.227 154.826C252.709 156.511 252.095 158.511 251.41 160.723C250.726 162.934 250.05 164.917 249.506 166.593C249.189 167.388 248.945 168.21 248.778 169.05C249.214 168.31 249.573 167.528 249.849 166.716C250.428 165.241 251.165 163.206 251.902 160.88C252.639 158.555 253.209 156.493 253.578 154.922C253.824 154.099 253.983 153.252 254.052 152.395Z" fill="#EB996E"/>
<path d="M255.973 174.92C256.241 174.958 256.513 174.958 256.78 174.92C257.117 174.862 257.462 174.878 257.792 174.966C258.122 175.054 258.43 175.211 258.693 175.429C258.846 175.59 258.954 175.787 259.008 176.003C259.062 176.218 259.059 176.443 259 176.657C258.859 177.196 258.649 177.715 258.377 178.202C258.026 178.812 257.91 179.53 258.053 180.22C258.173 180.585 258.376 180.918 258.647 181.19C258.919 181.463 259.25 181.668 259.615 181.79C259.975 181.904 260.354 181.944 260.73 181.906C261.105 181.868 261.469 181.754 261.8 181.571C262.414 181.257 262.919 180.765 263.247 180.158C263.722 179.158 264.047 178.094 264.213 176.999C264.341 176.265 264.341 175.514 264.213 174.779C264.185 174.504 264.078 174.241 263.905 174.025C263.862 174.025 263.976 174.306 264.02 174.806C264.057 175.522 263.995 176.239 263.835 176.938C263.627 177.975 263.285 178.981 262.817 179.93C262.532 180.464 262.077 180.889 261.525 181.138C260.973 181.388 260.353 181.447 259.764 181.308C259.475 181.214 259.212 181.055 258.995 180.841C258.779 180.628 258.615 180.367 258.518 180.079C258.403 179.506 258.5 178.911 258.79 178.403C259.063 177.872 259.269 177.309 259.404 176.727C259.463 176.449 259.449 176.16 259.365 175.888C259.281 175.616 259.128 175.37 258.921 175.174C258.616 174.933 258.259 174.766 257.879 174.687C257.498 174.607 257.104 174.618 256.728 174.718C256.467 174.744 256.212 174.812 255.973 174.92Z" fill="#EB996E"/>
<path d="M261.712 181.062C261.712 181.062 261.545 181.29 261.563 181.782C261.587 182.126 261.692 182.461 261.869 182.758C262.046 183.055 262.289 183.306 262.581 183.493C263.03 183.751 263.54 183.887 264.059 183.887C264.578 183.887 265.088 183.751 265.538 183.493C266.62 182.869 267.419 181.85 267.766 180.65C268.148 179.475 268.148 178.209 267.766 177.035C267.455 176.085 266.894 175.236 266.143 174.578C265.648 174.134 265.073 173.789 264.45 173.56C264.228 173.453 263.985 173.399 263.739 173.402C264.521 173.78 265.247 174.265 265.897 174.841C266.633 175.559 267.154 176.469 267.399 177.468C267.644 178.467 267.604 179.514 267.284 180.492C266.97 181.57 266.266 182.493 265.309 183.08C264.927 183.305 264.494 183.429 264.051 183.441C263.607 183.453 263.168 183.353 262.774 183.15C262.512 182.998 262.286 182.791 262.111 182.545C261.935 182.298 261.814 182.017 261.756 181.72C261.668 181.334 261.756 181.062 261.712 181.062Z" fill="#EB996E"/>
<path d="M250.638 186.573C250.291 186.338 249.882 186.213 249.462 186.213C248.392 186.108 247.317 186.365 246.409 186.941L246.786 187.196C246.905 186.616 246.987 186.03 247.032 185.441C247.339 182.054 246.26 179.439 246.154 179.509C246.492 181.452 246.618 183.426 246.532 185.397C246.489 185.959 246.416 186.518 246.312 187.073L246.207 187.643L246.69 187.318C247.512 186.782 248.472 186.495 249.454 186.494C250.182 186.511 250.621 186.634 250.638 186.573Z" fill="#EB996E"/>
<path d="M257.561 165.759C257.421 165.759 257.614 166.812 258.544 167.619C259.474 168.427 260.518 168.497 260.518 168.348C260.518 168.198 259.685 167.944 258.886 167.233C258.088 166.523 257.702 165.706 257.561 165.759Z" fill="#EB996E"/>
<path d="M153.74 292.28L188.531 292.623L182.696 267.378L184.653 272.143C186.457 276.542 189.528 280.305 193.477 282.953C197.425 285.602 202.072 287.016 206.827 287.016C217.83 287.016 225.438 278.829 230.088 268.861C240.969 245.555 251.454 208.026 251.454 208.026L230.246 189.389C214.89 218.433 200.465 243.651 200.465 243.651C200.465 243.651 196.297 230.99 193.077 219.688C189.856 208.386 189.883 202.454 184.943 196.821C177.335 188.152 166.516 186.002 156.443 183.405L156.065 230.296L153.74 292.28Z" fill="#144A6C"/>
<path d="M113.93 257.401L177.282 269.686L180.362 294.026H83.2273C80.5683 294.059 77.9318 293.537 75.4859 292.494C73.0401 291.45 70.8386 289.908 69.0222 287.966C67.2057 286.024 65.814 283.725 64.9361 281.215C64.0581 278.705 63.7131 276.039 63.9231 273.388C65.3183 255.646 66.8363 233.797 67.9945 224.558C68.872 217.354 71.7676 209.904 75.1634 203.499C80.0684 194.268 96.4155 182.44 110.744 181.825L113.456 242.168" fill="#144A6C"/>
<g opacity="0.4">
<path opacity="0.4" d="M153.74 292.28L188.531 292.623L182.696 267.378L184.653 272.143C186.457 276.542 189.528 280.305 193.477 282.953C197.425 285.602 202.072 287.016 206.827 287.016C217.83 287.016 225.438 278.829 230.088 268.861C240.969 245.555 251.454 208.026 251.454 208.026L230.246 189.389C214.89 218.433 200.465 243.651 200.465 243.651C200.465 243.651 196.297 230.99 193.077 219.688C189.856 208.386 189.883 202.454 184.943 196.821C177.335 188.152 166.516 186.002 156.443 183.405L156.065 230.296L153.74 292.28Z" fill="black"/>
<path opacity="0.4" d="M113.93 257.401L171.07 267.878C172.234 268.094 173.308 268.65 174.157 269.476C175.005 270.302 175.589 271.361 175.835 272.52L180.362 294.079H83.2273C80.5683 294.112 77.9318 293.59 75.4859 292.546C73.0401 291.503 70.8386 289.961 69.0222 288.019C67.2057 286.077 65.814 283.777 64.9361 281.267C64.0581 278.757 63.7131 276.092 63.9231 273.441C65.3183 255.699 66.8363 233.85 67.9945 224.61C68.872 217.406 71.7676 209.957 75.1634 203.551C80.0684 194.32 96.4155 182.492 110.744 181.878L113.456 242.221" fill="black"/>
</g>
<path d="M101.865 255.594C101.842 255.401 101.842 255.207 101.865 255.014C101.865 254.584 101.865 254.032 101.865 253.356C101.865 251.856 101.865 249.785 101.865 247.214C101.865 242.063 101.768 234.929 101.373 227.094C101.171 223.163 100.917 219.425 100.645 216.038C100.518 213.031 100.091 210.045 99.3726 207.123C98.8707 205.172 97.9146 203.368 96.5822 201.858C96.0663 201.331 95.5214 200.833 94.9502 200.366C95.6201 200.711 96.228 201.164 96.749 201.709C98.1695 203.208 99.1921 205.039 99.7236 207.035C100.49 209.98 100.949 212.997 101.092 216.038C101.391 219.433 101.654 223.171 101.856 227.102C102.259 235 102.303 242.098 102.216 247.284C102.163 249.864 102.093 251.952 102.031 253.426L101.935 255.085C101.931 255.256 101.908 255.427 101.865 255.594Z" fill="#263238"/>
<path d="M176.054 271.44C175.386 270.702 174.607 270.072 173.746 269.571C172.722 269.014 171.635 268.581 170.508 268.282C169.201 267.904 167.665 267.615 165.972 267.273C159.198 265.886 149.853 263.964 139.499 262.008C129.145 260.051 119.721 258.498 112.903 257.41L104.822 256.12L102.628 255.751C102.37 255.72 102.114 255.667 101.865 255.594C102.123 255.595 102.382 255.618 102.637 255.664L104.848 255.944C106.761 256.199 109.534 256.585 112.947 257.094C119.782 258.112 129.215 259.621 139.578 261.56C149.941 263.499 159.286 265.465 166.033 266.922C167.727 267.29 169.262 267.606 170.579 268.01C171.718 268.332 172.812 268.798 173.834 269.396C174.491 269.767 175.083 270.241 175.589 270.8C175.724 270.939 175.847 271.088 175.957 271.247C176.019 271.353 176.063 271.44 176.054 271.44Z" fill="#263238"/>
<path d="M102.058 255.594C102.058 255.672 100.891 255.944 99.083 256.682C98.0277 257.118 97.0019 257.622 96.0119 258.191C94.8148 258.904 93.6737 259.708 92.5986 260.595C91.553 261.501 90.579 262.487 89.6854 263.543C88.9501 264.414 88.2758 265.335 87.6672 266.299C86.6318 267.957 86.158 269.08 86.079 269.045C86.1336 268.762 86.225 268.488 86.351 268.229C86.65 267.508 86.9958 266.807 87.3864 266.132C87.9723 265.13 88.6322 264.174 89.3607 263.271C91.162 261.062 93.3652 259.213 95.8539 257.822C96.8621 257.253 97.9157 256.769 99.004 256.374C99.736 256.101 100.487 255.881 101.25 255.716C101.512 255.638 101.784 255.596 102.058 255.594Z" fill="#263238"/>
<path d="M183.863 270.756C183.803 270.558 183.759 270.356 183.732 270.151C183.662 269.712 183.565 269.133 183.451 268.396C183.205 266.878 182.881 264.684 182.512 261.964C181.775 256.533 180.88 249.004 180.125 240.668C179.371 232.332 178.923 224.768 178.678 219.284C178.555 216.547 178.485 214.327 178.449 212.791C178.449 212.06 178.449 211.475 178.449 211.036C178.43 210.832 178.43 210.626 178.449 210.422C178.497 210.623 178.52 210.829 178.52 211.036L178.634 212.791C178.73 214.37 178.853 216.573 179.011 219.267C179.336 224.742 179.845 232.297 180.59 240.624C181.336 248.951 182.187 256.48 182.846 261.92C183.17 264.605 183.442 266.79 183.635 268.369C183.714 269.098 183.784 269.677 183.837 270.124C183.873 270.333 183.881 270.545 183.863 270.756Z" fill="#263238"/>
<path d="M204.87 261.324C204.87 261.324 204.668 261.13 204.361 260.744C203.936 260.184 203.546 259.598 203.194 258.989C200.839 254.97 199.754 250.334 200.079 245.687C200.123 244.988 200.217 244.293 200.36 243.608C200.391 243.351 200.456 243.101 200.553 242.862C200.632 242.862 200.465 243.95 200.404 245.705C200.257 250.285 201.316 254.824 203.475 258.867C204.299 260.385 204.94 261.271 204.87 261.324Z" fill="#263238"/>
<path d="M101.61 222.987C101.61 222.987 101.496 223.031 101.285 223.057C100.969 223.108 100.649 223.141 100.329 223.154C99.152 223.203 97.9733 223.109 96.8192 222.873C95.1049 222.529 93.4314 222.005 91.8264 221.311C90.01 220.557 88.0796 219.556 86.0615 218.582C84.1722 217.634 82.2161 216.824 80.2088 216.161C78.5799 215.614 76.8869 215.28 75.1722 215.169C73.5838 215.117 71.9965 215.298 70.4602 215.704C70.5545 215.642 70.6582 215.594 70.7673 215.564C71.0516 215.44 71.3449 215.337 71.6448 215.257C72.7885 214.95 73.9712 214.814 75.1546 214.853C76.9065 214.908 78.6426 215.203 80.3141 215.731C82.3473 216.385 84.325 217.2 86.2282 218.17C88.2551 219.17 90.168 220.153 91.958 220.916C93.5338 221.617 95.1735 222.163 96.8543 222.548C98.4187 222.868 100.014 223.015 101.61 222.987Z" fill="#FAFAFA"/>
<path d="M112.499 220.855C110.814 221.368 109.088 221.738 107.34 221.961C105.608 222.338 103.846 222.558 102.075 222.619C103.761 222.106 105.487 221.736 107.235 221.513C108.966 221.136 110.728 220.915 112.499 220.855Z" fill="#FAFAFA"/>
<path d="M101.215 239.685C100.811 239.913 100.385 240.098 99.9429 240.238C99.1093 240.563 97.8897 241.001 96.3716 241.493C92.4021 242.766 88.3506 243.769 84.2451 244.494C81.8409 244.915 79.5332 245.222 77.4272 245.433C75.5595 245.674 73.6719 245.724 71.7939 245.582C70.5201 245.479 69.2793 245.124 68.1437 244.538C67.8349 244.377 67.5413 244.189 67.2662 243.976C67.165 243.907 67.0735 243.824 66.9942 243.73C66.9942 243.73 67.4154 244.002 68.2139 244.38C69.3512 244.893 70.5741 245.191 71.8203 245.257C73.6753 245.353 75.5353 245.271 77.3746 245.011C79.4717 244.774 81.7619 244.459 84.1574 244.037C88.2436 243.313 92.2862 242.361 96.2664 241.186C97.7931 240.729 99.0216 240.308 99.8727 240.071C100.31 239.91 100.759 239.781 101.215 239.685Z" fill="#FAFAFA"/>
<path d="M112.21 244.31C110.629 244.561 109.028 244.664 107.428 244.617C105.832 244.717 104.231 244.667 102.646 244.468C104.227 244.216 105.828 244.114 107.428 244.16C109.023 244.06 110.624 244.11 112.21 244.31Z" fill="#FAFAFA"/>
<path d="M67.0557 284.287C67.0658 284.125 67.0983 283.966 67.1522 283.813C67.2399 283.462 67.3628 283.032 67.5032 282.497L67.7664 281.549C67.8805 281.207 68.0296 280.847 68.17 280.452C68.4856 279.556 68.8488 278.677 69.2581 277.82L69.9688 276.319C70.2233 275.793 70.5479 275.284 70.8463 274.74C71.5081 273.589 72.2285 272.473 73.0048 271.397C76.5896 266.441 81.2635 262.373 86.6669 259.507C87.8421 258.886 89.0487 258.327 90.2821 257.831C90.87 257.612 91.414 257.357 91.9668 257.182L93.555 256.682C94.4649 256.392 95.3907 256.154 96.3278 255.971C96.7402 255.883 97.1175 255.787 97.4685 255.725L98.4512 255.594L99.8025 255.427C99.9596 255.404 100.119 255.404 100.276 255.427C100.127 255.484 99.9705 255.522 99.8113 255.541L98.4776 255.795L97.5124 255.962L96.3804 256.243C95.5732 256.462 94.6255 256.647 93.6515 257.015L92.0896 257.542C91.5456 257.726 91.0016 257.98 90.4312 258.208C89.216 258.713 88.027 259.278 86.8687 259.902C84.2301 261.361 81.7459 263.084 79.4542 265.044C77.1905 267.041 75.1328 269.261 73.312 271.669C72.5222 272.809 71.7413 273.88 71.1446 274.959C70.8375 275.494 70.5128 275.995 70.2672 276.512L69.5301 277.986C69.0299 278.917 68.7228 279.812 68.3894 280.619C68.2402 281.005 68.0823 281.365 67.9594 281.698L67.6523 282.628L67.2224 283.918C67.1804 284.047 67.1245 284.17 67.0557 284.287Z" fill="#FAFAFA"/>
<path d="M111.06 257.331C109.593 258.606 108.373 260.141 107.463 261.859C106.506 263.737 105.826 265.744 105.445 267.817C104.991 270.367 104.698 272.943 104.567 275.53C104.458 278.136 104.165 280.731 103.69 283.295C103.26 285.397 102.517 287.423 101.487 289.306C100.799 290.567 99.9101 291.708 98.8549 292.684C98.5674 292.951 98.2594 293.194 97.9335 293.412C97.7142 293.561 97.5913 293.64 97.5825 293.623C99.0768 292.376 100.321 290.858 101.25 289.148C102.223 287.281 102.92 285.283 103.321 283.216C103.788 280.668 104.081 278.091 104.199 275.503C104.313 272.895 104.606 270.297 105.076 267.729C105.485 265.627 106.206 263.598 107.217 261.71C107.907 260.436 108.795 259.281 109.849 258.287C110.126 258.023 110.419 257.777 110.727 257.55C110.828 257.463 110.94 257.39 111.06 257.331Z" fill="#FAFAFA"/>
<path d="M126.039 294.176C125.916 294.176 126.039 286.612 126.363 277.293C126.688 267.975 127.021 260.42 127.144 260.42C127.267 260.42 127.144 267.983 126.82 277.311C126.495 286.638 126.161 294.184 126.039 294.176Z" fill="#FAFAFA"/>
<path d="M149.853 292.877C149.688 292.525 149.558 292.158 149.467 291.78C149.325 291.348 149.204 290.908 149.107 290.464C148.993 289.946 148.835 289.358 148.739 288.709C148.466 287.161 148.31 285.595 148.274 284.023C148.187 280.162 148.781 276.316 150.028 272.66C150.537 271.171 151.156 269.722 151.88 268.326C152.169 267.72 152.494 267.211 152.757 266.755C152.98 266.358 153.226 265.974 153.494 265.605C153.69 265.27 153.923 264.959 154.188 264.675C154.267 264.719 153.31 266.079 152.161 268.475C151.479 269.872 150.892 271.315 150.406 272.792C149.204 276.41 148.611 280.202 148.651 284.015C148.671 285.568 148.791 287.118 149.011 288.656C149.449 291.271 149.941 292.851 149.853 292.877Z" fill="#FAFAFA"/>
<path d="M109.411 195.9C109.411 195.97 108.024 195.365 105.743 194.628C99.8007 192.709 93.5032 192.151 87.3162 192.996C84.9471 193.32 83.4993 193.689 83.4817 193.61C83.7963 193.458 84.1298 193.349 84.4733 193.285C85.3913 193.031 86.3229 192.829 87.2636 192.68C93.4975 191.644 99.8923 192.208 105.848 194.32C106.743 194.636 107.622 194.996 108.481 195.4C108.81 195.528 109.122 195.696 109.411 195.9Z" fill="#FAFAFA"/>
<path d="M178.73 232.832C177.645 232.889 176.558 232.871 175.475 232.78C173.465 232.701 170.693 232.595 167.63 232.525C164.568 232.455 161.795 232.411 159.786 232.393C158.699 232.428 157.612 232.39 156.53 232.279C156.818 232.211 157.112 232.176 157.408 232.174C157.969 232.174 158.786 232.095 159.795 232.069C161.804 232.007 164.577 231.99 167.648 232.069C170.719 232.148 173.492 232.306 175.545 232.472C176.545 232.551 177.353 232.622 177.914 232.692C178.19 232.709 178.464 232.756 178.73 232.832Z" fill="#FAFAFA"/>
<path d="M196.051 229.507C196.051 229.586 194.955 229.963 193.243 230.805C188.768 233.007 184.976 236.386 182.275 240.58C181.24 242.186 180.74 243.256 180.669 243.213C180.718 242.935 180.813 242.669 180.95 242.423C181.258 241.725 181.609 241.048 182.003 240.396C183.29 238.226 184.907 236.27 186.794 234.596C188.677 232.917 190.804 231.535 193.103 230.498C193.797 230.186 194.509 229.916 195.235 229.691C195.498 229.594 195.772 229.532 196.051 229.507Z" fill="#FAFAFA"/>
<path d="M187.505 201.384C185.994 201.332 184.486 201.543 183.047 202.007C181.495 202.549 179.989 203.218 178.546 204.008C176.765 204.995 174.904 205.832 172.983 206.508C169.432 207.646 165.656 207.89 161.988 207.219C160.886 207.019 159.803 206.726 158.75 206.342C158.357 206.218 157.977 206.054 157.619 205.85C157.619 205.763 159.268 206.456 162.006 206.903C165.622 207.468 169.32 207.182 172.807 206.07C174.706 205.398 176.551 204.582 178.327 203.63C179.795 202.851 181.331 202.205 182.916 201.7C183.993 201.358 185.12 201.195 186.25 201.217C186.544 201.226 186.837 201.255 187.128 201.305C187.4 201.34 187.514 201.366 187.505 201.384Z" fill="#FAFAFA"/>
<path d="M183.126 260.191C182.808 260.394 182.466 260.556 182.108 260.674C181.775 260.814 181.363 260.981 180.871 261.139C180.38 261.297 179.827 261.508 179.204 261.666C177.735 262.075 176.24 262.386 174.729 262.596C172.879 262.835 171.013 262.932 169.148 262.885C167.284 262.816 165.427 262.608 163.594 262.262C162.106 261.962 160.64 261.56 159.207 261.06C158.584 260.867 158.048 260.63 157.575 260.437C157.101 260.244 156.697 260.06 156.364 259.902C156.015 259.757 155.682 259.574 155.372 259.358C155.372 259.279 156.855 259.981 159.312 260.753C160.751 261.206 162.216 261.569 163.699 261.841C167.329 262.513 171.039 262.625 174.703 262.175C176.198 261.991 177.681 261.715 179.143 261.35C181.617 260.718 183.1 260.112 183.126 260.191Z" fill="#FAFAFA"/>
<path d="M203.29 286.164C203.165 286.085 203.05 285.991 202.948 285.884C202.746 285.682 202.413 285.41 202.071 285.006C201.011 283.873 200.081 282.625 199.298 281.286C196.766 276.799 195.419 271.74 195.384 266.588C195.39 261.472 196.06 256.378 197.376 251.434C197.85 249.539 198.254 248.012 198.578 246.968C198.728 246.485 198.85 246.091 198.947 245.766C199.043 245.441 199.087 245.345 199.105 245.354C199.103 245.5 199.079 245.645 199.035 245.784C198.965 246.117 198.868 246.521 198.754 247.012C198.491 248.144 198.131 249.644 197.692 251.513C196.481 256.441 195.865 261.496 195.858 266.571C195.887 271.64 197.155 276.626 199.552 281.093C200.304 282.431 201.186 283.692 202.185 284.857C202.878 285.699 203.317 286.129 203.29 286.164Z" fill="#FAFAFA"/>
<path d="M235.221 256.366C233.819 255.254 232.253 254.366 230.579 253.733C228.748 253.1 226.871 252.61 224.964 252.268C222.595 251.869 220.251 251.332 217.944 250.662C213.778 249.308 209.976 247.021 206.827 243.976C205.877 243.057 204.997 242.069 204.194 241.019C203.905 240.65 203.712 240.343 203.571 240.142C203.431 239.94 203.369 239.826 203.387 239.817C203.726 240.159 204.043 240.522 204.335 240.905C205.177 241.907 206.082 242.854 207.046 243.739C210.209 246.674 213.973 248.887 218.076 250.224C220.359 250.89 222.676 251.434 225.016 251.856C226.94 252.225 228.829 252.75 230.667 253.426C231.909 253.896 233.074 254.546 234.124 255.357C234.411 255.572 234.681 255.81 234.932 256.068C235.151 256.261 235.239 256.357 235.221 256.366Z" fill="#FAFAFA"/>
<path d="M245.259 227.085C244.921 226.843 244.607 226.57 244.321 226.269C244.031 225.997 243.68 225.663 243.241 225.295C242.803 224.926 242.364 224.488 241.767 224.066C240.471 223.021 239.111 222.057 237.696 221.179C234.224 219.032 230.45 217.417 226.499 216.389C224.885 215.973 223.247 215.654 221.594 215.432C220.892 215.318 220.252 215.274 219.69 215.221C219.129 215.169 218.637 215.125 218.242 215.107C217.827 215.106 217.413 215.067 217.005 214.993C217.414 214.93 217.829 214.909 218.242 214.932C218.73 214.907 219.22 214.907 219.708 214.932C220.269 214.932 220.927 214.976 221.638 215.072C223.308 215.255 224.964 215.548 226.596 215.95C228.595 216.462 230.554 217.119 232.457 217.915C234.345 218.738 236.169 219.7 237.915 220.793C239.334 221.699 240.692 222.699 241.978 223.786C242.539 224.233 242.996 224.663 243.417 225.084C243.777 225.411 244.119 225.757 244.443 226.12C244.749 226.411 245.023 226.735 245.259 227.085Z" fill="#FAFAFA"/>
<path d="M168.482 186.809C167.966 187.153 167.405 187.422 166.814 187.608C165.43 188.151 164.008 188.591 162.559 188.924C161.115 189.264 159.649 189.499 158.171 189.626C157.561 189.719 156.939 189.719 156.329 189.626C156.329 189.486 159.11 189.258 162.471 188.459C165.832 187.661 168.429 186.678 168.482 186.809Z" fill="#FAFAFA"/>
<path d="M199.605 310.391C199.719 310.783 199.733 311.196 199.646 311.595C199.559 311.993 199.373 312.363 199.106 312.671C198.839 312.979 198.499 313.216 198.117 313.358C197.735 313.501 197.324 313.546 196.92 313.489C196.452 313.422 196.014 313.221 195.658 312.909C195.303 312.598 195.046 312.189 194.919 311.734L194.174 308.978H194.288C194.364 309.376 194.344 309.787 194.23 310.175C194.116 310.564 193.912 310.92 193.633 311.214C193.355 311.508 193.01 311.732 192.628 311.866C192.246 312.001 191.837 312.043 191.436 311.988C190.286 311.988 189.295 310.312 188.961 309.426C188.094 309.51 187.22 309.355 186.434 308.978C185.648 308.6 184.981 308.015 184.504 307.285L179.353 299.247L169.815 292.272L175.589 271.66L196.113 284.945C196.92 285.577 197.043 285.822 198.324 287.024L211.574 299.212C210.073 300.09 208.801 300.046 206.712 299.212C204.624 298.379 195.481 292.193 195.481 292.193L199.605 310.312" fill="#FFBE9D"/>
<path d="M182.047 293.438C182.047 293.438 182.284 293.544 182.652 293.798L183.337 294.272C183.662 294.476 183.957 294.724 184.214 295.009C184.518 295.358 184.756 295.76 184.916 296.194C185.074 296.659 185.241 297.133 185.416 297.633L186.54 300.932C187.321 303.284 188.005 305.407 188.479 306.96C188.779 307.784 189.005 308.632 189.154 309.496C188.756 308.713 188.427 307.897 188.172 307.057C187.619 305.53 186.882 303.424 186.101 301.081C185.724 299.914 185.355 298.8 185.013 297.773C184.855 297.264 184.706 296.782 184.557 296.325C184.425 295.923 184.226 295.546 183.969 295.211C183.747 294.937 183.493 294.69 183.214 294.474L182.582 293.939C182.205 293.64 182.029 293.465 182.047 293.438Z" fill="#EB996E"/>
<path d="M194.393 309.452C194.262 309.172 194.165 308.878 194.103 308.575L193.445 306.223C192.884 304.24 192.138 301.494 191.181 298.501C190.225 295.509 189.225 292.842 188.023 291.192C187.574 290.533 187.006 289.965 186.347 289.516C185.864 289.218 185.557 289.13 185.566 289.078C185.647 289.076 185.727 289.091 185.803 289.121C186.021 289.177 186.233 289.257 186.434 289.358C187.163 289.765 187.795 290.325 188.286 290.999C189.593 292.666 190.646 295.386 191.611 298.361C192.577 301.336 193.279 304.135 193.752 306.144C193.989 307.144 194.165 307.961 194.279 308.531C194.363 308.83 194.402 309.141 194.393 309.452Z" fill="#EB996E"/>
<path d="M199.693 310.698C199.534 310.408 199.414 310.098 199.333 309.777C199.114 309.075 198.842 308.224 198.517 307.215C197.85 305.047 196.964 302.046 196.007 298.73C195.051 295.413 194.253 292.5 193.594 290.218C193.368 289.373 192.876 288.622 192.191 288.077C191.913 287.898 191.619 287.746 191.313 287.621C191.4 287.6 191.49 287.6 191.576 287.621C191.822 287.676 192.057 287.774 192.269 287.911C193.036 288.437 193.602 289.207 193.875 290.095C194.595 292.263 195.446 295.264 196.42 298.58C197.394 301.897 198.219 304.925 198.807 307.109C199.07 308.127 199.298 308.996 199.473 309.742C199.58 310.052 199.653 310.373 199.693 310.698Z" fill="#EB996E"/>
<path d="M324.38 120.42C324.38 121.028 324.56 121.622 324.898 122.127C325.235 122.632 325.715 123.025 326.276 123.258C326.837 123.49 327.455 123.551 328.05 123.433C328.646 123.314 329.193 123.022 329.623 122.592C330.052 122.163 330.345 121.615 330.463 121.02C330.582 120.424 330.521 119.806 330.289 119.245C330.056 118.684 329.663 118.204 329.157 117.867C328.652 117.529 328.059 117.349 327.451 117.349C326.637 117.349 325.856 117.673 325.28 118.249C324.704 118.825 324.38 119.606 324.38 120.42Z" fill="#455A64"/>
<path d="M315.158 123.492C316.854 123.492 318.229 122.117 318.229 120.42C318.229 118.724 316.854 117.349 315.158 117.349C313.462 117.349 312.087 118.724 312.087 120.42C312.087 122.117 313.462 123.492 315.158 123.492Z" fill="#455A64"/>
<path d="M299.829 118.885C299.525 119.411 299.384 120.015 299.423 120.622C299.463 121.228 299.681 121.809 300.051 122.291C300.42 122.773 300.925 123.134 301.5 123.33C302.075 123.525 302.695 123.545 303.282 123.388C303.869 123.231 304.396 122.904 304.797 122.447C305.197 121.99 305.453 121.425 305.533 120.823C305.612 120.22 305.511 119.608 305.242 119.063C304.973 118.518 304.549 118.066 304.023 117.762C303.674 117.559 303.289 117.427 302.889 117.374C302.489 117.321 302.082 117.347 301.692 117.452C301.303 117.556 300.937 117.736 300.618 117.982C300.298 118.228 300.03 118.535 299.829 118.885Z" fill="#455A64"/>
<path d="M314.965 84.5411C314.761 84.5257 314.555 84.5257 314.351 84.5411L312.526 84.5938C312.122 84.5938 311.648 84.5938 311.174 84.6552L309.569 84.8833L307.691 85.1553L305.585 85.673C301.978 86.5686 298.542 88.0508 295.415 90.0604C290.791 93.005 286.9 96.9675 284.041 101.645C281.182 106.323 279.43 111.593 278.919 117.051C278.781 118.688 278.749 120.332 278.822 121.974C278.884 122.798 278.866 123.65 278.989 124.483C279.112 125.317 279.244 126.168 279.366 127.019C280.009 130.506 281.162 133.88 282.788 137.031C284.52 140.332 286.722 143.365 289.326 146.034C292.099 148.761 295.278 151.043 298.75 152.799C302.341 154.637 306.23 155.825 310.235 156.309C311.25 156.46 312.273 156.545 313.298 156.563C314.328 156.641 315.362 156.661 316.395 156.625C318.478 156.539 320.551 156.277 322.59 155.844C326.993 154.89 331.179 153.125 334.936 150.64L334.568 150.684L347.142 155.73L347.887 156.028L347.677 155.256L343.974 141.813L343.912 142.138C347.326 137.618 349.625 132.357 350.625 126.782C351.106 124.179 351.271 121.528 351.116 118.885C351.087 117.617 350.966 116.354 350.757 115.103C350.663 114.483 350.567 113.869 350.467 113.26C350.362 112.655 350.178 112.067 350.028 111.506C347.922 103.239 342.946 95.9895 335.989 91.0519C333.422 89.214 330.614 87.7378 327.644 86.6646L325.758 85.9889L324.003 85.5326L322.371 85.129C321.844 85.0325 321.335 84.9798 320.862 84.9009C319.914 84.7868 319.107 84.6201 318.343 84.585L316.501 84.5236H315.369C315.24 84.5141 315.111 84.5141 314.983 84.5236C315.107 84.5633 315.238 84.5811 315.369 84.5762L316.492 84.6727L318.326 84.7956C319.054 84.8482 319.879 85.0325 320.826 85.1729C327.652 86.3588 333.987 89.5006 339.062 94.2171C344.136 98.9335 347.733 105.022 349.414 111.742C349.546 112.322 349.73 112.901 349.835 113.497C349.941 114.094 350.011 114.691 350.107 115.305C350.308 116.532 350.42 117.773 350.441 119.017C350.579 121.599 350.408 124.188 349.932 126.729C348.913 132.182 346.632 137.321 343.272 141.734L343.158 141.883L343.211 142.068C344.38 146.408 345.603 150.892 346.878 155.519L347.414 155.045L334.84 149.982L334.646 149.903L334.462 150.017C329.069 153.59 322.798 155.612 316.334 155.861C315.325 155.896 314.314 155.879 313.307 155.809C312.305 155.79 311.305 155.705 310.314 155.554C306.398 155.08 302.596 153.919 299.083 152.123C295.687 150.405 292.574 148.177 289.852 145.516C287.3 142.916 285.136 139.96 283.429 136.741C281.845 133.649 280.721 130.341 280.095 126.923C279.963 126.045 279.831 125.264 279.709 124.439C279.586 123.614 279.603 122.79 279.542 121.974C279.46 120.365 279.483 118.753 279.612 117.148C280.09 111.775 281.785 106.581 284.569 101.961C287.353 97.3409 291.152 93.4151 295.678 90.4815C298.751 88.449 302.132 86.926 305.69 85.9714L307.761 85.4186L309.621 85.1115L311.218 84.8482C311.71 84.7956 312.157 84.778 312.552 84.7517L314.368 84.6201C314.569 84.6147 314.769 84.5883 314.965 84.5411Z" fill="#455A64"/>
</svg>
